M48
;Layer_Color=9474304
;FILE_FORMAT=2:5
INCH,LZ
;TYPE=PLATED
T1F00S00C0.01181
T2F00S00C0.01200
T3F00S00C0.01968
T4F00S00C0.02362
T5F00S00C0.03150
T6F00S00C0.03543
%
T01
X001416Y000556
Y000866
X001686Y001016
Y000706
Y000396
X000716Y002056
Y0023517
X003386Y002406
X003696
X004006
X004576
X004976
X0043055Y0029978
X0066433Y003326
X0062953Y0038819
X0060282Y003994
X0056913Y0052502
X0058749Y006
X0064643Y0071468
X007376Y005326
X007736
X007689Y0044189
X007689Y0040646
Y0037103
Y0033559
X0070602Y0026177
X007176Y001986
Y001714
X0060287Y0019006
X006586Y000516
X006896
X006746Y000326
X006436
X007056
X007366
X006996Y004816
X00322Y00553
X0029442Y0057641
X002316Y005696
Y006006
X002026Y005836
Y005526
X0020074Y0064656
X0022684Y0067025
X001536Y004936
X001226
X0080433Y0044189
X0083976
Y0040646
X0080433
Y0037103
X0083976
Y0033559
X0080433
X008752
Y0037103
Y0040646
Y0044189
X009626Y004546
Y004946
X010126
Y004546
X0095984Y0038858
X0095854Y0034198
X009746Y002176
X009346
X008946
Y001776
Y001376
Y000976
Y000576
X008326Y000686
Y001006
Y001326
Y001646
Y001966
X009346Y001776
X009746
X010276Y001766
X010676
Y002166
X010276
Y002566
X010676
X011076
Y002966
X011126Y003366
X011576Y003376
Y002976
X011976
Y003376
Y002526
X012376
X012676Y002216
Y001816
X012076Y001796
Y002176
X011676
Y001796
X011276
X011576Y002526
X012076Y001396
Y000996
Y000556
X0084282Y0052492
X008066Y005976
Y006376
X008481Y0073579
Y007676
X009526Y007344
Y007026
X009844
X009756Y009406
X010116
X010766Y009416
X011166
X011566Y009666
Y010066
Y010466
X011166
X010766
Y010866
X011166
X011566
X012096
Y010466
Y010066
Y009666
X012346Y009436
X009426Y009676
X009116
Y010076
X009426
Y010476
X009116
Y010876
X009426
X009776
Y010476
X010176
Y010876
X0076929Y0078465
X006054Y0078727
X005146Y009606
X004836
X003676Y009586
Y009896
Y010206
Y010516
Y010826
X003146Y009586
X001646Y010206
X001336
X001646Y010516
Y010826
X00153Y0077743
X00184
X00122
T02
X0026069Y0085569
T03
X0041614Y0009488
X0046535
X0051457
X0056378
X0061299
X006622
T04
X0007835Y0034784
X0012835
X0017835
Y0039783
X0012835
X0007835
T05
X0081142Y0103622
X0073268
X0065394
X005752
X0049646
X0041772
T06
X0094724Y0010315
X0104567
X0114409
X010937Y0099488
X0099528
M30
