G04 GBRE www.gbre.online gerbercad@foxmail.com   *
%FSTAX35Y35*%
%MOMM*%
%SFA1.000B1.000*%

%MIA0B0*%
%IPPOS*%

%ADD10R,3.19989X1.59995*%
%ADD11R,1.80013X0.69991*%
%ADD12R,0.89992X0.80010*%
%ADD13R,0.59995X1.10007*%
%ADD14R,0.80010X0.89992*%
%ADD15R,0.77754X0.77754*%
%ADD16R,0.77757X0.77757*%
%ADD17R,0.77754X0.77757*%
%ADD18R,0.55000X1.10010*%
%ADD19R,0.64999X1.00000*%
%ADD20R,1.27000X0.50800*%
%ADD21R,0.50800X1.27000*%
%ADD22R,0.55000X1.00000*%
%ADD23R,1.10010X0.55000*%
%ADD24R,1.10008X0.59995*%
%ADD25R,0.49987X0.59995*%
%ADD26R,0.59995X0.49987*%
%ADD27R,0.59995X0.59995*%
%ADD28C,0.06000*%
%ADD29C,0.00000*%

%LNSO2302202801*%
%LPD*%
G36*
X-01617232Y-01199998D02*
G75*
G03X-01922233Y-01199998I-00152500J00000000D01*
G75*
G03X-01617232Y-01199998I00152500J00000000D01*
G37*
G36*
X-04317227Y01199998D02*
G75*
G03X-04622228Y01199998I-00152500J00000000D01*
G75*
G03X-04317227Y01199998I00152500J00000000D01*
G37*
G36*
X01922233Y-01199998D02*
G75*
G03X01617232Y-01199998I-00152500J00000000D01*
G75*
G03X01922233Y-01199998I00152500J00000000D01*
G37*
G36*
X04622228Y01199998D02*
G75*
G03X04317227Y01199998I-00152500J00000000D01*
G75*
G03X04622228Y01199998I00152500J00000000D01*
G37*
G54D10*
X-02295995Y00548983D03*
X-02795994Y00548983D03*
G36*
X04572088Y-01199998D02*
G75*
G03X04367087Y-01199998I-00102500J00000000D01*
G75*
G03X04572088Y-01199998I00102500J00000000D01*
G37*
G36*
X-04367087Y-01199998D02*
G75*
G03X-04572088Y-01199998I-00102500J00000000D01*
G75*
G03X-04367087Y-01199998I00102500J00000000D01*
G37*
G36*
X03425495Y00101003D02*
G01Y-00028994D01*
X03330498*
Y00014338*
X03362164*
Y00057671*
X03330498*
Y00101003*
G37*
G36*
X03165501Y-00028994D02*
G01Y00101003D01*
X03260498*
Y00057671*
X03228832*
Y00014338*
X03260498*
Y-00028994*
G37*
G36*
X02853983Y-00046990D02*
G01X02723985D01*
Y00048007*
X02767318*
Y00016341*
X02810650*
Y00048007*
X02853983*
G37*
G54D11*
X-04878998Y-00086507D03*
X-04878998Y00253486D03*
G36*
X02723985Y00213004D02*
G01X02853983D01*
Y00118007*
X02810650*
Y00149673*
X02767318*
Y00118007*
X02723985*
G37*
G36*
X-03489544Y00255806D02*
G75*
G03X-03505808Y00272069I-00008131J00008131D01*
G01X-03579241Y00198635D01*
G75*
G03X-03562978Y00182372I00008131J-00008131D01*
G37*
G36*
X-03454187Y00220449D02*
G75*
G03X-03470451Y00236712I-00008131J00008131D01*
G01X-03543885Y00163279D01*
G75*
G03X-03527621Y00147015I00008131J-00008131D01*
G37*
G36*
X-03508528Y00127922D02*
G75*
G03X-03492264Y00111658I00008131J-00008131D01*
G01X-03418831Y00185092D01*
G75*
G03X-03435094Y00201356I-00008131J00008131D01*
G37*
G36*
X-04104701Y-00468251D02*
G75*
G03X-04088438Y-00484515I00008131J-00008131D01*
G01X-04015004Y-00411081D01*
G75*
G03X-04031267Y-00394818I-00008131J00008131D01*
G37*
G36*
X-04050361Y-00375724D02*
G75*
G03X-04066624Y-00359461I-00008131J00008131D01*
G01X-04140058Y-00432895D01*
G75*
G03X-04123794Y-00449158I00008131J-00008131D01*
G37*
G36*
X-04175415Y-00397538D02*
G75*
G03X-04159151Y-00413801I00008131J-00008131D01*
G01X-04085717Y-00340367D01*
G75*
G03X-04101981Y-00324104I-00008131J00008131D01*
G37*
G36*
X-04121074Y-00305011D02*
G75*
G03X-04137338Y-00288747I-00008131J00008131D01*
G01X-04210772Y-00362181D01*
G75*
G03X-04194508Y-00378444I00008131J-00008131D01*
G37*
G36*
X-04246128Y-00326824D02*
G75*
G03X-04229865Y-00343088I00008131J-00008131D01*
G01X-04156431Y-00269654D01*
G75*
G03X-04172695Y-00253390I-00008131J00008131D01*
G37*
G36*
X-04281485Y-00291493D02*
G75*
G03X-04265222Y-00307756I00008131J-00008131D01*
G01X-04191788Y-00234322D01*
G75*
G03X-04208051Y-00218059I-00008131J00008131D01*
G37*
G36*
X-04316842Y-00256111D02*
G75*
G03X-04300578Y-00272374I00008131J-00008131D01*
G01X-04227145Y-00198940D01*
G75*
G03X-04243408Y-00182677I-00008131J00008131D01*
G37*
G36*
X-04352199Y-00220779D02*
G75*
G03X-04335935Y-00237043I00008131J-00008131D01*
G01X-04262501Y-00163609D01*
G75*
G03X-04278765Y-00147345I-00008131J00008131D01*
G37*
G36*
X-04387556Y-00185422D02*
G75*
G03X-04371292Y-00201686I00008131J-00008131D01*
G01X-04297858Y-00128252D01*
G75*
G03X-04314122Y-00111989I-00008131J00008131D01*
G37*
G36*
X-04422912Y-00150066D02*
G75*
G03X-04406649Y-00166329I00008131J-00008131D01*
G01X-04333215Y-00092895D01*
G75*
G03X-04349479Y-00076632I-00008131J00008131D01*
G37*
G36*
X-04368572Y-00057538D02*
G75*
G03X-04384835Y-00041275I-00008131J00008131D01*
G01X-04458269Y-00114709D01*
G75*
G03X-04442006Y-00130972I00008131J-00008131D01*
G37*
G36*
X-04493601Y-00079352D02*
G75*
G03X-04477337Y-00095615I00008131J-00008131D01*
G01X-04403903Y-00022182D01*
G75*
G03X-04420167Y-00005918I-00008131J00008131D01*
G37*
G36*
X-03435094Y-00095615D02*
G75*
G03X-03418831Y-00079352I00008131J00008131D01*
G01X-03492264Y-00005918D01*
G75*
G03X-03508528Y-00022182I-00008131J-00008131D01*
G37*
G36*
X-03470451Y-00130972D02*
G75*
G03X-03454187Y-00114709I00008131J00008131D01*
G01X-03527621Y-00041275D01*
G75*
G03X-03543885Y-00057538I-00008131J-00008131D01*
G37*
G36*
X-03505808Y-00166329D02*
G75*
G03X-03489544Y-00150066I00008131J00008131D01*
G01X-03562978Y-00076632D01*
G75*
G03X-03579241Y-00092895I-00008131J-00008131D01*
G37*
G36*
X-03541164Y-00201686D02*
G75*
G03X-03524901Y-00185422I00008131J00008131D01*
G01X-03598335Y-00111989D01*
G75*
G03X-03614598Y-00128252I-00008131J-00008131D01*
G37*
G36*
X-03576521Y-00237043D02*
G75*
G03X-03560258Y-00220779I00008131J00008131D01*
G01X-03633692Y-00147345D01*
G75*
G03X-03649955Y-00163609I-00008131J-00008131D01*
G37*
G36*
X-03614598Y00233992D02*
G75*
G03X-03598335Y00217729I00008131J-00008131D01*
G01X-03524901Y00291163D01*
G75*
G03X-03541164Y00307426I-00008131J00008131D01*
G37*
G36*
X-03647235Y-00307756D02*
G75*
G03X-03630971Y-00291493I00008131J00008131D01*
G01X-03704405Y-00218059D01*
G75*
G03X-03720669Y-00234322I-00008131J-00008131D01*
G37*
G36*
X-03682592Y-00343088D02*
G75*
G03X-03666328Y-00326824I00008131J00008131D01*
G01X-03739762Y-00253390D01*
G75*
G03X-03756025Y-00269654I-00008131J-00008131D01*
G37*
G36*
X-03717948Y-00378444D02*
G75*
G03X-03701685Y-00362181I00008131J00008131D01*
G01X-03775119Y-00288747D01*
G75*
G03X-03791382Y-00305011I-00008131J-00008131D01*
G37*
G36*
X-03753280Y-00413801D02*
G75*
G03X-03737016Y-00397538I00008131J00008131D01*
G01X-03810450Y-00324104D01*
G75*
G03X-03826714Y-00340367I-00008131J-00008131D01*
G37*
G36*
X-03788637Y-00449158D02*
G75*
G03X-03772373Y-00432895I00008131J00008131D01*
G01X-03845807Y-00359461D01*
G75*
G03X-03862070Y-00375724I-00008131J-00008131D01*
G37*
G36*
X-03823993Y-00484515D02*
G75*
G03X-03807730Y-00468251I00008131J00008131D01*
G01X-03881164Y-00394818D01*
G75*
G03X-03897427Y-00411081I-00008131J-00008131D01*
G37*
G36*
X-04420167Y00111658D02*
G75*
G03X-04403903Y00127922I00008131J00008131D01*
G01X-04477337Y00201356D01*
G75*
G03X-04493601Y00185092I-00008131J-00008131D01*
G37*
G36*
X-04384835Y00147015D02*
G75*
G03X-04368572Y00163279I00008131J00008131D01*
G01X-04442006Y00236712D01*
G75*
G03X-04458269Y00220449I-00008131J-00008131D01*
G37*
G36*
X-04349479Y00182372D02*
G75*
G03X-04333215Y00198635I00008131J00008131D01*
G01X-04406649Y00272069D01*
G75*
G03X-04422912Y00255806I-00008131J-00008131D01*
G37*
G36*
X-04314122Y00217729D02*
G75*
G03X-04297858Y00233992I00008131J00008131D01*
G01X-04371292Y00307426D01*
G75*
G03X-04387556Y00291163I-00008131J-00008131D01*
G37*
G36*
X-04278765Y00253086D02*
G75*
G03X-04262501Y00269349I00008131J00008131D01*
G01X-04335935Y00342783D01*
G75*
G03X-04352199Y00326519I-00008131J-00008131D01*
G37*
G36*
X-04243408Y00288442D02*
G75*
G03X-04227145Y00304706I00008131J00008131D01*
G01X-04300578Y00378140D01*
G75*
G03X-04316842Y00361876I-00008131J-00008131D01*
G37*
G36*
X-04208051Y00323799D02*
G75*
G03X-04191788Y00340063I00008131J00008131D01*
G01X-04265222Y00413496D01*
G75*
G03X-04281485Y00397233I-00008131J-00008131D01*
G37*
G36*
X-04172695Y00359131D02*
G75*
G03X-04156431Y00375394I00008131J00008131D01*
G01X-04229865Y00448828D01*
G75*
G03X-04246128Y00432564I-00008131J-00008131D01*
G37*
G36*
X-04137338Y00394487D02*
G75*
G03X-04121074Y00410751I00008131J00008131D01*
G01X-04194508Y00484185D01*
G75*
G03X-04210772Y00467921I-00008131J-00008131D01*
G37*
G36*
X-04101981Y00429844D02*
G75*
G03X-04085717Y00446108I00008131J00008131D01*
G01X-04159151Y00519541D01*
G75*
G03X-04175415Y00503278I-00008131J-00008131D01*
G37*
G36*
X-04066624Y00465201D02*
G75*
G03X-04050361Y00481464I00008131J00008131D01*
G01X-04123794Y00554898D01*
G75*
G03X-04140058Y00538635I-00008131J-00008131D01*
G37*
G36*
X-04031267Y00500558D02*
G75*
G03X-04015004Y00516821I00008131J00008131D01*
G01X-04088438Y00590255D01*
G75*
G03X-04104701Y00573992I-00008131J-00008131D01*
G37*
G36*
X-03649955Y00269349D02*
G75*
G03X-03633692Y00253086I00008131J-00008131D01*
G01X-03560258Y00326519D01*
G75*
G03X-03576521Y00342783I-00008131J00008131D01*
G37*
G36*
X-03595615Y00361876D02*
G75*
G03X-03611878Y00378140I-00008131J00008131D01*
G01X-03685312Y00304706D01*
G75*
G03X-03669048Y00288442I00008131J-00008131D01*
G37*
G36*
X-03630971Y00397233D02*
G75*
G03X-03647235Y00413496I-00008131J00008131D01*
G01X-03720669Y00340063D01*
G75*
G03X-03704405Y00323799I00008131J-00008131D01*
G37*
G36*
X-03666328Y00432564D02*
G75*
G03X-03682592Y00448828I-00008131J00008131D01*
G01X-03756025Y00375394D01*
G75*
G03X-03739762Y00359131I00008131J-00008131D01*
G37*
G36*
X04065981Y-00226905D02*
G75*
G03X04049738Y-00209994I-00016242J00000654D01*
G01Y-00209934D01*
G01X04017226D01*
G01Y-00209994D01*
G75*
G03X04000983Y-00226882I00000000J-00016256D01*
G01Y-00338141D01*
G75*
G03X04017226Y-00355029I00016243J-00000631D01*
G01Y-00355089D01*
G01X04049738D01*
G01Y-00355029D01*
G75*
G03X04065981Y-00338118I00000000J00016256D01*
G37*
G36*
X03938981Y-00226905D02*
G75*
G03X03922738Y-00209994I-00016242J00000654D01*
G01Y-00209934D01*
G01X03890226D01*
G01Y-00209994D01*
G75*
G03X03873983Y-00226882I00000000J-00016256D01*
G01Y-00338141D01*
G75*
G03X03890226Y-00355029I00016243J-00000631D01*
G01Y-00355089D01*
G01X03922738D01*
G01Y-00355029D01*
G75*
G03X03938981Y-00338118I00000000J00016256D01*
G37*
G36*
X04192981Y-00226905D02*
G75*
G03X04176738Y-00209994I-00016242J00000654D01*
G01Y-00209934D01*
G01X04144226D01*
G01Y-00209994D01*
G75*
G03X04127983Y-00226882I00000000J-00016256D01*
G01Y-00338141D01*
G75*
G03X04144226Y-00355029I00016243J-00000631D01*
G01Y-00355089D01*
G01X04176738D01*
G01Y-00355029D01*
G75*
G03X04192981Y-00338118I00000000J00016256D01*
G37*
G36*
X03811981Y-00226905D02*
G75*
G03X03795738Y-00209994I-00016242J00000654D01*
G01Y-00209934D01*
G01X03763226D01*
G01Y-00209994D01*
G75*
G03X03746983Y-00226882I00000000J-00016256D01*
G01Y-00338141D01*
G75*
G03X03763226Y-00355029I00016243J-00000631D01*
G01Y-00355089D01*
G01X03795738D01*
G01Y-00355029D01*
G75*
G03X03811981Y-00338118I00000000J00016256D01*
G37*
G36*
X04065981Y00338093D02*
G75*
G03X04049738Y00355003I-00016242J00000654D01*
G01Y00355064D01*
G01X04017226D01*
G01Y00355003D01*
G75*
G03X04000983Y00338116I00000000J-00016256D01*
G01Y00226856D01*
G75*
G03X04017226Y00209969I00016243J-00000631D01*
G01Y00209908D01*
G01X04049738D01*
G01Y00209969D01*
G75*
G03X04065981Y00226880I00000000J00016256D01*
G37*
G36*
X04192981Y00338093D02*
G75*
G03X04176738Y00355003I-00016242J00000654D01*
G01Y00355064D01*
G01X04144226D01*
G01Y00355003D01*
G75*
G03X04127983Y00338116I00000000J-00016256D01*
G01Y00226856D01*
G75*
G03X04144226Y00209969I00016243J-00000631D01*
G01Y00209908D01*
G01X04176738D01*
G01Y00209969D01*
G75*
G03X04192981Y00226880I00000000J00016256D01*
G37*
G36*
X03938981Y00338093D02*
G75*
G03X03922738Y00355003I-00016242J00000654D01*
G01Y00355064D01*
G01X03890226D01*
G01Y00355003D01*
G75*
G03X03873983Y00338116I00000000J-00016256D01*
G01Y00226856D01*
G75*
G03X03890226Y00209969I00016243J-00000631D01*
G01Y00209908D01*
G01X03922738D01*
G01Y00209969D01*
G75*
G03X03938981Y00226880I00000000J00016256D01*
G37*
G36*
X03811981Y00338093D02*
G75*
G03X03795738Y00355003I-00016242J00000654D01*
G01Y00355064D01*
G01X03763226D01*
G01Y00355003D01*
G75*
G03X03746983Y00338116I00000000J-00016256D01*
G01Y00226856D01*
G75*
G03X03763226Y00209969I00016243J-00000631D01*
G01Y00209908D01*
G01X03795738D01*
G01Y00209969D01*
G75*
G03X03811981Y00226880I00000000J00016256D01*
G37*
G36*
X-03897427Y00516821D02*
G75*
G03X-03881164Y00500558I00008131J-00008131D01*
G01X-03807730Y00573992D01*
G75*
G03X-03823993Y00590255I-00008131J00008131D01*
G37*
G36*
X-03701685Y00467921D02*
G75*
G03X-03717948Y00484185I-00008131J00008131D01*
G01X-03791382Y00410751D01*
G75*
G03X-03775119Y00394487I00008131J-00008131D01*
G37*
G36*
X-03826714Y00446108D02*
G75*
G03X-03810450Y00429844I00008131J-00008131D01*
G01X-03737016Y00503278D01*
G75*
G03X-03753280Y00519541I-00008131J00008131D01*
G37*
G36*
X-03862070Y00481464D02*
G75*
G03X-03845807Y00465201I00008131J-00008131D01*
G01X-03772373Y00538635D01*
G75*
G03X-03788637Y00554898I-00008131J00008131D01*
G37*
G36*
X-03611878Y-00272374D02*
G75*
G03X-03595615Y-00256111I00008131J00008131D01*
G01X-03669048Y-00182677D01*
G75*
G03X-03685312Y-00198940I-00008131J-00008131D01*
G37*
G54D12*
X-02585987Y-00498005D03*
X-04582986Y00712000D03*
G36*
X-03461630Y00512932D02*
G01X-03419207Y00555355D01*
X-03461630Y00597778*
X-03504053Y00555355*
G37*
G36*
X-03532340Y00442222D02*
G01X-03489918Y00484645D01*
X-03532340Y00527067*
X-03574763Y00484645*
G37*
G54D13*
X02365998Y00197980D03*
X02555990Y00197980D03*
G54D12*
X-02585987Y-00638010D03*
X-02460994Y-00498005D03*
X-02460994Y-00638010D03*
G54D14*
X03552991Y-01298004D03*
X-04650982Y-00848017D03*
X-04800994Y-00848017D03*
X-04650982Y-00968007D03*
X-04800994Y-00968007D03*
X-02336991Y00125006D03*
X-02487003Y00125006D03*
G54D12*
X-04582986Y00963003D03*
X-04582986Y00822998D03*
G54D14*
X-03022994Y-00824014D03*
X-03162999Y-00824014D03*
X03692995Y-01298004D03*
G54D12*
X-04582986Y00571995D03*
G54D15*
X-03031985Y-00437604D03*
G54D16*
X-03139741Y-00545360D03*
G54D15*
X-03139741Y-00437604D03*
X-03139741Y-00329848D03*
G36*
X-04191176Y00623481D02*
G01X-04148753Y00665904D01*
X-04184100Y00701250*
X-04226523Y00658827*
G37*
G36*
X-04261887Y00552770D02*
G01X-04219464Y00595193D01*
X-04254810Y00630539*
X-04297233Y00588117*
G37*
G54D16*
X-03031985Y-00545360D03*
G54D15*
X-02924231Y-00329848D03*
X-02924231Y-00437604D03*
G54D17*
X-02924231Y-00545360D03*
G54D18*
X02365998Y-00062014D03*
G54D19*
X-04811002Y00677990D03*
X-05000994Y00677990D03*
G54D20*
X02075549Y00946341D03*
G54D21*
X03108897Y-01295997D03*
X03185097Y-01295997D03*
G54D18*
X02555990Y-00062014D03*
X02460994Y-00062014D03*
G54D22*
X-04811002Y00938009D03*
X-05000994Y00938009D03*
G54D15*
X-03031985Y-00329848D03*
G54D22*
X-04905998Y00938009D03*
G54D23*
X03092997Y00456984D03*
X03092997Y00361988D03*
X03092997Y00266992D03*
G54D24*
X03352991Y00456984D03*
X03352991Y00266992D03*
G54D23*
X-03684994Y-00751015D03*
X-03684994Y-00846011D03*
X-03684994Y-00941007D03*
G54D24*
X-03425000Y-00751015D03*
X-03425000Y-00941007D03*
G54D20*
X02075549Y00870141D03*
G54D25*
X02666988Y00015989D03*
X02666988Y00115989D03*
X02255000Y00096990D03*
X02255000Y00196990D03*
G54D26*
X03916998Y-00424015D03*
X04016998Y-00424015D03*
X03254287Y00158001D03*
X03354286Y00158001D03*
X03252001Y00566992D03*
X03352000Y00566992D03*
X03714001Y-00612991D03*
X03814001Y-00612991D03*
G54D25*
X-04684002Y00601993D03*
X-04684002Y00701992D03*
X-04384002Y00455994D03*
X-04384002Y00555993D03*
X-04684002Y00825995D03*
X-04684002Y00925995D03*
X-03100007Y-01181011D03*
X-03100007Y-01081011D03*
X-04466984Y00456984D03*
G54D27*
X04779379Y-00735012D03*
X04679379Y-00735012D03*
X-03673996Y00863003D03*
X-03773996Y00863003D03*
X-03035999Y00863003D03*
X-03135999Y00863003D03*
X-03257004Y00863003D03*
X-03357004Y00863003D03*
X-03473997Y00863003D03*
X-03573996Y00863003D03*
X-04901985Y01050836D03*
X-05001984Y01050836D03*
X-04801985Y-01074991D03*
G54D25*
X-04466984Y00556984D03*
G54D27*
X-04901985Y-01074991D03*
X-04801985Y-00741997D03*
X-04901985Y-00741997D03*
X-02588984Y00125006D03*
X-02688984Y00125006D03*
G54D26*
X02746998Y-00684009D03*
X02646998Y-00684009D03*
G54D27*
X03622002Y-00525996D03*
X03522003Y-00525996D03*
X03814001Y-00525996D03*
X03714001Y-00525996D03*
X-04203002Y-00563004D03*
X-04203002Y-00663004D03*
X-04112984Y-00563004D03*
X-04112984Y-00663004D03*
X-03198991Y-01081011D03*
X-03198991Y-01181011D03*
X03314993Y-01084009D03*
X03314993Y-01184008D03*
X04107981Y-00900011D03*
X04107981Y-01000011D03*
X03779990Y00525005D03*
X03779990Y00425005D03*
X04017988Y-00900011D03*
X04017988Y-01000011D03*
X04195458Y-00900011D03*
G54D25*
X-04716006Y-00078016D03*
X-04716006Y00021984D03*
X-02430996Y-00336004D03*
X-02430996Y-00236004D03*
G54D26*
X-05004982Y00553987D03*
X-04904982Y00553987D03*
X-03201988Y-01270013D03*
G54D27*
X04030003Y00425005D03*
X04030003Y00525005D03*
X03909988Y00425005D03*
G54D26*
X-03101988Y-01270013D03*
X-04466984Y00648983D03*
X-04366984Y00648983D03*
X-03216872Y00340855D03*
X-03116873Y00340855D03*
G54D27*
X03909988Y00525005D03*
X04285450Y-01000011D03*
X04285450Y-00900011D03*
X03809988Y-01000011D03*
X03809988Y-00900011D03*
X03927996Y-01000011D03*
X03927996Y-00900011D03*
X04195458Y-01000011D03*
G36*
X-02843001Y-00151324D02*
G75*
G03X-02861001Y-00151324I-00009000J00000000D01*
G01Y-00219041D01*
G75*
G03X-02843001Y-00219041I00009000J00000000D01*
G37*
G36*
X-02882981Y-00151324D02*
G75*
G03X-02900981Y-00151324I-00009000J00000000D01*
G01Y-00219041D01*
G75*
G03X-02882981Y-00219041I00009000J00000000D01*
G37*
G36*
X-02922986Y-00151324D02*
G75*
G03X-02940986Y-00151324I-00009000J00000000D01*
G01Y-00219041D01*
G75*
G03X-02922986Y-00219041I00009000J00000000D01*
G37*
G36*
X-02962991Y-00151324D02*
G75*
G03X-02980991Y-00151324I-00009000J00000000D01*
G01Y-00219041D01*
G75*
G03X-02962991Y-00219041I00009000J00000000D01*
G37*
G36*
X-03002996Y-00151324D02*
G75*
G03X-03020996Y-00151324I-00009000J00000000D01*
G01Y-00219041D01*
G75*
G03X-03002996Y-00219041I00009000J00000000D01*
G37*
G36*
X-03043001Y-00151324D02*
G75*
G03X-03061001Y-00151324I-00009000J00000000D01*
G01Y-00219041D01*
G75*
G03X-03043001Y-00219041I00009000J00000000D01*
G37*
G36*
X-03082981Y-00151324D02*
G75*
G03X-03100981Y-00151324I-00009000J00000000D01*
G01Y-00219041D01*
G75*
G03X-03082981Y-00219041I00009000J00000000D01*
G37*
G36*
X-03122986Y-00151324D02*
G75*
G03X-03140986Y-00151324I-00009000J00000000D01*
G01Y-00219041D01*
G75*
G03X-03122986Y-00219041I00009000J00000000D01*
G37*
G36*
X-03162991Y-00151324D02*
G75*
G03X-03180991Y-00151324I-00009000J00000000D01*
G01Y-00219041D01*
G75*
G03X-03162991Y-00219041I00009000J00000000D01*
G37*
G36*
X-03202996Y-00151324D02*
G75*
G03X-03220996Y-00151324I-00009000J00000000D01*
G01Y-00219041D01*
G75*
G03X-03202996Y-00219041I00009000J00000000D01*
G37*
G36*
X-03202996Y-00656141D02*
G75*
G03X-03220996Y-00656141I-00009000J00000000D01*
G01Y-00723859D01*
G75*
G03X-03202996Y-00723859I00009000J00000000D01*
G37*
G36*
X-03162991Y-00656141D02*
G75*
G03X-03180991Y-00656141I-00009000J00000000D01*
G01Y-00723859D01*
G75*
G03X-03162991Y-00723859I00009000J00000000D01*
G37*
G36*
X-03122986Y-00656141D02*
G75*
G03X-03140986Y-00656141I-00009000J00000000D01*
G01Y-00723859D01*
G75*
G03X-03122986Y-00723859I00009000J00000000D01*
G37*
G36*
X-03082981Y-00656141D02*
G75*
G03X-03100981Y-00656141I-00009000J00000000D01*
G01Y-00723859D01*
G75*
G03X-03082981Y-00723859I00009000J00000000D01*
G37*
G36*
X-03043001Y-00656141D02*
G75*
G03X-03061001Y-00656141I-00009000J00000000D01*
G01Y-00723859D01*
G75*
G03X-03043001Y-00723859I00009000J00000000D01*
G37*
G36*
X-03002996Y-00656141D02*
G75*
G03X-03020996Y-00656141I-00009000J00000000D01*
G01Y-00723859D01*
G75*
G03X-03002996Y-00723859I00009000J00000000D01*
G37*
G36*
X-02962991Y-00656141D02*
G75*
G03X-02980991Y-00656141I-00009000J00000000D01*
G01Y-00723859D01*
G75*
G03X-02962991Y-00723859I00009000J00000000D01*
G37*
G36*
X-02922986Y-00656141D02*
G75*
G03X-02940986Y-00656141I-00009000J00000000D01*
G01Y-00723859D01*
G75*
G03X-02922986Y-00723859I00009000J00000000D01*
G37*
G36*
X-02882981Y-00656141D02*
G75*
G03X-02900981Y-00656141I-00009000J00000000D01*
G01Y-00723859D01*
G75*
G03X-02882981Y-00723859I00009000J00000000D01*
G37*
G36*
X-02843001Y-00656141D02*
G75*
G03X-02861001Y-00656141I-00009000J00000000D01*
G01Y-00723859D01*
G75*
G03X-02843001Y-00723859I00009000J00000000D01*
G37*
G36*
X-03250548Y-00266594D02*
G75*
G03X-03250548Y-00248594I00000000J00009000D01*
G01X-03318266D01*
G75*
G03X-03318266Y-00266594I00000000J-00009000D01*
G37*
G36*
X-03250548Y-00306599D02*
G75*
G03X-03250548Y-00288599I00000000J00009000D01*
G01X-03318266D01*
G75*
G03X-03318266Y-00306599I00000000J-00009000D01*
G37*
G36*
X-03250548Y-00346604D02*
G75*
G03X-03250548Y-00328604I00000000J00009000D01*
G01X-03318266D01*
G75*
G03X-03318266Y-00346604I00000000J-00009000D01*
G37*
G36*
X-03250548Y-00386584D02*
G75*
G03X-03250548Y-00368584I00000000J00009000D01*
G01X-03318266D01*
G75*
G03X-03318266Y-00386584I00000000J-00009000D01*
G37*
G36*
X-03250548Y-00426589D02*
G75*
G03X-03250548Y-00408589I00000000J00009000D01*
G01X-03318266D01*
G75*
G03X-03318266Y-00426589I00000000J-00009000D01*
G37*
G36*
X-03250548Y-00466594D02*
G75*
G03X-03250548Y-00448594I00000000J00009000D01*
G01X-03318266D01*
G75*
G03X-03318266Y-00466594I00000000J-00009000D01*
G37*
G36*
X-03250548Y-00546604D02*
G75*
G03X-03250548Y-00528604I00000000J00009000D01*
G01X-03318266D01*
G75*
G03X-03318266Y-00546604I00000000J-00009000D01*
G37*
G36*
X-03250548Y-00586583D02*
G75*
G03X-03250548Y-00568583I00000000J00009000D01*
G01X-03318266D01*
G75*
G03X-03318266Y-00586583I00000000J-00009000D01*
G37*
G36*
X-03250548Y-00626588D02*
G75*
G03X-03250548Y-00608588I00000000J00009000D01*
G01X-03318266D01*
G75*
G03X-03318266Y-00626588I00000000J-00009000D01*
G37*
G36*
X-02745731Y-00626588D02*
G75*
G03X-02745731Y-00608588I00000000J00009000D01*
G01X-02813449D01*
G75*
G03X-02813449Y-00626588I00000000J-00009000D01*
G37*
G36*
X-02745731Y-00586583D02*
G75*
G03X-02745731Y-00568583I00000000J00009000D01*
G01X-02813449D01*
G75*
G03X-02813449Y-00586583I00000000J-00009000D01*
G37*
G36*
X-02745731Y-00546604D02*
G75*
G03X-02745731Y-00528604I00000000J00009000D01*
G01X-02813449D01*
G75*
G03X-02813449Y-00546604I00000000J-00009000D01*
G37*
G36*
X-02745731Y-00506599D02*
G75*
G03X-02745731Y-00488599I00000000J00009000D01*
G01X-02813449D01*
G75*
G03X-02813449Y-00506599I00000000J-00009000D01*
G37*
G36*
X-02745731Y-00466594D02*
G75*
G03X-02745731Y-00448594I00000000J00009000D01*
G01X-02813449D01*
G75*
G03X-02813449Y-00466594I00000000J-00009000D01*
G37*
G36*
X-02745731Y-00426589D02*
G75*
G03X-02745731Y-00408589I00000000J00009000D01*
G01X-02813449D01*
G75*
G03X-02813449Y-00426589I00000000J-00009000D01*
G37*
G36*
X-02745731Y-00386584D02*
G75*
G03X-02745731Y-00368584I00000000J00009000D01*
G01X-02813449D01*
G75*
G03X-02813449Y-00386584I00000000J-00009000D01*
G37*
G36*
X-02745731Y-00346604D02*
G75*
G03X-02745731Y-00328604I00000000J00009000D01*
G01X-02813449D01*
G75*
G03X-02813449Y-00346604I00000000J-00009000D01*
G37*
G36*
X-02745731Y-00306599D02*
G75*
G03X-02745731Y-00288599I00000000J00009000D01*
G01X-02813449D01*
G75*
G03X-02813449Y-00306599I00000000J-00009000D01*
G37*
G36*
X-02745731Y-00266594D02*
G75*
G03X-02745731Y-00248594I00000000J00009000D01*
G01X-02813449D01*
G75*
G03X-02813449Y-00266594I00000000J-00009000D01*
G37*
G36*
X-03250548Y-00506599D02*
G75*
G03X-03250548Y-00488599I00000000J00009000D01*
G01X-03318266D01*
G75*
G03X-03318266Y-00506599I00000000J-00009000D01*
G37*
G54D28*
X-17987772Y-11502110D02*
G01*
Y-11209884D01*
G01*
X-17926251D01*
G01*
X-17861653Y-11415980D01*
G01*
X-17852425Y-11443664D01*
G01*
X-17846273Y-11462121D01*
G01*
X-17843197Y-11440588D01*
G01*
X-17833969Y-11412904D01*
G01*
X-17769371Y-11209884D01*
G01*
X-17707850D01*
G01*
Y-11502110D01*
G01*
X-17747839D01*
G01*
Y-11252949D01*
G01*
X-17827817Y-11502110D01*
G01*
X-17870881D01*
G01*
X-17947783Y-11252949D01*
G01*
Y-11502110D01*
G01*
X-17987772D01*
X-17655557Y-11360611D02*
G01*
X-17652481Y-11326774D01*
G01*
X-17646329Y-11296013D01*
G01*
X-17634025Y-11271405D01*
G01*
X-17615568Y-11246796D01*
G01*
X-17594036Y-11231416D01*
G01*
X-17572503Y-11216036D01*
G01*
X-17544819Y-11209884D01*
G01*
X-17514058Y-11206808D01*
G01*
X-17477145Y-11212960D01*
G01*
X-17443309Y-11225264D01*
G01*
X-17412548Y-11249872D01*
G01*
X-17394092Y-11280633D01*
G01*
X-17378711Y-11314470D01*
G01*
X-17375635Y-11357535D01*
G01*
X-17378711Y-11397523D01*
G01*
X-17394092Y-11434436D01*
G01*
X-17415624Y-11465197D01*
G01*
X-17443309Y-11486729D01*
G01*
X-17477145Y-11502110D01*
G01*
X-17514058Y-11505186D01*
G01*
X-17554047Y-11499034D01*
G01*
X-17587884Y-11486729D01*
G01*
X-17618644Y-11462121D01*
G01*
X-17640177Y-11431360D01*
G01*
X-17652481Y-11397523D01*
G01*
X-17655557Y-11360611D01*
X-17615568Y-11360611D02*
G01*
X-17612492Y-11385219D01*
G01*
X-17609416Y-11406752D01*
G01*
X-17600188Y-11425208D01*
G01*
X-17587884Y-11440588D01*
G01*
X-17572503Y-11455969D01*
G01*
X-17554047Y-11465197D01*
G01*
X-17535591Y-11468273D01*
G01*
X-17517134Y-11471349D01*
G01*
X-17495602Y-11468273D01*
G01*
X-17477145Y-11465197D01*
G01*
X-17458689Y-11455969D01*
G01*
X-17443309Y-11440588D01*
G01*
X-17431004Y-11425208D01*
G01*
X-17421776Y-11406752D01*
G01*
X-17418700Y-11382143D01*
G01*
X-17415624Y-11357535D01*
G01*
X-17418700Y-11323698D01*
G01*
X-17427928Y-11296013D01*
G01*
X-17443309Y-11271405D01*
G01*
X-17461765Y-11256025D01*
G01*
X-17486374Y-11243720D01*
G01*
X-17514058Y-11240644D01*
G01*
X-17535591Y-11243720D01*
G01*
X-17554047Y-11246796D01*
G01*
X-17569427Y-11256025D01*
G01*
X-17584808Y-11268329D01*
G01*
X-17600188Y-11283709D01*
G01*
X-17609416Y-11305242D01*
G01*
X-17612492Y-11329850D01*
G01*
X-17615568Y-11360611D01*
X-17323342Y-11502110D02*
G01*
Y-11209884D01*
G01*
X-17221832D01*
G01*
X-17191072D01*
G01*
X-17169539Y-11212960D01*
G01*
X-17144931Y-11222188D01*
G01*
X-17126474Y-11234492D01*
G01*
X-17104942Y-11259101D01*
G01*
X-17092638Y-11286785D01*
G01*
X-17083409Y-11317546D01*
G01*
X-17080333Y-11354459D01*
G01*
X-17083409Y-11385219D01*
G01*
X-17089562Y-11412904D01*
G01*
X-17095714Y-11437512D01*
G01*
X-17108018Y-11455969D01*
G01*
X-17120322Y-11471349D01*
G01*
X-17135702Y-11483653D01*
G01*
X-17151083Y-11492881D01*
G01*
X-17169539Y-11495957D01*
G01*
X-17191072Y-11502110D01*
G01*
X-17218756D01*
G01*
X-17323342D01*
X-17283353Y-11468273D02*
G01*
X-17221832D01*
G01*
X-17194148D01*
G01*
X-17175691Y-11462121D01*
G01*
X-17160311Y-11455969D01*
G01*
X-17148007Y-11446740D01*
G01*
X-17135702Y-11431360D01*
G01*
X-17126474Y-11409828D01*
G01*
X-17123398Y-11385219D01*
G01*
X-17120322Y-11354459D01*
G01*
X-17123398Y-11314470D01*
G01*
X-17135702Y-11283709D01*
G01*
X-17151083Y-11262177D01*
G01*
X-17172615Y-11249872D01*
G01*
X-17191072Y-11246796D01*
G01*
X-17221832Y-11243720D01*
G01*
X-17283353D01*
G01*
Y-11468273D01*
X-17028040Y-11502110D02*
G01*
Y-11209884D01*
G01*
X-16815792D01*
G01*
Y-11243720D01*
G01*
X-16988051D01*
G01*
Y-11332926D01*
G01*
X-16828096D01*
G01*
Y-11366763D01*
G01*
X-16988051D01*
G01*
Y-11468273D01*
G01*
X-16809640D01*
G01*
Y-11502110D01*
G01*
X-17028040D01*
X-16754271Y-11502110D02*
G01*
Y-11209884D01*
G01*
X-16714282D01*
G01*
Y-11468273D01*
G01*
X-16572783D01*
G01*
Y-11502110D01*
G01*
X-16754271D01*
X-16523566Y-11326774D02*
G01*
Y-11289861D01*
G01*
X-16486653D01*
G01*
Y-11326774D01*
G01*
X-16523566D01*
X-16523566Y-11502110D02*
G01*
Y-11465197D01*
G01*
X-16486653D01*
G01*
Y-11502110D01*
G01*
X-16523566D01*
X-16443588Y-11502110D02*
G01*
X-16332850Y-11348306D01*
G01*
X-16428208Y-11209884D01*
G01*
X-16382067D01*
G01*
X-16329774Y-11283709D01*
G01*
X-16317470Y-11302166D01*
G01*
X-16308242Y-11317546D01*
G01*
X-16299013Y-11302166D01*
G01*
X-16286709Y-11286785D01*
G01*
X-16228264Y-11209884D01*
G01*
X-16182123D01*
G01*
X-16283633Y-11348306D01*
G01*
X-16175971Y-11502110D01*
G01*
X-16225188D01*
G01*
X-16299013Y-11397523D01*
G01*
X-16308242Y-11382143D01*
G01*
X-16317470Y-11394447D01*
G01*
X-16323622Y-11400600D01*
G01*
X-16394371Y-11502110D01*
G01*
X-16443588D01*
X-16154438Y-11400600D02*
G01*
X-16114450D01*
G01*
X-16111374Y-11422132D01*
G01*
X-16102145Y-11437512D01*
G01*
X-16089841Y-11452893D01*
G01*
X-16074461Y-11462121D01*
G01*
X-16052928Y-11468273D01*
G01*
X-16031396Y-11471349D01*
G01*
X-16009864D01*
G01*
X-15994483Y-11465197D01*
G01*
X-15979103Y-11455969D01*
G01*
X-15969875Y-11446740D01*
G01*
X-15963723Y-11434436D01*
G01*
X-15960647Y-11422132D01*
G01*
Y-11409828D01*
G01*
X-15966799Y-11397523D01*
G01*
X-15976027Y-11388295D01*
G01*
X-15991407Y-11382143D01*
G01*
X-16000635Y-11379067D01*
G01*
X-16009864Y-11375991D01*
G01*
X-16025244Y-11372915D01*
G01*
X-16043700Y-11366763D01*
G01*
X-16077537Y-11357535D01*
G01*
X-16099069Y-11348306D01*
G01*
X-16117526Y-11339078D01*
G01*
X-16129830Y-11323698D01*
G01*
X-16139058Y-11305242D01*
G01*
X-16142134Y-11286785D01*
G01*
X-16139058Y-11265253D01*
G01*
X-16129830Y-11246796D01*
G01*
X-16114450Y-11228340D01*
G01*
X-16092917Y-11216036D01*
G01*
X-16065233Y-11209884D01*
G01*
X-16037548Y-11206808D01*
G01*
X-16006787Y-11209884D01*
G01*
X-15979103Y-11216036D01*
G01*
X-15957570Y-11231416D01*
G01*
X-15942190Y-11246796D01*
G01*
X-15929886Y-11268329D01*
G01*
X-15926810Y-11292937D01*
G01*
X-15966799D01*
G01*
X-15972951Y-11271405D01*
G01*
X-15985255Y-11252949D01*
G01*
X-16006787Y-11243720D01*
G01*
X-16037548Y-11240644D01*
G01*
X-16065233Y-11243720D01*
G01*
X-16086765Y-11252949D01*
G01*
X-16099069Y-11268329D01*
G01*
X-16102145Y-11283709D01*
G01*
X-16099069Y-11299089D01*
G01*
X-16089841Y-11308318D01*
G01*
X-16083689Y-11314470D01*
G01*
X-16071385Y-11320622D01*
G01*
X-16056004Y-11326774D01*
G01*
X-16034472Y-11329850D01*
G01*
X-16012940Y-11336002D01*
G01*
X-15994483Y-11339078D01*
G01*
X-15982179Y-11345230D01*
G01*
X-15969875Y-11348306D01*
G01*
X-15948342Y-11360611D01*
G01*
X-15932962Y-11379067D01*
G01*
X-15923734Y-11397523D01*
G01*
X-15920658Y-11419056D01*
G01*
X-15923734Y-11440588D01*
G01*
X-15932962Y-11462121D01*
G01*
X-15951418Y-11480577D01*
G01*
X-15972951Y-11492881D01*
G01*
X-16000635Y-11502110D01*
G01*
X-16028320Y-11505186D01*
G01*
X-16065233Y-11502110D01*
G01*
X-16095993Y-11492881D01*
G01*
X-16120602Y-11477501D01*
G01*
X-16139058Y-11455969D01*
G01*
X-16151362Y-11431360D01*
G01*
X-16154438Y-11400600D01*
X-15880669Y-11400600D02*
G01*
X-15840680D01*
G01*
X-15837604Y-11422132D01*
G01*
X-15828376Y-11437512D01*
G01*
X-15816072Y-11452893D01*
G01*
X-15800691Y-11462121D01*
G01*
X-15779159Y-11468273D01*
G01*
X-15757626Y-11471349D01*
G01*
X-15736094D01*
G01*
X-15720714Y-11465197D01*
G01*
X-15705333Y-11455969D01*
G01*
X-15696105Y-11446740D01*
G01*
X-15689953Y-11434436D01*
G01*
X-15686877Y-11422132D01*
G01*
Y-11409828D01*
G01*
X-15693029Y-11397523D01*
G01*
X-15702257Y-11388295D01*
G01*
X-15717638Y-11382143D01*
G01*
X-15726866Y-11379067D01*
G01*
X-15736094Y-11375991D01*
G01*
X-15751474Y-11372915D01*
G01*
X-15769931Y-11366763D01*
G01*
X-15803767Y-11357535D01*
G01*
X-15825300Y-11348306D01*
G01*
X-15843756Y-11339078D01*
G01*
X-15856060Y-11323698D01*
G01*
X-15865289Y-11305242D01*
G01*
X-15868365Y-11286785D01*
G01*
X-15865289Y-11265253D01*
G01*
X-15856060Y-11246796D01*
G01*
X-15840680Y-11228340D01*
G01*
X-15819148Y-11216036D01*
G01*
X-15791463Y-11209884D01*
G01*
X-15763779Y-11206808D01*
G01*
X-15733018Y-11209884D01*
G01*
X-15705333Y-11216036D01*
G01*
X-15683801Y-11231416D01*
G01*
X-15668421Y-11246796D01*
G01*
X-15656116Y-11268329D01*
G01*
X-15653040Y-11292937D01*
G01*
X-15693029D01*
G01*
X-15699181Y-11271405D01*
G01*
X-15711485Y-11252949D01*
G01*
X-15733018Y-11243720D01*
G01*
X-15763779Y-11240644D01*
G01*
X-15791463Y-11243720D01*
G01*
X-15812996Y-11252949D01*
G01*
X-15825300Y-11268329D01*
G01*
X-15828376Y-11283709D01*
G01*
X-15825300Y-11299089D01*
G01*
X-15816072Y-11308318D01*
G01*
X-15809919Y-11314470D01*
G01*
X-15797615Y-11320622D01*
G01*
X-15782235Y-11326774D01*
G01*
X-15760702Y-11329850D01*
G01*
X-15739170Y-11336002D01*
G01*
X-15720714Y-11339078D01*
G01*
X-15708409Y-11345230D01*
G01*
X-15696105Y-11348306D01*
G01*
X-15674573Y-11360611D01*
G01*
X-15659192Y-11379067D01*
G01*
X-15649964Y-11397523D01*
G01*
X-15646888Y-11419056D01*
G01*
X-15649964Y-11440588D01*
G01*
X-15659192Y-11462121D01*
G01*
X-15677649Y-11480577D01*
G01*
X-15699181Y-11492881D01*
G01*
X-15726866Y-11502110D01*
G01*
X-15754550Y-11505186D01*
G01*
X-15791463Y-11502110D01*
G01*
X-15822224Y-11492881D01*
G01*
X-15846832Y-11477501D01*
G01*
X-15865289Y-11455969D01*
G01*
X-15877593Y-11431360D01*
G01*
X-15880669Y-11400600D01*
X-15631508Y-11582087D02*
G01*
Y-11557479D01*
G01*
X-15394651D01*
G01*
Y-11582087D01*
G01*
X-15631508D01*
X-15370043Y-11502110D02*
G01*
Y-11209884D01*
G01*
X-15308521D01*
G01*
X-15243924Y-11415980D01*
G01*
X-15234696Y-11443664D01*
G01*
X-15228544Y-11462121D01*
G01*
X-15225468Y-11440588D01*
G01*
X-15216239Y-11412904D01*
G01*
X-15151642Y-11209884D01*
G01*
X-15090121D01*
G01*
Y-11502110D01*
G01*
X-15130110D01*
G01*
Y-11252949D01*
G01*
X-15210087Y-11502110D01*
G01*
X-15253152D01*
G01*
X-15330054Y-11252949D01*
G01*
Y-11502110D01*
G01*
X-15370043D01*
X-15028600Y-11246796D02*
G01*
Y-11209884D01*
G01*
X-14991687D01*
G01*
Y-11246796D01*
G01*
X-15028600D01*
X-15028600Y-11502110D02*
G01*
Y-11289861D01*
G01*
X-14991687D01*
G01*
Y-11502110D01*
G01*
X-15028600D01*
X-14936318Y-11502110D02*
G01*
Y-11289861D01*
G01*
X-14899405D01*
G01*
Y-11320622D01*
G01*
X-14887101Y-11305242D01*
G01*
X-14871720Y-11296013D01*
G01*
X-14853264Y-11289861D01*
G01*
X-14834808Y-11286785D01*
G01*
X-14816351Y-11289861D01*
G01*
X-14800971Y-11292937D01*
G01*
X-14785591Y-11302166D01*
G01*
X-14776362Y-11311394D01*
G01*
X-14767134Y-11339078D01*
G01*
X-14764058Y-11351383D01*
G01*
Y-11372915D01*
G01*
Y-11502110D01*
G01*
X-14800971D01*
G01*
Y-11375991D01*
G01*
Y-11357535D01*
G01*
X-14804047Y-11345230D01*
G01*
X-14810199Y-11336002D01*
G01*
X-14819427Y-11326774D01*
G01*
X-14831732Y-11323698D01*
G01*
X-14844036Y-11320622D01*
G01*
X-14865568Y-11323698D01*
G01*
X-14884025Y-11336002D01*
G01*
X-14890177Y-11345230D01*
G01*
X-14896329Y-11354459D01*
G01*
X-14899405Y-11369839D01*
G01*
Y-11388295D01*
G01*
Y-11502110D01*
G01*
X-14936318D01*
X-14708689Y-11246796D02*
G01*
Y-11209884D01*
G01*
X-14671776D01*
G01*
Y-11246796D01*
G01*
X-14708689D01*
X-14708689Y-11502110D02*
G01*
Y-11289861D01*
G01*
X-14671776D01*
G01*
Y-11502110D01*
G01*
X-14708689D01*
X-14610255Y-11502110D02*
G01*
Y-11209884D01*
G01*
X-14413387D01*
G01*
Y-11243720D01*
G01*
X-14570266D01*
G01*
Y-11336002D01*
G01*
X-14437996D01*
G01*
Y-11369839D01*
G01*
X-14570266D01*
G01*
Y-11502110D01*
G01*
X-14610255D01*
X-14376474Y-11360611D02*
G01*
X-14373398Y-11326774D01*
G01*
X-14367246Y-11296013D01*
G01*
X-14354942Y-11271405D01*
G01*
X-14336485Y-11246796D01*
G01*
X-14314953Y-11231416D01*
G01*
X-14293421Y-11216036D01*
G01*
X-14265736Y-11209884D01*
G01*
X-14234975Y-11206808D01*
G01*
X-14198063Y-11212960D01*
G01*
X-14164226Y-11225264D01*
G01*
X-14133465Y-11249872D01*
G01*
X-14115009Y-11280633D01*
G01*
X-14099629Y-11314470D01*
G01*
X-14096553Y-11357535D01*
G01*
X-14099629Y-11397523D01*
G01*
X-14115009Y-11434436D01*
G01*
X-14136541Y-11465197D01*
G01*
X-14164226Y-11486729D01*
G01*
X-14198063Y-11502110D01*
G01*
X-14234975Y-11505186D01*
G01*
X-14274964Y-11499034D01*
G01*
X-14308801Y-11486729D01*
G01*
X-14339562Y-11462121D01*
G01*
X-14361094Y-11431360D01*
G01*
X-14373398Y-11397523D01*
G01*
X-14376474Y-11360611D01*
X-14336485Y-11360611D02*
G01*
X-14333409Y-11385219D01*
G01*
X-14330333Y-11406752D01*
G01*
X-14321105Y-11425208D01*
G01*
X-14308801Y-11440588D01*
G01*
X-14293421Y-11455969D01*
G01*
X-14274964Y-11465197D01*
G01*
X-14256508Y-11468273D01*
G01*
X-14238051Y-11471349D01*
G01*
X-14216519Y-11468273D01*
G01*
X-14198063Y-11465197D01*
G01*
X-14179606Y-11455969D01*
G01*
X-14164226Y-11440588D01*
G01*
X-14151922Y-11425208D01*
G01*
X-14142694Y-11406752D01*
G01*
X-14139617Y-11382143D01*
G01*
X-14136541Y-11357535D01*
G01*
X-14139617Y-11323698D01*
G01*
X-14148846Y-11296013D01*
G01*
X-14164226Y-11271405D01*
G01*
X-14182682Y-11256025D01*
G01*
X-14207291Y-11243720D01*
G01*
X-14234975Y-11240644D01*
G01*
X-14256508Y-11243720D01*
G01*
X-14274964Y-11246796D01*
G01*
X-14290345Y-11256025D01*
G01*
X-14305725Y-11268329D01*
G01*
X-14321105Y-11283709D01*
G01*
X-14330333Y-11305242D01*
G01*
X-14333409Y-11329850D01*
G01*
X-14336485Y-11360611D01*
X-13841239Y-11397523D02*
G01*
X-13801251Y-11409828D01*
G01*
X-13816631Y-11449817D01*
G01*
X-13844315Y-11480577D01*
G01*
X-13862772Y-11492881D01*
G01*
X-13881228Y-11499034D01*
G01*
X-13899685Y-11505186D01*
G01*
X-13921217D01*
G01*
X-13964282Y-11502110D01*
G01*
X-13998119Y-11486729D01*
G01*
X-14025803Y-11462121D01*
G01*
X-14044260Y-11431360D01*
G01*
X-14056564Y-11394447D01*
G01*
X-14059640Y-11354459D01*
G01*
X-14056564Y-11311394D01*
G01*
X-14041183Y-11274481D01*
G01*
X-14022727Y-11246796D01*
G01*
X-13991966Y-11225264D01*
G01*
X-13958130Y-11212960D01*
G01*
X-13921217Y-11206808D01*
G01*
X-13881228Y-11212960D01*
G01*
X-13847391Y-11228340D01*
G01*
X-13822783Y-11256025D01*
G01*
X-13807403Y-11292937D01*
G01*
X-13847391Y-11299089D01*
G01*
X-13859696Y-11274481D01*
G01*
X-13875076Y-11256025D01*
G01*
X-13896609Y-11243720D01*
G01*
X-13924293Y-11240644D01*
G01*
X-13955054Y-11243720D01*
G01*
X-13979662Y-11256025D01*
G01*
X-13998119Y-11274481D01*
G01*
X-14010423Y-11299089D01*
G01*
X-14016575Y-11326774D01*
G01*
X-14019651Y-11354459D01*
G01*
X-14016575Y-11388295D01*
G01*
X-14007347Y-11419056D01*
G01*
X-13995043Y-11440588D01*
G01*
X-13976586Y-11459045D01*
G01*
X-13951978Y-11468273D01*
G01*
X-13927369Y-11471349D01*
G01*
X-13896609Y-11468273D01*
G01*
X-13872000Y-11452893D01*
G01*
X-13853544Y-11431360D01*
G01*
X-13841239Y-11397523D01*
X-13788946Y-11582087D02*
G01*
Y-11557479D01*
G01*
X-13552089D01*
G01*
Y-11582087D01*
G01*
X-13788946D01*
X-13438275Y-11502110D02*
G01*
X-13558242Y-11209884D01*
G01*
X-13515177D01*
G01*
X-13435199Y-11419056D01*
G01*
X-13416743Y-11468273D01*
G01*
X-13401362Y-11419056D01*
G01*
X-13321385Y-11209884D01*
G01*
X-13278320D01*
G01*
X-13395210Y-11502110D01*
G01*
X-13438275D01*
X-13130669Y-11502110D02*
G01*
X-13167582D01*
G01*
Y-11274481D01*
G01*
X-13182962Y-11286785D01*
G01*
X-13201418Y-11299089D01*
G01*
X-13219875Y-11311394D01*
G01*
X-13238331Y-11317546D01*
G01*
Y-11283709D01*
G01*
X-13210647Y-11268329D01*
G01*
X-13186038Y-11249872D01*
G01*
X-13167582Y-11228340D01*
G01*
X-13155277Y-11209884D01*
G01*
X-13130669D01*
G01*
Y-11502110D01*
X-13059919Y-11582087D02*
G01*
Y-11557479D01*
G01*
X-12823063D01*
G01*
Y-11582087D01*
G01*
X-13059919D01*
X-12656955Y-11388295D02*
G01*
Y-11354459D01*
G01*
X-12533913D01*
G01*
Y-11462121D01*
G01*
X-12564673Y-11480577D01*
G01*
X-12592358Y-11492881D01*
G01*
X-12623119Y-11502110D01*
G01*
X-12656955Y-11505186D01*
G01*
X-12696944Y-11502110D01*
G01*
X-12736933Y-11486729D01*
G01*
X-12767694Y-11465197D01*
G01*
X-12789226Y-11434436D01*
G01*
X-12801530Y-11397523D01*
G01*
X-12807682Y-11357535D01*
G01*
X-12801530Y-11317546D01*
G01*
X-12789226Y-11277557D01*
G01*
X-12767694Y-11246796D01*
G01*
X-12736933Y-11225264D01*
G01*
X-12700020Y-11212960D01*
G01*
X-12660031Y-11206808D01*
G01*
X-12629271Y-11209884D01*
G01*
X-12601586Y-11216036D01*
G01*
X-12576978Y-11228340D01*
G01*
X-12561597Y-11246796D01*
G01*
X-12549293Y-11268329D01*
G01*
X-12536989Y-11292937D01*
G01*
X-12573902Y-11302166D01*
G01*
X-12583130Y-11283709D01*
G01*
X-12592358Y-11268329D01*
G01*
X-12604662Y-11256025D01*
G01*
X-12620043Y-11249872D01*
G01*
X-12638499Y-11243720D01*
G01*
X-12660031Y-11240644D01*
G01*
X-12684640Y-11243720D01*
G01*
X-12706172Y-11249872D01*
G01*
X-12724629Y-11259101D01*
G01*
X-12736933Y-11268329D01*
G01*
X-12755389Y-11299089D01*
G01*
X-12764617Y-11326774D01*
G01*
X-12767694Y-11357535D01*
G01*
X-12764617Y-11391371D01*
G01*
X-12755389Y-11422132D01*
G01*
X-12736933Y-11443664D01*
G01*
X-12715400Y-11459045D01*
G01*
X-12687716Y-11468273D01*
G01*
X-12660031Y-11471349D01*
G01*
X-12635423Y-11468273D01*
G01*
X-12610814Y-11462121D01*
G01*
X-12589282Y-11452893D01*
G01*
X-12573902Y-11440588D01*
G01*
Y-11388295D01*
G01*
X-12656955D01*
X-12333969Y-11434436D02*
G01*
X-12297056Y-11440588D01*
G01*
X-12309360Y-11468273D01*
G01*
X-12330893Y-11489805D01*
G01*
X-12358577Y-11502110D01*
G01*
X-12392414Y-11505186D01*
G01*
X-12413946Y-11502110D01*
G01*
X-12435479Y-11499034D01*
G01*
X-12450859Y-11489805D01*
G01*
X-12466239Y-11477501D01*
G01*
X-12478544Y-11462121D01*
G01*
X-12487772Y-11443664D01*
G01*
X-12490848Y-11422132D01*
G01*
X-12493924Y-11397523D01*
G01*
X-12490848Y-11372915D01*
G01*
X-12487772Y-11351383D01*
G01*
X-12478544Y-11332926D01*
G01*
X-12466239Y-11317546D01*
G01*
X-12450859Y-11302166D01*
G01*
X-12435479Y-11292937D01*
G01*
X-12413946Y-11289861D01*
G01*
X-12395490Y-11286785D01*
G01*
X-12373957Y-11289861D01*
G01*
X-12355501Y-11292937D01*
G01*
X-12340121Y-11302166D01*
G01*
X-12324740Y-11314470D01*
G01*
X-12312436Y-11329850D01*
G01*
X-12303208Y-11348306D01*
G01*
X-12300132Y-11369839D01*
G01*
X-12297056Y-11394447D01*
G01*
Y-11403676D01*
G01*
X-12457011D01*
G01*
X-12450859Y-11434436D01*
G01*
X-12435479Y-11452893D01*
G01*
X-12417022Y-11468273D01*
G01*
X-12392414Y-11471349D01*
G01*
X-12373957Y-11468273D01*
G01*
X-12355501Y-11462121D01*
G01*
X-12343197Y-11452893D01*
G01*
X-12333969Y-11434436D01*
X-12457011Y-11369839D02*
G01*
X-12333969D01*
G01*
X-12340121Y-11351383D01*
G01*
X-12349349Y-11339078D01*
G01*
X-12367805Y-11323698D01*
G01*
X-12395490Y-11320622D01*
G01*
X-12417022Y-11323698D01*
G01*
X-12438555Y-11332926D01*
G01*
X-12450859Y-11351383D01*
G01*
X-12457011Y-11369839D01*
X-12253991Y-11502110D02*
G01*
Y-11289861D01*
G01*
X-12223230D01*
G01*
Y-11320622D01*
G01*
X-12210926Y-11302166D01*
G01*
X-12201698Y-11292937D01*
G01*
X-12189394Y-11289861D01*
G01*
X-12177089Y-11286785D01*
G01*
X-12158633Y-11289861D01*
G01*
X-12140177Y-11296013D01*
G01*
X-12152481Y-11329850D01*
G01*
X-12164785Y-11323698D01*
G01*
X-12177089Y-11320622D01*
G01*
X-12189394Y-11323698D01*
G01*
X-12198622Y-11326774D01*
G01*
X-12210926Y-11348306D01*
G01*
X-12217078Y-11391371D01*
G01*
Y-11502110D01*
G01*
X-12253991D01*
X-12081732Y-11502110D02*
G01*
X-12118644D01*
G01*
Y-11209884D01*
G01*
X-12081732D01*
G01*
Y-11320622D01*
G01*
X-12069427Y-11305242D01*
G01*
X-12057123Y-11296013D01*
G01*
X-12041743Y-11289861D01*
G01*
X-12023286Y-11286785D01*
G01*
X-12004830Y-11289861D01*
G01*
X-11986374Y-11296013D01*
G01*
X-11970993Y-11305242D01*
G01*
X-11958689Y-11317546D01*
G01*
X-11940233Y-11351383D01*
G01*
X-11934081Y-11369839D01*
G01*
Y-11394447D01*
G01*
Y-11419056D01*
G01*
X-11940233Y-11440588D01*
G01*
X-11949461Y-11459045D01*
G01*
X-11961765Y-11477501D01*
G01*
X-11974069Y-11489805D01*
G01*
X-11989450Y-11499034D01*
G01*
X-12004830Y-11502110D01*
G01*
X-12023286Y-11505186D01*
G01*
X-12041743Y-11502110D01*
G01*
X-12057123Y-11495957D01*
G01*
X-12069427Y-11486729D01*
G01*
X-12081732Y-11468273D01*
G01*
Y-11502110D01*
X-12081732Y-11394447D02*
G01*
X-12078655Y-11425208D01*
G01*
X-12072503Y-11446740D01*
G01*
X-12063275Y-11455969D01*
G01*
X-12050971Y-11465197D01*
G01*
X-12041743Y-11471349D01*
G01*
X-12026362D01*
G01*
X-12004830Y-11468273D01*
G01*
X-11986374Y-11452893D01*
G01*
X-11974069Y-11428284D01*
G01*
X-11970993Y-11394447D01*
G01*
X-11974069Y-11363687D01*
G01*
X-11986374Y-11339078D01*
G01*
X-12004830Y-11326774D01*
G01*
X-12026362Y-11320622D01*
G01*
X-12047895Y-11326774D01*
G01*
X-12066351Y-11339078D01*
G01*
X-12078655Y-11363687D01*
G01*
X-12081732Y-11394447D01*
X-11743365Y-11434436D02*
G01*
X-11706452Y-11440588D01*
G01*
X-11718756Y-11468273D01*
G01*
X-11740289Y-11489805D01*
G01*
X-11767973Y-11502110D01*
G01*
X-11801810Y-11505186D01*
G01*
X-11823342Y-11502110D01*
G01*
X-11844875Y-11499034D01*
G01*
X-11860255Y-11489805D01*
G01*
X-11875635Y-11477501D01*
G01*
X-11887940Y-11462121D01*
G01*
X-11897168Y-11443664D01*
G01*
X-11900244Y-11422132D01*
G01*
X-11903320Y-11397523D01*
G01*
X-11900244Y-11372915D01*
G01*
X-11897168Y-11351383D01*
G01*
X-11887940Y-11332926D01*
G01*
X-11875635Y-11317546D01*
G01*
X-11860255Y-11302166D01*
G01*
X-11844875Y-11292937D01*
G01*
X-11823342Y-11289861D01*
G01*
X-11804886Y-11286785D01*
G01*
X-11783353Y-11289861D01*
G01*
X-11764897Y-11292937D01*
G01*
X-11749517Y-11302166D01*
G01*
X-11734136Y-11314470D01*
G01*
X-11721832Y-11329850D01*
G01*
X-11712604Y-11348306D01*
G01*
X-11709528Y-11369839D01*
G01*
X-11706452Y-11394447D01*
G01*
Y-11403676D01*
G01*
X-11866407D01*
G01*
X-11860255Y-11434436D01*
G01*
X-11844875Y-11452893D01*
G01*
X-11826418Y-11468273D01*
G01*
X-11801810Y-11471349D01*
G01*
X-11783353Y-11468273D01*
G01*
X-11764897Y-11462121D01*
G01*
X-11752593Y-11452893D01*
G01*
X-11743365Y-11434436D01*
X-11866407Y-11369839D02*
G01*
X-11743365D01*
G01*
X-11749517Y-11351383D01*
G01*
X-11758745Y-11339078D01*
G01*
X-11777201Y-11323698D01*
G01*
X-11804886Y-11320622D01*
G01*
X-11826418Y-11323698D01*
G01*
X-11847951Y-11332926D01*
G01*
X-11860255Y-11351383D01*
G01*
X-11866407Y-11369839D01*
X-11663387Y-11502110D02*
G01*
Y-11289861D01*
G01*
X-11632626D01*
G01*
Y-11320622D01*
G01*
X-11620322Y-11302166D01*
G01*
X-11611094Y-11292937D01*
G01*
X-11598790Y-11289861D01*
G01*
X-11586485Y-11286785D01*
G01*
X-11568029Y-11289861D01*
G01*
X-11549573Y-11296013D01*
G01*
X-11561877Y-11329850D01*
G01*
X-11574181Y-11323698D01*
G01*
X-11586485Y-11320622D01*
G01*
X-11598790Y-11323698D01*
G01*
X-11608018Y-11326774D01*
G01*
X-11620322Y-11348306D01*
G01*
X-11626474Y-11391371D01*
G01*
Y-11502110D01*
G01*
X-11663387D01*
X-11561877Y-11582087D02*
G01*
Y-11557479D01*
G01*
X-11325020D01*
G01*
Y-11582087D01*
G01*
X-11561877D01*
X-11315792Y-11419056D02*
G01*
X-11275803Y-11412904D01*
G01*
X-11272727Y-11440588D01*
G01*
X-11263499Y-11459045D01*
G01*
X-11251195Y-11468273D01*
G01*
X-11235814Y-11471349D01*
G01*
X-11223510D01*
G01*
X-11211206Y-11465197D01*
G01*
X-11205054Y-11455969D01*
G01*
X-11198902Y-11446740D01*
G01*
X-11195826Y-11431360D01*
G01*
Y-11409828D01*
G01*
Y-11209884D01*
G01*
X-11155837D01*
G01*
Y-11406752D01*
G01*
X-11158913Y-11440588D01*
G01*
X-11165065Y-11465197D01*
G01*
X-11177369Y-11483653D01*
G01*
X-11192749Y-11495957D01*
G01*
X-11214282Y-11502110D01*
G01*
X-11238890Y-11505186D01*
G01*
X-11272727Y-11499034D01*
G01*
X-11297336Y-11483653D01*
G01*
X-11309640Y-11455969D01*
G01*
X-11315792Y-11419056D01*
X-11088163Y-11502110D02*
G01*
Y-11209884D01*
G01*
X-11048174D01*
G01*
Y-11468273D01*
G01*
X-10906676D01*
G01*
Y-11502110D01*
G01*
X-11088163D01*
X-10657515Y-11397523D02*
G01*
X-10617526Y-11409828D01*
G01*
X-10632906Y-11449817D01*
G01*
X-10660591Y-11480577D01*
G01*
X-10679047Y-11492881D01*
G01*
X-10697503Y-11499034D01*
G01*
X-10715960Y-11505186D01*
G01*
X-10737492D01*
G01*
X-10780557Y-11502110D01*
G01*
X-10814394Y-11486729D01*
G01*
X-10842078Y-11462121D01*
G01*
X-10860535Y-11431360D01*
G01*
X-10872839Y-11394447D01*
G01*
X-10875915Y-11354459D01*
G01*
X-10872839Y-11311394D01*
G01*
X-10857459Y-11274481D01*
G01*
X-10839002Y-11246796D01*
G01*
X-10808242Y-11225264D01*
G01*
X-10774405Y-11212960D01*
G01*
X-10737492Y-11206808D01*
G01*
X-10697503Y-11212960D01*
G01*
X-10663667Y-11228340D01*
G01*
X-10639058Y-11256025D01*
G01*
X-10623678Y-11292937D01*
G01*
X-10663667Y-11299089D01*
G01*
X-10675971Y-11274481D01*
G01*
X-10691351Y-11256025D01*
G01*
X-10712884Y-11243720D01*
G01*
X-10740568Y-11240644D01*
G01*
X-10771329Y-11243720D01*
G01*
X-10795937Y-11256025D01*
G01*
X-10814394Y-11274481D01*
G01*
X-10826698Y-11299089D01*
G01*
X-10832850Y-11326774D01*
G01*
X-10835926Y-11354459D01*
G01*
X-10832850Y-11388295D01*
G01*
X-10823622Y-11419056D01*
G01*
X-10811318Y-11440588D01*
G01*
X-10792861Y-11459045D01*
G01*
X-10768253Y-11468273D01*
G01*
X-10743644Y-11471349D01*
G01*
X-10712884Y-11468273D01*
G01*
X-10688275Y-11452893D01*
G01*
X-10669819Y-11431360D01*
G01*
X-10657515Y-11397523D01*
X-10605221Y-11582087D02*
G01*
Y-11557479D01*
G01*
X-10368365D01*
G01*
Y-11582087D01*
G01*
X-10605221D01*
X-10168421Y-11465197D02*
G01*
Y-11502110D01*
G01*
X-10359136D01*
G01*
X-10356060Y-11477501D01*
G01*
X-10346832Y-11455969D01*
G01*
X-10331452Y-11437512D01*
G01*
X-10312996Y-11415980D01*
G01*
X-10288387Y-11394447D01*
G01*
X-10266855Y-11375991D01*
G01*
X-10248398Y-11357535D01*
G01*
X-10236094Y-11345230D01*
G01*
X-10223790Y-11332926D01*
G01*
X-10211485Y-11311394D01*
G01*
X-10208409Y-11289861D01*
G01*
X-10211485Y-11274481D01*
G01*
X-10223790Y-11259101D01*
G01*
X-10239170Y-11246796D01*
G01*
X-10260702Y-11243720D01*
G01*
X-10282235Y-11246796D01*
G01*
X-10300691Y-11259101D01*
G01*
X-10312996Y-11277557D01*
G01*
X-10316072Y-11299089D01*
G01*
X-10352984Y-11292937D01*
G01*
X-10343756Y-11256025D01*
G01*
X-10325300Y-11231416D01*
G01*
X-10297615Y-11216036D01*
G01*
X-10260702Y-11209884D01*
G01*
X-10223790Y-11216036D01*
G01*
X-10196105Y-11234492D01*
G01*
X-10177649Y-11259101D01*
G01*
X-10171497Y-11289861D01*
G01*
Y-11308318D01*
G01*
X-10177649Y-11326774D01*
G01*
X-10186877Y-11342154D01*
G01*
X-10199181Y-11360611D01*
G01*
X-10220714Y-11382143D01*
G01*
X-10254550Y-11409828D01*
G01*
X-10279159Y-11434436D01*
G01*
X-10294539Y-11446740D01*
G01*
X-10309919Y-11465197D01*
G01*
X-10168421D01*
X-10125356Y-11357535D02*
G01*
X-10122280Y-11311394D01*
G01*
X-10113051Y-11274481D01*
G01*
X-10100747Y-11246796D01*
G01*
X-10082291Y-11225264D01*
G01*
X-10057682Y-11212960D01*
G01*
X-10029998Y-11209884D01*
G01*
X-10008465Y-11212960D01*
G01*
X-09986933Y-11219112D01*
G01*
X-09971553Y-11231416D01*
G01*
X-09959248Y-11246796D01*
G01*
X-09950020Y-11265253D01*
G01*
X-09940792Y-11289861D01*
G01*
X-09934640Y-11320622D01*
G01*
Y-11357535D01*
G01*
X-09937716Y-11403676D01*
G01*
X-09943868Y-11440588D01*
G01*
X-09959248Y-11468273D01*
G01*
X-09977705Y-11489805D01*
G01*
X-09999237Y-11502110D01*
G01*
X-10029998Y-11505186D01*
G01*
X-10048454Y-11502110D01*
G01*
X-10066911Y-11499034D01*
G01*
X-10082291Y-11489805D01*
G01*
X-10097671Y-11477501D01*
G01*
X-10109975Y-11455969D01*
G01*
X-10119204Y-11428284D01*
G01*
X-10122280Y-11394447D01*
G01*
X-10125356Y-11357535D01*
X-10088443Y-11357535D02*
G01*
Y-11388295D01*
G01*
X-10085367Y-11415980D01*
G01*
X-10079215Y-11434436D01*
G01*
X-10069987Y-11449817D01*
G01*
X-10051530Y-11465197D01*
G01*
X-10029998Y-11471349D01*
G01*
X-10008465Y-11465197D01*
G01*
X-09986933Y-11449817D01*
G01*
X-09980781Y-11434436D01*
G01*
X-09974629Y-11415980D01*
G01*
X-09971553Y-11388295D01*
G01*
Y-11357535D01*
G01*
Y-11326774D01*
G01*
X-09974629Y-11302166D01*
G01*
X-09980781Y-11280633D01*
G01*
X-09986933Y-11265253D01*
G01*
X-10005389Y-11249872D01*
G01*
X-10029998Y-11243720D01*
G01*
X-10051530Y-11249872D01*
G01*
X-10069987Y-11265253D01*
G01*
X-10079215Y-11280633D01*
G01*
X-10085367Y-11299089D01*
G01*
X-10088443Y-11326774D01*
G01*
Y-11357535D01*
X-09713163Y-11465197D02*
G01*
Y-11502110D01*
G01*
X-09903879D01*
G01*
X-09900803Y-11477501D01*
G01*
X-09891575Y-11455969D01*
G01*
X-09876195Y-11437512D01*
G01*
X-09857738Y-11415980D01*
G01*
X-09833130Y-11394447D01*
G01*
X-09811597Y-11375991D01*
G01*
X-09793141Y-11357535D01*
G01*
X-09780837Y-11345230D01*
G01*
X-09768532Y-11332926D01*
G01*
X-09756228Y-11311394D01*
G01*
X-09753152Y-11289861D01*
G01*
X-09756228Y-11274481D01*
G01*
X-09768532Y-11259101D01*
G01*
X-09783913Y-11246796D01*
G01*
X-09805445Y-11243720D01*
G01*
X-09826978Y-11246796D01*
G01*
X-09845434Y-11259101D01*
G01*
X-09857738Y-11277557D01*
G01*
X-09860814Y-11299089D01*
G01*
X-09897727Y-11292937D01*
G01*
X-09888499Y-11256025D01*
G01*
X-09870043Y-11231416D01*
G01*
X-09842358Y-11216036D01*
G01*
X-09805445Y-11209884D01*
G01*
X-09768532Y-11216036D01*
G01*
X-09740848Y-11234492D01*
G01*
X-09722391Y-11259101D01*
G01*
X-09716239Y-11289861D01*
G01*
Y-11308318D01*
G01*
X-09722391Y-11326774D01*
G01*
X-09731620Y-11342154D01*
G01*
X-09743924Y-11360611D01*
G01*
X-09765456Y-11382143D01*
G01*
X-09799293Y-11409828D01*
G01*
X-09823902Y-11434436D01*
G01*
X-09839282Y-11446740D01*
G01*
X-09854662Y-11465197D01*
G01*
X-09713163D01*
X-09670098Y-11422132D02*
G01*
X-09633186Y-11415980D01*
G01*
X-09623957Y-11440588D01*
G01*
X-09611653Y-11459045D01*
G01*
X-09596273Y-11468273D01*
G01*
X-09574740Y-11471349D01*
G01*
X-09553208Y-11468273D01*
G01*
X-09531676Y-11455969D01*
G01*
X-09519371Y-11437512D01*
G01*
X-09516295Y-11412904D01*
G01*
X-09519371Y-11391371D01*
G01*
X-09531676Y-11375991D01*
G01*
X-09550132Y-11363687D01*
G01*
X-09574740Y-11360611D01*
G01*
X-09599349Y-11363687D01*
G01*
X-09593197Y-11329850D01*
G01*
X-09590121D01*
G01*
X-09568588Y-11326774D01*
G01*
X-09550132Y-11320622D01*
G01*
X-09534752Y-11305242D01*
G01*
X-09531676Y-11286785D01*
G01*
X-09534752Y-11268329D01*
G01*
X-09543980Y-11256025D01*
G01*
X-09559360Y-11246796D01*
G01*
X-09577817Y-11243720D01*
G01*
X-09596273Y-11246796D01*
G01*
X-09611653Y-11256025D01*
G01*
X-09623957Y-11271405D01*
G01*
X-09630110Y-11292937D01*
G01*
X-09667022Y-11286785D01*
G01*
X-09654718Y-11256025D01*
G01*
X-09636262Y-11231416D01*
G01*
X-09611653Y-11216036D01*
G01*
X-09580893Y-11209884D01*
G01*
X-09556284Y-11212960D01*
G01*
X-09534752Y-11219112D01*
G01*
X-09519371Y-11231416D01*
G01*
X-09503991Y-11246796D01*
G01*
X-09497839Y-11265253D01*
G01*
X-09494763Y-11283709D01*
G01*
X-09497839Y-11302166D01*
G01*
X-09503991Y-11317546D01*
G01*
X-09516295Y-11332926D01*
G01*
X-09534752Y-11342154D01*
G01*
X-09513219Y-11351383D01*
G01*
X-09494763Y-11366763D01*
G01*
X-09482459Y-11388295D01*
G01*
X-09479383Y-11412904D01*
G01*
X-09482459Y-11431360D01*
G01*
X-09485535Y-11449817D01*
G01*
X-09494763Y-11465197D01*
G01*
X-09507067Y-11477501D01*
G01*
X-09522447Y-11489805D01*
G01*
X-09537828Y-11499034D01*
G01*
X-09556284Y-11505186D01*
G01*
X-09577817D01*
G01*
X-09611653Y-11499034D01*
G01*
X-09642414Y-11483653D01*
G01*
X-09660870Y-11455969D01*
G01*
X-09670098Y-11422132D01*
X-09442470Y-11357535D02*
G01*
X-09439394Y-11311394D01*
G01*
X-09430166Y-11274481D01*
G01*
X-09417861Y-11246796D01*
G01*
X-09399405Y-11225264D01*
G01*
X-09374796Y-11212960D01*
G01*
X-09347112Y-11209884D01*
G01*
X-09325579Y-11212960D01*
G01*
X-09304047Y-11219112D01*
G01*
X-09288667Y-11231416D01*
G01*
X-09276362Y-11246796D01*
G01*
X-09267134Y-11265253D01*
G01*
X-09257906Y-11289861D01*
G01*
X-09251754Y-11320622D01*
G01*
Y-11357535D01*
G01*
X-09254830Y-11403676D01*
G01*
X-09260982Y-11440588D01*
G01*
X-09276362Y-11468273D01*
G01*
X-09294819Y-11489805D01*
G01*
X-09316351Y-11502110D01*
G01*
X-09347112Y-11505186D01*
G01*
X-09365568Y-11502110D01*
G01*
X-09384025Y-11499034D01*
G01*
X-09399405Y-11489805D01*
G01*
X-09414785Y-11477501D01*
G01*
X-09427089Y-11455969D01*
G01*
X-09436318Y-11428284D01*
G01*
X-09439394Y-11394447D01*
G01*
X-09442470Y-11357535D01*
X-09405557Y-11357535D02*
G01*
Y-11388295D01*
G01*
X-09402481Y-11415980D01*
G01*
X-09396329Y-11434436D01*
G01*
X-09387101Y-11449817D01*
G01*
X-09368644Y-11465197D01*
G01*
X-09347112Y-11471349D01*
G01*
X-09325579Y-11465197D01*
G01*
X-09304047Y-11449817D01*
G01*
X-09297895Y-11434436D01*
G01*
X-09291743Y-11415980D01*
G01*
X-09288667Y-11388295D01*
G01*
Y-11357535D01*
G01*
Y-11326774D01*
G01*
X-09291743Y-11302166D01*
G01*
X-09297895Y-11280633D01*
G01*
X-09304047Y-11265253D01*
G01*
X-09322503Y-11249872D01*
G01*
X-09347112Y-11243720D01*
G01*
X-09368644Y-11249872D01*
G01*
X-09387101Y-11265253D01*
G01*
X-09396329Y-11280633D01*
G01*
X-09402481Y-11299089D01*
G01*
X-09405557Y-11326774D01*
G01*
Y-11357535D01*
X-09030277Y-11465197D02*
G01*
Y-11502110D01*
G01*
X-09220993D01*
G01*
X-09217917Y-11477501D01*
G01*
X-09208689Y-11455969D01*
G01*
X-09193309Y-11437512D01*
G01*
X-09174852Y-11415980D01*
G01*
X-09150244Y-11394447D01*
G01*
X-09128711Y-11375991D01*
G01*
X-09110255Y-11357535D01*
G01*
X-09097951Y-11345230D01*
G01*
X-09085647Y-11332926D01*
G01*
X-09073342Y-11311394D01*
G01*
X-09070266Y-11289861D01*
G01*
X-09073342Y-11274481D01*
G01*
X-09085647Y-11259101D01*
G01*
X-09101027Y-11246796D01*
G01*
X-09122559Y-11243720D01*
G01*
X-09144092Y-11246796D01*
G01*
X-09162548Y-11259101D01*
G01*
X-09174852Y-11277557D01*
G01*
X-09177928Y-11299089D01*
G01*
X-09214841Y-11292937D01*
G01*
X-09205613Y-11256025D01*
G01*
X-09187157Y-11231416D01*
G01*
X-09159472Y-11216036D01*
G01*
X-09122559Y-11209884D01*
G01*
X-09085647Y-11216036D01*
G01*
X-09057962Y-11234492D01*
G01*
X-09039506Y-11259101D01*
G01*
X-09033353Y-11289861D01*
G01*
Y-11308318D01*
G01*
X-09039506Y-11326774D01*
G01*
X-09048734Y-11342154D01*
G01*
X-09061038Y-11360611D01*
G01*
X-09082570Y-11382143D01*
G01*
X-09116407Y-11409828D01*
G01*
X-09141016Y-11434436D01*
G01*
X-09156396Y-11446740D01*
G01*
X-09171776Y-11465197D01*
G01*
X-09030277D01*
X-08802649Y-11465197D02*
G01*
Y-11502110D01*
G01*
X-08993365D01*
G01*
X-08990289Y-11477501D01*
G01*
X-08981060Y-11455969D01*
G01*
X-08965680Y-11437512D01*
G01*
X-08947224Y-11415980D01*
G01*
X-08922615Y-11394447D01*
G01*
X-08901083Y-11375991D01*
G01*
X-08882626Y-11357535D01*
G01*
X-08870322Y-11345230D01*
G01*
X-08858018Y-11332926D01*
G01*
X-08845714Y-11311394D01*
G01*
X-08842638Y-11289861D01*
G01*
X-08845714Y-11274481D01*
G01*
X-08858018Y-11259101D01*
G01*
X-08873398Y-11246796D01*
G01*
X-08894931Y-11243720D01*
G01*
X-08916463Y-11246796D01*
G01*
X-08934919Y-11259101D01*
G01*
X-08947224Y-11277557D01*
G01*
X-08950300Y-11299089D01*
G01*
X-08987213Y-11292937D01*
G01*
X-08977984Y-11256025D01*
G01*
X-08959528Y-11231416D01*
G01*
X-08931843Y-11216036D01*
G01*
X-08894931Y-11209884D01*
G01*
X-08858018Y-11216036D01*
G01*
X-08830333Y-11234492D01*
G01*
X-08811877Y-11259101D01*
G01*
X-08805725Y-11289861D01*
G01*
Y-11308318D01*
G01*
X-08811877Y-11326774D01*
G01*
X-08821105Y-11342154D01*
G01*
X-08833409Y-11360611D01*
G01*
X-08854942Y-11382143D01*
G01*
X-08888779Y-11409828D01*
G01*
X-08913387Y-11434436D01*
G01*
X-08928767Y-11446740D01*
G01*
X-08944148Y-11465197D01*
G01*
X-08802649D01*
X-08759584Y-11357535D02*
G01*
X-08756508Y-11311394D01*
G01*
X-08747280Y-11274481D01*
G01*
X-08734975Y-11246796D01*
G01*
X-08716519Y-11225264D01*
G01*
X-08691911Y-11212960D01*
G01*
X-08664226Y-11209884D01*
G01*
X-08642694Y-11212960D01*
G01*
X-08621161Y-11219112D01*
G01*
X-08605781Y-11231416D01*
G01*
X-08593477Y-11246796D01*
G01*
X-08584248Y-11265253D01*
G01*
X-08575020Y-11289861D01*
G01*
X-08568868Y-11320622D01*
G01*
Y-11357535D01*
G01*
X-08571944Y-11403676D01*
G01*
X-08578096Y-11440588D01*
G01*
X-08593477Y-11468273D01*
G01*
X-08611933Y-11489805D01*
G01*
X-08633465Y-11502110D01*
G01*
X-08664226Y-11505186D01*
G01*
X-08682682Y-11502110D01*
G01*
X-08701139Y-11499034D01*
G01*
X-08716519Y-11489805D01*
G01*
X-08731899Y-11477501D01*
G01*
X-08744204Y-11455969D01*
G01*
X-08753432Y-11428284D01*
G01*
X-08756508Y-11394447D01*
G01*
X-08759584Y-11357535D01*
X-08722671Y-11357535D02*
G01*
Y-11388295D01*
G01*
X-08719595Y-11415980D01*
G01*
X-08713443Y-11434436D01*
G01*
X-08704215Y-11449817D01*
G01*
X-08685758Y-11465197D01*
G01*
X-08664226Y-11471349D01*
G01*
X-08642694Y-11465197D01*
G01*
X-08621161Y-11449817D01*
G01*
X-08615009Y-11434436D01*
G01*
X-08608857Y-11415980D01*
G01*
X-08605781Y-11388295D01*
G01*
Y-11357535D01*
G01*
Y-11326774D01*
G01*
X-08608857Y-11302166D01*
G01*
X-08615009Y-11280633D01*
G01*
X-08621161Y-11265253D01*
G01*
X-08639617Y-11249872D01*
G01*
X-08664226Y-11243720D01*
G01*
X-08685758Y-11249872D01*
G01*
X-08704215Y-11265253D01*
G01*
X-08713443Y-11280633D01*
G01*
X-08719595Y-11299089D01*
G01*
X-08722671Y-11326774D01*
G01*
Y-11357535D01*
X-17997000Y-11951215D02*
G01*
X-17957011D01*
G01*
X-17953935Y-11972747D01*
G01*
X-17944707Y-11988128D01*
G01*
X-17932403Y-12003508D01*
G01*
X-17917022Y-12012736D01*
G01*
X-17895490Y-12018888D01*
G01*
X-17873957Y-12021964D01*
G01*
X-17852425D01*
G01*
X-17837045Y-12015812D01*
G01*
X-17821664Y-12006584D01*
G01*
X-17812436Y-11997356D01*
G01*
X-17806284Y-11985051D01*
G01*
X-17803208Y-11972747D01*
G01*
Y-11960443D01*
G01*
X-17809360Y-11948139D01*
G01*
X-17818588Y-11938911D01*
G01*
X-17833969Y-11932758D01*
G01*
X-17843197Y-11929682D01*
G01*
X-17852425Y-11926606D01*
G01*
X-17867805Y-11923530D01*
G01*
X-17886262Y-11917378D01*
G01*
X-17920098Y-11908150D01*
G01*
X-17941631Y-11898922D01*
G01*
X-17960087Y-11889694D01*
G01*
X-17972391Y-11874313D01*
G01*
X-17981620Y-11855857D01*
G01*
X-17984696Y-11837400D01*
G01*
X-17981620Y-11815868D01*
G01*
X-17972391Y-11797412D01*
G01*
X-17957011Y-11778955D01*
G01*
X-17935479Y-11766651D01*
G01*
X-17907794Y-11760499D01*
G01*
X-17880110Y-11757423D01*
G01*
X-17849349Y-11760499D01*
G01*
X-17821664Y-11766651D01*
G01*
X-17800132Y-11782031D01*
G01*
X-17784752Y-11797412D01*
G01*
X-17772447Y-11818944D01*
G01*
X-17769371Y-11843553D01*
G01*
X-17809360D01*
G01*
X-17815512Y-11822020D01*
G01*
X-17827817Y-11803564D01*
G01*
X-17849349Y-11794336D01*
G01*
X-17880110Y-11791260D01*
G01*
X-17907794Y-11794336D01*
G01*
X-17929327Y-11803564D01*
G01*
X-17941631Y-11818944D01*
G01*
X-17944707Y-11834324D01*
G01*
X-17941631Y-11849705D01*
G01*
X-17932403Y-11858933D01*
G01*
X-17926251Y-11865085D01*
G01*
X-17913946Y-11871237D01*
G01*
X-17898566Y-11877389D01*
G01*
X-17877034Y-11880465D01*
G01*
X-17855501Y-11886617D01*
G01*
X-17837045Y-11889694D01*
G01*
X-17824740Y-11895846D01*
G01*
X-17812436Y-11898922D01*
G01*
X-17790904Y-11911226D01*
G01*
X-17775523Y-11929682D01*
G01*
X-17766295Y-11948139D01*
G01*
X-17763219Y-11969671D01*
G01*
X-17766295Y-11991204D01*
G01*
X-17775523Y-12012736D01*
G01*
X-17793980Y-12031192D01*
G01*
X-17815512Y-12043497D01*
G01*
X-17843197Y-12052725D01*
G01*
X-17870881Y-12055801D01*
G01*
X-17907794Y-12052725D01*
G01*
X-17938555Y-12043497D01*
G01*
X-17963163Y-12028116D01*
G01*
X-17981620Y-12006584D01*
G01*
X-17993924Y-11981975D01*
G01*
X-17997000Y-11951215D01*
X-17704774Y-12052725D02*
G01*
Y-11760499D01*
G01*
X-17664785D01*
G01*
Y-12052725D01*
G01*
X-17704774D01*
X-17618644Y-12052725D02*
G01*
Y-12018888D01*
G01*
X-17470993Y-11828172D01*
G01*
X-17455613Y-11809716D01*
G01*
X-17443309Y-11794336D01*
G01*
X-17600188D01*
G01*
Y-11760499D01*
G01*
X-17394092D01*
G01*
Y-11794336D01*
G01*
X-17554047Y-12000432D01*
G01*
X-17569427Y-12018888D01*
G01*
X-17387940D01*
G01*
Y-12052725D01*
G01*
X-17618644D01*
X-17344875Y-12052725D02*
G01*
Y-11760499D01*
G01*
X-17132626D01*
G01*
Y-11794336D01*
G01*
X-17304886D01*
G01*
Y-11883541D01*
G01*
X-17144931D01*
G01*
Y-11917378D01*
G01*
X-17304886D01*
G01*
Y-12018888D01*
G01*
X-17126474D01*
G01*
Y-12052725D01*
G01*
X-17344875D01*
X-17068029Y-11877389D02*
G01*
Y-11840477D01*
G01*
X-17031116D01*
G01*
Y-11877389D01*
G01*
X-17068029D01*
X-17068029Y-12052725D02*
G01*
Y-12015812D01*
G01*
X-17031116D01*
G01*
Y-12052725D01*
G01*
X-17068029D01*
X-16972671Y-11972747D02*
G01*
X-16935758Y-11966595D01*
G01*
X-16926530Y-11991204D01*
G01*
X-16914226Y-12009660D01*
G01*
X-16898846Y-12018888D01*
G01*
X-16877313Y-12021964D01*
G01*
X-16855781Y-12018888D01*
G01*
X-16834248Y-12006584D01*
G01*
X-16821944Y-11988128D01*
G01*
X-16818868Y-11963519D01*
G01*
X-16821944Y-11941987D01*
G01*
X-16834248Y-11926606D01*
G01*
X-16852705Y-11914302D01*
G01*
X-16877313Y-11911226D01*
G01*
X-16901922Y-11914302D01*
G01*
X-16895770Y-11880465D01*
G01*
X-16892694D01*
G01*
X-16871161Y-11877389D01*
G01*
X-16852705Y-11871237D01*
G01*
X-16837324Y-11855857D01*
G01*
X-16834248Y-11837400D01*
G01*
X-16837324Y-11818944D01*
G01*
X-16846553Y-11806640D01*
G01*
X-16861933Y-11797412D01*
G01*
X-16880389Y-11794336D01*
G01*
X-16898846Y-11797412D01*
G01*
X-16914226Y-11806640D01*
G01*
X-16926530Y-11822020D01*
G01*
X-16932682Y-11843553D01*
G01*
X-16969595Y-11837400D01*
G01*
X-16957291Y-11806640D01*
G01*
X-16938834Y-11782031D01*
G01*
X-16914226Y-11766651D01*
G01*
X-16883465Y-11760499D01*
G01*
X-16858857Y-11763575D01*
G01*
X-16837324Y-11769727D01*
G01*
X-16821944Y-11782031D01*
G01*
X-16806564Y-11797412D01*
G01*
X-16800412Y-11815868D01*
G01*
X-16797336Y-11834324D01*
G01*
X-16800412Y-11852781D01*
G01*
X-16806564Y-11868161D01*
G01*
X-16818868Y-11883541D01*
G01*
X-16837324Y-11892770D01*
G01*
X-16815792Y-11901998D01*
G01*
X-16797336Y-11917378D01*
G01*
X-16785031Y-11938911D01*
G01*
X-16781955Y-11963519D01*
G01*
X-16785031Y-11981975D01*
G01*
X-16788107Y-12000432D01*
G01*
X-16797336Y-12015812D01*
G01*
X-16809640Y-12028116D01*
G01*
X-16825020Y-12040421D01*
G01*
X-16840400Y-12049649D01*
G01*
X-16858857Y-12055801D01*
G01*
X-16880389D01*
G01*
X-16914226Y-12049649D01*
G01*
X-16944987Y-12034268D01*
G01*
X-16963443Y-12006584D01*
G01*
X-16972671Y-11972747D01*
X-16745043Y-11908150D02*
G01*
X-16741966Y-11862009D01*
G01*
X-16732738Y-11825096D01*
G01*
X-16720434Y-11797412D01*
G01*
X-16701978Y-11775879D01*
G01*
X-16677369Y-11763575D01*
G01*
X-16649685Y-11760499D01*
G01*
X-16628152Y-11763575D01*
G01*
X-16606620Y-11769727D01*
G01*
X-16591239Y-11782031D01*
G01*
X-16578935Y-11797412D01*
G01*
X-16569707Y-11815868D01*
G01*
X-16560479Y-11840477D01*
G01*
X-16554327Y-11871237D01*
G01*
Y-11908150D01*
G01*
X-16557403Y-11954291D01*
G01*
X-16563555Y-11991204D01*
G01*
X-16578935Y-12018888D01*
G01*
X-16597391Y-12040421D01*
G01*
X-16618924Y-12052725D01*
G01*
X-16649685Y-12055801D01*
G01*
X-16668141Y-12052725D01*
G01*
X-16686597Y-12049649D01*
G01*
X-16701978Y-12040421D01*
G01*
X-16717358Y-12028116D01*
G01*
X-16729662Y-12006584D01*
G01*
X-16738890Y-11978899D01*
G01*
X-16741966Y-11945063D01*
G01*
X-16745043Y-11908150D01*
X-16708130Y-11908150D02*
G01*
Y-11938911D01*
G01*
X-16705054Y-11966595D01*
G01*
X-16698902Y-11985051D01*
G01*
X-16689673Y-12000432D01*
G01*
X-16671217Y-12015812D01*
G01*
X-16649685Y-12021964D01*
G01*
X-16628152Y-12015812D01*
G01*
X-16606620Y-12000432D01*
G01*
X-16600468Y-11985051D01*
G01*
X-16594315Y-11966595D01*
G01*
X-16591239Y-11938911D01*
G01*
Y-11908150D01*
G01*
Y-11877389D01*
G01*
X-16594315Y-11852781D01*
G01*
X-16600468Y-11831248D01*
G01*
X-16606620Y-11815868D01*
G01*
X-16625076Y-11800488D01*
G01*
X-16649685Y-11794336D01*
G01*
X-16671217Y-11800488D01*
G01*
X-16689673Y-11815868D01*
G01*
X-16698902Y-11831248D01*
G01*
X-16705054Y-11849705D01*
G01*
X-16708130Y-11877389D01*
G01*
Y-11908150D01*
X-16418980Y-12052725D02*
G01*
X-16342078Y-11945063D01*
G01*
X-16412828Y-11840477D01*
G01*
X-16369763D01*
G01*
X-16335926Y-11889694D01*
G01*
X-16317470Y-11914302D01*
G01*
X-16302089Y-11892770D01*
G01*
X-16265177Y-11840477D01*
G01*
X-16219036D01*
G01*
X-16295937Y-11945063D01*
G01*
X-16222112Y-12052725D01*
G01*
X-16265177D01*
G01*
X-16311318Y-11988128D01*
G01*
X-16317470Y-11975823D01*
G01*
X-16372839Y-12052725D01*
G01*
X-16418980D01*
X-15969875Y-12052725D02*
G01*
Y-11981975D01*
G01*
X-16099069D01*
G01*
Y-11945063D01*
G01*
X-15960647Y-11763575D01*
G01*
X-15932962D01*
G01*
Y-11945063D01*
G01*
X-15896049D01*
G01*
Y-11981975D01*
G01*
X-15932962D01*
G01*
Y-12052725D01*
G01*
X-15969875D01*
X-15969875Y-11945063D02*
G01*
Y-11834324D01*
G01*
X-16052928Y-11945063D01*
G01*
X-15969875D01*
X-15859136Y-11908150D02*
G01*
X-15856060Y-11862009D01*
G01*
X-15846832Y-11825096D01*
G01*
X-15834528Y-11797412D01*
G01*
X-15816072Y-11775879D01*
G01*
X-15791463Y-11763575D01*
G01*
X-15763779Y-11760499D01*
G01*
X-15742246Y-11763575D01*
G01*
X-15720714Y-11769727D01*
G01*
X-15705333Y-11782031D01*
G01*
X-15693029Y-11797412D01*
G01*
X-15683801Y-11815868D01*
G01*
X-15674573Y-11840477D01*
G01*
X-15668421Y-11871237D01*
G01*
Y-11908150D01*
G01*
X-15671497Y-11954291D01*
G01*
X-15677649Y-11991204D01*
G01*
X-15693029Y-12018888D01*
G01*
X-15711485Y-12040421D01*
G01*
X-15733018Y-12052725D01*
G01*
X-15763779Y-12055801D01*
G01*
X-15782235Y-12052725D01*
G01*
X-15800691Y-12049649D01*
G01*
X-15816072Y-12040421D01*
G01*
X-15831452Y-12028116D01*
G01*
X-15843756Y-12006584D01*
G01*
X-15852984Y-11978899D01*
G01*
X-15856060Y-11945063D01*
G01*
X-15859136Y-11908150D01*
X-15822224Y-11908150D02*
G01*
Y-11938911D01*
G01*
X-15819148Y-11966595D01*
G01*
X-15812996Y-11985051D01*
G01*
X-15803767Y-12000432D01*
G01*
X-15785311Y-12015812D01*
G01*
X-15763779Y-12021964D01*
G01*
X-15742246Y-12015812D01*
G01*
X-15720714Y-12000432D01*
G01*
X-15714562Y-11985051D01*
G01*
X-15708409Y-11966595D01*
G01*
X-15705333Y-11938911D01*
G01*
Y-11908150D01*
G01*
Y-11877389D01*
G01*
X-15708409Y-11852781D01*
G01*
X-15714562Y-11831248D01*
G01*
X-15720714Y-11815868D01*
G01*
X-15739170Y-11800488D01*
G01*
X-15763779Y-11794336D01*
G01*
X-15785311Y-11800488D01*
G01*
X-15803767Y-11815868D01*
G01*
X-15812996Y-11831248D01*
G01*
X-15819148Y-11849705D01*
G01*
X-15822224Y-11877389D01*
G01*
Y-11908150D01*
X-15299293Y-11948139D02*
G01*
X-15259304Y-11960443D01*
G01*
X-15274685Y-12000432D01*
G01*
X-15302369Y-12031192D01*
G01*
X-15320826Y-12043497D01*
G01*
X-15339282Y-12049649D01*
G01*
X-15357738Y-12055801D01*
G01*
X-15379271D01*
G01*
X-15422336Y-12052725D01*
G01*
X-15456172Y-12037345D01*
G01*
X-15483857Y-12012736D01*
G01*
X-15502313Y-11981975D01*
G01*
X-15514617Y-11945063D01*
G01*
X-15517694Y-11905074D01*
G01*
X-15514617Y-11862009D01*
G01*
X-15499237Y-11825096D01*
G01*
X-15480781Y-11797412D01*
G01*
X-15450020Y-11775879D01*
G01*
X-15416183Y-11763575D01*
G01*
X-15379271Y-11757423D01*
G01*
X-15339282Y-11763575D01*
G01*
X-15305445Y-11778955D01*
G01*
X-15280837Y-11806640D01*
G01*
X-15265456Y-11843553D01*
G01*
X-15305445Y-11849705D01*
G01*
X-15317749Y-11825096D01*
G01*
X-15333130Y-11806640D01*
G01*
X-15354662Y-11794336D01*
G01*
X-15382347Y-11791260D01*
G01*
X-15413107Y-11794336D01*
G01*
X-15437716Y-11806640D01*
G01*
X-15456172Y-11825096D01*
G01*
X-15468477Y-11849705D01*
G01*
X-15474629Y-11877389D01*
G01*
X-15477705Y-11905074D01*
G01*
X-15474629Y-11938911D01*
G01*
X-15465400Y-11969671D01*
G01*
X-15453096Y-11991204D01*
G01*
X-15434640Y-12009660D01*
G01*
X-15410031Y-12018888D01*
G01*
X-15385423Y-12021964D01*
G01*
X-15354662Y-12018888D01*
G01*
X-15330054Y-12003508D01*
G01*
X-15311597Y-11981975D01*
G01*
X-15299293Y-11948139D01*
X-15213163Y-12052725D02*
G01*
Y-11760499D01*
G01*
X-15151642D01*
G01*
X-15087045Y-11966595D01*
G01*
X-15077817Y-11994280D01*
G01*
X-15071664Y-12012736D01*
G01*
X-15068588Y-11991204D01*
G01*
X-15059360Y-11963519D01*
G01*
X-14994763Y-11760499D01*
G01*
X-14933242D01*
G01*
Y-12052725D01*
G01*
X-14973230D01*
G01*
Y-11803564D01*
G01*
X-15053208Y-12052725D01*
G01*
X-15096273D01*
G01*
X-15173174Y-11803564D01*
G01*
Y-12052725D01*
G01*
X-15213163D01*
X-14345714Y-12052725D02*
G01*
Y-11794336D01*
G01*
X-14441072D01*
G01*
Y-11760499D01*
G01*
X-14210367D01*
G01*
Y-11794336D01*
G01*
X-14305725D01*
G01*
Y-12052725D01*
G01*
X-14345714D01*
X-13878152Y-11883541D02*
G01*
X-14071944D01*
G01*
Y-11846629D01*
G01*
X-13878152D01*
G01*
Y-11883541D01*
X-13878152Y-11969671D02*
G01*
X-14071944D01*
G01*
Y-11932758D01*
G01*
X-13878152D01*
G01*
Y-11969671D01*
X-13721273Y-11908150D02*
G01*
X-13718197Y-11862009D01*
G01*
X-13708969Y-11825096D01*
G01*
X-13696664Y-11797412D01*
G01*
X-13678208Y-11775879D01*
G01*
X-13653600Y-11763575D01*
G01*
X-13625915Y-11760499D01*
G01*
X-13604383Y-11763575D01*
G01*
X-13582850Y-11769727D01*
G01*
X-13567470Y-11782031D01*
G01*
X-13555166Y-11797412D01*
G01*
X-13545937Y-11815868D01*
G01*
X-13536709Y-11840477D01*
G01*
X-13530557Y-11871237D01*
G01*
Y-11908150D01*
G01*
X-13533633Y-11954291D01*
G01*
X-13539785Y-11991204D01*
G01*
X-13555166Y-12018888D01*
G01*
X-13573622Y-12040421D01*
G01*
X-13595154Y-12052725D01*
G01*
X-13625915Y-12055801D01*
G01*
X-13644371Y-12052725D01*
G01*
X-13662828Y-12049649D01*
G01*
X-13678208Y-12040421D01*
G01*
X-13693588Y-12028116D01*
G01*
X-13705893Y-12006584D01*
G01*
X-13715121Y-11978899D01*
G01*
X-13718197Y-11945063D01*
G01*
X-13721273Y-11908150D01*
X-13684360Y-11908150D02*
G01*
Y-11938911D01*
G01*
X-13681284Y-11966595D01*
G01*
X-13675132Y-11985051D01*
G01*
X-13665904Y-12000432D01*
G01*
X-13647447Y-12015812D01*
G01*
X-13625915Y-12021964D01*
G01*
X-13604383Y-12015812D01*
G01*
X-13582850Y-12000432D01*
G01*
X-13576698Y-11985051D01*
G01*
X-13570546Y-11966595D01*
G01*
X-13567470Y-11938911D01*
G01*
Y-11908150D01*
G01*
Y-11877389D01*
G01*
X-13570546Y-11852781D01*
G01*
X-13576698Y-11831248D01*
G01*
X-13582850Y-11815868D01*
G01*
X-13601306Y-11800488D01*
G01*
X-13625915Y-11794336D01*
G01*
X-13647447Y-11800488D01*
G01*
X-13665904Y-11815868D01*
G01*
X-13675132Y-11831248D01*
G01*
X-13681284Y-11849705D01*
G01*
X-13684360Y-11877389D01*
G01*
Y-11908150D01*
X-13475188Y-12052725D02*
G01*
Y-12015812D01*
G01*
X-13438275D01*
G01*
Y-12052725D01*
G01*
X-13475188D01*
X-13247559Y-12052725D02*
G01*
X-13284472D01*
G01*
Y-11825096D01*
G01*
X-13299852Y-11837400D01*
G01*
X-13318309Y-11849705D01*
G01*
X-13336765Y-11862009D01*
G01*
X-13355221Y-11868161D01*
G01*
Y-11834324D01*
G01*
X-13327537Y-11818944D01*
G01*
X-13302928Y-11800488D01*
G01*
X-13284472Y-11778955D01*
G01*
X-13272168Y-11760499D01*
G01*
X-13247559D01*
G01*
Y-12052725D01*
X-13152201Y-11908150D02*
G01*
X-13149125Y-11862009D01*
G01*
X-13139897Y-11825096D01*
G01*
X-13127593Y-11797412D01*
G01*
X-13109136Y-11775879D01*
G01*
X-13084528Y-11763575D01*
G01*
X-13056843Y-11760499D01*
G01*
X-13035311Y-11763575D01*
G01*
X-13013779Y-11769727D01*
G01*
X-12998398Y-11782031D01*
G01*
X-12986094Y-11797412D01*
G01*
X-12976866Y-11815868D01*
G01*
X-12967638Y-11840477D01*
G01*
X-12961485Y-11871237D01*
G01*
Y-11908150D01*
G01*
X-12964562Y-11954291D01*
G01*
X-12970714Y-11991204D01*
G01*
X-12986094Y-12018888D01*
G01*
X-13004550Y-12040421D01*
G01*
X-13026083Y-12052725D01*
G01*
X-13056843Y-12055801D01*
G01*
X-13075300Y-12052725D01*
G01*
X-13093756Y-12049649D01*
G01*
X-13109136Y-12040421D01*
G01*
X-13124517Y-12028116D01*
G01*
X-13136821Y-12006584D01*
G01*
X-13146049Y-11978899D01*
G01*
X-13149125Y-11945063D01*
G01*
X-13152201Y-11908150D01*
X-13115289Y-11908150D02*
G01*
Y-11938911D01*
G01*
X-13112213Y-11966595D01*
G01*
X-13106060Y-11985051D01*
G01*
X-13096832Y-12000432D01*
G01*
X-13078376Y-12015812D01*
G01*
X-13056843Y-12021964D01*
G01*
X-13035311Y-12015812D01*
G01*
X-13013779Y-12000432D01*
G01*
X-13007626Y-11985051D01*
G01*
X-13001474Y-11966595D01*
G01*
X-12998398Y-11938911D01*
G01*
Y-11908150D01*
G01*
Y-11877389D01*
G01*
X-13001474Y-11852781D01*
G01*
X-13007626Y-11831248D01*
G01*
X-13013779Y-11815868D01*
G01*
X-13032235Y-11800488D01*
G01*
X-13056843Y-11794336D01*
G01*
X-13078376Y-11800488D01*
G01*
X-13096832Y-11815868D01*
G01*
X-13106060Y-11831248D01*
G01*
X-13112213Y-11849705D01*
G01*
X-13115289Y-11877389D01*
G01*
Y-11908150D01*
X-12915345Y-12052725D02*
G01*
Y-11760499D01*
G01*
X-12853823D01*
G01*
X-12789226Y-11966595D01*
G01*
X-12779998Y-11994280D01*
G01*
X-12773846Y-12012736D01*
G01*
X-12770770Y-11991204D01*
G01*
X-12761541Y-11963519D01*
G01*
X-12696944Y-11760499D01*
G01*
X-12635423D01*
G01*
Y-12052725D01*
G01*
X-12675412D01*
G01*
Y-11803564D01*
G01*
X-12755389Y-12052725D01*
G01*
X-12798454D01*
G01*
X-12875356Y-11803564D01*
G01*
Y-12052725D01*
G01*
X-12915345D01*
X-12573902Y-12052725D02*
G01*
Y-11760499D01*
G01*
X-12512380D01*
G01*
X-12447783Y-11966595D01*
G01*
X-12438555Y-11994280D01*
G01*
X-12432403Y-12012736D01*
G01*
X-12429327Y-11991204D01*
G01*
X-12420098Y-11963519D01*
G01*
X-12355501Y-11760499D01*
G01*
X-12293980D01*
G01*
Y-12052725D01*
G01*
X-12333969D01*
G01*
Y-11803564D01*
G01*
X-12413946Y-12052725D01*
G01*
X-12457011D01*
G01*
X-12533913Y-11803564D01*
G01*
Y-12052725D01*
G01*
X-12573902D01*
X-17981620Y-12603340D02*
G01*
Y-12311114D01*
G01*
X-17880110D01*
G01*
X-17849349D01*
G01*
X-17827817Y-12314190D01*
G01*
X-17803208Y-12323418D01*
G01*
X-17784752Y-12335723D01*
G01*
X-17763219Y-12360331D01*
G01*
X-17750915Y-12388016D01*
G01*
X-17741687Y-12418776D01*
G01*
X-17738611Y-12455689D01*
G01*
X-17741687Y-12486450D01*
G01*
X-17747839Y-12514134D01*
G01*
X-17753991Y-12538743D01*
G01*
X-17766295Y-12557199D01*
G01*
X-17778600Y-12572579D01*
G01*
X-17793980Y-12584884D01*
G01*
X-17809360Y-12594112D01*
G01*
X-17827817Y-12597188D01*
G01*
X-17849349Y-12603340D01*
G01*
X-17877034D01*
G01*
X-17981620D01*
X-17941631Y-12569503D02*
G01*
X-17880110D01*
G01*
X-17852425D01*
G01*
X-17833969Y-12563351D01*
G01*
X-17818588Y-12557199D01*
G01*
X-17806284Y-12547971D01*
G01*
X-17793980Y-12532591D01*
G01*
X-17784752Y-12511058D01*
G01*
X-17781676Y-12486450D01*
G01*
X-17778600Y-12455689D01*
G01*
X-17781676Y-12415700D01*
G01*
X-17793980Y-12384940D01*
G01*
X-17809360Y-12363407D01*
G01*
X-17830893Y-12351103D01*
G01*
X-17849349Y-12348027D01*
G01*
X-17880110Y-12344951D01*
G01*
X-17941631D01*
G01*
Y-12569503D01*
X-17726306Y-12603340D02*
G01*
X-17606340Y-12311114D01*
G01*
X-17566351D01*
G01*
X-17446385Y-12603340D01*
G01*
X-17489450D01*
G01*
X-17523286Y-12511058D01*
G01*
X-17649405D01*
G01*
X-17683242Y-12603340D01*
G01*
X-17726306D01*
X-17637101Y-12477221D02*
G01*
X-17535591D01*
G01*
X-17566351Y-12400320D01*
G01*
X-17578655Y-12369559D01*
G01*
X-17584808Y-12344951D01*
G01*
X-17603264Y-12397244D01*
G01*
X-17637101Y-12477221D01*
X-17372559Y-12603340D02*
G01*
Y-12344951D01*
G01*
X-17467917D01*
G01*
Y-12311114D01*
G01*
X-17237213D01*
G01*
Y-12344951D01*
G01*
X-17332570D01*
G01*
Y-12603340D01*
G01*
X-17372559D01*
X-17194148Y-12603340D02*
G01*
Y-12311114D01*
G01*
X-16981899D01*
G01*
Y-12344951D01*
G01*
X-17154159D01*
G01*
Y-12434157D01*
G01*
X-16994204D01*
G01*
Y-12467993D01*
G01*
X-17154159D01*
G01*
Y-12569503D01*
G01*
X-16975747D01*
G01*
Y-12603340D01*
G01*
X-17194148D01*
X-16917302Y-12428004D02*
G01*
Y-12391092D01*
G01*
X-16880389D01*
G01*
Y-12428004D01*
G01*
X-16917302D01*
X-16917302Y-12603340D02*
G01*
Y-12566427D01*
G01*
X-16880389D01*
G01*
Y-12603340D01*
G01*
X-16917302D01*
X-16637380Y-12566427D02*
G01*
Y-12603340D01*
G01*
X-16828096D01*
G01*
X-16825020Y-12578732D01*
G01*
X-16815792Y-12557199D01*
G01*
X-16800412Y-12538743D01*
G01*
X-16781955Y-12517210D01*
G01*
X-16757347Y-12495678D01*
G01*
X-16735814Y-12477221D01*
G01*
X-16717358Y-12458765D01*
G01*
X-16705054Y-12446461D01*
G01*
X-16692749Y-12434157D01*
G01*
X-16680445Y-12412624D01*
G01*
X-16677369Y-12391092D01*
G01*
X-16680445Y-12375711D01*
G01*
X-16692749Y-12360331D01*
G01*
X-16708130Y-12348027D01*
G01*
X-16729662Y-12344951D01*
G01*
X-16751195Y-12348027D01*
G01*
X-16769651Y-12360331D01*
G01*
X-16781955Y-12378787D01*
G01*
X-16785031Y-12400320D01*
G01*
X-16821944Y-12394168D01*
G01*
X-16812716Y-12357255D01*
G01*
X-16794260Y-12332647D01*
G01*
X-16766575Y-12317266D01*
G01*
X-16729662Y-12311114D01*
G01*
X-16692749Y-12317266D01*
G01*
X-16665065Y-12335723D01*
G01*
X-16646609Y-12360331D01*
G01*
X-16640456Y-12391092D01*
G01*
Y-12409548D01*
G01*
X-16646609Y-12428004D01*
G01*
X-16655837Y-12443385D01*
G01*
X-16668141Y-12461841D01*
G01*
X-16689673Y-12483374D01*
G01*
X-16723510Y-12511058D01*
G01*
X-16748119Y-12535667D01*
G01*
X-16763499Y-12547971D01*
G01*
X-16778879Y-12566427D01*
G01*
X-16637380D01*
X-16594315Y-12458765D02*
G01*
X-16591239Y-12412624D01*
G01*
X-16582011Y-12375711D01*
G01*
X-16569707Y-12348027D01*
G01*
X-16551251Y-12326494D01*
G01*
X-16526642Y-12314190D01*
G01*
X-16498957Y-12311114D01*
G01*
X-16477425Y-12314190D01*
G01*
X-16455893Y-12320342D01*
G01*
X-16440512Y-12332647D01*
G01*
X-16428208Y-12348027D01*
G01*
X-16418980Y-12366483D01*
G01*
X-16409752Y-12391092D01*
G01*
X-16403600Y-12421852D01*
G01*
Y-12458765D01*
G01*
X-16406676Y-12504906D01*
G01*
X-16412828Y-12541819D01*
G01*
X-16428208Y-12569503D01*
G01*
X-16446664Y-12591036D01*
G01*
X-16468197Y-12603340D01*
G01*
X-16498957Y-12606416D01*
G01*
X-16517414Y-12603340D01*
G01*
X-16535870Y-12600264D01*
G01*
X-16551251Y-12591036D01*
G01*
X-16566631Y-12578732D01*
G01*
X-16578935Y-12557199D01*
G01*
X-16588163Y-12529515D01*
G01*
X-16591239Y-12495678D01*
G01*
X-16594315Y-12458765D01*
X-16557403Y-12458765D02*
G01*
Y-12489526D01*
G01*
X-16554327Y-12517210D01*
G01*
X-16548174Y-12535667D01*
G01*
X-16538946Y-12551047D01*
G01*
X-16520490Y-12566427D01*
G01*
X-16498957Y-12572579D01*
G01*
X-16477425Y-12566427D01*
G01*
X-16455893Y-12551047D01*
G01*
X-16449740Y-12535667D01*
G01*
X-16443588Y-12517210D01*
G01*
X-16440512Y-12489526D01*
G01*
Y-12458765D01*
G01*
Y-12428004D01*
G01*
X-16443588Y-12403396D01*
G01*
X-16449740Y-12381864D01*
G01*
X-16455893Y-12366483D01*
G01*
X-16474349Y-12351103D01*
G01*
X-16498957Y-12344951D01*
G01*
X-16520490Y-12351103D01*
G01*
X-16538946Y-12366483D01*
G01*
X-16548174Y-12381864D01*
G01*
X-16554327Y-12400320D01*
G01*
X-16557403Y-12428004D01*
G01*
Y-12458765D01*
X-16182123Y-12566427D02*
G01*
Y-12603340D01*
G01*
X-16372839D01*
G01*
X-16369763Y-12578732D01*
G01*
X-16360535Y-12557199D01*
G01*
X-16345154Y-12538743D01*
G01*
X-16326698Y-12517210D01*
G01*
X-16302089Y-12495678D01*
G01*
X-16280557Y-12477221D01*
G01*
X-16262101Y-12458765D01*
G01*
X-16249796Y-12446461D01*
G01*
X-16237492Y-12434157D01*
G01*
X-16225188Y-12412624D01*
G01*
X-16222112Y-12391092D01*
G01*
X-16225188Y-12375711D01*
G01*
X-16237492Y-12360331D01*
G01*
X-16252872Y-12348027D01*
G01*
X-16274405Y-12344951D01*
G01*
X-16295937Y-12348027D01*
G01*
X-16314394Y-12360331D01*
G01*
X-16326698Y-12378787D01*
G01*
X-16329774Y-12400320D01*
G01*
X-16366687Y-12394168D01*
G01*
X-16357459Y-12357255D01*
G01*
X-16339002Y-12332647D01*
G01*
X-16311318Y-12317266D01*
G01*
X-16274405Y-12311114D01*
G01*
X-16237492Y-12317266D01*
G01*
X-16209808Y-12335723D01*
G01*
X-16191351Y-12360331D01*
G01*
X-16185199Y-12391092D01*
G01*
Y-12409548D01*
G01*
X-16191351Y-12428004D01*
G01*
X-16200579Y-12443385D01*
G01*
X-16212884Y-12461841D01*
G01*
X-16234416Y-12483374D01*
G01*
X-16268253Y-12511058D01*
G01*
X-16292861Y-12535667D01*
G01*
X-16308242Y-12547971D01*
G01*
X-16323622Y-12566427D01*
G01*
X-16182123D01*
X-16139058Y-12523362D02*
G01*
X-16102145Y-12517210D01*
G01*
X-16092917Y-12541819D01*
G01*
X-16080613Y-12560275D01*
G01*
X-16065233Y-12569503D01*
G01*
X-16043700Y-12572579D01*
G01*
X-16022168Y-12569503D01*
G01*
X-16000635Y-12557199D01*
G01*
X-15988331Y-12538743D01*
G01*
X-15985255Y-12514134D01*
G01*
X-15988331Y-12492602D01*
G01*
X-16000635Y-12477221D01*
G01*
X-16019092Y-12464917D01*
G01*
X-16043700Y-12461841D01*
G01*
X-16068309Y-12464917D01*
G01*
X-16062157Y-12431081D01*
G01*
X-16059081D01*
G01*
X-16037548Y-12428004D01*
G01*
X-16019092Y-12421852D01*
G01*
X-16003711Y-12406472D01*
G01*
X-16000635Y-12388016D01*
G01*
X-16003711Y-12369559D01*
G01*
X-16012940Y-12357255D01*
G01*
X-16028320Y-12348027D01*
G01*
X-16046776Y-12344951D01*
G01*
X-16065233Y-12348027D01*
G01*
X-16080613Y-12357255D01*
G01*
X-16092917Y-12372635D01*
G01*
X-16099069Y-12394168D01*
G01*
X-16135982Y-12388016D01*
G01*
X-16123678Y-12357255D01*
G01*
X-16105221Y-12332647D01*
G01*
X-16080613Y-12317266D01*
G01*
X-16049852Y-12311114D01*
G01*
X-16025244Y-12314190D01*
G01*
X-16003711Y-12320342D01*
G01*
X-15988331Y-12332647D01*
G01*
X-15972951Y-12348027D01*
G01*
X-15966799Y-12366483D01*
G01*
X-15963723Y-12384940D01*
G01*
X-15966799Y-12403396D01*
G01*
X-15972951Y-12418776D01*
G01*
X-15985255Y-12434157D01*
G01*
X-16003711Y-12443385D01*
G01*
X-15982179Y-12452613D01*
G01*
X-15963723Y-12467993D01*
G01*
X-15951418Y-12489526D01*
G01*
X-15948342Y-12514134D01*
G01*
X-15951418Y-12532591D01*
G01*
X-15954494Y-12551047D01*
G01*
X-15963723Y-12566427D01*
G01*
X-15976027Y-12578732D01*
G01*
X-15991407Y-12591036D01*
G01*
X-16006787Y-12600264D01*
G01*
X-16025244Y-12606416D01*
G01*
X-16046776D01*
G01*
X-16080613Y-12600264D01*
G01*
X-16111374Y-12584884D01*
G01*
X-16129830Y-12557199D01*
G01*
X-16139058Y-12523362D01*
X-15917582Y-12514134D02*
G01*
Y-12480298D01*
G01*
X-15806843D01*
G01*
Y-12514134D01*
G01*
X-15917582D01*
X-15776083Y-12458765D02*
G01*
X-15773007Y-12412624D01*
G01*
X-15763779Y-12375711D01*
G01*
X-15751474Y-12348027D01*
G01*
X-15733018Y-12326494D01*
G01*
X-15708409Y-12314190D01*
G01*
X-15680725Y-12311114D01*
G01*
X-15659192Y-12314190D01*
G01*
X-15637660Y-12320342D01*
G01*
X-15622280Y-12332647D01*
G01*
X-15609975Y-12348027D01*
G01*
X-15600747Y-12366483D01*
G01*
X-15591519Y-12391092D01*
G01*
X-15585367Y-12421852D01*
G01*
Y-12458765D01*
G01*
X-15588443Y-12504906D01*
G01*
X-15594595Y-12541819D01*
G01*
X-15609975Y-12569503D01*
G01*
X-15628432Y-12591036D01*
G01*
X-15649964Y-12603340D01*
G01*
X-15680725Y-12606416D01*
G01*
X-15699181Y-12603340D01*
G01*
X-15717638Y-12600264D01*
G01*
X-15733018Y-12591036D01*
G01*
X-15748398Y-12578732D01*
G01*
X-15760702Y-12557199D01*
G01*
X-15769931Y-12529515D01*
G01*
X-15773007Y-12495678D01*
G01*
X-15776083Y-12458765D01*
X-15739170Y-12458765D02*
G01*
Y-12489526D01*
G01*
X-15736094Y-12517210D01*
G01*
X-15729942Y-12535667D01*
G01*
X-15720714Y-12551047D01*
G01*
X-15702257Y-12566427D01*
G01*
X-15680725Y-12572579D01*
G01*
X-15659192Y-12566427D01*
G01*
X-15637660Y-12551047D01*
G01*
X-15631508Y-12535667D01*
G01*
X-15625356Y-12517210D01*
G01*
X-15622280Y-12489526D01*
G01*
Y-12458765D01*
G01*
Y-12428004D01*
G01*
X-15625356Y-12403396D01*
G01*
X-15631508Y-12381864D01*
G01*
X-15637660Y-12366483D01*
G01*
X-15656116Y-12351103D01*
G01*
X-15680725Y-12344951D01*
G01*
X-15702257Y-12351103D01*
G01*
X-15720714Y-12366483D01*
G01*
X-15729942Y-12381864D01*
G01*
X-15736094Y-12400320D01*
G01*
X-15739170Y-12428004D01*
G01*
Y-12458765D01*
X-15363890Y-12566427D02*
G01*
Y-12603340D01*
G01*
X-15554606D01*
G01*
X-15551530Y-12578732D01*
G01*
X-15542302Y-12557199D01*
G01*
X-15526922Y-12538743D01*
G01*
X-15508465Y-12517210D01*
G01*
X-15483857Y-12495678D01*
G01*
X-15462324Y-12477221D01*
G01*
X-15443868Y-12458765D01*
G01*
X-15431564Y-12446461D01*
G01*
X-15419260Y-12434157D01*
G01*
X-15406955Y-12412624D01*
G01*
X-15403879Y-12391092D01*
G01*
X-15406955Y-12375711D01*
G01*
X-15419260Y-12360331D01*
G01*
X-15434640Y-12348027D01*
G01*
X-15456172Y-12344951D01*
G01*
X-15477705Y-12348027D01*
G01*
X-15496161Y-12360331D01*
G01*
X-15508465Y-12378787D01*
G01*
X-15511541Y-12400320D01*
G01*
X-15548454Y-12394168D01*
G01*
X-15539226Y-12357255D01*
G01*
X-15520770Y-12332647D01*
G01*
X-15493085Y-12317266D01*
G01*
X-15456172Y-12311114D01*
G01*
X-15419260Y-12317266D01*
G01*
X-15391575Y-12335723D01*
G01*
X-15373119Y-12360331D01*
G01*
X-15366966Y-12391092D01*
G01*
Y-12409548D01*
G01*
X-15373119Y-12428004D01*
G01*
X-15382347Y-12443385D01*
G01*
X-15394651Y-12461841D01*
G01*
X-15416183Y-12483374D01*
G01*
X-15450020Y-12511058D01*
G01*
X-15474629Y-12535667D01*
G01*
X-15490009Y-12547971D01*
G01*
X-15505389Y-12566427D01*
G01*
X-15363890D01*
X-15326978Y-12514134D02*
G01*
Y-12480298D01*
G01*
X-15216239D01*
G01*
Y-12514134D01*
G01*
X-15326978D01*
X-15000915Y-12566427D02*
G01*
Y-12603340D01*
G01*
X-15191631D01*
G01*
X-15188555Y-12578732D01*
G01*
X-15179327Y-12557199D01*
G01*
X-15163946Y-12538743D01*
G01*
X-15145490Y-12517210D01*
G01*
X-15120881Y-12495678D01*
G01*
X-15099349Y-12477221D01*
G01*
X-15080893Y-12458765D01*
G01*
X-15068588Y-12446461D01*
G01*
X-15056284Y-12434157D01*
G01*
X-15043980Y-12412624D01*
G01*
X-15040904Y-12391092D01*
G01*
X-15043980Y-12375711D01*
G01*
X-15056284Y-12360331D01*
G01*
X-15071664Y-12348027D01*
G01*
X-15093197Y-12344951D01*
G01*
X-15114729Y-12348027D01*
G01*
X-15133186Y-12360331D01*
G01*
X-15145490Y-12378787D01*
G01*
X-15148566Y-12400320D01*
G01*
X-15185479Y-12394168D01*
G01*
X-15176251Y-12357255D01*
G01*
X-15157794Y-12332647D01*
G01*
X-15130110Y-12317266D01*
G01*
X-15093197Y-12311114D01*
G01*
X-15056284Y-12317266D01*
G01*
X-15028600Y-12335723D01*
G01*
X-15010143Y-12360331D01*
G01*
X-15003991Y-12391092D01*
G01*
Y-12409548D01*
G01*
X-15010143Y-12428004D01*
G01*
X-15019371Y-12443385D01*
G01*
X-15031676Y-12461841D01*
G01*
X-15053208Y-12483374D01*
G01*
X-15087045Y-12511058D01*
G01*
X-15111653Y-12535667D01*
G01*
X-15127034Y-12547971D01*
G01*
X-15142414Y-12566427D01*
G01*
X-15000915D01*
X-14773286Y-12566427D02*
G01*
Y-12603340D01*
G01*
X-14964002D01*
G01*
X-14960926Y-12578732D01*
G01*
X-14951698Y-12557199D01*
G01*
X-14936318Y-12538743D01*
G01*
X-14917861Y-12517210D01*
G01*
X-14893253Y-12495678D01*
G01*
X-14871720Y-12477221D01*
G01*
X-14853264Y-12458765D01*
G01*
X-14840960Y-12446461D01*
G01*
X-14828655Y-12434157D01*
G01*
X-14816351Y-12412624D01*
G01*
X-14813275Y-12391092D01*
G01*
X-14816351Y-12375711D01*
G01*
X-14828655Y-12360331D01*
G01*
X-14844036Y-12348027D01*
G01*
X-14865568Y-12344951D01*
G01*
X-14887101Y-12348027D01*
G01*
X-14905557Y-12360331D01*
G01*
X-14917861Y-12378787D01*
G01*
X-14920937Y-12400320D01*
G01*
X-14957850Y-12394168D01*
G01*
X-14948622Y-12357255D01*
G01*
X-14930166Y-12332647D01*
G01*
X-14902481Y-12317266D01*
G01*
X-14865568Y-12311114D01*
G01*
X-14828655Y-12317266D01*
G01*
X-14800971Y-12335723D01*
G01*
X-14782515Y-12360331D01*
G01*
X-14776362Y-12391092D01*
G01*
Y-12409548D01*
G01*
X-14782515Y-12428004D01*
G01*
X-14791743Y-12443385D01*
G01*
X-14804047Y-12461841D01*
G01*
X-14825579Y-12483374D01*
G01*
X-14859416Y-12511058D01*
G01*
X-14884025Y-12535667D01*
G01*
X-14899405Y-12547971D01*
G01*
X-14914785Y-12566427D01*
G01*
X-14773286D01*
X-14431843Y-12566427D02*
G01*
Y-12603340D01*
G01*
X-14622559D01*
G01*
X-14619483Y-12578732D01*
G01*
X-14610255Y-12557199D01*
G01*
X-14594875Y-12538743D01*
G01*
X-14576418Y-12517210D01*
G01*
X-14551810Y-12495678D01*
G01*
X-14530277Y-12477221D01*
G01*
X-14511821Y-12458765D01*
G01*
X-14499517Y-12446461D01*
G01*
X-14487213Y-12434157D01*
G01*
X-14474908Y-12412624D01*
G01*
X-14471832Y-12391092D01*
G01*
X-14474908Y-12375711D01*
G01*
X-14487213Y-12360331D01*
G01*
X-14502593Y-12348027D01*
G01*
X-14524125Y-12344951D01*
G01*
X-14545658Y-12348027D01*
G01*
X-14564114Y-12360331D01*
G01*
X-14576418Y-12378787D01*
G01*
X-14579494Y-12400320D01*
G01*
X-14616407Y-12394168D01*
G01*
X-14607179Y-12357255D01*
G01*
X-14588723Y-12332647D01*
G01*
X-14561038Y-12317266D01*
G01*
X-14524125Y-12311114D01*
G01*
X-14487213Y-12317266D01*
G01*
X-14459528Y-12335723D01*
G01*
X-14441072Y-12360331D01*
G01*
X-14434919Y-12391092D01*
G01*
Y-12409548D01*
G01*
X-14441072Y-12428004D01*
G01*
X-14450300Y-12443385D01*
G01*
X-14462604Y-12461841D01*
G01*
X-14484136Y-12483374D01*
G01*
X-14517973Y-12511058D01*
G01*
X-14542582Y-12535667D01*
G01*
X-14557962Y-12547971D01*
G01*
X-14573342Y-12566427D01*
G01*
X-14431843D01*
X-14204215Y-12566427D02*
G01*
Y-12603340D01*
G01*
X-14394931D01*
G01*
X-14391855Y-12578732D01*
G01*
X-14382626Y-12557199D01*
G01*
X-14367246Y-12538743D01*
G01*
X-14348790Y-12517210D01*
G01*
X-14324181Y-12495678D01*
G01*
X-14302649Y-12477221D01*
G01*
X-14284192Y-12458765D01*
G01*
X-14271888Y-12446461D01*
G01*
X-14259584Y-12434157D01*
G01*
X-14247280Y-12412624D01*
G01*
X-14244204Y-12391092D01*
G01*
X-14247280Y-12375711D01*
G01*
X-14259584Y-12360331D01*
G01*
X-14274964Y-12348027D01*
G01*
X-14296497Y-12344951D01*
G01*
X-14318029Y-12348027D01*
G01*
X-14336485Y-12360331D01*
G01*
X-14348790Y-12378787D01*
G01*
X-14351866Y-12400320D01*
G01*
X-14388779Y-12394168D01*
G01*
X-14379550Y-12357255D01*
G01*
X-14361094Y-12332647D01*
G01*
X-14333409Y-12317266D01*
G01*
X-14296497Y-12311114D01*
G01*
X-14259584Y-12317266D01*
G01*
X-14231899Y-12335723D01*
G01*
X-14213443Y-12360331D01*
G01*
X-14207291Y-12391092D01*
G01*
Y-12409548D01*
G01*
X-14213443Y-12428004D01*
G01*
X-14222671Y-12443385D01*
G01*
X-14234975Y-12461841D01*
G01*
X-14256508Y-12483374D01*
G01*
X-14290345Y-12511058D01*
G01*
X-14314953Y-12535667D01*
G01*
X-14330333Y-12547971D01*
G01*
X-14345714Y-12566427D01*
G01*
X-14204215D01*
X-14142694Y-12428004D02*
G01*
Y-12391092D01*
G01*
X-14105781D01*
G01*
Y-12428004D01*
G01*
X-14142694D01*
X-14142694Y-12603340D02*
G01*
Y-12566427D01*
G01*
X-14105781D01*
G01*
Y-12603340D01*
G01*
X-14142694D01*
X-14047336Y-12458765D02*
G01*
X-14044260Y-12412624D01*
G01*
X-14035031Y-12375711D01*
G01*
X-14022727Y-12348027D01*
G01*
X-14004271Y-12326494D01*
G01*
X-13979662Y-12314190D01*
G01*
X-13951978Y-12311114D01*
G01*
X-13930445Y-12314190D01*
G01*
X-13908913Y-12320342D01*
G01*
X-13893532Y-12332647D01*
G01*
X-13881228Y-12348027D01*
G01*
X-13872000Y-12366483D01*
G01*
X-13862772Y-12391092D01*
G01*
X-13856620Y-12421852D01*
G01*
Y-12458765D01*
G01*
X-13859696Y-12504906D01*
G01*
X-13865848Y-12541819D01*
G01*
X-13881228Y-12569503D01*
G01*
X-13899685Y-12591036D01*
G01*
X-13921217Y-12603340D01*
G01*
X-13951978Y-12606416D01*
G01*
X-13970434Y-12603340D01*
G01*
X-13988890Y-12600264D01*
G01*
X-14004271Y-12591036D01*
G01*
X-14019651Y-12578732D01*
G01*
X-14031955Y-12557199D01*
G01*
X-14041183Y-12529515D01*
G01*
X-14044260Y-12495678D01*
G01*
X-14047336Y-12458765D01*
X-14010423Y-12458765D02*
G01*
Y-12489526D01*
G01*
X-14007347Y-12517210D01*
G01*
X-14001195Y-12535667D01*
G01*
X-13991966Y-12551047D01*
G01*
X-13973510Y-12566427D01*
G01*
X-13951978Y-12572579D01*
G01*
X-13930445Y-12566427D01*
G01*
X-13908913Y-12551047D01*
G01*
X-13902761Y-12535667D01*
G01*
X-13896609Y-12517210D01*
G01*
X-13893532Y-12489526D01*
G01*
Y-12458765D01*
G01*
Y-12428004D01*
G01*
X-13896609Y-12403396D01*
G01*
X-13902761Y-12381864D01*
G01*
X-13908913Y-12366483D01*
G01*
X-13927369Y-12351103D01*
G01*
X-13951978Y-12344951D01*
G01*
X-13973510Y-12351103D01*
G01*
X-13991966Y-12366483D01*
G01*
X-14001195Y-12381864D01*
G01*
X-14007347Y-12400320D01*
G01*
X-14010423Y-12428004D01*
G01*
Y-12458765D01*
X-13819707Y-12458765D02*
G01*
X-13816631Y-12412624D01*
G01*
X-13807403Y-12375711D01*
G01*
X-13795098Y-12348027D01*
G01*
X-13776642Y-12326494D01*
G01*
X-13752034Y-12314190D01*
G01*
X-13724349Y-12311114D01*
G01*
X-13702817Y-12314190D01*
G01*
X-13681284Y-12320342D01*
G01*
X-13665904Y-12332647D01*
G01*
X-13653600Y-12348027D01*
G01*
X-13644371Y-12366483D01*
G01*
X-13635143Y-12391092D01*
G01*
X-13628991Y-12421852D01*
G01*
Y-12458765D01*
G01*
X-13632067Y-12504906D01*
G01*
X-13638219Y-12541819D01*
G01*
X-13653600Y-12569503D01*
G01*
X-13672056Y-12591036D01*
G01*
X-13693588Y-12603340D01*
G01*
X-13724349Y-12606416D01*
G01*
X-13742805Y-12603340D01*
G01*
X-13761262Y-12600264D01*
G01*
X-13776642Y-12591036D01*
G01*
X-13792022Y-12578732D01*
G01*
X-13804327Y-12557199D01*
G01*
X-13813555Y-12529515D01*
G01*
X-13816631Y-12495678D01*
G01*
X-13819707Y-12458765D01*
X-13782794Y-12458765D02*
G01*
Y-12489526D01*
G01*
X-13779718Y-12517210D01*
G01*
X-13773566Y-12535667D01*
G01*
X-13764338Y-12551047D01*
G01*
X-13745881Y-12566427D01*
G01*
X-13724349Y-12572579D01*
G01*
X-13702817Y-12566427D01*
G01*
X-13681284Y-12551047D01*
G01*
X-13675132Y-12535667D01*
G01*
X-13668980Y-12517210D01*
G01*
X-13665904Y-12489526D01*
G01*
Y-12458765D01*
G01*
Y-12428004D01*
G01*
X-13668980Y-12403396D01*
G01*
X-13675132Y-12381864D01*
G01*
X-13681284Y-12366483D01*
G01*
X-13699740Y-12351103D01*
G01*
X-13724349Y-12344951D01*
G01*
X-13745881Y-12351103D01*
G01*
X-13764338Y-12366483D01*
G01*
X-13773566Y-12381864D01*
G01*
X-13779718Y-12400320D01*
G01*
X-13782794Y-12428004D01*
G01*
Y-12458765D01*
X-17981620Y-13153955D02*
G01*
Y-12861729D01*
G01*
X-17938555D01*
G01*
X-17793980Y-13083206D01*
G01*
Y-12861729D01*
G01*
X-17753991D01*
G01*
Y-13153955D01*
G01*
X-17797056D01*
G01*
X-17941631Y-12932479D01*
G01*
Y-13153955D01*
G01*
X-17981620D01*
X-17701698Y-13012456D02*
G01*
X-17698622Y-12978620D01*
G01*
X-17692470Y-12947859D01*
G01*
X-17680166Y-12923251D01*
G01*
X-17661709Y-12898642D01*
G01*
X-17640177Y-12883262D01*
G01*
X-17618644Y-12867881D01*
G01*
X-17590960Y-12861729D01*
G01*
X-17560199Y-12858653D01*
G01*
X-17523286Y-12864805D01*
G01*
X-17489450Y-12877110D01*
G01*
X-17458689Y-12901718D01*
G01*
X-17440233Y-12932479D01*
G01*
X-17424852Y-12966315D01*
G01*
X-17421776Y-13009380D01*
G01*
X-17424852Y-13049369D01*
G01*
X-17440233Y-13086282D01*
G01*
X-17461765Y-13117043D01*
G01*
X-17489450Y-13138575D01*
G01*
X-17523286Y-13153955D01*
G01*
X-17560199Y-13157031D01*
G01*
X-17600188Y-13150879D01*
G01*
X-17634025Y-13138575D01*
G01*
X-17664785Y-13113966D01*
G01*
X-17686318Y-13083206D01*
G01*
X-17698622Y-13049369D01*
G01*
X-17701698Y-13012456D01*
X-17661709Y-13012456D02*
G01*
X-17658633Y-13037065D01*
G01*
X-17655557Y-13058597D01*
G01*
X-17646329Y-13077054D01*
G01*
X-17634025Y-13092434D01*
G01*
X-17618644Y-13107814D01*
G01*
X-17600188Y-13117043D01*
G01*
X-17581732Y-13120119D01*
G01*
X-17563275Y-13123195D01*
G01*
X-17541743Y-13120119D01*
G01*
X-17523286Y-13117043D01*
G01*
X-17504830Y-13107814D01*
G01*
X-17489450Y-13092434D01*
G01*
X-17477145Y-13077054D01*
G01*
X-17467917Y-13058597D01*
G01*
X-17464841Y-13033989D01*
G01*
X-17461765Y-13009380D01*
G01*
X-17464841Y-12975544D01*
G01*
X-17474069Y-12947859D01*
G01*
X-17489450Y-12923251D01*
G01*
X-17507906Y-12907870D01*
G01*
X-17532515Y-12895566D01*
G01*
X-17560199Y-12892490D01*
G01*
X-17581732Y-12895566D01*
G01*
X-17600188Y-12898642D01*
G01*
X-17615568Y-12907870D01*
G01*
X-17630949Y-12920174D01*
G01*
X-17646329Y-12935555D01*
G01*
X-17655557Y-12957087D01*
G01*
X-17658633Y-12981696D01*
G01*
X-17661709Y-13012456D01*
X-17366407Y-12978620D02*
G01*
Y-12941707D01*
G01*
X-17329494D01*
G01*
Y-12978620D01*
G01*
X-17366407D01*
X-17366407Y-13153955D02*
G01*
Y-13117043D01*
G01*
X-17329494D01*
G01*
Y-13153955D01*
G01*
X-17366407D01*
X-17271049Y-13052445D02*
G01*
X-17231060D01*
G01*
X-17227984Y-13073978D01*
G01*
X-17218756Y-13089358D01*
G01*
X-17206452Y-13104738D01*
G01*
X-17191072Y-13113966D01*
G01*
X-17169539Y-13120119D01*
G01*
X-17148007Y-13123195D01*
G01*
X-17126474D01*
G01*
X-17111094Y-13117043D01*
G01*
X-17095714Y-13107814D01*
G01*
X-17086485Y-13098586D01*
G01*
X-17080333Y-13086282D01*
G01*
X-17077257Y-13073978D01*
G01*
Y-13061673D01*
G01*
X-17083409Y-13049369D01*
G01*
X-17092638Y-13040141D01*
G01*
X-17108018Y-13033989D01*
G01*
X-17117246Y-13030913D01*
G01*
X-17126474Y-13027837D01*
G01*
X-17141855Y-13024761D01*
G01*
X-17160311Y-13018609D01*
G01*
X-17194148Y-13009380D01*
G01*
X-17215680Y-13000152D01*
G01*
X-17234136Y-12990924D01*
G01*
X-17246441Y-12975544D01*
G01*
X-17255669Y-12957087D01*
G01*
X-17258745Y-12938631D01*
G01*
X-17255669Y-12917098D01*
G01*
X-17246441Y-12898642D01*
G01*
X-17231060Y-12880186D01*
G01*
X-17209528Y-12867881D01*
G01*
X-17181843Y-12861729D01*
G01*
X-17154159Y-12858653D01*
G01*
X-17123398Y-12861729D01*
G01*
X-17095714Y-12867881D01*
G01*
X-17074181Y-12883262D01*
G01*
X-17058801Y-12898642D01*
G01*
X-17046497Y-12920174D01*
G01*
X-17043421Y-12944783D01*
G01*
X-17083409D01*
G01*
X-17089562Y-12923251D01*
G01*
X-17101866Y-12904794D01*
G01*
X-17123398Y-12895566D01*
G01*
X-17154159Y-12892490D01*
G01*
X-17181843Y-12895566D01*
G01*
X-17203376Y-12904794D01*
G01*
X-17215680Y-12920174D01*
G01*
X-17218756Y-12935555D01*
G01*
X-17215680Y-12950935D01*
G01*
X-17206452Y-12960163D01*
G01*
X-17200300Y-12966315D01*
G01*
X-17187996Y-12972468D01*
G01*
X-17172615Y-12978620D01*
G01*
X-17151083Y-12981696D01*
G01*
X-17129550Y-12987848D01*
G01*
X-17111094Y-12990924D01*
G01*
X-17098790Y-12997076D01*
G01*
X-17086485Y-13000152D01*
G01*
X-17064953Y-13012456D01*
G01*
X-17049573Y-13030913D01*
G01*
X-17040345Y-13049369D01*
G01*
X-17037268Y-13070902D01*
G01*
X-17040345Y-13092434D01*
G01*
X-17049573Y-13113966D01*
G01*
X-17068029Y-13132423D01*
G01*
X-17089562Y-13144727D01*
G01*
X-17117246Y-13153955D01*
G01*
X-17144931Y-13157031D01*
G01*
X-17181843Y-13153955D01*
G01*
X-17212604Y-13144727D01*
G01*
X-17237213Y-13129347D01*
G01*
X-17255669Y-13107814D01*
G01*
X-17267973Y-13083206D01*
G01*
X-17271049Y-13052445D01*
X-16997280Y-13012456D02*
G01*
X-16994204Y-12978620D01*
G01*
X-16988051Y-12947859D01*
G01*
X-16975747Y-12923251D01*
G01*
X-16957291Y-12898642D01*
G01*
X-16935758Y-12883262D01*
G01*
X-16914226Y-12867881D01*
G01*
X-16886541Y-12861729D01*
G01*
X-16855781Y-12858653D01*
G01*
X-16818868Y-12864805D01*
G01*
X-16785031Y-12877110D01*
G01*
X-16754271Y-12901718D01*
G01*
X-16735814Y-12932479D01*
G01*
X-16720434Y-12966315D01*
G01*
X-16717358Y-13009380D01*
G01*
X-16720434Y-13049369D01*
G01*
X-16735814Y-13086282D01*
G01*
X-16757347Y-13117043D01*
G01*
X-16785031Y-13138575D01*
G01*
X-16818868Y-13153955D01*
G01*
X-16855781Y-13157031D01*
G01*
X-16895770Y-13150879D01*
G01*
X-16929606Y-13138575D01*
G01*
X-16960367Y-13113966D01*
G01*
X-16981899Y-13083206D01*
G01*
X-16994204Y-13049369D01*
G01*
X-16997280Y-13012456D01*
X-16957291Y-13012456D02*
G01*
X-16954215Y-13037065D01*
G01*
X-16951139Y-13058597D01*
G01*
X-16941911Y-13077054D01*
G01*
X-16929606Y-13092434D01*
G01*
X-16914226Y-13107814D01*
G01*
X-16895770Y-13117043D01*
G01*
X-16877313Y-13120119D01*
G01*
X-16858857Y-13123195D01*
G01*
X-16837324Y-13120119D01*
G01*
X-16818868Y-13117043D01*
G01*
X-16800412Y-13107814D01*
G01*
X-16785031Y-13092434D01*
G01*
X-16772727Y-13077054D01*
G01*
X-16763499Y-13058597D01*
G01*
X-16760423Y-13033989D01*
G01*
X-16757347Y-13009380D01*
G01*
X-16760423Y-12975544D01*
G01*
X-16769651Y-12947859D01*
G01*
X-16785031Y-12923251D01*
G01*
X-16803488Y-12907870D01*
G01*
X-16828096Y-12895566D01*
G01*
X-16855781Y-12892490D01*
G01*
X-16877313Y-12895566D01*
G01*
X-16895770Y-12898642D01*
G01*
X-16911150Y-12907870D01*
G01*
X-16926530Y-12920174D01*
G01*
X-16941911Y-12935555D01*
G01*
X-16951139Y-12957087D01*
G01*
X-16954215Y-12981696D01*
G01*
X-16957291Y-13012456D01*
X-16495881Y-13117043D02*
G01*
Y-13153955D01*
G01*
X-16686597D01*
G01*
X-16683521Y-13129347D01*
G01*
X-16674293Y-13107814D01*
G01*
X-16658913Y-13089358D01*
G01*
X-16640456Y-13067826D01*
G01*
X-16615848Y-13046293D01*
G01*
X-16594315Y-13027837D01*
G01*
X-16575859Y-13009380D01*
G01*
X-16563555Y-12997076D01*
G01*
X-16551251Y-12984772D01*
G01*
X-16538946Y-12963239D01*
G01*
X-16535870Y-12941707D01*
G01*
X-16538946Y-12926327D01*
G01*
X-16551251Y-12910946D01*
G01*
X-16566631Y-12898642D01*
G01*
X-16588163Y-12895566D01*
G01*
X-16609696Y-12898642D01*
G01*
X-16628152Y-12910946D01*
G01*
X-16640456Y-12929403D01*
G01*
X-16643532Y-12950935D01*
G01*
X-16680445Y-12944783D01*
G01*
X-16671217Y-12907870D01*
G01*
X-16652761Y-12883262D01*
G01*
X-16625076Y-12867881D01*
G01*
X-16588163Y-12861729D01*
G01*
X-16551251Y-12867881D01*
G01*
X-16523566Y-12886338D01*
G01*
X-16505110Y-12910946D01*
G01*
X-16498957Y-12941707D01*
G01*
Y-12960163D01*
G01*
X-16505110Y-12978620D01*
G01*
X-16514338Y-12994000D01*
G01*
X-16526642Y-13012456D01*
G01*
X-16548174Y-13033989D01*
G01*
X-16582011Y-13061673D01*
G01*
X-16606620Y-13086282D01*
G01*
X-16622000Y-13098586D01*
G01*
X-16637380Y-13117043D01*
G01*
X-16495881D01*
X-16452817Y-13073978D02*
G01*
X-16415904Y-13067826D01*
G01*
X-16406676Y-13092434D01*
G01*
X-16394371Y-13110890D01*
G01*
X-16378991Y-13120119D01*
G01*
X-16357459Y-13123195D01*
G01*
X-16335926Y-13120119D01*
G01*
X-16314394Y-13107814D01*
G01*
X-16302089Y-13089358D01*
G01*
X-16299013Y-13064749D01*
G01*
X-16302089Y-13043217D01*
G01*
X-16314394Y-13027837D01*
G01*
X-16332850Y-13015532D01*
G01*
X-16357459Y-13012456D01*
G01*
X-16382067Y-13015532D01*
G01*
X-16375915Y-12981696D01*
G01*
X-16372839D01*
G01*
X-16351306Y-12978620D01*
G01*
X-16332850Y-12972468D01*
G01*
X-16317470Y-12957087D01*
G01*
X-16314394Y-12938631D01*
G01*
X-16317470Y-12920174D01*
G01*
X-16326698Y-12907870D01*
G01*
X-16342078Y-12898642D01*
G01*
X-16360535Y-12895566D01*
G01*
X-16378991Y-12898642D01*
G01*
X-16394371Y-12907870D01*
G01*
X-16406676Y-12923251D01*
G01*
X-16412828Y-12944783D01*
G01*
X-16449740Y-12938631D01*
G01*
X-16437436Y-12907870D01*
G01*
X-16418980Y-12883262D01*
G01*
X-16394371Y-12867881D01*
G01*
X-16363611Y-12861729D01*
G01*
X-16339002Y-12864805D01*
G01*
X-16317470Y-12870957D01*
G01*
X-16302089Y-12883262D01*
G01*
X-16286709Y-12898642D01*
G01*
X-16280557Y-12917098D01*
G01*
X-16277481Y-12935555D01*
G01*
X-16280557Y-12954011D01*
G01*
X-16286709Y-12969391D01*
G01*
X-16299013Y-12984772D01*
G01*
X-16317470Y-12994000D01*
G01*
X-16295937Y-13003228D01*
G01*
X-16277481Y-13018609D01*
G01*
X-16265177Y-13040141D01*
G01*
X-16262101Y-13064749D01*
G01*
X-16265177Y-13083206D01*
G01*
X-16268253Y-13101662D01*
G01*
X-16277481Y-13117043D01*
G01*
X-16289785Y-13129347D01*
G01*
X-16305166Y-13141651D01*
G01*
X-16320546Y-13150879D01*
G01*
X-16339002Y-13157031D01*
G01*
X-16360535D01*
G01*
X-16394371Y-13150879D01*
G01*
X-16425132Y-13135499D01*
G01*
X-16443588Y-13107814D01*
G01*
X-16452817Y-13073978D01*
X-16225188Y-13009380D02*
G01*
X-16222112Y-12963239D01*
G01*
X-16212884Y-12926327D01*
G01*
X-16200579Y-12898642D01*
G01*
X-16182123Y-12877110D01*
G01*
X-16157515Y-12864805D01*
G01*
X-16129830Y-12861729D01*
G01*
X-16108298Y-12864805D01*
G01*
X-16086765Y-12870957D01*
G01*
X-16071385Y-12883262D01*
G01*
X-16059081Y-12898642D01*
G01*
X-16049852Y-12917098D01*
G01*
X-16040624Y-12941707D01*
G01*
X-16034472Y-12972468D01*
G01*
Y-13009380D01*
G01*
X-16037548Y-13055521D01*
G01*
X-16043700Y-13092434D01*
G01*
X-16059081Y-13120119D01*
G01*
X-16077537Y-13141651D01*
G01*
X-16099069Y-13153955D01*
G01*
X-16129830Y-13157031D01*
G01*
X-16148286Y-13153955D01*
G01*
X-16166743Y-13150879D01*
G01*
X-16182123Y-13141651D01*
G01*
X-16197503Y-13129347D01*
G01*
X-16209808Y-13107814D01*
G01*
X-16219036Y-13080130D01*
G01*
X-16222112Y-13046293D01*
G01*
X-16225188Y-13009380D01*
X-16188275Y-13009380D02*
G01*
Y-13040141D01*
G01*
X-16185199Y-13067826D01*
G01*
X-16179047Y-13086282D01*
G01*
X-16169819Y-13101662D01*
G01*
X-16151362Y-13117043D01*
G01*
X-16129830Y-13123195D01*
G01*
X-16108298Y-13117043D01*
G01*
X-16086765Y-13101662D01*
G01*
X-16080613Y-13086282D01*
G01*
X-16074461Y-13067826D01*
G01*
X-16071385Y-13040141D01*
G01*
Y-13009380D01*
G01*
Y-12978620D01*
G01*
X-16074461Y-12954011D01*
G01*
X-16080613Y-12932479D01*
G01*
X-16086765Y-12917098D01*
G01*
X-16105221Y-12901718D01*
G01*
X-16129830Y-12895566D01*
G01*
X-16151362Y-12901718D01*
G01*
X-16169819Y-12917098D01*
G01*
X-16179047Y-12932479D01*
G01*
X-16185199Y-12950935D01*
G01*
X-16188275Y-12978620D01*
G01*
Y-13009380D01*
X-15812996Y-13117043D02*
G01*
Y-13153955D01*
G01*
X-16003711D01*
G01*
X-16000635Y-13129347D01*
G01*
X-15991407Y-13107814D01*
G01*
X-15976027Y-13089358D01*
G01*
X-15957570Y-13067826D01*
G01*
X-15932962Y-13046293D01*
G01*
X-15911430Y-13027837D01*
G01*
X-15892973Y-13009380D01*
G01*
X-15880669Y-12997076D01*
G01*
X-15868365Y-12984772D01*
G01*
X-15856060Y-12963239D01*
G01*
X-15852984Y-12941707D01*
G01*
X-15856060Y-12926327D01*
G01*
X-15868365Y-12910946D01*
G01*
X-15883745Y-12898642D01*
G01*
X-15905277Y-12895566D01*
G01*
X-15926810Y-12898642D01*
G01*
X-15945266Y-12910946D01*
G01*
X-15957570Y-12929403D01*
G01*
X-15960647Y-12950935D01*
G01*
X-15997559Y-12944783D01*
G01*
X-15988331Y-12907870D01*
G01*
X-15969875Y-12883262D01*
G01*
X-15942190Y-12867881D01*
G01*
X-15905277Y-12861729D01*
G01*
X-15868365Y-12867881D01*
G01*
X-15840680Y-12886338D01*
G01*
X-15822224Y-12910946D01*
G01*
X-15816072Y-12941707D01*
G01*
Y-12960163D01*
G01*
X-15822224Y-12978620D01*
G01*
X-15831452Y-12994000D01*
G01*
X-15843756Y-13012456D01*
G01*
X-15865289Y-13033989D01*
G01*
X-15899125Y-13061673D01*
G01*
X-15923734Y-13086282D01*
G01*
X-15939114Y-13098586D01*
G01*
X-15954494Y-13117043D01*
G01*
X-15812996D01*
X-15585367Y-13117043D02*
G01*
Y-13153955D01*
G01*
X-15776083D01*
G01*
X-15773007Y-13129347D01*
G01*
X-15763779Y-13107814D01*
G01*
X-15748398Y-13089358D01*
G01*
X-15729942Y-13067826D01*
G01*
X-15705333Y-13046293D01*
G01*
X-15683801Y-13027837D01*
G01*
X-15665345Y-13009380D01*
G01*
X-15653040Y-12997076D01*
G01*
X-15640736Y-12984772D01*
G01*
X-15628432Y-12963239D01*
G01*
X-15625356Y-12941707D01*
G01*
X-15628432Y-12926327D01*
G01*
X-15640736Y-12910946D01*
G01*
X-15656116Y-12898642D01*
G01*
X-15677649Y-12895566D01*
G01*
X-15699181Y-12898642D01*
G01*
X-15717638Y-12910946D01*
G01*
X-15729942Y-12929403D01*
G01*
X-15733018Y-12950935D01*
G01*
X-15769931Y-12944783D01*
G01*
X-15760702Y-12907870D01*
G01*
X-15742246Y-12883262D01*
G01*
X-15714562Y-12867881D01*
G01*
X-15677649Y-12861729D01*
G01*
X-15640736Y-12867881D01*
G01*
X-15613051Y-12886338D01*
G01*
X-15594595Y-12910946D01*
G01*
X-15588443Y-12941707D01*
G01*
Y-12960163D01*
G01*
X-15594595Y-12978620D01*
G01*
X-15603823Y-12994000D01*
G01*
X-15616128Y-13012456D01*
G01*
X-15637660Y-13033989D01*
G01*
X-15671497Y-13061673D01*
G01*
X-15696105Y-13086282D01*
G01*
X-15711485Y-13098586D01*
G01*
X-15726866Y-13117043D01*
G01*
X-15585367D01*
X-15542302Y-13009380D02*
G01*
X-15539226Y-12963239D01*
G01*
X-15529998Y-12926327D01*
G01*
X-15517694Y-12898642D01*
G01*
X-15499237Y-12877110D01*
G01*
X-15474629Y-12864805D01*
G01*
X-15446944Y-12861729D01*
G01*
X-15425412Y-12864805D01*
G01*
X-15403879Y-12870957D01*
G01*
X-15388499Y-12883262D01*
G01*
X-15376195Y-12898642D01*
G01*
X-15366966Y-12917098D01*
G01*
X-15357738Y-12941707D01*
G01*
X-15351586Y-12972468D01*
G01*
Y-13009380D01*
G01*
X-15354662Y-13055521D01*
G01*
X-15360814Y-13092434D01*
G01*
X-15376195Y-13120119D01*
G01*
X-15394651Y-13141651D01*
G01*
X-15416183Y-13153955D01*
G01*
X-15446944Y-13157031D01*
G01*
X-15465400Y-13153955D01*
G01*
X-15483857Y-13150879D01*
G01*
X-15499237Y-13141651D01*
G01*
X-15514617Y-13129347D01*
G01*
X-15526922Y-13107814D01*
G01*
X-15536150Y-13080130D01*
G01*
X-15539226Y-13046293D01*
G01*
X-15542302Y-13009380D01*
X-15505389Y-13009380D02*
G01*
Y-13040141D01*
G01*
X-15502313Y-13067826D01*
G01*
X-15496161Y-13086282D01*
G01*
X-15486933Y-13101662D01*
G01*
X-15468477Y-13117043D01*
G01*
X-15446944Y-13123195D01*
G01*
X-15425412Y-13117043D01*
G01*
X-15403879Y-13101662D01*
G01*
X-15397727Y-13086282D01*
G01*
X-15391575Y-13067826D01*
G01*
X-15388499Y-13040141D01*
G01*
Y-13009380D01*
G01*
Y-12978620D01*
G01*
X-15391575Y-12954011D01*
G01*
X-15397727Y-12932479D01*
G01*
X-15403879Y-12917098D01*
G01*
X-15422336Y-12901718D01*
G01*
X-15446944Y-12895566D01*
G01*
X-15468477Y-12901718D01*
G01*
X-15486933Y-12917098D01*
G01*
X-15496161Y-12932479D01*
G01*
X-15502313Y-12950935D01*
G01*
X-15505389Y-12978620D01*
G01*
Y-13009380D01*
X-15130110Y-13117043D02*
G01*
Y-13153955D01*
G01*
X-15320826D01*
G01*
X-15317749Y-13129347D01*
G01*
X-15308521Y-13107814D01*
G01*
X-15293141Y-13089358D01*
G01*
X-15274685Y-13067826D01*
G01*
X-15250076Y-13046293D01*
G01*
X-15228544Y-13027837D01*
G01*
X-15210087Y-13009380D01*
G01*
X-15197783Y-12997076D01*
G01*
X-15185479Y-12984772D01*
G01*
X-15173174Y-12963239D01*
G01*
X-15170098Y-12941707D01*
G01*
X-15173174Y-12926327D01*
G01*
X-15185479Y-12910946D01*
G01*
X-15200859Y-12898642D01*
G01*
X-15222391Y-12895566D01*
G01*
X-15243924Y-12898642D01*
G01*
X-15262380Y-12910946D01*
G01*
X-15274685Y-12929403D01*
G01*
X-15277761Y-12950935D01*
G01*
X-15314673Y-12944783D01*
G01*
X-15305445Y-12907870D01*
G01*
X-15286989Y-12883262D01*
G01*
X-15259304Y-12867881D01*
G01*
X-15222391Y-12861729D01*
G01*
X-15185479Y-12867881D01*
G01*
X-15157794Y-12886338D01*
G01*
X-15139338Y-12910946D01*
G01*
X-15133186Y-12941707D01*
G01*
Y-12960163D01*
G01*
X-15139338Y-12978620D01*
G01*
X-15148566Y-12994000D01*
G01*
X-15160870Y-13012456D01*
G01*
X-15182403Y-13033989D01*
G01*
X-15216239Y-13061673D01*
G01*
X-15240848Y-13086282D01*
G01*
X-15256228Y-13098586D01*
G01*
X-15271609Y-13117043D01*
G01*
X-15130110D01*
X-15034752Y-12990924D02*
G01*
X-15053208Y-12981696D01*
G01*
X-15065512Y-12969391D01*
G01*
X-15074740Y-12954011D01*
G01*
X-15077817Y-12935555D01*
G01*
X-15071664Y-12907870D01*
G01*
X-15053208Y-12883262D01*
G01*
X-15025523Y-12867881D01*
G01*
X-14991687Y-12861729D01*
G01*
X-14957850Y-12867881D01*
G01*
X-14930166Y-12883262D01*
G01*
X-14911709Y-12907870D01*
G01*
X-14905557Y-12935555D01*
G01*
X-14908633Y-12954011D01*
G01*
X-14914785Y-12969391D01*
G01*
X-14930166Y-12981696D01*
G01*
X-14948622Y-12990924D01*
G01*
X-14927089Y-13003228D01*
G01*
X-14908633Y-13021685D01*
G01*
X-14899405Y-13043217D01*
G01*
X-14896329Y-13067826D01*
G01*
Y-13086282D01*
G01*
X-14902481Y-13101662D01*
G01*
X-14911709Y-13117043D01*
G01*
X-14924013Y-13132423D01*
G01*
X-14936318Y-13141651D01*
G01*
X-14951698Y-13150879D01*
G01*
X-14970154Y-13157031D01*
G01*
X-14991687D01*
G01*
X-15013219D01*
G01*
X-15031676Y-13150879D01*
G01*
X-15047056Y-13141651D01*
G01*
X-15059360Y-13132423D01*
G01*
X-15071664Y-13117043D01*
G01*
X-15080893Y-13101662D01*
G01*
X-15083969Y-13086282D01*
G01*
X-15087045Y-13067826D01*
G01*
X-15083969Y-13040141D01*
G01*
X-15071664Y-13018609D01*
G01*
X-15056284Y-13003228D01*
G01*
X-15034752Y-12990924D01*
X-15040904Y-12935555D02*
G01*
X-15037828Y-12950935D01*
G01*
X-15028600Y-12963239D01*
G01*
X-15013219Y-12972468D01*
G01*
X-14991687Y-12975544D01*
G01*
X-14970154Y-12972468D01*
G01*
X-14954774Y-12963239D01*
G01*
X-14945546Y-12950935D01*
G01*
X-14942470Y-12935555D01*
G01*
X-14945546Y-12920174D01*
G01*
X-14954774Y-12907870D01*
G01*
X-14970154Y-12898642D01*
G01*
X-14991687Y-12895566D01*
G01*
X-15013219Y-12898642D01*
G01*
X-15028600Y-12907870D01*
G01*
X-15037828Y-12920174D01*
G01*
X-15040904Y-12935555D01*
X-15050132Y-13064749D02*
G01*
X-15047056Y-13080130D01*
G01*
X-15043980Y-13095510D01*
G01*
X-15034752Y-13107814D01*
G01*
X-15022447Y-13117043D01*
G01*
X-15007067Y-13120119D01*
G01*
X-14991687Y-13123195D01*
G01*
X-14967078Y-13120119D01*
G01*
X-14948622Y-13107814D01*
G01*
X-14936318Y-13089358D01*
G01*
X-14933242Y-13067826D01*
G01*
X-14936318Y-13043217D01*
G01*
X-14948622Y-13024761D01*
G01*
X-14967078Y-13012456D01*
G01*
X-14991687Y-13009380D01*
G01*
X-15016295Y-13012456D01*
G01*
X-15034752Y-13024761D01*
G01*
X-15047056Y-13043217D01*
G01*
X-15050132Y-13064749D01*
X-14859416Y-13009380D02*
G01*
X-14856340Y-12963239D01*
G01*
X-14847112Y-12926327D01*
G01*
X-14834808Y-12898642D01*
G01*
X-14816351Y-12877110D01*
G01*
X-14791743Y-12864805D01*
G01*
X-14764058Y-12861729D01*
G01*
X-14742526Y-12864805D01*
G01*
X-14720993Y-12870957D01*
G01*
X-14705613Y-12883262D01*
G01*
X-14693309Y-12898642D01*
G01*
X-14684081Y-12917098D01*
G01*
X-14674852Y-12941707D01*
G01*
X-14668700Y-12972468D01*
G01*
Y-13009380D01*
G01*
X-14671776Y-13055521D01*
G01*
X-14677928Y-13092434D01*
G01*
X-14693309Y-13120119D01*
G01*
X-14711765Y-13141651D01*
G01*
X-14733298Y-13153955D01*
G01*
X-14764058Y-13157031D01*
G01*
X-14782515Y-13153955D01*
G01*
X-14800971Y-13150879D01*
G01*
X-14816351Y-13141651D01*
G01*
X-14831732Y-13129347D01*
G01*
X-14844036Y-13107814D01*
G01*
X-14853264Y-13080130D01*
G01*
X-14856340Y-13046293D01*
G01*
X-14859416Y-13009380D01*
X-14822503Y-13009380D02*
G01*
Y-13040141D01*
G01*
X-14819427Y-13067826D01*
G01*
X-14813275Y-13086282D01*
G01*
X-14804047Y-13101662D01*
G01*
X-14785591Y-13117043D01*
G01*
X-14764058Y-13123195D01*
G01*
X-14742526Y-13117043D01*
G01*
X-14720993Y-13101662D01*
G01*
X-14714841Y-13086282D01*
G01*
X-14708689Y-13067826D01*
G01*
X-14705613Y-13040141D01*
G01*
Y-13009380D01*
G01*
Y-12978620D01*
G01*
X-14708689Y-12954011D01*
G01*
X-14714841Y-12932479D01*
G01*
X-14720993Y-12917098D01*
G01*
X-14739450Y-12901718D01*
G01*
X-14764058Y-12895566D01*
G01*
X-14785591Y-12901718D01*
G01*
X-14804047Y-12917098D01*
G01*
X-14813275Y-12932479D01*
G01*
X-14819427Y-12950935D01*
G01*
X-14822503Y-12978620D01*
G01*
Y-13009380D01*
X-14499517Y-13153955D02*
G01*
X-14536430D01*
G01*
Y-12926327D01*
G01*
X-14551810Y-12938631D01*
G01*
X-14570266Y-12950935D01*
G01*
X-14588723Y-12963239D01*
G01*
X-14607179Y-12969391D01*
G01*
Y-12935555D01*
G01*
X-14579494Y-12920174D01*
G01*
X-14554886Y-12901718D01*
G01*
X-14536430Y-12880186D01*
G01*
X-14524125Y-12861729D01*
G01*
X-14499517D01*
G01*
Y-13153955D01*
X-13948902Y-13073978D02*
G01*
X-13911989Y-13067826D01*
G01*
X-13902761Y-13092434D01*
G01*
X-13890456Y-13110890D01*
G01*
X-13875076Y-13120119D01*
G01*
X-13853544Y-13123195D01*
G01*
X-13832011Y-13120119D01*
G01*
X-13810479Y-13107814D01*
G01*
X-13798174Y-13089358D01*
G01*
X-13795098Y-13064749D01*
G01*
X-13798174Y-13043217D01*
G01*
X-13810479Y-13027837D01*
G01*
X-13828935Y-13015532D01*
G01*
X-13853544Y-13012456D01*
G01*
X-13878152Y-13015532D01*
G01*
X-13872000Y-12981696D01*
G01*
X-13868924D01*
G01*
X-13847391Y-12978620D01*
G01*
X-13828935Y-12972468D01*
G01*
X-13813555Y-12957087D01*
G01*
X-13810479Y-12938631D01*
G01*
X-13813555Y-12920174D01*
G01*
X-13822783Y-12907870D01*
G01*
X-13838163Y-12898642D01*
G01*
X-13856620Y-12895566D01*
G01*
X-13875076Y-12898642D01*
G01*
X-13890456Y-12907870D01*
G01*
X-13902761Y-12923251D01*
G01*
X-13908913Y-12944783D01*
G01*
X-13945826Y-12938631D01*
G01*
X-13933521Y-12907870D01*
G01*
X-13915065Y-12883262D01*
G01*
X-13890456Y-12867881D01*
G01*
X-13859696Y-12861729D01*
G01*
X-13835087Y-12864805D01*
G01*
X-13813555Y-12870957D01*
G01*
X-13798174Y-12883262D01*
G01*
X-13782794Y-12898642D01*
G01*
X-13776642Y-12917098D01*
G01*
X-13773566Y-12935555D01*
G01*
X-13776642Y-12954011D01*
G01*
X-13782794Y-12969391D01*
G01*
X-13795098Y-12984772D01*
G01*
X-13813555Y-12994000D01*
G01*
X-13792022Y-13003228D01*
G01*
X-13773566Y-13018609D01*
G01*
X-13761262Y-13040141D01*
G01*
X-13758186Y-13064749D01*
G01*
X-13761262Y-13083206D01*
G01*
X-13764338Y-13101662D01*
G01*
X-13773566Y-13117043D01*
G01*
X-13785870Y-13129347D01*
G01*
X-13801251Y-13141651D01*
G01*
X-13816631Y-13150879D01*
G01*
X-13835087Y-13157031D01*
G01*
X-13856620D01*
G01*
X-13890456Y-13150879D01*
G01*
X-13921217Y-13135499D01*
G01*
X-13939673Y-13107814D01*
G01*
X-13948902Y-13073978D01*
X-13589002Y-13153955D02*
G01*
X-13625915D01*
G01*
Y-12926327D01*
G01*
X-13641295Y-12938631D01*
G01*
X-13659752Y-12950935D01*
G01*
X-13678208Y-12963239D01*
G01*
X-13696664Y-12969391D01*
G01*
Y-12935555D01*
G01*
X-13668980Y-12920174D01*
G01*
X-13644371Y-12901718D01*
G01*
X-13625915Y-12880186D01*
G01*
X-13613611Y-12861729D01*
G01*
X-13589002D01*
G01*
Y-13153955D01*
X-13309081Y-12938631D02*
G01*
X-13345993Y-12941707D01*
G01*
X-13352145Y-12923251D01*
G01*
X-13358298Y-12910946D01*
G01*
X-13376754Y-12898642D01*
G01*
X-13395210Y-12895566D01*
G01*
X-13410591Y-12898642D01*
G01*
X-13425971Y-12904794D01*
G01*
X-13441351Y-12917098D01*
G01*
X-13453655Y-12938631D01*
G01*
X-13459808Y-12963239D01*
G01*
X-13462884Y-13003228D01*
G01*
X-13447503Y-12984772D01*
G01*
X-13432123Y-12972468D01*
G01*
X-13410591Y-12966315D01*
G01*
X-13392134Y-12963239D01*
G01*
X-13373678Y-12966315D01*
G01*
X-13358298Y-12969391D01*
G01*
X-13342917Y-12978620D01*
G01*
X-13327537Y-12990924D01*
G01*
X-13318309Y-13003228D01*
G01*
X-13309081Y-13018609D01*
G01*
X-13302928Y-13037065D01*
G01*
Y-13058597D01*
G01*
X-13306004Y-13083206D01*
G01*
X-13315233Y-13107814D01*
G01*
X-13330613Y-13129347D01*
G01*
X-13349069Y-13144727D01*
G01*
X-13370602Y-13153955D01*
G01*
X-13395210Y-13157031D01*
G01*
X-13416743Y-13153955D01*
G01*
X-13438275Y-13147803D01*
G01*
X-13456732Y-13138575D01*
G01*
X-13472112Y-13123195D01*
G01*
X-13484416Y-13104738D01*
G01*
X-13493644Y-13080130D01*
G01*
X-13496720Y-13052445D01*
G01*
X-13499796Y-13015532D01*
G01*
X-13496720Y-12978620D01*
G01*
X-13490568Y-12944783D01*
G01*
X-13481340Y-12917098D01*
G01*
X-13469036Y-12895566D01*
G01*
X-13453655Y-12880186D01*
G01*
X-13435199Y-12870957D01*
G01*
X-13416743Y-12864805D01*
G01*
X-13392134Y-12861729D01*
G01*
X-13361374Y-12867881D01*
G01*
X-13336765Y-12883262D01*
G01*
X-13318309Y-12907870D01*
G01*
X-13309081Y-12938631D01*
X-13462884Y-13055521D02*
G01*
X-13459808Y-13073978D01*
G01*
X-13453655Y-13089358D01*
G01*
X-13444427Y-13104738D01*
G01*
X-13432123Y-13113966D01*
G01*
X-13416743Y-13120119D01*
G01*
X-13398286Y-13123195D01*
G01*
X-13376754Y-13120119D01*
G01*
X-13355221Y-13104738D01*
G01*
X-13342917Y-13086282D01*
G01*
X-13339841Y-13058597D01*
G01*
X-13342917Y-13033989D01*
G01*
X-13355221Y-13012456D01*
G01*
X-13376754Y-13000152D01*
G01*
X-13401362Y-12997076D01*
G01*
X-13425971Y-13000152D01*
G01*
X-13444427Y-13012456D01*
G01*
X-13456732Y-13033989D01*
G01*
X-13462884Y-13055521D01*
X-13081452Y-12938631D02*
G01*
X-13118365Y-12941707D01*
G01*
X-13124517Y-12923251D01*
G01*
X-13130669Y-12910946D01*
G01*
X-13149125Y-12898642D01*
G01*
X-13167582Y-12895566D01*
G01*
X-13182962Y-12898642D01*
G01*
X-13198342Y-12904794D01*
G01*
X-13213723Y-12917098D01*
G01*
X-13226027Y-12938631D01*
G01*
X-13232179Y-12963239D01*
G01*
X-13235255Y-13003228D01*
G01*
X-13219875Y-12984772D01*
G01*
X-13204494Y-12972468D01*
G01*
X-13182962Y-12966315D01*
G01*
X-13164506Y-12963239D01*
G01*
X-13146049Y-12966315D01*
G01*
X-13130669Y-12969391D01*
G01*
X-13115289Y-12978620D01*
G01*
X-13099908Y-12990924D01*
G01*
X-13090680Y-13003228D01*
G01*
X-13081452Y-13018609D01*
G01*
X-13075300Y-13037065D01*
G01*
Y-13058597D01*
G01*
X-13078376Y-13083206D01*
G01*
X-13087604Y-13107814D01*
G01*
X-13102984Y-13129347D01*
G01*
X-13121441Y-13144727D01*
G01*
X-13142973Y-13153955D01*
G01*
X-13167582Y-13157031D01*
G01*
X-13189114Y-13153955D01*
G01*
X-13210647Y-13147803D01*
G01*
X-13229103Y-13138575D01*
G01*
X-13244483Y-13123195D01*
G01*
X-13256787Y-13104738D01*
G01*
X-13266016Y-13080130D01*
G01*
X-13269092Y-13052445D01*
G01*
X-13272168Y-13015532D01*
G01*
X-13269092Y-12978620D01*
G01*
X-13262940Y-12944783D01*
G01*
X-13253711Y-12917098D01*
G01*
X-13241407Y-12895566D01*
G01*
X-13226027Y-12880186D01*
G01*
X-13207570Y-12870957D01*
G01*
X-13189114Y-12864805D01*
G01*
X-13164506Y-12861729D01*
G01*
X-13133745Y-12867881D01*
G01*
X-13109136Y-12883262D01*
G01*
X-13090680Y-12907870D01*
G01*
X-13081452Y-12938631D01*
X-13235255Y-13055521D02*
G01*
X-13232179Y-13073978D01*
G01*
X-13226027Y-13089358D01*
G01*
X-13216799Y-13104738D01*
G01*
X-13204494Y-13113966D01*
G01*
X-13189114Y-13120119D01*
G01*
X-13170658Y-13123195D01*
G01*
X-13149125Y-13120119D01*
G01*
X-13127593Y-13104738D01*
G01*
X-13115289Y-13086282D01*
G01*
X-13112213Y-13058597D01*
G01*
X-13115289Y-13033989D01*
G01*
X-13127593Y-13012456D01*
G01*
X-13149125Y-13000152D01*
G01*
X-13173734Y-12997076D01*
G01*
X-13198342Y-13000152D01*
G01*
X-13216799Y-13012456D01*
G01*
X-13229103Y-13033989D01*
G01*
X-13235255Y-13055521D01*
X-13038387Y-13073978D02*
G01*
X-13001474Y-13067826D01*
G01*
X-12992246Y-13092434D01*
G01*
X-12979942Y-13110890D01*
G01*
X-12964562Y-13120119D01*
G01*
X-12943029Y-13123195D01*
G01*
X-12921497Y-13120119D01*
G01*
X-12899964Y-13107814D01*
G01*
X-12887660Y-13089358D01*
G01*
X-12884584Y-13064749D01*
G01*
X-12887660Y-13043217D01*
G01*
X-12899964Y-13027837D01*
G01*
X-12918421Y-13015532D01*
G01*
X-12943029Y-13012456D01*
G01*
X-12967638Y-13015532D01*
G01*
X-12961485Y-12981696D01*
G01*
X-12958409D01*
G01*
X-12936877Y-12978620D01*
G01*
X-12918421Y-12972468D01*
G01*
X-12903040Y-12957087D01*
G01*
X-12899964Y-12938631D01*
G01*
X-12903040Y-12920174D01*
G01*
X-12912268Y-12907870D01*
G01*
X-12927649Y-12898642D01*
G01*
X-12946105Y-12895566D01*
G01*
X-12964562Y-12898642D01*
G01*
X-12979942Y-12907870D01*
G01*
X-12992246Y-12923251D01*
G01*
X-12998398Y-12944783D01*
G01*
X-13035311Y-12938631D01*
G01*
X-13023007Y-12907870D01*
G01*
X-13004550Y-12883262D01*
G01*
X-12979942Y-12867881D01*
G01*
X-12949181Y-12861729D01*
G01*
X-12924573Y-12864805D01*
G01*
X-12903040Y-12870957D01*
G01*
X-12887660Y-12883262D01*
G01*
X-12872280Y-12898642D01*
G01*
X-12866128Y-12917098D01*
G01*
X-12863051Y-12935555D01*
G01*
X-12866128Y-12954011D01*
G01*
X-12872280Y-12969391D01*
G01*
X-12884584Y-12984772D01*
G01*
X-12903040Y-12994000D01*
G01*
X-12881508Y-13003228D01*
G01*
X-12863051Y-13018609D01*
G01*
X-12850747Y-13040141D01*
G01*
X-12847671Y-13064749D01*
G01*
X-12850747Y-13083206D01*
G01*
X-12853823Y-13101662D01*
G01*
X-12863051Y-13117043D01*
G01*
X-12875356Y-13129347D01*
G01*
X-12890736Y-13141651D01*
G01*
X-12906116Y-13150879D01*
G01*
X-12924573Y-13157031D01*
G01*
X-12946105D01*
G01*
X-12979942Y-13150879D01*
G01*
X-13010702Y-13135499D01*
G01*
X-13029159Y-13107814D01*
G01*
X-13038387Y-13073978D01*
X-12626195Y-12938631D02*
G01*
X-12663107Y-12941707D01*
G01*
X-12669260Y-12923251D01*
G01*
X-12675412Y-12910946D01*
G01*
X-12693868Y-12898642D01*
G01*
X-12712324Y-12895566D01*
G01*
X-12727705Y-12898642D01*
G01*
X-12743085Y-12904794D01*
G01*
X-12758465Y-12917098D01*
G01*
X-12770770Y-12938631D01*
G01*
X-12776922Y-12963239D01*
G01*
X-12779998Y-13003228D01*
G01*
X-12764617Y-12984772D01*
G01*
X-12749237Y-12972468D01*
G01*
X-12727705Y-12966315D01*
G01*
X-12709248Y-12963239D01*
G01*
X-12690792Y-12966315D01*
G01*
X-12675412Y-12969391D01*
G01*
X-12660031Y-12978620D01*
G01*
X-12644651Y-12990924D01*
G01*
X-12635423Y-13003228D01*
G01*
X-12626195Y-13018609D01*
G01*
X-12620043Y-13037065D01*
G01*
Y-13058597D01*
G01*
X-12623119Y-13083206D01*
G01*
X-12632347Y-13107814D01*
G01*
X-12647727Y-13129347D01*
G01*
X-12666183Y-13144727D01*
G01*
X-12687716Y-13153955D01*
G01*
X-12712324Y-13157031D01*
G01*
X-12733857Y-13153955D01*
G01*
X-12755389Y-13147803D01*
G01*
X-12773846Y-13138575D01*
G01*
X-12789226Y-13123195D01*
G01*
X-12801530Y-13104738D01*
G01*
X-12810758Y-13080130D01*
G01*
X-12813834Y-13052445D01*
G01*
X-12816911Y-13015532D01*
G01*
X-12813834Y-12978620D01*
G01*
X-12807682Y-12944783D01*
G01*
X-12798454Y-12917098D01*
G01*
X-12786150Y-12895566D01*
G01*
X-12770770Y-12880186D01*
G01*
X-12752313Y-12870957D01*
G01*
X-12733857Y-12864805D01*
G01*
X-12709248Y-12861729D01*
G01*
X-12678488Y-12867881D01*
G01*
X-12653879Y-12883262D01*
G01*
X-12635423Y-12907870D01*
G01*
X-12626195Y-12938631D01*
X-12779998Y-13055521D02*
G01*
X-12776922Y-13073978D01*
G01*
X-12770770Y-13089358D01*
G01*
X-12761541Y-13104738D01*
G01*
X-12749237Y-13113966D01*
G01*
X-12733857Y-13120119D01*
G01*
X-12715400Y-13123195D01*
G01*
X-12693868Y-13120119D01*
G01*
X-12672336Y-13104738D01*
G01*
X-12660031Y-13086282D01*
G01*
X-12656955Y-13058597D01*
G01*
X-12660031Y-13033989D01*
G01*
X-12672336Y-13012456D01*
G01*
X-12693868Y-13000152D01*
G01*
X-12718477Y-12997076D01*
G01*
X-12743085Y-13000152D01*
G01*
X-12761541Y-13012456D01*
G01*
X-12773846Y-13033989D01*
G01*
X-12779998Y-13055521D01*
X-12607738Y-13153955D02*
G01*
X-12487772Y-12861729D01*
G01*
X-12447783D01*
G01*
X-12327817Y-13153955D01*
G01*
X-12370881D01*
G01*
X-12404718Y-13061673D01*
G01*
X-12530837D01*
G01*
X-12564673Y-13153955D01*
G01*
X-12607738D01*
X-12518532Y-13027837D02*
G01*
X-12417022D01*
G01*
X-12447783Y-12950935D01*
G01*
X-12460087Y-12920174D01*
G01*
X-12466239Y-12895566D01*
G01*
X-12484696Y-12947859D01*
G01*
X-12518532Y-13027837D01*
G54D29*
X-20000000Y-15000000D02*
G01*
Y15000000D01*
G01*
X20000000D01*
G01*
Y-15000000D01*
G01*
X-20000000D01*
M02*
