G04*
G04 #@! TF.GenerationSoftware,Altium Limited,Altium Designer,22.10.1 (41)*
G04*
G04 Layer_Physical_Order=1*
G04 Layer_Color=255*
%FSLAX25Y25*%
%MOIN*%
G70*
G04*
G04 #@! TF.SameCoordinates,84BF85B8-C2DE-4563-98F9-37A291DCC650*
G04*
G04*
G04 #@! TF.FilePolarity,Positive*
G04*
G01*
G75*
%ADD17R,0.13800X0.13800*%
%ADD18R,0.02981X0.00803*%
%ADD19R,0.00803X0.02981*%
%ADD20R,0.02362X0.02362*%
%ADD21R,0.04331X0.02362*%
%ADD22R,0.02362X0.01968*%
%ADD23R,0.03150X0.03543*%
G04:AMPARAMS|DCode=24|XSize=11.81mil|YSize=46mil|CornerRadius=0mil|HoleSize=0mil|Usage=FLASHONLY|Rotation=225.000|XOffset=0mil|YOffset=0mil|HoleType=Round|Shape=Rectangle|*
%AMROTATEDRECTD24*
4,1,4,-0.01209,0.02044,0.02044,-0.01209,0.01209,-0.02044,-0.02044,0.01209,-0.01209,0.02044,0.0*
%
%ADD24ROTATEDRECTD24*%

G04:AMPARAMS|DCode=25|XSize=11.81mil|YSize=46mil|CornerRadius=0mil|HoleSize=0mil|Usage=FLASHONLY|Rotation=135.000|XOffset=0mil|YOffset=0mil|HoleType=Round|Shape=Rectangle|*
%AMROTATEDRECTD25*
4,1,4,0.02044,0.01209,-0.01209,-0.02044,-0.02044,-0.01209,0.01209,0.02044,0.02044,0.01209,0.0*
%
%ADD25ROTATEDRECTD25*%

%ADD26R,0.03543X0.03150*%
%ADD27R,0.01968X0.02362*%
%ADD28R,0.12598X0.06299*%
%ADD29R,0.05906X0.02165*%
%ADD30R,0.02362X0.02362*%
%ADD31P,0.03341X4X180.0*%
G04:AMPARAMS|DCode=32|XSize=19.68mil|YSize=23.62mil|CornerRadius=0mil|HoleSize=0mil|Usage=FLASHONLY|Rotation=315.000|XOffset=0mil|YOffset=0mil|HoleType=Round|Shape=Rectangle|*
%AMROTATEDRECTD32*
4,1,4,-0.01531,-0.00139,0.00139,0.01531,0.01531,0.00139,-0.00139,-0.01531,-0.01531,-0.00139,0.0*
%
%ADD32ROTATEDRECTD32*%

%ADD33R,0.02559X0.03937*%
%ADD61C,0.00591*%
%ADD62C,0.00551*%
%ADD63C,0.00799*%
%ADD64C,0.01500*%
%ADD65C,0.03000*%
%ADD66C,0.01000*%
%ADD67C,0.07087*%
%ADD68C,0.03347*%
%ADD69R,0.03347X0.03347*%
%ADD70C,0.03937*%
%ADD71R,0.03937X0.03937*%
%ADD72R,0.05906X0.09843*%
G04:AMPARAMS|DCode=73|XSize=98.43mil|YSize=59.06mil|CornerRadius=0mil|HoleSize=0mil|Usage=FLASHONLY|Rotation=90.000|XOffset=0mil|YOffset=0mil|HoleType=Round|Shape=Octagon|*
%AMOCTAGOND73*
4,1,8,0.01476,0.04921,-0.01476,0.04921,-0.02953,0.03445,-0.02953,-0.03445,-0.01476,-0.04921,0.01476,-0.04921,0.02953,-0.03445,0.02953,0.03445,0.01476,0.04921,0.0*
%
%ADD73OCTAGOND73*%

%ADD74R,0.07087X0.11811*%
G04:AMPARAMS|DCode=75|XSize=118.11mil|YSize=70.87mil|CornerRadius=17.72mil|HoleSize=0mil|Usage=FLASHONLY|Rotation=270.000|XOffset=0mil|YOffset=0mil|HoleType=Round|Shape=RoundedRectangle|*
%AMROUNDEDRECTD75*
21,1,0.11811,0.03543,0,0,270.0*
21,1,0.08268,0.07087,0,0,270.0*
1,1,0.03543,-0.01772,-0.04134*
1,1,0.03543,-0.01772,0.04134*
1,1,0.03543,0.01772,0.04134*
1,1,0.03543,0.01772,-0.04134*
%
%ADD75ROUNDEDRECTD75*%
%ADD76C,0.01378*%
%ADD77C,0.02000*%
G36*
X82771Y98705D02*
X82703Y98681D01*
X82643Y98641D01*
X82591Y98585D01*
X82547Y98513D01*
X82511Y98425D01*
X82483Y98321D01*
X82463Y98201D01*
X82451Y98065D01*
X82447Y97914D01*
X81648D01*
X81644Y98065D01*
X81632Y98201D01*
X81612Y98321D01*
X81584Y98425D01*
X81548Y98513D01*
X81504Y98585D01*
X81452Y98641D01*
X81392Y98681D01*
X81324Y98705D01*
X81248Y98713D01*
X82846D01*
X82771Y98705D01*
D02*
G37*
G36*
X74070D02*
X74002Y98681D01*
X73942Y98641D01*
X73890Y98585D01*
X73846Y98513D01*
X73810Y98425D01*
X73782Y98321D01*
X73762Y98201D01*
X73750Y98065D01*
X73746Y97914D01*
X72947D01*
X72943Y98065D01*
X72931Y98201D01*
X72911Y98321D01*
X72883Y98425D01*
X72847Y98513D01*
X72803Y98585D01*
X72751Y98641D01*
X72691Y98681D01*
X72623Y98705D01*
X72547Y98713D01*
X74146D01*
X74070Y98705D01*
D02*
G37*
G36*
X66078D02*
X66010Y98681D01*
X65950Y98641D01*
X65898Y98585D01*
X65854Y98513D01*
X65818Y98425D01*
X65790Y98321D01*
X65770Y98201D01*
X65758Y98065D01*
X65754Y97914D01*
X64955D01*
X64951Y98065D01*
X64939Y98201D01*
X64919Y98321D01*
X64891Y98425D01*
X64855Y98513D01*
X64811Y98585D01*
X64759Y98641D01*
X64699Y98681D01*
X64631Y98705D01*
X64555Y98713D01*
X66154D01*
X66078Y98705D01*
D02*
G37*
G36*
X58204D02*
X58136Y98681D01*
X58076Y98641D01*
X58024Y98585D01*
X57980Y98513D01*
X57944Y98425D01*
X57916Y98321D01*
X57896Y98201D01*
X57884Y98065D01*
X57880Y97914D01*
X57081D01*
X57077Y98065D01*
X57065Y98201D01*
X57045Y98321D01*
X57017Y98425D01*
X56981Y98513D01*
X56937Y98585D01*
X56885Y98641D01*
X56825Y98681D01*
X56757Y98705D01*
X56681Y98713D01*
X58280D01*
X58204Y98705D01*
D02*
G37*
G36*
X44835Y107030D02*
X44815Y99340D01*
X36645Y91170D01*
X13443D01*
X13433Y91075D01*
X13432Y91170D01*
X10885D01*
X10885Y95835D01*
X10500Y96220D01*
X7535Y96220D01*
X6975Y96780D01*
Y100300D01*
X8134Y101010D01*
X9785Y102420D01*
X11195Y104071D01*
X12330Y105922D01*
X13161Y107929D01*
X13668Y110040D01*
X13680Y110197D01*
X21668D01*
X21790Y109712D01*
X21456Y109534D01*
X20329Y108608D01*
X19403Y107481D01*
X18716Y106194D01*
X18292Y104798D01*
X18149Y103347D01*
X18292Y101895D01*
X18716Y100499D01*
X19403Y99212D01*
X20329Y98085D01*
X21456Y97159D01*
X22743Y96472D01*
X24139Y96048D01*
X25591Y95905D01*
X27042Y96048D01*
X28438Y96472D01*
X29725Y97159D01*
X30852Y98085D01*
X31778Y99212D01*
X32465Y100499D01*
X32889Y101895D01*
X33032Y103347D01*
X32889Y104798D01*
X32465Y106194D01*
X31778Y107481D01*
X30852Y108608D01*
X29725Y109534D01*
X29391Y109712D01*
X29513Y110197D01*
X44835D01*
Y107030D01*
D02*
G37*
G36*
X5419Y96305D02*
X5815D01*
X5739Y96290D01*
X5671Y96245D01*
X5611Y96170D01*
X5559Y96065D01*
X5515Y95930D01*
X5479Y95765D01*
X5469Y95695D01*
X5501Y95528D01*
X5550Y95363D01*
X5609Y95228D01*
X5679Y95123D01*
X5759Y95048D01*
X5850Y95003D01*
X5953Y94988D01*
X5421D01*
X5415Y94805D01*
X3915D01*
X3912Y94988D01*
X3418D01*
X3512Y95003D01*
X3597Y95048D01*
X3671Y95123D01*
X3736Y95228D01*
X3791Y95363D01*
X3836Y95528D01*
X3861Y95667D01*
X3845Y95765D01*
X3806Y95930D01*
X3757Y96065D01*
X3700Y96170D01*
X3635Y96245D01*
X3560Y96290D01*
X3477Y96305D01*
X3909D01*
X3915Y96488D01*
X5415D01*
X5419Y96305D01*
D02*
G37*
G36*
X82451Y91893D02*
X82463Y91755D01*
X82483Y91633D01*
X82511Y91528D01*
X82547Y91439D01*
X82591Y91366D01*
X82643Y91309D01*
X82703Y91268D01*
X82771Y91244D01*
X82846Y91236D01*
X81248D01*
X81324Y91244D01*
X81392Y91268D01*
X81452Y91309D01*
X81504Y91366D01*
X81548Y91439D01*
X81584Y91528D01*
X81612Y91633D01*
X81632Y91755D01*
X81644Y91893D01*
X81648Y92047D01*
X82447D01*
X82451Y91893D01*
D02*
G37*
G36*
X73750D02*
X73762Y91755D01*
X73782Y91633D01*
X73810Y91528D01*
X73846Y91439D01*
X73890Y91366D01*
X73942Y91309D01*
X74002Y91268D01*
X74070Y91244D01*
X74146Y91236D01*
X72547D01*
X72623Y91244D01*
X72691Y91268D01*
X72751Y91309D01*
X72803Y91366D01*
X72847Y91439D01*
X72883Y91528D01*
X72911Y91633D01*
X72931Y91755D01*
X72943Y91893D01*
X72947Y92047D01*
X73746D01*
X73750Y91893D01*
D02*
G37*
G36*
X65756Y91895D02*
X65774Y91639D01*
X65789Y91536D01*
X65808Y91448D01*
X65833Y91376D01*
X65861Y91320D01*
X65894Y91280D01*
X65931Y91256D01*
X65972Y91248D01*
X64555Y91236D01*
X64631Y91245D01*
X64699Y91269D01*
X64759Y91310D01*
X64811Y91367D01*
X64855Y91440D01*
X64891Y91530D01*
X64919Y91635D01*
X64939Y91756D01*
X64951Y91894D01*
X64955Y92047D01*
X65754D01*
X65756Y91895D01*
D02*
G37*
G36*
X57882D02*
X57900Y91639D01*
X57915Y91536D01*
X57934Y91448D01*
X57959Y91376D01*
X57987Y91320D01*
X58020Y91280D01*
X58057Y91256D01*
X58098Y91248D01*
X56681Y91236D01*
X56757Y91245D01*
X56825Y91269D01*
X56885Y91310D01*
X56937Y91367D01*
X56981Y91440D01*
X57017Y91530D01*
X57045Y91635D01*
X57065Y91756D01*
X57077Y91894D01*
X57081Y92047D01*
X57880D01*
X57882Y91895D01*
D02*
G37*
G36*
X52900Y95100D02*
X50830Y93030D01*
Y92260D01*
X50811D01*
Y87898D01*
X50830D01*
Y85210D01*
X46250Y80630D01*
X36592D01*
X35070Y82152D01*
X35070Y86050D01*
X32860Y88260D01*
X32583D01*
X32580Y88262D01*
X32190Y88339D01*
X25260D01*
X24870Y88262D01*
X24867Y88260D01*
X24460D01*
X23160Y86960D01*
Y82760D01*
X22760Y82360D01*
X16360D01*
X15860Y82860D01*
Y85160D01*
X14060Y86960D01*
X10990D01*
X9730Y85700D01*
Y75490D01*
X9960Y75260D01*
X24736D01*
X24736Y75264D01*
Y75260D01*
X26681D01*
Y75264D01*
X26682Y75260D01*
X30060D01*
X30960Y74360D01*
Y72470D01*
X32242Y71188D01*
X32255Y71168D01*
X32313Y71110D01*
X32313Y71110D01*
X32316Y71112D01*
X32313Y71109D01*
X32326Y71029D01*
X32350Y70965D01*
X32360Y70950D01*
X32363Y70933D01*
X32426Y70839D01*
X32434Y70820D01*
X32449Y70805D01*
X32464Y70782D01*
X32560Y70627D01*
X32574Y70617D01*
X32584Y70602D01*
X33742Y69444D01*
X33969Y69105D01*
X34005Y69016D01*
X34076Y68945D01*
X34132Y68862D01*
X35181Y67813D01*
X35109Y67449D01*
X34740Y67080D01*
X34680D01*
X31500Y70260D01*
X29481Y72035D01*
X9765D01*
X5600Y67870D01*
X5535D01*
Y67805D01*
X4550Y66820D01*
Y63220D01*
X4532Y63129D01*
Y55648D01*
X4609Y55258D01*
X4830Y54927D01*
X5161Y54707D01*
X5551Y54629D01*
X13425D01*
X13430Y54630D01*
X17090D01*
X17350Y54370D01*
Y51690D01*
X2090D01*
X2008Y51724D01*
Y71218D01*
X7190Y76400D01*
Y91070D01*
X7158Y91075D01*
X7190D01*
Y94903D01*
X7230Y94920D01*
X9730D01*
Y90090D01*
X9886D01*
Y90063D01*
X13318D01*
X13324Y90061D01*
X13343Y90063D01*
X13398D01*
X13437Y90055D01*
X13474Y90063D01*
X14445D01*
Y90090D01*
X39390D01*
X46540Y97240D01*
Y110197D01*
X52900D01*
X52900Y95100D01*
D02*
G37*
G36*
X78912Y88914D02*
X78844Y88889D01*
X78784Y88849D01*
X78732Y88792D01*
X78689Y88719D01*
X78653Y88630D01*
X78624Y88524D01*
X78605Y88402D01*
X78593Y88265D01*
X78589Y88110D01*
X77789D01*
X77785Y88265D01*
X77773Y88402D01*
X77753Y88524D01*
X77725Y88630D01*
X77689Y88719D01*
X77645Y88792D01*
X77594Y88849D01*
X77534Y88889D01*
X77466Y88914D01*
X77390Y88922D01*
X78988D01*
X78912Y88914D01*
D02*
G37*
G36*
X70133D02*
X70065Y88889D01*
X70005Y88849D01*
X69953Y88792D01*
X69909Y88719D01*
X69873Y88630D01*
X69845Y88524D01*
X69825Y88402D01*
X69813Y88265D01*
X69809Y88110D01*
X69010D01*
X69006Y88265D01*
X68994Y88402D01*
X68974Y88524D01*
X68946Y88630D01*
X68910Y88719D01*
X68866Y88792D01*
X68814Y88849D01*
X68754Y88889D01*
X68686Y88914D01*
X68610Y88922D01*
X70209D01*
X70133Y88914D01*
D02*
G37*
G36*
X61449D02*
X61381Y88889D01*
X61322Y88849D01*
X61269Y88792D01*
X61226Y88719D01*
X61190Y88630D01*
X61162Y88524D01*
X61142Y88402D01*
X61130Y88265D01*
X61126Y88110D01*
X60326D01*
X60322Y88265D01*
X60311Y88402D01*
X60290Y88524D01*
X60263Y88630D01*
X60227Y88719D01*
X60183Y88792D01*
X60131Y88849D01*
X60071Y88889D01*
X60003Y88914D01*
X59927Y88922D01*
X61525D01*
X61449Y88914D01*
D02*
G37*
G36*
X53440D02*
X53372Y88889D01*
X53312Y88849D01*
X53260Y88792D01*
X53216Y88719D01*
X53180Y88630D01*
X53152Y88524D01*
X53132Y88402D01*
X53120Y88265D01*
X53116Y88110D01*
X52317D01*
X52313Y88265D01*
X52301Y88402D01*
X52281Y88524D01*
X52253Y88630D01*
X52217Y88719D01*
X52173Y88792D01*
X52121Y88849D01*
X52061Y88889D01*
X51993Y88914D01*
X51917Y88922D01*
X53516D01*
X53440Y88914D01*
D02*
G37*
G36*
X33720Y85790D02*
Y82060D01*
X35880Y79900D01*
X35880Y75960D01*
X42890Y68950D01*
Y65180D01*
X38390D01*
X36127Y67443D01*
X36560Y67876D01*
X34853Y69583D01*
X34844Y69631D01*
X34534Y70094D01*
X33305Y71323D01*
X33281Y71386D01*
X33258Y71502D01*
X33212Y71571D01*
X33183Y71649D01*
X33103Y71735D01*
X33037Y71833D01*
X33029Y71919D01*
X33473Y72363D01*
X34802Y71034D01*
X34885Y70978D01*
X34956Y70907D01*
X35276Y70694D01*
X36426Y69543D01*
X36584Y69438D01*
X36740Y69330D01*
X36750Y69328D01*
X36757Y69322D01*
X36780Y69318D01*
X36838Y69293D01*
X36908Y69277D01*
X36943Y69267D01*
X36944Y69268D01*
X36943Y69267D01*
X36975Y69257D01*
X36989Y69251D01*
X37046Y69181D01*
X37269Y68975D01*
X37529Y68817D01*
X37815Y68713D01*
X37964Y68682D01*
X38190Y68664D01*
X38265Y68665D01*
X38412Y68690D01*
X38552Y68743D01*
X38679Y68823D01*
X38736Y68871D01*
X38736Y68871D01*
X39183Y69318D01*
X39216Y69354D01*
X39270Y69435D01*
X39307Y69525D01*
X39326Y69621D01*
X39328Y69670D01*
X39328Y69670D01*
X39328Y70644D01*
X39344Y70660D01*
X39327Y70677D01*
X39326Y70709D01*
X39307Y70804D01*
X39270Y70895D01*
X39215Y70976D01*
X39182Y71012D01*
X39182Y71012D01*
X38942Y71252D01*
X38939Y71252D01*
X38910Y71233D01*
X38935Y71259D01*
X38904Y71291D01*
X38900Y71316D01*
X38876Y71380D01*
X38866Y71395D01*
X38863Y71412D01*
X38801Y71506D01*
X38793Y71525D01*
X38778Y71540D01*
X38762Y71564D01*
X38666Y71718D01*
X38652Y71728D01*
X38642Y71743D01*
X37413Y72972D01*
X37413Y72972D01*
X33567Y76819D01*
X33526Y76879D01*
X33455Y76950D01*
X33399Y77034D01*
X32212Y78222D01*
X32194Y78233D01*
X32182Y78250D01*
X32182Y78250D01*
X32138Y78277D01*
X32103Y78316D01*
X32063Y78346D01*
X32010Y78399D01*
X31982Y78441D01*
X31971Y78470D01*
Y80898D01*
X31951Y80996D01*
Y81097D01*
X31940Y81156D01*
Y82610D01*
X31862Y83000D01*
X31827Y83053D01*
Y83638D01*
X31790D01*
Y83675D01*
X31186Y84278D01*
X30363D01*
X30248Y84301D01*
X28556D01*
X28442Y84278D01*
X28350Y84278D01*
X28350Y84278D01*
X28301Y84276D01*
X28301Y84276D01*
X28205Y84257D01*
X28205Y84257D01*
X28115Y84219D01*
X28115Y84219D01*
X28034Y84165D01*
X27997Y84132D01*
X27997Y84132D01*
X27835Y84002D01*
X27471Y83638D01*
X27465D01*
Y83632D01*
X27176Y83343D01*
X27120Y83259D01*
X27049Y83188D01*
X27046Y83180D01*
X26897Y83032D01*
X26864Y82996D01*
X26810Y82915D01*
X26773Y82824D01*
X26754Y82729D01*
X26751Y82680D01*
Y82662D01*
X26789Y82641D01*
X26878Y82626D01*
X26751D01*
Y80681D01*
X26878D01*
X26798Y80666D01*
X26751Y80637D01*
Y79784D01*
X26729Y79669D01*
Y76360D01*
X11174D01*
X10771Y76765D01*
X10830Y84810D01*
X11840Y85820D01*
X13620D01*
X14780Y84660D01*
Y81924D01*
X15500Y81240D01*
X23920D01*
X24270Y81590D01*
Y86330D01*
X25260Y87320D01*
X32190D01*
X33720Y85790D01*
D02*
G37*
G36*
X5839Y80824D02*
X5738Y80779D01*
X5649Y80704D01*
X5571Y80599D01*
X5505Y80464D01*
X5452Y80299D01*
X5410Y80104D01*
X5380Y79879D01*
X5378Y79854D01*
X5411Y79426D01*
X5441Y79261D01*
X5479Y79126D01*
X5523Y79021D01*
X5574Y78946D01*
X5632Y78901D01*
X5697Y78886D01*
X3358D01*
X3453Y78901D01*
X3538Y78946D01*
X3612Y79021D01*
X3677Y79126D01*
X3732Y79261D01*
X3777Y79426D01*
X3811Y79621D01*
X3836Y79842D01*
X3817Y80104D01*
X3786Y80299D01*
X3747Y80464D01*
X3698Y80599D01*
X3641Y80704D01*
X3576Y80779D01*
X3501Y80824D01*
X3418Y80839D01*
X5953D01*
X5839Y80824D01*
D02*
G37*
G36*
X61396Y78782D02*
X61320Y78781D01*
X61187Y78771D01*
X61132Y78762D01*
X61083Y78751D01*
X61042Y78738D01*
X61007Y78722D01*
X60979Y78704D01*
X60959Y78683D01*
X60945Y78660D01*
X60585Y79555D01*
X60931Y79581D01*
X61396Y78782D01*
D02*
G37*
G36*
X64187Y79365D02*
X64285Y79282D01*
X64377Y79214D01*
X64463Y79161D01*
X64544Y79124D01*
X64619Y79103D01*
X64688Y79097D01*
X64751Y79107D01*
X64808Y79132D01*
X64859Y79173D01*
X63809Y78123D01*
X63850Y78174D01*
X63875Y78231D01*
X63885Y78294D01*
X63879Y78363D01*
X63858Y78438D01*
X63821Y78518D01*
X63768Y78605D01*
X63700Y78697D01*
X63617Y78795D01*
X63518Y78899D01*
X64083Y79464D01*
X64187Y79365D01*
D02*
G37*
G36*
X60776Y78413D02*
X60761Y78387D01*
X60749Y78355D01*
X60738Y78316D01*
X60729Y78271D01*
X60722Y78219D01*
X60712Y78097D01*
X60708Y77950D01*
X59909D01*
X59908Y78027D01*
X59896Y78219D01*
X59889Y78271D01*
X59879Y78316D01*
X59869Y78355D01*
X59856Y78387D01*
X59842Y78413D01*
X59827Y78432D01*
X60791D01*
X60776Y78413D01*
D02*
G37*
G36*
X61712Y74340D02*
X61652Y74388D01*
X61586Y74418D01*
X61515Y74431D01*
X61438Y74428D01*
X61355Y74407D01*
X61267Y74370D01*
X61173Y74315D01*
X61073Y74243D01*
X60967Y74155D01*
X60856Y74049D01*
X60291Y74614D01*
X60852Y75183D01*
X61712Y74340D01*
D02*
G37*
G36*
X64151Y70985D02*
X64131Y71001D01*
X64106Y71015D01*
X64073Y71028D01*
X64035Y71038D01*
X63990Y71047D01*
X63938Y71055D01*
X63816Y71065D01*
X63668Y71068D01*
Y71867D01*
X63745Y71868D01*
X63938Y71881D01*
X63990Y71888D01*
X64035Y71897D01*
X64073Y71908D01*
X64106Y71920D01*
X64131Y71934D01*
X64151Y71950D01*
Y70985D01*
D02*
G37*
G36*
X30920Y82610D02*
Y81055D01*
X30951Y80898D01*
Y78320D01*
X30981Y78198D01*
X31076Y77965D01*
X31214Y77755D01*
X31214Y77755D01*
X31390Y77576D01*
X31490Y77501D01*
X31491Y77501D01*
X31491Y77501D01*
X32678Y76313D01*
X32775Y76169D01*
X36692Y72251D01*
X36692Y72251D01*
X37921Y71022D01*
X37945Y70959D01*
X37968Y70843D01*
X38014Y70774D01*
X38043Y70697D01*
X37865Y70323D01*
X37382Y70178D01*
X37334Y70210D01*
X37245Y70228D01*
X37161Y70264D01*
X37148Y70264D01*
X35926Y71486D01*
X35523Y71755D01*
X33380Y73898D01*
X30918Y76360D01*
X27748D01*
Y79669D01*
X27890D01*
Y80643D01*
X27897Y80681D01*
X27890Y80719D01*
Y82588D01*
X27896Y82622D01*
X28556Y83281D01*
X30248D01*
X30920Y82610D01*
D02*
G37*
G36*
X73756Y68931D02*
X73751Y68988D01*
X73733Y69038D01*
X73703Y69082D01*
X73662Y69120D01*
X73609Y69153D01*
X73544Y69179D01*
X73467Y69200D01*
X73379Y69215D01*
X73278Y69224D01*
X73166Y69227D01*
Y69817D01*
X73278Y69820D01*
X73379Y69829D01*
X73467Y69844D01*
X73544Y69864D01*
X73609Y69891D01*
X73662Y69924D01*
X73703Y69962D01*
X73733Y70006D01*
X73751Y70056D01*
X73756Y70113D01*
Y68931D01*
D02*
G37*
G36*
X10246Y67505D02*
X10258Y67370D01*
X10278Y67250D01*
X10306Y67146D01*
X10342Y67058D01*
X10386Y66986D01*
X10438Y66930D01*
X10498Y66890D01*
X10566Y66866D01*
X10642Y66858D01*
X9043D01*
X9119Y66866D01*
X9187Y66890D01*
X9247Y66930D01*
X9299Y66986D01*
X9343Y67058D01*
X9379Y67146D01*
X9407Y67250D01*
X9427Y67370D01*
X9439Y67505D01*
X9443Y67657D01*
X10242D01*
X10246Y67505D01*
D02*
G37*
G36*
X23266Y67401D02*
X23291Y67383D01*
X23322Y67367D01*
X23360Y67353D01*
X23404Y67341D01*
X23455Y67331D01*
X23512Y67323D01*
X23646Y67315D01*
X23723Y67314D01*
X23560Y66514D01*
X23483Y66514D01*
X23160Y66493D01*
X23131Y66486D01*
X23108Y66478D01*
X23092Y66470D01*
X23247Y67422D01*
X23266Y67401D01*
D02*
G37*
G36*
X12425Y66511D02*
X12449Y66443D01*
X12490Y66383D01*
X12547Y66331D01*
X12620Y66287D01*
X12709Y66251D01*
X12814Y66223D01*
X12936Y66203D01*
X13074Y66191D01*
X13228Y66187D01*
Y65388D01*
X13074Y65384D01*
X12936Y65372D01*
X12814Y65352D01*
X12709Y65324D01*
X12620Y65288D01*
X12547Y65244D01*
X12490Y65192D01*
X12449Y65132D01*
X12425Y65064D01*
X12417Y64988D01*
Y66587D01*
X12425Y66511D01*
D02*
G37*
G36*
X20550Y65158D02*
X20575Y65147D01*
X20607Y65137D01*
X20645Y65128D01*
X20690Y65120D01*
X20799Y65110D01*
X20934Y65104D01*
X21012Y65103D01*
X21080Y64304D01*
X21003Y64303D01*
X20810Y64289D01*
X20759Y64280D01*
X20714Y64270D01*
X20676Y64258D01*
X20643Y64243D01*
X20618Y64227D01*
X20598Y64209D01*
X20532Y65171D01*
X20550Y65158D01*
D02*
G37*
G36*
X102111Y61780D02*
X102315Y61774D01*
Y60274D01*
X102111Y60271D01*
Y59524D01*
X102095Y59666D01*
X102050Y59794D01*
X101974Y59906D01*
X101869Y60004D01*
X101733Y60086D01*
X101566Y60154D01*
X101370Y60206D01*
X101361Y60207D01*
X101355Y60207D01*
X101190Y60169D01*
X101055Y60123D01*
X100950Y60068D01*
X100875Y60005D01*
X100830Y59934D01*
X100815Y59855D01*
Y60268D01*
X100599Y60274D01*
Y61774D01*
X100815Y61779D01*
Y62193D01*
X100830Y62113D01*
X100875Y62042D01*
X100950Y61979D01*
X101055Y61924D01*
X101190Y61878D01*
X101355Y61841D01*
X101361Y61840D01*
X101370Y61841D01*
X101566Y61894D01*
X101733Y61961D01*
X101869Y62044D01*
X101974Y62141D01*
X102050Y62254D01*
X102095Y62381D01*
X102111Y62524D01*
Y61780D01*
D02*
G37*
G36*
X63861Y60098D02*
X63835Y60114D01*
X63801Y60118D01*
X63760Y60110D01*
X63711Y60090D01*
X63655Y60058D01*
X63591Y60014D01*
X63519Y59958D01*
X63353Y59809D01*
X63258Y59717D01*
X62693Y60282D01*
X62785Y60377D01*
X62931Y60546D01*
X62985Y60620D01*
X63026Y60687D01*
X63055Y60747D01*
X63071Y60799D01*
X63074Y60845D01*
X63065Y60884D01*
X63043Y60916D01*
X63861Y60098D01*
D02*
G37*
G36*
X59261Y60466D02*
X59287Y60452D01*
X59319Y60440D01*
X59358Y60429D01*
X59403Y60420D01*
X59454Y60413D01*
X59576Y60403D01*
X59724Y60399D01*
Y59600D01*
X59647Y59599D01*
X59454Y59587D01*
X59403Y59579D01*
X59358Y59570D01*
X59319Y59560D01*
X59287Y59547D01*
X59261Y59533D01*
X59241Y59517D01*
Y60482D01*
X59261Y60466D01*
D02*
G37*
G36*
X103260Y69180D02*
X97490Y63410D01*
Y59880D01*
X97040Y59430D01*
X94150Y59430D01*
X93510Y60070D01*
X93510Y70060D01*
X91390Y72180D01*
X79510D01*
X78940Y72750D01*
Y79330D01*
X85670Y86060D01*
Y110502D01*
X103260D01*
X103260Y69180D01*
D02*
G37*
G36*
X124961Y92262D02*
X122952Y88676D01*
X120879Y84178D01*
X119165Y79531D01*
X117820Y74764D01*
X116854Y69907D01*
X116272Y64988D01*
X116077Y60039D01*
X116094Y59620D01*
X115747Y59260D01*
X108010D01*
Y63550D01*
X105560Y66000D01*
Y110197D01*
X124961D01*
Y92262D01*
D02*
G37*
G36*
X16309Y58783D02*
X16321Y58645D01*
X16341Y58523D01*
X16369Y58418D01*
X16405Y58328D01*
X16449Y58255D01*
X16501Y58199D01*
X16561Y58158D01*
X16629Y58134D01*
X16705Y58126D01*
X15106D01*
X15182Y58134D01*
X15250Y58158D01*
X15310Y58199D01*
X15362Y58255D01*
X15406Y58328D01*
X15442Y58418D01*
X15470Y58523D01*
X15490Y58645D01*
X15502Y58783D01*
X15506Y58937D01*
X16305D01*
X16309Y58783D01*
D02*
G37*
G36*
X29898Y58261D02*
X29922Y58251D01*
X29953Y58242D01*
X29991Y58235D01*
X30035Y58228D01*
X30144Y58219D01*
X30357Y58213D01*
X30461Y57414D01*
X30385Y57413D01*
X30193Y57398D01*
X30142Y57389D01*
X30097Y57378D01*
X30058Y57365D01*
X30027Y57350D01*
X30001Y57333D01*
X29982Y57313D01*
X29880Y58273D01*
X29898Y58261D01*
D02*
G37*
G36*
X32340Y56052D02*
X32366Y56038D01*
X32398Y56026D01*
X32437Y56015D01*
X32482Y56006D01*
X32534Y55998D01*
X32656Y55989D01*
X32804Y55985D01*
Y55186D01*
X32726Y55185D01*
X32534Y55173D01*
X32482Y55165D01*
X32437Y55156D01*
X32398Y55146D01*
X32366Y55133D01*
X32340Y55119D01*
X32321Y55103D01*
Y56068D01*
X32340Y56052D01*
D02*
G37*
G36*
X56970Y51815D02*
X56919Y51809D01*
X56867Y51797D01*
X56816Y51781D01*
X56765Y51761D01*
X56714Y51736D01*
X56663Y51706D01*
X56612Y51671D01*
X56561Y51632D01*
X56510Y51588D01*
X56459Y51540D01*
X55998Y51914D01*
X56046Y51965D01*
X56089Y52017D01*
X56126Y52068D01*
X56158Y52119D01*
X56184Y52171D01*
X56204Y52223D01*
X56218Y52275D01*
X56227Y52327D01*
X56230Y52379D01*
X56227Y52431D01*
X56970Y51815D01*
D02*
G37*
G36*
X56365Y49450D02*
X56442Y49385D01*
X56515Y49333D01*
X56583Y49292D01*
X56647Y49265D01*
X56707Y49249D01*
X56762Y49246D01*
X56813Y49255D01*
X56859Y49277D01*
X56902Y49310D01*
X56083Y48492D01*
X56117Y48534D01*
X56139Y48581D01*
X56148Y48632D01*
X56145Y48687D01*
X56129Y48747D01*
X56101Y48811D01*
X56061Y48879D01*
X56008Y48952D01*
X55943Y49029D01*
X55866Y49110D01*
X56284Y49528D01*
X56365Y49450D01*
D02*
G37*
G36*
X74740Y48228D02*
X74734Y48284D01*
X74716Y48335D01*
X74686Y48379D01*
X74644Y48417D01*
X74590Y48450D01*
X74524Y48476D01*
X74445Y48497D01*
X74355Y48512D01*
X74252Y48521D01*
X74138Y48524D01*
Y49114D01*
X74252Y49117D01*
X74355Y49126D01*
X74445Y49141D01*
X74524Y49161D01*
X74590Y49188D01*
X74644Y49220D01*
X74686Y49259D01*
X74716Y49303D01*
X74734Y49353D01*
X74740Y49409D01*
Y48228D01*
D02*
G37*
G36*
X86490Y54170D02*
Y47130D01*
X82600D01*
X82600Y53850D01*
X83365Y54615D01*
X86044D01*
X86490Y54170D01*
D02*
G37*
G36*
X82060Y65860D02*
X82060Y59360D01*
X78650Y55950D01*
X78650Y47130D01*
X76644Y47121D01*
X76290Y47474D01*
Y50930D01*
X75660Y51560D01*
X73160D01*
X71260Y53460D01*
X71260Y65660D01*
X73160Y67560D01*
X80360Y67560D01*
X82060Y65860D01*
D02*
G37*
G36*
X61495Y47424D02*
X61474Y47378D01*
X61465Y47327D01*
X61468Y47272D01*
X61483Y47212D01*
X61511Y47148D01*
X61551Y47080D01*
X61604Y47007D01*
X61669Y46930D01*
X61746Y46849D01*
X61329Y46431D01*
X61247Y46508D01*
X61171Y46573D01*
X61098Y46626D01*
X61029Y46666D01*
X60966Y46694D01*
X60906Y46710D01*
X60851Y46713D01*
X60800Y46704D01*
X60753Y46682D01*
X60711Y46648D01*
X61529Y47467D01*
X61495Y47424D01*
D02*
G37*
G36*
X70986Y43997D02*
X70980Y44015D01*
X70962Y44031D01*
X70933Y44045D01*
X70891Y44057D01*
X70838Y44067D01*
X70773Y44076D01*
X70608Y44087D01*
X70395Y44091D01*
Y44682D01*
X70507Y44682D01*
X70838Y44705D01*
X70891Y44715D01*
X70933Y44728D01*
X70962Y44742D01*
X70980Y44758D01*
X70986Y44776D01*
Y43997D01*
D02*
G37*
G36*
X102460Y50060D02*
Y44460D01*
X101995Y43995D01*
X90794Y43985D01*
X90440Y44339D01*
X90440Y47940D01*
X93270Y50770D01*
X101750D01*
X102460Y50060D01*
D02*
G37*
G36*
X93430Y43186D02*
X93447Y43173D01*
X93477Y43161D01*
X93518Y43151D01*
X93572Y43142D01*
X93636Y43135D01*
X93902Y43123D01*
X94014Y43122D01*
Y42532D01*
X93902Y42531D01*
X93572Y42504D01*
X93518Y42492D01*
X93477Y42478D01*
X93447Y42461D01*
X93430Y42443D01*
X93424Y42422D01*
Y43201D01*
X93430Y43186D01*
D02*
G37*
G36*
X70986Y42422D02*
X70980Y42437D01*
X70962Y42450D01*
X70933Y42462D01*
X70891Y42472D01*
X70838Y42481D01*
X70773Y42488D01*
X70507Y42500D01*
X70395Y42500D01*
Y43091D01*
X70507Y43092D01*
X70838Y43119D01*
X70891Y43131D01*
X70933Y43145D01*
X70962Y43161D01*
X70980Y43180D01*
X70986Y43201D01*
Y42422D01*
D02*
G37*
G36*
X42729Y42150D02*
X42652Y42069D01*
X42587Y41992D01*
X42534Y41919D01*
X42494Y41851D01*
X42466Y41787D01*
X42450Y41728D01*
X42447Y41672D01*
X42456Y41621D01*
X42478Y41575D01*
X42512Y41532D01*
X41694Y42351D01*
X41736Y42317D01*
X41783Y42295D01*
X41833Y42286D01*
X41889Y42289D01*
X41948Y42305D01*
X42012Y42333D01*
X42081Y42373D01*
X42153Y42426D01*
X42230Y42491D01*
X42311Y42568D01*
X42729Y42150D01*
D02*
G37*
G36*
X57319Y43249D02*
X57298Y43202D01*
X57289Y43151D01*
X57292Y43096D01*
X57307Y43036D01*
X57335Y42972D01*
X57376Y42904D01*
X57428Y42831D01*
X57493Y42754D01*
X57571Y42673D01*
X57153Y42255D01*
X57072Y42333D01*
X56995Y42398D01*
X56922Y42450D01*
X56854Y42491D01*
X56790Y42518D01*
X56730Y42534D01*
X56675Y42537D01*
X56624Y42528D01*
X56577Y42507D01*
X56535Y42473D01*
X57353Y43291D01*
X57319Y43249D01*
D02*
G37*
G36*
X104906Y42237D02*
X104900Y42293D01*
X104882Y42343D01*
X104852Y42387D01*
X104809Y42426D01*
X104755Y42458D01*
X104689Y42485D01*
X104611Y42505D01*
X104520Y42520D01*
X104418Y42529D01*
X104303Y42532D01*
Y43122D01*
X104418Y43125D01*
X104520Y43134D01*
X104611Y43149D01*
X104689Y43170D01*
X104755Y43196D01*
X104809Y43229D01*
X104852Y43267D01*
X104882Y43311D01*
X104900Y43362D01*
X104906Y43418D01*
Y42237D01*
D02*
G37*
G36*
X13245Y42741D02*
X13274Y42586D01*
X13323Y42426D01*
X13392Y42263D01*
X13480Y42094D01*
X13587Y41922D01*
X13714Y41745D01*
X13861Y41564D01*
X14213Y41189D01*
X11457D01*
X11643Y41379D01*
X11956Y41745D01*
X12084Y41922D01*
X12191Y42094D01*
X12279Y42263D01*
X12348Y42426D01*
X12397Y42586D01*
X12426Y42741D01*
X12436Y42892D01*
X13235D01*
X13245Y42741D01*
D02*
G37*
G36*
X8245D02*
X8274Y42586D01*
X8323Y42426D01*
X8392Y42263D01*
X8480Y42094D01*
X8587Y41922D01*
X8714Y41745D01*
X8861Y41564D01*
X9213Y41189D01*
X6458D01*
X6643Y41379D01*
X6956Y41745D01*
X7084Y41922D01*
X7191Y42094D01*
X7279Y42263D01*
X7348Y42426D01*
X7397Y42586D01*
X7426Y42741D01*
X7436Y42892D01*
X8235D01*
X8245Y42741D01*
D02*
G37*
G36*
X36492Y41081D02*
X36463Y41099D01*
X36424Y41104D01*
X36377Y41094D01*
X36321Y41071D01*
X36256Y41034D01*
X36182Y40984D01*
X36100Y40919D01*
X35909Y40748D01*
X35801Y40642D01*
X35236Y41207D01*
X35342Y41316D01*
X35577Y41589D01*
X35628Y41663D01*
X35665Y41728D01*
X35688Y41783D01*
X35697Y41831D01*
X35693Y41869D01*
X35674Y41899D01*
X36492Y41081D01*
D02*
G37*
G36*
X55927Y41857D02*
X55906Y41810D01*
X55897Y41759D01*
X55900Y41704D01*
X55915Y41644D01*
X55943Y41580D01*
X55984Y41512D01*
X56036Y41439D01*
X56101Y41362D01*
X56179Y41281D01*
X55761Y40863D01*
X55680Y40941D01*
X55603Y41006D01*
X55530Y41058D01*
X55462Y41099D01*
X55398Y41126D01*
X55338Y41142D01*
X55283Y41145D01*
X55232Y41136D01*
X55185Y41115D01*
X55143Y41081D01*
X55961Y41899D01*
X55927Y41857D01*
D02*
G37*
G36*
X93430Y41608D02*
X93447Y41592D01*
X93477Y41578D01*
X93518Y41566D01*
X93572Y41556D01*
X93636Y41547D01*
X93802Y41536D01*
X94014Y41532D01*
Y40941D01*
X93902Y40940D01*
X93572Y40918D01*
X93518Y40907D01*
X93477Y40895D01*
X93447Y40881D01*
X93430Y40865D01*
X93424Y40847D01*
Y41626D01*
X93430Y41608D01*
D02*
G37*
G36*
X70986Y40847D02*
X70980Y40866D01*
X70964Y40884D01*
X70936Y40899D01*
X70897Y40912D01*
X70848Y40924D01*
X70787Y40933D01*
X70633Y40945D01*
X70434Y40949D01*
Y41500D01*
X70539Y41502D01*
X70787Y41521D01*
X70848Y41532D01*
X70897Y41546D01*
X70936Y41562D01*
X70964Y41581D01*
X70980Y41602D01*
X70986Y41626D01*
Y40847D01*
D02*
G37*
G36*
X97010Y37680D02*
X90490D01*
X90470Y37688D01*
Y40134D01*
X93415D01*
X93424Y40132D01*
X93432Y40134D01*
X94137D01*
Y40221D01*
X97010D01*
Y37680D01*
D02*
G37*
G36*
X61216Y40484D02*
X61169Y40434D01*
X61127Y40383D01*
X61090Y40331D01*
X61058Y40279D01*
X61031Y40226D01*
X61009Y40172D01*
X60992Y40117D01*
X60980Y40061D01*
X60973Y40004D01*
X60971Y39947D01*
X60289Y40629D01*
X60346Y40631D01*
X60403Y40638D01*
X60459Y40650D01*
X60514Y40666D01*
X60568Y40688D01*
X60621Y40716D01*
X60674Y40747D01*
X60725Y40784D01*
X60776Y40826D01*
X60826Y40874D01*
X61216Y40484D01*
D02*
G37*
G36*
X54509Y40455D02*
X54487Y40410D01*
X54478Y40361D01*
X54481Y40308D01*
X54495Y40250D01*
X54521Y40189D01*
X54559Y40124D01*
X54609Y40054D01*
X54671Y39981D01*
X54745Y39903D01*
X54355Y39513D01*
X54278Y39587D01*
X54204Y39649D01*
X54135Y39699D01*
X54069Y39737D01*
X54008Y39763D01*
X53951Y39778D01*
X53897Y39780D01*
X53848Y39771D01*
X53803Y39750D01*
X53762Y39717D01*
X54542Y40496D01*
X54509Y40455D01*
D02*
G37*
G36*
X63932Y39167D02*
X63883Y39116D01*
X63797Y39016D01*
X63761Y38966D01*
X63700Y38868D01*
X63675Y38819D01*
X63655Y38771D01*
X63639Y38723D01*
X63626Y38675D01*
X63110Y39490D01*
X63160Y39481D01*
X63210Y39479D01*
X63261Y39483D01*
X63312Y39494D01*
X63362Y39510D01*
X63414Y39533D01*
X63465Y39563D01*
X63516Y39599D01*
X63567Y39641D01*
X63619Y39690D01*
X63932Y39167D01*
D02*
G37*
G36*
X70986Y39272D02*
X70980Y39292D01*
X70962Y39310D01*
X70933Y39326D01*
X70891Y39340D01*
X70838Y39352D01*
X70773Y39361D01*
X70608Y39374D01*
X70395Y39378D01*
Y39969D01*
X70507Y39970D01*
X70838Y39990D01*
X70891Y39999D01*
X70933Y40009D01*
X70962Y40022D01*
X70980Y40036D01*
X70986Y40051D01*
Y39272D01*
D02*
G37*
G36*
X39276Y38297D02*
X39246Y38315D01*
X39208Y38320D01*
X39161Y38311D01*
X39105Y38287D01*
X39040Y38250D01*
X38966Y38200D01*
X38884Y38135D01*
X38693Y37964D01*
X38585Y37858D01*
X38019Y38423D01*
X38126Y38532D01*
X38361Y38805D01*
X38412Y38879D01*
X38449Y38944D01*
X38472Y39000D01*
X38481Y39047D01*
X38476Y39085D01*
X38458Y39115D01*
X39276Y38297D01*
D02*
G37*
G36*
X104865Y38535D02*
X104874Y38432D01*
X104889Y38342D01*
X104909Y38264D01*
X104936Y38197D01*
X104969Y38143D01*
X105007Y38101D01*
X105051Y38071D01*
X105101Y38053D01*
X105157Y38047D01*
X103976D01*
X104033Y38053D01*
X104083Y38071D01*
X104127Y38101D01*
X104165Y38143D01*
X104198Y38197D01*
X104224Y38264D01*
X104245Y38342D01*
X104260Y38432D01*
X104269Y38535D01*
X104272Y38649D01*
X104862D01*
X104865Y38535D01*
D02*
G37*
G36*
X70986Y37697D02*
X70980Y37715D01*
X70962Y37730D01*
X70933Y37743D01*
X70891Y37755D01*
X70838Y37765D01*
X70773Y37773D01*
X70608Y37784D01*
X70395Y37788D01*
Y38378D01*
X70507Y38379D01*
X70838Y38403D01*
X70891Y38414D01*
X70933Y38427D01*
X70962Y38441D01*
X70980Y38458D01*
X70986Y38477D01*
Y37697D01*
D02*
G37*
G36*
X40668Y36905D02*
X40638Y36923D01*
X40600Y36928D01*
X40553Y36919D01*
X40497Y36895D01*
X40432Y36858D01*
X40358Y36808D01*
X40276Y36743D01*
X40085Y36572D01*
X39976Y36466D01*
X39411Y37031D01*
X39517Y37140D01*
X39753Y37413D01*
X39803Y37487D01*
X39840Y37552D01*
X39863Y37608D01*
X39873Y37655D01*
X39868Y37693D01*
X39850Y37723D01*
X40668Y36905D01*
D02*
G37*
G36*
X93430Y36887D02*
X93447Y36873D01*
X93477Y36862D01*
X93518Y36852D01*
X93572Y36843D01*
X93636Y36836D01*
X93902Y36824D01*
X94014Y36823D01*
Y36233D01*
X93902Y36232D01*
X93572Y36205D01*
X93518Y36193D01*
X93477Y36179D01*
X93447Y36162D01*
X93430Y36143D01*
X93424Y36123D01*
Y36902D01*
X93430Y36887D01*
D02*
G37*
G36*
X70986Y36123D02*
X70980Y36144D01*
X70964Y36164D01*
X70936Y36181D01*
X70897Y36196D01*
X70848Y36208D01*
X70787Y36218D01*
X70715Y36226D01*
X70539Y36235D01*
X70434Y36237D01*
Y36788D01*
X70539Y36789D01*
X70787Y36806D01*
X70848Y36816D01*
X70897Y36829D01*
X70936Y36844D01*
X70964Y36861D01*
X70980Y36880D01*
X70986Y36902D01*
Y36123D01*
D02*
G37*
G36*
X98016Y35937D02*
X98010Y35993D01*
X97992Y36044D01*
X97962Y36088D01*
X97920Y36126D01*
X97865Y36159D01*
X97799Y36185D01*
X97721Y36206D01*
X97631Y36221D01*
X97528Y36230D01*
X97414Y36233D01*
Y36823D01*
X97528Y36826D01*
X97631Y36835D01*
X97721Y36850D01*
X97799Y36871D01*
X97865Y36897D01*
X97920Y36930D01*
X97962Y36968D01*
X97992Y37012D01*
X98010Y37062D01*
X98016Y37119D01*
Y35937D01*
D02*
G37*
G36*
X40049Y35751D02*
X40061Y35613D01*
X40081Y35492D01*
X40109Y35386D01*
X40145Y35297D01*
X40189Y35224D01*
X40241Y35167D01*
X40301Y35127D01*
X40369Y35102D01*
X40445Y35094D01*
X38846D01*
X38922Y35102D01*
X38990Y35127D01*
X39050Y35167D01*
X39102Y35224D01*
X39146Y35297D01*
X39182Y35386D01*
X39210Y35492D01*
X39230Y35613D01*
X39242Y35751D01*
X39246Y35905D01*
X40045D01*
X40049Y35751D01*
D02*
G37*
G36*
X36506D02*
X36518Y35613D01*
X36538Y35492D01*
X36566Y35386D01*
X36602Y35297D01*
X36646Y35224D01*
X36698Y35167D01*
X36758Y35127D01*
X36826Y35102D01*
X36902Y35094D01*
X35303D01*
X35379Y35102D01*
X35447Y35127D01*
X35507Y35167D01*
X35559Y35224D01*
X35603Y35297D01*
X35639Y35386D01*
X35667Y35492D01*
X35687Y35613D01*
X35699Y35751D01*
X35703Y35905D01*
X36502D01*
X36506Y35751D01*
D02*
G37*
G36*
X93430Y35309D02*
X93447Y35293D01*
X93477Y35279D01*
X93518Y35267D01*
X93572Y35256D01*
X93636Y35248D01*
X93802Y35236D01*
X94014Y35233D01*
Y34642D01*
X93902Y34641D01*
X93572Y34618D01*
X93518Y34608D01*
X93477Y34596D01*
X93447Y34582D01*
X93430Y34566D01*
X93424Y34548D01*
Y35327D01*
X93430Y35309D01*
D02*
G37*
G36*
X70986Y34548D02*
X70980Y34566D01*
X70962Y34582D01*
X70933Y34596D01*
X70891Y34608D01*
X70838Y34618D01*
X70773Y34627D01*
X70608Y34638D01*
X70395Y34642D01*
Y35233D01*
X70507Y35234D01*
X70838Y35256D01*
X70891Y35267D01*
X70933Y35279D01*
X70962Y35293D01*
X70980Y35309D01*
X70986Y35327D01*
Y34548D01*
D02*
G37*
G36*
X95239Y35021D02*
X95290Y34979D01*
X95342Y34943D01*
X95393Y34913D01*
X95444Y34890D01*
X95495Y34873D01*
X95545Y34863D01*
X95596Y34858D01*
X95646Y34861D01*
X95696Y34869D01*
X95180Y34054D01*
X95168Y34102D01*
X95151Y34150D01*
X95131Y34199D01*
X95107Y34247D01*
X95078Y34297D01*
X95046Y34346D01*
X94968Y34446D01*
X94924Y34496D01*
X94875Y34547D01*
X95187Y35069D01*
X95239Y35021D01*
D02*
G37*
G36*
X40809Y34471D02*
X40827Y34421D01*
X40857Y34377D01*
X40899Y34339D01*
X40953Y34306D01*
X41020Y34280D01*
X41098Y34259D01*
X41188Y34244D01*
X41291Y34235D01*
X41405Y34232D01*
Y33642D01*
X41291Y33639D01*
X41188Y33630D01*
X41098Y33615D01*
X41020Y33595D01*
X40953Y33568D01*
X40899Y33535D01*
X40857Y33497D01*
X40827Y33453D01*
X40809Y33403D01*
X40803Y33346D01*
Y34528D01*
X40809Y34471D01*
D02*
G37*
G36*
X67381Y33764D02*
X67333Y33713D01*
X67289Y33662D01*
X67251Y33611D01*
X67217Y33559D01*
X67189Y33508D01*
X67165Y33456D01*
X67147Y33404D01*
X67134Y33352D01*
X67125Y33300D01*
X67122Y33248D01*
X66458Y33948D01*
X66511Y33949D01*
X66563Y33955D01*
X66615Y33966D01*
X66667Y33983D01*
X66719Y34005D01*
X66770Y34032D01*
X66822Y34065D01*
X66873Y34102D01*
X66925Y34146D01*
X66976Y34194D01*
X67381Y33764D01*
D02*
G37*
G36*
X70986Y32973D02*
X70980Y32991D01*
X70962Y33007D01*
X70933Y33021D01*
X70891Y33033D01*
X70838Y33044D01*
X70773Y33052D01*
X70608Y33064D01*
X70395Y33067D01*
Y33658D01*
X70507Y33659D01*
X70838Y33681D01*
X70891Y33692D01*
X70933Y33704D01*
X70962Y33718D01*
X70980Y33734D01*
X70986Y33752D01*
Y32973D01*
D02*
G37*
G36*
Y31398D02*
X70980Y31413D01*
X70962Y31427D01*
X70933Y31438D01*
X70891Y31449D01*
X70838Y31457D01*
X70773Y31464D01*
X70507Y31476D01*
X70395Y31477D01*
Y32067D01*
X70507Y32068D01*
X70838Y32095D01*
X70891Y32107D01*
X70933Y32121D01*
X70962Y32138D01*
X70980Y32157D01*
X70986Y32177D01*
Y31398D01*
D02*
G37*
G36*
X38489Y29000D02*
X38478Y29095D01*
X38448Y29180D01*
X38397Y29255D01*
X38327Y29320D01*
X38236Y29375D01*
X38124Y29420D01*
X37993Y29455D01*
X37874Y29474D01*
X37755Y29455D01*
X37624Y29420D01*
X37512Y29375D01*
X37421Y29320D01*
X37351Y29255D01*
X37300Y29180D01*
X37270Y29095D01*
X37260Y29000D01*
Y31000D01*
X37270Y30905D01*
X37300Y30820D01*
X37351Y30745D01*
X37421Y30680D01*
X37512Y30625D01*
X37624Y30580D01*
X37755Y30545D01*
X37874Y30525D01*
X37993Y30545D01*
X38124Y30580D01*
X38236Y30625D01*
X38327Y30680D01*
X38397Y30745D01*
X38448Y30820D01*
X38478Y30905D01*
X38489Y31000D01*
Y29000D01*
D02*
G37*
G36*
X42555Y29503D02*
X42536Y29520D01*
X42510Y29534D01*
X42478Y29547D01*
X42439Y29558D01*
X42394Y29568D01*
X42343Y29575D01*
X42220Y29586D01*
X42073Y29589D01*
X42089Y30388D01*
X42166Y30389D01*
X42410Y30408D01*
X42455Y30417D01*
X42494Y30427D01*
X42526Y30439D01*
X42552Y30453D01*
X42571Y30468D01*
X42555Y29503D01*
D02*
G37*
G36*
X40811Y30712D02*
X40835Y30644D01*
X40876Y30584D01*
X40933Y30532D01*
X41006Y30488D01*
X41095Y30452D01*
X41200Y30424D01*
X41322Y30404D01*
X41460Y30392D01*
X41614Y30388D01*
Y29589D01*
X41460Y29585D01*
X41322Y29573D01*
X41200Y29553D01*
X41095Y29525D01*
X41006Y29489D01*
X40933Y29445D01*
X40876Y29393D01*
X40835Y29333D01*
X40811Y29265D01*
X40803Y29190D01*
Y30788D01*
X40811Y30712D01*
D02*
G37*
G36*
X89070Y45770D02*
Y33780D01*
X89081D01*
Y34162D01*
X89089Y34086D01*
X89113Y34018D01*
X89154Y33958D01*
X89210Y33906D01*
X89284Y33862D01*
X89373Y33826D01*
X89478Y33798D01*
X89590Y33780D01*
X93880D01*
X95170Y32490D01*
X96740D01*
X97960Y33710D01*
X106090Y33710D01*
X107030Y32770D01*
X107030Y29920D01*
X106140Y29030D01*
X96940D01*
X94600Y31370D01*
X89710D01*
X89110Y31970D01*
X79270D01*
X79260Y31980D01*
X78650Y31370D01*
Y19810D01*
Y16890D01*
X77740Y15980D01*
X75820D01*
X74290Y17510D01*
Y24440D01*
X76260Y26410D01*
Y31440D01*
X75730Y31970D01*
X75310D01*
Y45790D01*
X89061D01*
X89070Y45770D01*
D02*
G37*
G36*
X58645Y27259D02*
X58670Y27191D01*
X58710Y27131D01*
X58767Y27079D01*
X58840Y27035D01*
X58929Y26999D01*
X59035Y26971D01*
X59157Y26951D01*
X59294Y26939D01*
X59449Y26935D01*
Y26136D01*
X59294Y26132D01*
X59157Y26120D01*
X59035Y26100D01*
X58929Y26072D01*
X58840Y26036D01*
X58767Y25992D01*
X58710Y25940D01*
X58670Y25880D01*
X58645Y25812D01*
X58637Y25736D01*
Y27335D01*
X58645Y27259D01*
D02*
G37*
G36*
X54355Y25671D02*
X54347Y25747D01*
X54322Y25815D01*
X54282Y25875D01*
X54225Y25927D01*
X54152Y25971D01*
X54063Y26007D01*
X53957Y26035D01*
X53835Y26055D01*
X53698Y26067D01*
X53544Y26071D01*
Y26870D01*
X53698Y26874D01*
X53835Y26886D01*
X53957Y26906D01*
X54063Y26934D01*
X54152Y26970D01*
X54225Y27014D01*
X54282Y27066D01*
X54322Y27126D01*
X54347Y27194D01*
X54355Y27270D01*
Y25671D01*
D02*
G37*
G36*
X13243Y25725D02*
X13175Y25700D01*
X13115Y25660D01*
X13063Y25603D01*
X13019Y25530D01*
X12983Y25441D01*
X12955Y25335D01*
X12935Y25214D01*
X12925Y25098D01*
X12935Y24983D01*
X12955Y24862D01*
X12983Y24756D01*
X13019Y24667D01*
X13063Y24594D01*
X13115Y24537D01*
X13175Y24497D01*
X13243Y24472D01*
X13319Y24464D01*
X11721D01*
X11796Y24472D01*
X11864Y24497D01*
X11924Y24537D01*
X11976Y24594D01*
X12020Y24667D01*
X12056Y24756D01*
X12084Y24862D01*
X12104Y24983D01*
X12114Y25098D01*
X12104Y25214D01*
X12084Y25335D01*
X12056Y25441D01*
X12020Y25530D01*
X11976Y25603D01*
X11924Y25660D01*
X11864Y25700D01*
X11796Y25725D01*
X11721Y25733D01*
X13319D01*
X13243Y25725D01*
D02*
G37*
G36*
X58645Y23519D02*
X58670Y23451D01*
X58710Y23391D01*
X58767Y23339D01*
X58840Y23295D01*
X58929Y23259D01*
X59035Y23231D01*
X59157Y23211D01*
X59294Y23199D01*
X59449Y23195D01*
Y22396D01*
X59294Y22392D01*
X59157Y22380D01*
X59035Y22360D01*
X58929Y22332D01*
X58840Y22296D01*
X58767Y22252D01*
X58710Y22200D01*
X58670Y22140D01*
X58645Y22072D01*
X58637Y21996D01*
Y23595D01*
X58645Y23519D01*
D02*
G37*
G36*
X20035Y23282D02*
X20059Y23214D01*
X20099Y23155D01*
X20155Y23102D01*
X20227Y23059D01*
X20315Y23023D01*
X20419Y22995D01*
X20539Y22975D01*
X20675Y22963D01*
X20827Y22959D01*
Y22159D01*
X20675Y22155D01*
X20539Y22143D01*
X20419Y22124D01*
X20315Y22095D01*
X20227Y22060D01*
X20155Y22016D01*
X20099Y21964D01*
X20059Y21904D01*
X20035Y21836D01*
X20027Y21760D01*
Y23358D01*
X20035Y23282D01*
D02*
G37*
G36*
X65693Y20870D02*
X65705Y20732D01*
X65725Y20611D01*
X65753Y20506D01*
X65789Y20417D01*
X65833Y20344D01*
X65885Y20287D01*
X65945Y20246D01*
X66013Y20221D01*
X66089Y20212D01*
X64579Y20224D01*
X64638Y20232D01*
X64691Y20256D01*
X64737Y20296D01*
X64778Y20352D01*
X64812Y20424D01*
X64840Y20512D01*
X64862Y20616D01*
X64877Y20736D01*
X64887Y20872D01*
X64890Y21023D01*
X65689D01*
X65693Y20870D01*
D02*
G37*
G36*
X58645Y19754D02*
X58670Y19686D01*
X58710Y19626D01*
X58767Y19574D01*
X58840Y19530D01*
X58929Y19494D01*
X59035Y19466D01*
X59157Y19446D01*
X59294Y19434D01*
X59411Y19431D01*
X59653Y19449D01*
X59698Y19457D01*
X59736Y19467D01*
X59768Y19478D01*
X59794Y19491D01*
X59813Y19505D01*
X59779Y18542D01*
X59759Y18559D01*
X59733Y18574D01*
X59701Y18587D01*
X59662Y18599D01*
X59617Y18609D01*
X59566Y18617D01*
X59444Y18627D01*
X59375Y18629D01*
X59294Y18627D01*
X59157Y18615D01*
X59035Y18595D01*
X58929Y18567D01*
X58840Y18531D01*
X58767Y18487D01*
X58710Y18435D01*
X58670Y18375D01*
X58645Y18307D01*
X58637Y18231D01*
Y19830D01*
X58645Y19754D01*
D02*
G37*
G36*
X20035Y18715D02*
X20059Y18647D01*
X20099Y18587D01*
X20155Y18536D01*
X20227Y18492D01*
X20315Y18456D01*
X20419Y18428D01*
X20539Y18408D01*
X20675Y18396D01*
X20827Y18392D01*
Y17593D01*
X20675Y17589D01*
X20539Y17576D01*
X20419Y17557D01*
X20315Y17529D01*
X20227Y17493D01*
X20155Y17449D01*
X20099Y17397D01*
X20059Y17337D01*
X20035Y17269D01*
X20027Y17193D01*
Y18791D01*
X20035Y18715D01*
D02*
G37*
G36*
X91220Y71230D02*
X92580Y69870D01*
Y59790D01*
X94060Y58310D01*
X116445D01*
X116570Y55114D01*
X117150Y50219D01*
X118111Y45384D01*
X119449Y40640D01*
X121155Y36015D01*
X123219Y31539D01*
X125628Y27238D01*
X128366Y23140D01*
X131418Y19269D01*
X134397Y16046D01*
X134121Y15607D01*
X133283Y15862D01*
X131890Y15999D01*
X130497Y15862D01*
X129157Y15455D01*
X127923Y14796D01*
X126840Y13907D01*
X125952Y12825D01*
X125293Y11591D01*
X124886Y10251D01*
X124749Y8858D01*
X124886Y7465D01*
X125293Y6126D01*
X125952Y4891D01*
X126840Y3809D01*
X127923Y2921D01*
X129157Y2261D01*
X129350Y2203D01*
X129276Y1703D01*
X110580D01*
X110580Y20380D01*
X114190Y23990D01*
Y47540D01*
X106400Y55330D01*
X83030D01*
X81710Y54010D01*
X81710Y47120D01*
X79804Y47111D01*
X79450Y47464D01*
Y55355D01*
X83030Y58924D01*
Y66290D01*
X81060Y68260D01*
X80433D01*
X80360Y68274D01*
X77813Y68274D01*
X77460Y68628D01*
X77460Y70300D01*
X78390Y71230D01*
X82530D01*
X91220Y71230D01*
D02*
G37*
G36*
X13243Y16236D02*
X13175Y16212D01*
X13115Y16172D01*
X13063Y16115D01*
X13019Y16042D01*
X12983Y15952D01*
X12955Y15847D01*
X12935Y15725D01*
X12923Y15590D01*
X12935Y15456D01*
X12955Y15334D01*
X12983Y15229D01*
X13019Y15139D01*
X13063Y15066D01*
X13115Y15010D01*
X13175Y14969D01*
X13243Y14945D01*
X13319Y14937D01*
X11721D01*
X11796Y14945D01*
X11864Y14969D01*
X11924Y15010D01*
X11976Y15066D01*
X12020Y15139D01*
X12056Y15229D01*
X12084Y15334D01*
X12104Y15456D01*
X12116Y15590D01*
X12104Y15725D01*
X12084Y15847D01*
X12056Y15952D01*
X12020Y16042D01*
X11976Y16115D01*
X11924Y16172D01*
X11864Y16212D01*
X11796Y16236D01*
X11721Y16244D01*
X13319D01*
X13243Y16236D01*
D02*
G37*
G36*
X73420Y25770D02*
Y24938D01*
X73348Y24830D01*
X73270Y24440D01*
Y17510D01*
X73348Y17120D01*
X73420Y17012D01*
Y16930D01*
X75387Y14963D01*
X75564Y14840D01*
X75756Y14730D01*
X80530D01*
Y12190D01*
X80380Y12040D01*
X71540D01*
X70170Y13410D01*
Y21120D01*
X66520Y24770D01*
X64420D01*
X63910Y25280D01*
Y27580D01*
X64250Y27920D01*
X71270D01*
X73420Y25770D01*
D02*
G37*
G36*
X51864Y11981D02*
X51887Y11843D01*
X51926Y11703D01*
X51980Y11562D01*
X52049Y11420D01*
X52134Y11276D01*
X52234Y11130D01*
X52350Y10983D01*
X52481Y10834D01*
X52628Y10683D01*
X50285D01*
X50432Y10834D01*
X50679Y11130D01*
X50779Y11276D01*
X50864Y11420D01*
X50934Y11562D01*
X50988Y11703D01*
X51026Y11843D01*
X51049Y11981D01*
X51057Y12117D01*
X51856D01*
X51864Y11981D01*
D02*
G37*
G36*
X46943D02*
X46966Y11843D01*
X47005Y11703D01*
X47058Y11562D01*
X47128Y11420D01*
X47213Y11276D01*
X47313Y11130D01*
X47429Y10983D01*
X47560Y10834D01*
X47707Y10683D01*
X45364D01*
X45511Y10834D01*
X45758Y11130D01*
X45858Y11276D01*
X45943Y11420D01*
X46012Y11562D01*
X46066Y11703D01*
X46105Y11843D01*
X46128Y11981D01*
X46136Y12117D01*
X46935D01*
X46943Y11981D01*
D02*
G37*
G36*
X42022D02*
X42045Y11843D01*
X42083Y11703D01*
X42137Y11562D01*
X42207Y11420D01*
X42292Y11276D01*
X42392Y11130D01*
X42508Y10983D01*
X42639Y10834D01*
X42785Y10683D01*
X40443D01*
X40589Y10834D01*
X40837Y11130D01*
X40937Y11276D01*
X41022Y11420D01*
X41091Y11562D01*
X41145Y11703D01*
X41184Y11843D01*
X41207Y11981D01*
X41215Y12117D01*
X42014D01*
X42022Y11981D01*
D02*
G37*
G36*
X24760Y60130D02*
Y54680D01*
X18140Y48060D01*
X8720D01*
X4930Y44270D01*
Y40409D01*
X4867Y40174D01*
Y39393D01*
X4930Y39158D01*
Y37752D01*
X4867D01*
Y31815D01*
X4930D01*
Y30300D01*
X6010Y29220D01*
X9138D01*
X9750Y28077D01*
Y25721D01*
X9752D01*
X9750Y25720D01*
X9750Y14949D01*
X9752Y14949D01*
X9750D01*
Y12210D01*
Y10412D01*
X9296Y10203D01*
X8134Y11195D01*
X6282Y12330D01*
X4276Y13161D01*
X2165Y13668D01*
X2008Y13680D01*
Y50660D01*
X17750D01*
X18035Y50945D01*
X18071Y50969D01*
X18095Y51005D01*
X18960Y51870D01*
X18960Y61630D01*
X19980Y62650D01*
X22240D01*
X24760Y60130D01*
D02*
G37*
G36*
X67885Y10905D02*
X67930Y10777D01*
X68006Y10665D01*
X68112Y10567D01*
X68248Y10485D01*
X68414Y10417D01*
X68611Y10365D01*
X68837Y10327D01*
X69094Y10305D01*
X69382Y10297D01*
Y8797D01*
X69094Y8790D01*
X68837Y8767D01*
X68611Y8730D01*
X68414Y8677D01*
X68248Y8610D01*
X68112Y8527D01*
X68006Y8430D01*
X67930Y8317D01*
X67885Y8190D01*
X67870Y8047D01*
Y11047D01*
X67885Y10905D01*
D02*
G37*
G36*
X80240Y8437D02*
X80500D01*
X80450Y8422D01*
X80406Y8377D01*
X80366Y8302D01*
X80332Y8197D01*
X80304Y8062D01*
X80280Y7897D01*
X80278Y7866D01*
X80299Y7615D01*
X80333Y7450D01*
X80375Y7315D01*
X80424Y7210D01*
X80481Y7135D01*
X80546Y7090D01*
X80618Y7075D01*
X80241D01*
X80238Y6937D01*
X78738D01*
X78737Y7075D01*
X78280D01*
X78367Y7090D01*
X78445Y7135D01*
X78513Y7210D01*
X78573Y7315D01*
X78624Y7450D01*
X78665Y7615D01*
X78697Y7810D01*
X78698Y7815D01*
X78672Y8197D01*
X78649Y8302D01*
X78621Y8377D01*
X78590Y8422D01*
X78555Y8437D01*
X78733D01*
X78738Y8575D01*
X80238D01*
X80240Y8437D01*
D02*
G37*
G36*
X74461D02*
X74816D01*
X74821Y8575D01*
X76321D01*
X76323Y8437D01*
X76799D01*
X76708Y8422D01*
X76627Y8377D01*
X76555Y8302D01*
X76493Y8197D01*
X76440Y8062D01*
X76397Y7897D01*
X76369Y7732D01*
X76379Y7615D01*
X76411Y7450D01*
X76451Y7315D01*
X76497Y7210D01*
X76551Y7135D01*
X76613Y7090D01*
X76681Y7075D01*
X76326D01*
X76321Y6937D01*
X74821D01*
X74819Y7075D01*
X74343D01*
X74434Y7090D01*
X74515Y7135D01*
X74587Y7210D01*
X74649Y7315D01*
X74701Y7450D01*
X74744Y7615D01*
X74773Y7779D01*
X74763Y7897D01*
X74731Y8062D01*
X74691Y8197D01*
X74644Y8302D01*
X74590Y8377D01*
X74529Y8422D01*
X74461Y8437D01*
X74446Y8506D01*
X74401Y8567D01*
X74326Y8621D01*
X74221Y8668D01*
X74086Y8707D01*
X73921Y8740D01*
X73726Y8765D01*
X73246Y8794D01*
X72961Y8797D01*
Y10297D01*
X73246Y10302D01*
X73726Y10340D01*
X73921Y10374D01*
X74086Y10417D01*
X74221Y10469D01*
X74326Y10531D01*
X74401Y10603D01*
X74446Y10685D01*
X74461Y10775D01*
Y8437D01*
D02*
G37*
G36*
X63060Y15960D02*
X63760Y15260D01*
Y12161D01*
X63547D01*
Y6815D01*
X64205D01*
X64360Y6660D01*
X71060D01*
X73331Y4389D01*
Y4118D01*
X77693D01*
Y4160D01*
X77760D01*
X78260Y4660D01*
X78260Y6760D01*
X80560D01*
Y2008D01*
X59525D01*
X59172Y2362D01*
X59260Y15960D01*
X63060Y15960D01*
D02*
G37*
G36*
X18519Y11058D02*
X18292Y10310D01*
X18149Y8858D01*
X18292Y7406D01*
X18716Y6011D01*
X19403Y4724D01*
X20329Y3596D01*
X21456Y2671D01*
X21790Y2493D01*
X21668Y2008D01*
X13680D01*
X13668Y2165D01*
X13161Y4276D01*
X12330Y6282D01*
X11195Y8134D01*
X11160Y8175D01*
Y10360D01*
X12260Y11460D01*
X18221D01*
X18519Y11058D01*
D02*
G37*
G36*
X113140Y47140D02*
Y24410D01*
X108550Y19820D01*
Y1703D01*
X100790D01*
Y25830D01*
X102290Y27330D01*
X107370D01*
X108060Y28020D01*
Y44890D01*
X107340Y45610D01*
X104540D01*
X103470Y46680D01*
Y49980D01*
X103121Y50329D01*
X103120Y50333D01*
X102965Y50565D01*
X102255Y51275D01*
X102023Y51430D01*
X102019Y51431D01*
X102000Y51450D01*
X101923D01*
X101750Y51484D01*
X93270D01*
X93096Y51450D01*
X92560D01*
X89900Y48790D01*
Y48393D01*
X89780Y48213D01*
X89725Y47940D01*
Y47120D01*
X87384D01*
X87355Y54045D01*
X87730Y54420D01*
X105860D01*
X113140Y47140D01*
D02*
G37*
G36*
X99160Y24640D02*
Y1703D01*
X87370D01*
Y30600D01*
X93200D01*
X99160Y24640D01*
D02*
G37*
G36*
X86601Y2057D02*
X86247Y1703D01*
X81660D01*
Y16057D01*
X80060Y17657D01*
Y25260D01*
X80760Y25960D01*
X82160D01*
X82598Y26398D01*
Y30669D01*
X86519D01*
X86601Y2057D01*
D02*
G37*
D17*
X82205Y38874D02*
D03*
D18*
X91945Y45961D02*
D03*
Y44386D02*
D03*
Y42811D02*
D03*
Y41237D02*
D03*
Y39662D02*
D03*
Y38087D02*
D03*
Y36512D02*
D03*
Y34937D02*
D03*
Y33363D02*
D03*
Y31788D02*
D03*
X72464D02*
D03*
Y33363D02*
D03*
Y34937D02*
D03*
Y36512D02*
D03*
Y38087D02*
D03*
Y39662D02*
D03*
Y41237D02*
D03*
Y42811D02*
D03*
Y44386D02*
D03*
Y45961D02*
D03*
D19*
X89291Y29134D02*
D03*
X87717D02*
D03*
X86142D02*
D03*
X84567D02*
D03*
X82992D02*
D03*
X81417D02*
D03*
X79843D02*
D03*
X78268D02*
D03*
X76693D02*
D03*
X75118D02*
D03*
Y48615D02*
D03*
X76693D02*
D03*
X78268D02*
D03*
X79843D02*
D03*
X81417D02*
D03*
X82992D02*
D03*
X84567D02*
D03*
X86142D02*
D03*
X87717D02*
D03*
X89291D02*
D03*
D20*
X52992Y90079D02*
D03*
X56929D02*
D03*
X78110D02*
D03*
X82047D02*
D03*
X73347D02*
D03*
X69409D02*
D03*
X64803D02*
D03*
X60866D02*
D03*
X4646Y97474D02*
D03*
X8583D02*
D03*
X12520Y13780D02*
D03*
X8583D02*
D03*
X12520Y26890D02*
D03*
X8583D02*
D03*
X99646Y61024D02*
D03*
X95709D02*
D03*
D21*
X66732Y19055D02*
D03*
Y26535D02*
D03*
X56496Y19055D02*
D03*
Y22795D02*
D03*
Y26535D02*
D03*
D22*
X78863Y69522D02*
D03*
X74926D02*
D03*
X25709Y81653D02*
D03*
X29646D02*
D03*
X75512Y6102D02*
D03*
X79449D02*
D03*
X4528Y77913D02*
D03*
X8465D02*
D03*
D23*
X82559Y23661D02*
D03*
X77047D02*
D03*
X12559Y17992D02*
D03*
X18465D02*
D03*
Y22716D02*
D03*
X12559D02*
D03*
X103661Y61024D02*
D03*
X109567D02*
D03*
D24*
X41877Y77436D02*
D03*
X40485Y76044D02*
D03*
X39093Y74652D02*
D03*
X37701Y73260D02*
D03*
X36309Y71868D02*
D03*
X34917Y70477D02*
D03*
X33525Y69085D02*
D03*
X32133Y67693D02*
D03*
X30741Y66301D02*
D03*
X29349Y64909D02*
D03*
X27957Y63517D02*
D03*
X26566Y62125D02*
D03*
X49759Y38932D02*
D03*
X51151Y40324D02*
D03*
X52543Y41716D02*
D03*
X53934Y43108D02*
D03*
X55326Y44500D02*
D03*
X56718Y45891D02*
D03*
X58110Y47284D02*
D03*
X59502Y48675D02*
D03*
X60894Y50067D02*
D03*
X62286Y51459D02*
D03*
X63678Y52851D02*
D03*
X65070Y54243D02*
D03*
D25*
X26566D02*
D03*
X27957Y52851D02*
D03*
X29349Y51459D02*
D03*
X30741Y50067D02*
D03*
X32133Y48675D02*
D03*
X33525Y47284D02*
D03*
X34917Y45891D02*
D03*
X36309Y44500D02*
D03*
X37701Y43108D02*
D03*
X39093Y41716D02*
D03*
X40485Y40324D02*
D03*
X41877Y38932D02*
D03*
X65070Y62125D02*
D03*
X63678Y63517D02*
D03*
X62286Y64909D02*
D03*
X60894Y66301D02*
D03*
X59502Y67693D02*
D03*
X58110Y69085D02*
D03*
X56718Y70477D02*
D03*
X55326Y71868D02*
D03*
X53934Y73260D02*
D03*
X52543Y74652D02*
D03*
X51151Y76044D02*
D03*
X49759Y77436D02*
D03*
D26*
X21142Y88504D02*
D03*
Y94016D02*
D03*
X104685Y30984D02*
D03*
Y36496D02*
D03*
X99764Y30984D02*
D03*
Y36496D02*
D03*
X21142Y78622D02*
D03*
Y84134D02*
D03*
D27*
X105866Y42874D02*
D03*
Y46811D02*
D03*
X15905Y53031D02*
D03*
Y56968D02*
D03*
X25709Y74094D02*
D03*
Y78031D02*
D03*
X79527Y9606D02*
D03*
Y13543D02*
D03*
X17165Y88622D02*
D03*
Y92559D02*
D03*
X28976Y77992D02*
D03*
Y74055D02*
D03*
X17165Y79803D02*
D03*
Y83740D02*
D03*
D28*
X111181Y77716D02*
D03*
X91496D02*
D03*
D29*
X9488Y52992D02*
D03*
Y65787D02*
D03*
D30*
X36102Y33937D02*
D03*
Y30000D02*
D03*
X39646D02*
D03*
Y33937D02*
D03*
X75630Y9606D02*
D03*
Y13543D02*
D03*
D31*
X65290Y77967D02*
D03*
X62506Y75183D02*
D03*
D32*
X33923Y79396D02*
D03*
X36707Y82179D02*
D03*
D33*
X12165Y82795D02*
D03*
X4685D02*
D03*
X4685Y93032D02*
D03*
X12165D02*
D03*
X8425D02*
D03*
D61*
X61085Y35958D02*
X63657D01*
X65782Y38083D02*
X71269D01*
X63657Y35958D02*
X65782Y38083D01*
X53934Y43108D02*
X61085Y35958D01*
X95704Y33898D02*
X95854D01*
X91945Y34937D02*
X94902D01*
X95641Y34198D01*
X95854D01*
X69260Y66860D02*
X71922Y69522D01*
X74926D01*
X69260Y52787D02*
Y66860D01*
Y52787D02*
X73228Y48819D01*
X56913Y52411D02*
Y52502D01*
X55845Y51343D02*
X56913Y52411D01*
X55845Y49549D02*
Y51343D01*
Y49549D02*
X58110Y47284D01*
X68190Y29685D02*
X70277Y31772D01*
X46654Y29685D02*
X68190D01*
X42402Y33937D02*
X46654Y29685D01*
X45709Y36693D02*
X51126Y31276D01*
X67532D01*
X69603Y33347D01*
X66459Y33260D02*
X68141Y34941D01*
X66433Y33260D02*
X66459D01*
X63791Y44386D02*
X72464D01*
X72448Y42796D02*
X72464Y42811D01*
X59814Y42055D02*
X60554Y42796D01*
X59502Y48675D02*
X63791Y44386D01*
X60554Y42796D02*
X72448D01*
X57770Y42055D02*
X59814D01*
X55326Y44500D02*
X57770Y42055D01*
X73228Y48819D02*
X74794D01*
X74998Y48615D01*
X71273Y38087D02*
X72464D01*
X71269Y38083D02*
X71273Y38087D01*
X64021Y39674D02*
X72452D01*
X62953Y38819D02*
X63166D01*
X64021Y39674D01*
X72452D02*
X72464Y39662D01*
X68141Y34941D02*
X70084D01*
X69603Y33363D02*
X72464D01*
X70277Y31772D02*
X71269D01*
X71285Y31788D02*
X72464D01*
X71269Y31772D02*
X71285Y31788D01*
X45709Y36693D02*
Y41693D01*
X70084Y34941D02*
X70088Y34937D01*
X72464D01*
X104567Y36614D02*
X104685Y36496D01*
X104567Y36614D02*
Y39370D01*
X102700Y41237D02*
X104567Y39370D01*
X91945Y41237D02*
X102700D01*
X91961Y36528D02*
X99732D01*
X99764Y36496D01*
X91945Y36512D02*
X91961Y36528D01*
Y42827D02*
X105827D01*
X105843Y42811D01*
X105866Y42835D01*
X91945Y42811D02*
X91961Y42827D01*
X39646Y33937D02*
X42402D01*
X44700Y42702D02*
X45709Y41693D01*
X42863Y42702D02*
X44700D01*
X40485Y40324D02*
X42863Y42702D01*
D62*
X60111Y34148D02*
X64185D01*
X66550Y36512D02*
X72464D01*
X64185Y34148D02*
X66550Y36512D01*
X52543Y41716D02*
X60111Y34148D01*
X60282Y39940D02*
X61567Y41225D01*
X72452D02*
X72464Y41237D01*
X61567Y41225D02*
X72452D01*
D63*
X56496Y26535D02*
X59935D01*
X65289Y19837D02*
Y21181D01*
X59935Y26535D02*
X65289Y21181D01*
Y19837D02*
X66071Y19055D01*
X66732D01*
X56496Y22795D02*
X60571D01*
X62825Y14467D02*
Y20541D01*
X60571Y22795D02*
X62825Y20541D01*
X33784Y77178D02*
Y79588D01*
X84569Y48617D02*
Y53379D01*
X102060Y31788D02*
X103882D01*
X91945D02*
X102060D01*
X82698Y69222D02*
X84360Y67560D01*
X78663Y69222D02*
X82698D01*
X78268Y48615D02*
Y51495D01*
X77160Y52603D02*
X78268Y51495D01*
X77160Y52603D02*
Y52760D01*
X81417Y48615D02*
Y55260D01*
X83547Y57389D02*
X84360D01*
X81417Y55260D02*
X83547Y57389D01*
X84360D02*
Y67560D01*
Y57389D02*
X107298D01*
X91945Y45961D02*
X95402D01*
X96103Y45260D01*
X96260D01*
X84821Y74191D02*
X88346Y77716D01*
X84821Y73090D02*
Y74191D01*
X84710Y72979D02*
X84821Y73090D01*
X29442Y57741D02*
X29514Y57814D01*
X61530D02*
X65085Y54259D01*
X29514Y57814D02*
X61530D01*
X10087Y46497D02*
X18789D01*
X7835Y39783D02*
Y44245D01*
X10087Y46497D01*
X12835Y39783D02*
Y43075D01*
X14458Y44698D02*
X19804D01*
X12835Y43075D02*
X14458Y44698D01*
X89291Y18110D02*
Y29134D01*
Y18110D02*
X94724Y12677D01*
Y10315D02*
Y12677D01*
X88346Y77716D02*
X91496D01*
X107298Y57389D02*
X116026Y48661D01*
X104370Y52835D02*
X105905Y51299D01*
X90315Y52835D02*
X104370D01*
X89291Y51811D02*
X90315Y52835D01*
X39646Y30000D02*
X39657Y29989D01*
X43044D01*
X43055Y29978D01*
X20074Y64656D02*
X20121Y64704D01*
X23956D01*
X22684Y67025D02*
X22795Y66914D01*
X24560D01*
X27957Y63517D01*
X24258Y70000D02*
X27298Y66960D01*
X9488Y65787D02*
X14173D01*
X9843Y67913D02*
X11929Y70000D01*
X27298Y66960D02*
X29349Y64909D01*
X27298Y66960D02*
X27298D01*
X11929Y70000D02*
X24258D01*
X18789Y46497D02*
X26535Y54243D01*
X26566D01*
X14173Y65787D02*
X15905Y64055D01*
Y56968D02*
Y64055D01*
X9843Y66142D02*
Y67913D01*
X9488Y65787D02*
X9843Y66142D01*
X19804Y44698D02*
X27957Y52851D01*
X22638Y44748D02*
X29349Y51459D01*
X22638Y24213D02*
Y44748D01*
X24567Y20118D02*
Y43893D01*
X28690Y48016D01*
X28652Y22647D02*
Y42411D01*
X33525Y47284D01*
X26709Y43251D02*
X30082Y46624D01*
X26709Y21007D02*
Y43251D01*
X32283Y37690D02*
X37701Y43108D01*
X32283Y28207D02*
Y37690D01*
X26709Y21007D02*
X30551Y17165D01*
X30452Y41426D02*
X32866Y43840D01*
X18465Y22716D02*
X18622Y22559D01*
X20984D01*
X22638Y24213D01*
X30452Y23828D02*
Y41426D01*
Y23828D02*
X32756Y21524D01*
X28652Y22647D02*
X31575Y19724D01*
X18465Y17992D02*
X22441D01*
X24567Y20118D01*
X32283Y28207D02*
X34019Y26471D01*
X58749Y60000D02*
X62975D01*
X63935Y60959D01*
X65085Y54259D02*
X65085D01*
X60944Y55586D02*
X61626Y54903D01*
X31829Y55586D02*
X60944D01*
X60309Y76851D02*
Y79181D01*
X56315Y81009D02*
X59708Y84402D01*
X54516Y81773D02*
X60726Y87983D01*
X53934Y73260D02*
X58114Y77440D01*
X52716Y80394D02*
Y89803D01*
X52543Y74652D02*
X56315Y78425D01*
X58114Y80264D02*
X60227Y82376D01*
X56315Y78425D02*
Y81009D01*
X51151Y76075D02*
X54516Y79440D01*
X58114Y77440D02*
Y80264D01*
X49759Y77436D02*
X52716Y80394D01*
X54516Y79440D02*
Y81773D01*
X52716Y89803D02*
X52992Y90079D01*
X55326Y71868D02*
X60309Y76851D01*
X49759Y77436D02*
Y77436D01*
X51151Y76044D02*
Y76075D01*
X61299Y12941D02*
X62825Y14467D01*
X61299Y9488D02*
Y12941D01*
X56496Y19055D02*
X56521Y19031D01*
X60263D01*
X60287Y19006D01*
X51457Y9488D02*
Y13053D01*
X32756Y21524D02*
X42986D01*
X51457Y13053D01*
X34019Y26471D02*
X56496D01*
X38189Y67205D02*
X39436D01*
X40866Y68635D02*
Y70095D01*
X39436Y67205D02*
X40866Y68635D01*
X37701Y73260D02*
X40866Y70095D01*
X34917Y70477D02*
X36969Y68425D01*
X36969D01*
X38189Y67205D01*
X29561Y73049D02*
X33525Y69085D01*
X29561Y73049D02*
Y73470D01*
X28976Y74055D02*
X29561Y73470D01*
X33784Y77178D02*
X37701Y73260D01*
X29019Y77949D02*
X29482Y77486D01*
X30691D01*
X34258Y73920D01*
X34258D02*
X36309Y71868D01*
X34258Y73920D02*
X34258D01*
X33784Y79588D02*
X33978Y79782D01*
X61626Y54903D02*
X63678Y52851D01*
X61626Y54903D02*
X61626D01*
X60493Y71468D02*
X64643D01*
X60162Y71136D02*
X60493Y71468D01*
X23956Y64704D02*
X26550Y62110D01*
X26550D01*
X12520Y17953D02*
X12559Y17992D01*
X12520Y13780D02*
Y17953D01*
X12520Y22756D02*
Y26890D01*
Y22756D02*
X12559Y22716D01*
X28690Y48016D02*
X30741Y50067D01*
X28690Y48016D02*
Y48016D01*
X30551Y17165D02*
X39094D01*
X41614Y9488D02*
Y14646D01*
X39094Y17165D02*
X41614Y14646D01*
X31575Y19724D02*
X40905D01*
X46535Y14095D01*
Y9488D02*
Y14095D01*
X30082Y46624D02*
X32133Y48675D01*
X30082Y46624D02*
Y46624D01*
X32866Y43840D02*
X34917Y45891D01*
X32866Y43840D02*
Y43840D01*
X61391Y89963D02*
Y90053D01*
X60726Y87983D02*
Y89297D01*
X61391Y89963D01*
X60227Y82376D02*
X73085D01*
X59708Y84402D02*
X66252D01*
X69409Y87559D01*
X73085Y82376D02*
X78189Y87480D01*
X63801Y79181D02*
X65015Y77967D01*
X65290D01*
X60309Y79181D02*
X63801D01*
X81142Y103622D02*
X82047Y102717D01*
Y90079D02*
Y102717D01*
X73268Y103622D02*
X73347Y103543D01*
Y90079D02*
Y103543D01*
X65354Y90079D02*
Y103583D01*
X65394Y103622D01*
X57480Y103583D02*
X57520Y103622D01*
X57480Y90079D02*
Y103583D01*
X58110Y69085D02*
X58297D01*
X52543Y74652D02*
Y74652D01*
X69409Y87559D02*
Y90079D01*
X78189Y87480D02*
Y90000D01*
X56718Y70477D02*
X61464Y75222D01*
X62309D01*
X78110Y90079D02*
X78189Y90000D01*
X58110Y69085D02*
X60162Y71136D01*
X60162D01*
X84567Y48615D02*
X84569Y48617D01*
Y53379D02*
X84582Y53392D01*
X114409Y10315D02*
X116026Y11931D01*
Y48661D01*
X105866Y46811D02*
X110000D01*
X111417Y26654D02*
Y45394D01*
X110000Y46811D02*
X111417Y45394D01*
X105905Y46850D02*
Y51299D01*
X105866Y46811D02*
X105905Y46850D01*
X76693Y48615D02*
X78043D01*
X79843D02*
X81193D01*
X104567Y10315D02*
Y19803D01*
X111417Y26654D01*
X89291Y48615D02*
Y51811D01*
X84567Y48615D02*
X85917D01*
X82992D02*
X84567D01*
X87717D02*
X89291D01*
X91945Y44386D02*
Y45961D01*
Y38087D02*
Y39662D01*
X95873Y38969D02*
X95984Y38858D01*
X76693Y33363D02*
X76890Y33559D01*
X76693Y29134D02*
Y33363D01*
Y24016D02*
Y29134D01*
Y24016D02*
X77047Y23661D01*
X76693Y29134D02*
X78268D01*
X82559Y23661D02*
X82992Y24094D01*
Y29134D01*
X84567D02*
X85917D01*
X82992D02*
X84567D01*
X87717D02*
X89291D01*
X103882Y31788D02*
X104685Y30984D01*
X91945Y31788D02*
Y33363D01*
X87520Y33559D02*
X87717Y33363D01*
X91945D01*
X36102Y35941D02*
X40485Y40324D01*
X36102Y33937D02*
Y35941D01*
X39646Y36701D02*
X41877Y38932D01*
Y38932D01*
X39646Y33937D02*
Y36701D01*
D64*
X8536Y23171D02*
Y26459D01*
X7160Y21795D02*
X8536Y23171D01*
X72176Y16997D02*
X75630Y13543D01*
X70202Y26477D02*
X72176Y24503D01*
Y16997D02*
Y24503D01*
X16931Y79840D02*
X17400Y79372D01*
X20694Y52377D02*
Y60791D01*
X7160Y20560D02*
Y21795D01*
X7056Y18940D02*
Y20456D01*
X7160Y20560D01*
X7056Y18940D02*
X8536Y17460D01*
X8583Y26506D02*
Y26890D01*
X8536Y26459D02*
X8583Y26506D01*
X8536Y13826D02*
Y17460D01*
Y13826D02*
X8583Y13780D01*
X8484Y88563D02*
X17165D01*
X21083D01*
X109567Y61024D02*
Y77716D01*
X82500Y23602D02*
X82559Y23661D01*
X95709Y61024D02*
Y76653D01*
X94646Y77716D02*
X95709Y76653D01*
X103661Y61024D02*
X103661Y61024D01*
X99646Y61024D02*
X103661D01*
X109370Y77913D02*
X109567Y77716D01*
X67913Y26535D02*
X67972Y26477D01*
X70202D01*
X17276Y48959D02*
X20694Y52377D01*
X2734Y44545D02*
X7148Y48959D01*
X9488Y52992D02*
X9508Y53012D01*
X15886D01*
X15905Y53031D01*
X2734Y55118D02*
Y67838D01*
Y55118D02*
X4860Y52992D01*
X9488D01*
X2734Y28622D02*
Y44545D01*
X4467Y26890D02*
X8583D01*
X2734Y28622D02*
X4467Y26890D01*
X25669Y85669D02*
X31681D01*
X25438D02*
X25669D01*
X31681D02*
X32704Y84646D01*
X25661Y85661D02*
X25669Y85669D01*
X12200Y77743D02*
Y81577D01*
X12375Y81752D02*
X12520D01*
X12200Y81577D02*
X12375Y81752D01*
X12520D02*
Y82441D01*
Y81752D02*
X14392Y79880D01*
X12165Y82795D02*
X12520Y82441D01*
X8565Y73883D02*
X25497D01*
X25709Y74094D01*
X8465Y73568D02*
Y77913D01*
X25709Y74055D02*
X28976D01*
X2734Y67838D02*
X8465Y73568D01*
X21142Y78622D02*
X21437Y78327D01*
X20363Y79401D02*
X21142Y78622D01*
X25709Y81653D02*
Y81840D01*
Y78031D02*
Y81653D01*
X75630Y13543D02*
X79527D01*
X61299Y9488D02*
X61496Y9291D01*
X79449Y6102D02*
X79488Y6142D01*
Y9567D01*
X79527Y9606D01*
X75571Y9547D02*
X75630Y9606D01*
X75571Y9547D02*
X75571Y9547D01*
X75571Y6161D02*
Y9547D01*
X75512Y6102D02*
X75571Y6161D01*
X66280Y9547D02*
X75571D01*
X66220Y9488D02*
X66280Y9547D01*
X8307Y92913D02*
X8445Y92776D01*
X12165Y93032D02*
X12638Y92559D01*
X12047Y93150D02*
X12165Y93032D01*
X36707Y82179D02*
X36846Y82319D01*
X49646Y95118D01*
X14392Y79880D02*
X16931D01*
Y79840D02*
Y79880D01*
X21346Y94221D02*
X38520D01*
X41629Y97329D01*
X21142Y94016D02*
X21346Y94221D01*
X41629Y103480D02*
X41772Y103622D01*
X41629Y97329D02*
Y103480D01*
X32704Y81055D02*
X33978Y79782D01*
X28976Y77992D02*
X29211Y78226D01*
Y81415D01*
X29449Y81653D01*
X29646D01*
X25661Y81888D02*
Y85661D01*
Y81888D02*
X25709Y81840D01*
X32704Y81055D02*
Y84646D01*
X49646Y95118D02*
Y103622D01*
X8445Y77933D02*
Y88602D01*
X8484Y88563D01*
X8445Y88602D02*
Y92776D01*
Y77933D02*
X8465Y77913D01*
X17400Y79401D02*
X20363D01*
X12047Y93150D02*
Y97874D01*
X8583Y97874D02*
X12047D01*
X17087D01*
X12047D02*
X12047Y97874D01*
X12638Y92559D02*
X17165D01*
X20945Y94016D02*
X21142D01*
X17087Y97874D02*
X20945Y94016D01*
X4665Y93051D02*
X4685Y93032D01*
X4646Y97874D02*
X4665Y97854D01*
Y93051D02*
Y97854D01*
X8307Y92913D02*
X8425Y93032D01*
X21083Y88563D02*
X21142Y88504D01*
Y84134D02*
Y88504D01*
X17165Y83740D02*
X17362Y83937D01*
X20945D01*
X21142Y84134D01*
X25474Y78327D02*
X25709Y78092D01*
Y78031D02*
Y78092D01*
X21437Y78327D02*
X25474D01*
X25709Y78031D02*
X25709Y78031D01*
X4528Y77913D02*
X4606Y77992D01*
Y82717D02*
X4685Y82795D01*
X4606Y77992D02*
Y82717D01*
D65*
X100310Y97142D02*
Y98706D01*
X101160Y84231D02*
Y96292D01*
X94646Y77716D02*
X101160Y84231D01*
X99528Y99488D02*
X100310Y98706D01*
Y97142D02*
X101160Y96292D01*
X109370Y77913D02*
Y99488D01*
D66*
X36102Y30000D02*
X39646D01*
D67*
X109370Y99488D02*
D03*
X99528D02*
D03*
D68*
X41614Y9488D02*
D03*
X46535D02*
D03*
X51457D02*
D03*
X56378D02*
D03*
X61299D02*
D03*
D69*
X66220D02*
D03*
D70*
X17835Y39783D02*
D03*
Y34784D02*
D03*
X12835Y39783D02*
D03*
Y34784D02*
D03*
X7835Y39783D02*
D03*
D71*
Y34784D02*
D03*
D72*
X81142Y103622D02*
D03*
X65394D02*
D03*
X57520D02*
D03*
X49646D02*
D03*
X73268D02*
D03*
D73*
X41772D02*
D03*
D74*
X94724Y10315D02*
D03*
X104567D02*
D03*
D75*
X114409D02*
D03*
D76*
X76890Y33559D02*
D03*
Y37103D02*
D03*
Y40646D02*
D03*
X76890Y44189D02*
D03*
X80433D02*
D03*
X83976D02*
D03*
X87520D02*
D03*
X80433Y40646D02*
D03*
Y37103D02*
D03*
Y33559D02*
D03*
X83976Y40646D02*
D03*
Y37103D02*
D03*
Y33559D02*
D03*
X87520Y40646D02*
D03*
Y37103D02*
D03*
Y33559D02*
D03*
X95260Y73440D02*
D03*
X98440Y70260D02*
D03*
X95260D02*
D03*
X33860Y23660D02*
D03*
X40060D02*
D03*
X36960D02*
D03*
X49760Y24060D02*
D03*
X45760D02*
D03*
X68960Y5160D02*
D03*
X65860D02*
D03*
X64360Y3260D02*
D03*
X67460D02*
D03*
X70560D02*
D03*
X73660D02*
D03*
X48360Y96060D02*
D03*
X51460D02*
D03*
X16860Y3960D02*
D03*
Y7060D02*
D03*
X14160Y5560D02*
D03*
Y8660D02*
D03*
X16860Y10160D02*
D03*
X7160Y23517D02*
D03*
Y20560D02*
D03*
X12260Y49360D02*
D03*
X15360D02*
D03*
X20260Y58360D02*
D03*
Y55260D02*
D03*
X23160Y56960D02*
D03*
Y60060D02*
D03*
X18400Y77743D02*
D03*
X15300D02*
D03*
X12200D02*
D03*
X31460Y95860D02*
D03*
X13360Y102060D02*
D03*
X16460D02*
D03*
Y105160D02*
D03*
Y108260D02*
D03*
X36760Y95860D02*
D03*
Y98960D02*
D03*
Y102060D02*
D03*
Y108260D02*
D03*
Y105160D02*
D03*
X95854Y34198D02*
D03*
X84810Y76760D02*
D03*
X107660Y94160D02*
D03*
X111660D02*
D03*
X115660Y96660D02*
D03*
Y100660D02*
D03*
Y104660D02*
D03*
X111660D02*
D03*
X107660D02*
D03*
X123460Y94360D02*
D03*
X120960Y96660D02*
D03*
Y100660D02*
D03*
Y104660D02*
D03*
Y108660D02*
D03*
X115660D02*
D03*
X107660D02*
D03*
X111660D02*
D03*
X97560Y94060D02*
D03*
X101160D02*
D03*
X94260Y96760D02*
D03*
X91160D02*
D03*
Y100760D02*
D03*
Y104760D02*
D03*
Y108760D02*
D03*
X94260Y100760D02*
D03*
Y104760D02*
D03*
X97760D02*
D03*
X101760D02*
D03*
X94260Y108760D02*
D03*
X101760D02*
D03*
X97760D02*
D03*
X69960Y48160D02*
D03*
X83260Y6860D02*
D03*
Y10060D02*
D03*
Y13260D02*
D03*
Y16460D02*
D03*
Y19660D02*
D03*
X70602Y26177D02*
D03*
X71760Y20060D02*
D03*
Y16360D02*
D03*
X89460Y5760D02*
D03*
Y9760D02*
D03*
Y13760D02*
D03*
Y21760D02*
D03*
X93460D02*
D03*
X97460D02*
D03*
X89460Y17760D02*
D03*
X93460D02*
D03*
X97460D02*
D03*
X73760Y53260D02*
D03*
X77360D02*
D03*
X102760Y17660D02*
D03*
X106760D02*
D03*
Y21660D02*
D03*
X102760D02*
D03*
X111260Y33660D02*
D03*
X110760Y29660D02*
D03*
Y25660D02*
D03*
X106760D02*
D03*
X102760D02*
D03*
X112760Y17960D02*
D03*
X116760D02*
D03*
X120760Y5560D02*
D03*
Y9960D02*
D03*
Y13960D02*
D03*
Y17960D02*
D03*
X126760Y18160D02*
D03*
Y22160D02*
D03*
X123760Y25260D02*
D03*
X120760Y21760D02*
D03*
X116760D02*
D03*
X119760Y25260D02*
D03*
X115760D02*
D03*
X119760Y29760D02*
D03*
X115760D02*
D03*
X119760Y33760D02*
D03*
X115760D02*
D03*
X80660Y59760D02*
D03*
Y63760D02*
D03*
X96260Y49460D02*
D03*
X101260D02*
D03*
X96260Y45460D02*
D03*
X101260D02*
D03*
X84810Y73579D02*
D03*
X29442Y57741D02*
D03*
X60309Y78924D02*
D03*
X76929Y78465D02*
D03*
X56913Y52502D02*
D03*
X43055Y29978D02*
D03*
X20074Y64656D02*
D03*
X22684Y67025D02*
D03*
X58749Y60000D02*
D03*
X31829Y55586D02*
D03*
X60287Y19006D02*
D03*
X66433Y33260D02*
D03*
X64643Y71468D02*
D03*
X60282Y39940D02*
D03*
X84282Y52492D02*
D03*
X95984Y38858D02*
D03*
X62953Y38819D02*
D03*
D77*
X25669Y85669D02*
D03*
M02*
