G04*
G04 #@! TF.GenerationSoftware,Altium Limited,Altium Designer,22.10.1 (41)*
G04*
G04 Layer_Color=128*
%FSLAX25Y25*%
%MOIN*%
G70*
G04*
G04 #@! TF.SameCoordinates,423579F9-A912-4673-8900-DDE07351D98F*
G04*
G04*
G04 #@! TF.FilePolarity,Positive*
G04*
G01*
G75*
%ADD13C,0.00394*%
%ADD20R,0.02362X0.02362*%
%ADD21R,0.04331X0.02362*%
%ADD22R,0.02362X0.01968*%
%ADD23R,0.03150X0.03543*%
%ADD27R,0.01968X0.02362*%
%ADD30R,0.02362X0.02362*%
%ADD78R,0.03937X0.05118*%
%ADD79R,0.02000X0.05000*%
%ADD80C,0.03500*%
%ADD81R,0.02362X0.04331*%
%ADD82R,0.05118X0.03937*%
%ADD83R,0.05000X0.02000*%
G04:AMPARAMS|DCode=84|XSize=57.09mil|YSize=25.59mil|CornerRadius=6.4mil|HoleSize=0mil|Usage=FLASHONLY|Rotation=270.000|XOffset=0mil|YOffset=0mil|HoleType=Round|Shape=RoundedRectangle|*
%AMROUNDEDRECTD84*
21,1,0.05709,0.01280,0,0,270.0*
21,1,0.04429,0.02559,0,0,270.0*
1,1,0.01280,-0.00640,-0.02215*
1,1,0.01280,-0.00640,0.02215*
1,1,0.01280,0.00640,0.02215*
1,1,0.01280,0.00640,-0.02215*
%
%ADD84ROUNDEDRECTD84*%
D13*
X31496Y103347D02*
X31411Y104344D01*
X31159Y105314D01*
X30746Y106227D01*
X30185Y107056D01*
X29492Y107780D01*
X28687Y108375D01*
X27793Y108826D01*
X26835Y109119D01*
X25841Y109247D01*
X24840Y109204D01*
X23861Y108993D01*
X22932Y108620D01*
X22079Y108095D01*
X21327Y107433D01*
X20698Y106653D01*
X20209Y105779D01*
X19876Y104834D01*
X19706Y103847D01*
Y102846D01*
X19876Y101858D01*
X20209Y100914D01*
X20698Y100040D01*
X21327Y99260D01*
X22079Y98598D01*
X22932Y98073D01*
X23861Y97700D01*
X24840Y97489D01*
X25841Y97446D01*
X26835Y97574D01*
X27793Y97867D01*
X28687Y98318D01*
X29492Y98913D01*
X30185Y99637D01*
X30746Y100466D01*
X31159Y101379D01*
X31411Y102348D01*
X31496Y103347D01*
X137795Y8858D02*
X137710Y9856D01*
X137458Y10826D01*
X137045Y11738D01*
X136485Y12568D01*
X135791Y13291D01*
X134986Y13887D01*
X134092Y14338D01*
X133134Y14631D01*
X132140Y14759D01*
X131140Y14716D01*
X130160Y14505D01*
X129231Y14131D01*
X128378Y13606D01*
X127626Y12945D01*
X126997Y12165D01*
X126508Y11291D01*
X126175Y10346D01*
X126005Y9359D01*
Y8357D01*
X126175Y7370D01*
X126508Y6426D01*
X126997Y5551D01*
X127626Y4772D01*
X128378Y4110D01*
X129231Y3585D01*
X130160Y3212D01*
X131140Y3001D01*
X132140Y2958D01*
X133134Y3085D01*
X134092Y3379D01*
X134986Y3830D01*
X135791Y4425D01*
X136485Y5148D01*
X137045Y5978D01*
X137458Y6891D01*
X137710Y7860D01*
X137795Y8858D01*
X29528D02*
X29404Y9837D01*
X29041Y10755D01*
X28460Y11553D01*
X27700Y12182D01*
X26807Y12603D01*
X25838Y12788D01*
X24853Y12725D01*
X23914Y12421D01*
X23081Y11892D01*
X22405Y11172D01*
X21930Y10308D01*
X21685Y9352D01*
Y8365D01*
X21930Y7409D01*
X22405Y6544D01*
X23081Y5825D01*
X23914Y5296D01*
X24853Y4991D01*
X25838Y4929D01*
X26807Y5114D01*
X27700Y5534D01*
X28460Y6163D01*
X29041Y6962D01*
X29404Y7879D01*
X29528Y8858D01*
D20*
X62913Y35394D02*
D03*
X58976D02*
D03*
X51417D02*
D03*
X55354D02*
D03*
X13410Y27165D02*
D03*
X17347D02*
D03*
D21*
X79803Y74094D02*
D03*
Y70354D02*
D03*
Y66614D02*
D03*
X69567Y74094D02*
D03*
Y66614D02*
D03*
D22*
X55354Y31969D02*
D03*
X51417D02*
D03*
X69606Y78425D02*
D03*
X73543D02*
D03*
X73453Y62323D02*
D03*
X69516D02*
D03*
X93425Y29173D02*
D03*
X97362D02*
D03*
X47362Y39409D02*
D03*
X43425D02*
D03*
D23*
X61693Y5000D02*
D03*
X56181D02*
D03*
D27*
X112795Y63858D02*
D03*
Y59921D02*
D03*
X96575Y56732D02*
D03*
Y60669D02*
D03*
D30*
X71063Y9488D02*
D03*
Y13425D02*
D03*
X39843Y20669D02*
D03*
Y16732D02*
D03*
X52756Y76772D02*
D03*
Y72835D02*
D03*
X43386Y16732D02*
D03*
Y20669D02*
D03*
X36399Y16732D02*
D03*
Y20669D02*
D03*
X46929Y16732D02*
D03*
Y20669D02*
D03*
X51575Y16732D02*
D03*
Y20669D02*
D03*
X32856Y16732D02*
D03*
Y20669D02*
D03*
X47638Y72835D02*
D03*
Y76772D02*
D03*
X42913Y72835D02*
D03*
Y76772D02*
D03*
D78*
X74980Y57520D02*
D03*
X68681D02*
D03*
D79*
X79177Y5079D02*
D03*
X76177D02*
D03*
D80*
X60903Y30741D02*
D03*
D81*
X100945Y63898D02*
D03*
X108425D02*
D03*
X100945Y53661D02*
D03*
X104685D02*
D03*
X108425D02*
D03*
D82*
X91772Y62520D02*
D03*
Y56221D02*
D03*
D83*
X119860Y90360D02*
D03*
Y93360D02*
D03*
D84*
X52776Y44980D02*
D03*
X47776D02*
D03*
X37776D02*
D03*
X52776Y67224D02*
D03*
X47776D02*
D03*
X42776D02*
D03*
X37776D02*
D03*
X42776Y44980D02*
D03*
M02*
