G04*
G04 #@! TF.GenerationSoftware,Altium Limited,Altium Designer,22.10.1 (41)*
G04*
G04 Layer_Color=255*
%FSLAX25Y25*%
%MOIN*%
G70*
G04*
G04 #@! TF.SameCoordinates,84BF85B8-C2DE-4563-98F9-37A291DCC650*
G04*
G04*
G04 #@! TF.FilePolarity,Positive*
G04*
G01*
G75*
%ADD17R,0.13800X0.13800*%
%ADD18R,0.02981X0.00803*%
%ADD19R,0.00803X0.02981*%
%ADD20R,0.02362X0.02362*%
%ADD21R,0.04331X0.02362*%
%ADD22R,0.02362X0.01968*%
%ADD23R,0.03150X0.03543*%
G04:AMPARAMS|DCode=24|XSize=11.81mil|YSize=46mil|CornerRadius=0mil|HoleSize=0mil|Usage=FLASHONLY|Rotation=225.000|XOffset=0mil|YOffset=0mil|HoleType=Round|Shape=Rectangle|*
%AMROTATEDRECTD24*
4,1,4,-0.01209,0.02044,0.02044,-0.01209,0.01209,-0.02044,-0.02044,0.01209,-0.01209,0.02044,0.0*
%
%ADD24ROTATEDRECTD24*%

G04:AMPARAMS|DCode=25|XSize=11.81mil|YSize=46mil|CornerRadius=0mil|HoleSize=0mil|Usage=FLASHONLY|Rotation=135.000|XOffset=0mil|YOffset=0mil|HoleType=Round|Shape=Rectangle|*
%AMROTATEDRECTD25*
4,1,4,0.02044,0.01209,-0.01209,-0.02044,-0.02044,-0.01209,0.01209,0.02044,0.02044,0.01209,0.0*
%
%ADD25ROTATEDRECTD25*%

%ADD26R,0.03543X0.03150*%
%ADD27R,0.01968X0.02362*%
%ADD28R,0.12598X0.06299*%
%ADD29R,0.05906X0.02165*%
%ADD30R,0.02362X0.02362*%
%ADD31P,0.03341X4X180.0*%
G04:AMPARAMS|DCode=32|XSize=19.68mil|YSize=23.62mil|CornerRadius=0mil|HoleSize=0mil|Usage=FLASHONLY|Rotation=315.000|XOffset=0mil|YOffset=0mil|HoleType=Round|Shape=Rectangle|*
%AMROTATEDRECTD32*
4,1,4,-0.01531,-0.00139,0.00139,0.01531,0.01531,0.00139,-0.00139,-0.01531,-0.01531,-0.00139,0.0*
%
%ADD32ROTATEDRECTD32*%

%ADD33R,0.02559X0.03937*%
%ADD67C,0.07087*%
%ADD68C,0.03347*%
%ADD69R,0.03347X0.03347*%
%ADD70C,0.03937*%
%ADD71R,0.03937X0.03937*%
%ADD72R,0.05906X0.09843*%
G04:AMPARAMS|DCode=73|XSize=98.43mil|YSize=59.06mil|CornerRadius=0mil|HoleSize=0mil|Usage=FLASHONLY|Rotation=90.000|XOffset=0mil|YOffset=0mil|HoleType=Round|Shape=Octagon|*
%AMOCTAGOND73*
4,1,8,0.01476,0.04921,-0.01476,0.04921,-0.02953,0.03445,-0.02953,-0.03445,-0.01476,-0.04921,0.01476,-0.04921,0.02953,-0.03445,0.02953,0.03445,0.01476,0.04921,0.0*
%
%ADD73OCTAGOND73*%

%ADD74R,0.07087X0.11811*%
G04:AMPARAMS|DCode=75|XSize=118.11mil|YSize=70.87mil|CornerRadius=17.72mil|HoleSize=0mil|Usage=FLASHONLY|Rotation=270.000|XOffset=0mil|YOffset=0mil|HoleType=Round|Shape=RoundedRectangle|*
%AMROUNDEDRECTD75*
21,1,0.11811,0.03543,0,0,270.0*
21,1,0.08268,0.07087,0,0,270.0*
1,1,0.03543,-0.01772,-0.04134*
1,1,0.03543,-0.01772,0.04134*
1,1,0.03543,0.01772,0.04134*
1,1,0.03543,0.01772,-0.04134*
%
%ADD75ROUNDEDRECTD75*%
D17*
X82205Y38874D02*
D03*
D18*
X91945Y45961D02*
D03*
Y44386D02*
D03*
Y42811D02*
D03*
Y41237D02*
D03*
Y39662D02*
D03*
Y38087D02*
D03*
Y36512D02*
D03*
Y34937D02*
D03*
Y33363D02*
D03*
Y31788D02*
D03*
X72464D02*
D03*
Y33363D02*
D03*
Y34937D02*
D03*
Y36512D02*
D03*
Y38087D02*
D03*
Y39662D02*
D03*
Y41237D02*
D03*
Y42811D02*
D03*
Y44386D02*
D03*
Y45961D02*
D03*
D19*
X89291Y29134D02*
D03*
X87717D02*
D03*
X86142D02*
D03*
X84567D02*
D03*
X82992D02*
D03*
X81417D02*
D03*
X79843D02*
D03*
X78268D02*
D03*
X76693D02*
D03*
X75118D02*
D03*
Y48615D02*
D03*
X76693D02*
D03*
X78268D02*
D03*
X79843D02*
D03*
X81417D02*
D03*
X82992D02*
D03*
X84567D02*
D03*
X86142D02*
D03*
X87717D02*
D03*
X89291D02*
D03*
D20*
X52992Y90079D02*
D03*
X56929D02*
D03*
X78110D02*
D03*
X82047D02*
D03*
X73347D02*
D03*
X69409D02*
D03*
X64803D02*
D03*
X60866D02*
D03*
X4646Y97474D02*
D03*
X8583D02*
D03*
X12520Y13780D02*
D03*
X8583D02*
D03*
X12520Y26890D02*
D03*
X8583D02*
D03*
X99646Y61024D02*
D03*
X95709D02*
D03*
D21*
X66732Y19055D02*
D03*
Y26535D02*
D03*
X56496Y19055D02*
D03*
Y22795D02*
D03*
Y26535D02*
D03*
D22*
X78863Y69522D02*
D03*
X74926D02*
D03*
X25709Y81653D02*
D03*
X29646D02*
D03*
X75512Y6102D02*
D03*
X79449D02*
D03*
X4528Y77913D02*
D03*
X8465D02*
D03*
D23*
X82559Y23661D02*
D03*
X77047D02*
D03*
X12559Y17992D02*
D03*
X18465D02*
D03*
Y22716D02*
D03*
X12559D02*
D03*
X103661Y61024D02*
D03*
X109567D02*
D03*
D24*
X41877Y77436D02*
D03*
X40485Y76044D02*
D03*
X39093Y74652D02*
D03*
X37701Y73260D02*
D03*
X36309Y71868D02*
D03*
X34917Y70477D02*
D03*
X33525Y69085D02*
D03*
X32133Y67693D02*
D03*
X30741Y66301D02*
D03*
X29349Y64909D02*
D03*
X27957Y63517D02*
D03*
X26566Y62125D02*
D03*
X49759Y38932D02*
D03*
X51151Y40324D02*
D03*
X52543Y41716D02*
D03*
X53934Y43108D02*
D03*
X55326Y44500D02*
D03*
X56718Y45891D02*
D03*
X58110Y47284D02*
D03*
X59502Y48675D02*
D03*
X60894Y50067D02*
D03*
X62286Y51459D02*
D03*
X63678Y52851D02*
D03*
X65070Y54243D02*
D03*
D25*
X26566D02*
D03*
X27957Y52851D02*
D03*
X29349Y51459D02*
D03*
X30741Y50067D02*
D03*
X32133Y48675D02*
D03*
X33525Y47284D02*
D03*
X34917Y45891D02*
D03*
X36309Y44500D02*
D03*
X37701Y43108D02*
D03*
X39093Y41716D02*
D03*
X40485Y40324D02*
D03*
X41877Y38932D02*
D03*
X65070Y62125D02*
D03*
X63678Y63517D02*
D03*
X62286Y64909D02*
D03*
X60894Y66301D02*
D03*
X59502Y67693D02*
D03*
X58110Y69085D02*
D03*
X56718Y70477D02*
D03*
X55326Y71868D02*
D03*
X53934Y73260D02*
D03*
X52543Y74652D02*
D03*
X51151Y76044D02*
D03*
X49759Y77436D02*
D03*
D26*
X21142Y88504D02*
D03*
Y94016D02*
D03*
X104685Y30984D02*
D03*
Y36496D02*
D03*
X99764Y30984D02*
D03*
Y36496D02*
D03*
X21142Y78622D02*
D03*
Y84134D02*
D03*
D27*
X105866Y42874D02*
D03*
Y46811D02*
D03*
X15905Y53031D02*
D03*
Y56968D02*
D03*
X25709Y74094D02*
D03*
Y78031D02*
D03*
X79527Y9606D02*
D03*
Y13543D02*
D03*
X17165Y88622D02*
D03*
Y92559D02*
D03*
X28976Y77992D02*
D03*
Y74055D02*
D03*
X17165Y79803D02*
D03*
Y83740D02*
D03*
D28*
X111181Y77716D02*
D03*
X91496D02*
D03*
D29*
X9488Y52992D02*
D03*
Y65787D02*
D03*
D30*
X36102Y33937D02*
D03*
Y30000D02*
D03*
X39646D02*
D03*
Y33937D02*
D03*
X75630Y9606D02*
D03*
Y13543D02*
D03*
D31*
X65290Y77967D02*
D03*
X62506Y75183D02*
D03*
D32*
X33923Y79396D02*
D03*
X36707Y82179D02*
D03*
D33*
X12165Y82795D02*
D03*
X4685D02*
D03*
X4685Y93032D02*
D03*
X12165D02*
D03*
X8425D02*
D03*
D67*
X109370Y99488D02*
D03*
X99528D02*
D03*
D68*
X41614Y9488D02*
D03*
X46535D02*
D03*
X51457D02*
D03*
X56378D02*
D03*
X61299D02*
D03*
D69*
X66220D02*
D03*
D70*
X17835Y39783D02*
D03*
Y34784D02*
D03*
X12835Y39783D02*
D03*
Y34784D02*
D03*
X7835Y39783D02*
D03*
D71*
Y34784D02*
D03*
D72*
X81142Y103622D02*
D03*
X65394D02*
D03*
X57520D02*
D03*
X49646D02*
D03*
X73268D02*
D03*
D73*
X41772D02*
D03*
D74*
X94724Y10315D02*
D03*
X104567D02*
D03*
D75*
X114409D02*
D03*
M02*
