G04*
G04 #@! TF.GenerationSoftware,Altium Limited,Altium Designer,22.10.1 (41)*
G04*
G04 Layer_Color=16711935*
%FSLAX25Y25*%
%MOIN*%
G70*
G04*
G04 #@! TF.SameCoordinates,423579F9-A912-4673-8900-DDE07351D98F*
G04*
G04*
G04 #@! TF.FilePolarity,Positive*
G04*
G01*
G75*
%ADD13C,0.00394*%
D13*
X137795Y8858D02*
X137710Y9856D01*
X137458Y10826D01*
X137045Y11738D01*
X136485Y12568D01*
X135791Y13291D01*
X134986Y13887D01*
X134092Y14338D01*
X133134Y14631D01*
X132140Y14759D01*
X131140Y14716D01*
X130160Y14505D01*
X129231Y14131D01*
X128378Y13606D01*
X127626Y12945D01*
X126997Y12165D01*
X126508Y11291D01*
X126175Y10346D01*
X126005Y9359D01*
Y8357D01*
X126175Y7370D01*
X126508Y6426D01*
X126997Y5551D01*
X127626Y4772D01*
X128378Y4110D01*
X129231Y3585D01*
X130160Y3212D01*
X131140Y3001D01*
X132140Y2958D01*
X133134Y3085D01*
X134092Y3379D01*
X134986Y3830D01*
X135791Y4425D01*
X136485Y5148D01*
X137045Y5978D01*
X137458Y6891D01*
X137710Y7860D01*
X137795Y8858D01*
X29528D02*
X29404Y9837D01*
X29041Y10755D01*
X28460Y11553D01*
X27700Y12182D01*
X26807Y12603D01*
X25838Y12788D01*
X24853Y12725D01*
X23914Y12421D01*
X23081Y11892D01*
X22405Y11172D01*
X21930Y10308D01*
X21685Y9352D01*
Y8365D01*
X21930Y7409D01*
X22405Y6544D01*
X23081Y5825D01*
X23914Y5296D01*
X24853Y4991D01*
X25838Y4929D01*
X26807Y5114D01*
X27700Y5534D01*
X28460Y6163D01*
X29041Y6962D01*
X29404Y7879D01*
X29528Y8858D01*
X31496Y103347D02*
X31411Y104344D01*
X31159Y105314D01*
X30746Y106227D01*
X30185Y107056D01*
X29492Y107780D01*
X28687Y108375D01*
X27793Y108826D01*
X26835Y109119D01*
X25841Y109247D01*
X24840Y109204D01*
X23861Y108993D01*
X22932Y108620D01*
X22079Y108095D01*
X21327Y107433D01*
X20698Y106653D01*
X20209Y105779D01*
X19876Y104834D01*
X19706Y103847D01*
Y102846D01*
X19876Y101858D01*
X20209Y100914D01*
X20698Y100040D01*
X21327Y99260D01*
X22079Y98598D01*
X22932Y98073D01*
X23861Y97700D01*
X24840Y97489D01*
X25841Y97446D01*
X26835Y97574D01*
X27793Y97867D01*
X28687Y98318D01*
X29492Y98913D01*
X30185Y99637D01*
X30746Y100466D01*
X31159Y101379D01*
X31411Y102348D01*
X31496Y103347D01*
X0Y100394D02*
X975Y100434D01*
X1944Y100555D01*
X2899Y100755D01*
X3835Y101034D01*
X4744Y101389D01*
X5621Y101817D01*
X6460Y102317D01*
X7254Y102884D01*
X7999Y103515D01*
X8690Y104205D01*
X9321Y104950D01*
X9888Y105745D01*
X10387Y106583D01*
X10816Y107460D01*
X11171Y108370D01*
X11450Y109305D01*
X11650Y110261D01*
X11771Y111229D01*
X11811Y112205D01*
X126969Y91710D02*
X126457Y90852D01*
X125960Y89985D01*
X125477Y89111D01*
X125009Y88229D01*
X124555Y87339D01*
X124115Y86442D01*
X123691Y85538D01*
X123281Y84627D01*
X122886Y83709D01*
X122506Y82785D01*
X122142Y81855D01*
X121792Y80920D01*
X121458Y79978D01*
X121140Y79031D01*
X120837Y78080D01*
X120549Y77123D01*
X120278Y76162D01*
X120022Y75196D01*
X119782Y74227D01*
X119558Y73253D01*
X119349Y72276D01*
X119157Y71296D01*
X118981Y70313D01*
X118821Y69327D01*
X118677Y68338D01*
X118549Y67348D01*
X118438Y66355D01*
X118343Y65361D01*
X118264Y64365D01*
X118201Y63368D01*
X118155Y62370D01*
X118125Y61372D01*
X118111Y60373D01*
X118114Y59374D01*
X118133Y58376D01*
X118168Y57377D01*
X118220Y56380D01*
X118288Y55383D01*
X118372Y54388D01*
X118473Y53394D01*
X118590Y52402D01*
X118723Y51412D01*
X118872Y50424D01*
X119038Y49439D01*
X119219Y48457D01*
X119417Y47478D01*
X119630Y46502D01*
X119860Y45530D01*
X120105Y44561D01*
X120366Y43597D01*
X120643Y42638D01*
X120936Y41683D01*
X121244Y40732D01*
X121567Y39787D01*
X121907Y38848D01*
X122261Y37914D01*
X122631Y36986D01*
X123015Y36064D01*
X123415Y35149D01*
X123830Y34240D01*
X124260Y33338D01*
X124704Y32444D01*
X125163Y31556D01*
X125636Y30677D01*
X126124Y29805D01*
X126625Y28941D01*
X127141Y28086D01*
X127671Y27239D01*
X128215Y26401D01*
X128772Y25572D01*
X129343Y24752D01*
X129927Y23942D01*
X130524Y23141D01*
X131134Y22351D01*
X131757Y21570D01*
X132393Y20799D01*
X133042Y20040D01*
X133702Y19290D01*
X134375Y18552D01*
X135060Y17825D01*
X135757Y17109D01*
X136465Y16405D01*
X137185Y15712D01*
X137916Y15031D01*
X138657Y14362D01*
X139410Y13706D01*
X140174Y13062D01*
X140948Y12430D01*
X141732Y11811D01*
X11811Y0D02*
X11771Y975D01*
X11650Y1944D01*
X11450Y2899D01*
X11171Y3835D01*
X10816Y4744D01*
X10387Y5621D01*
X9888Y6460D01*
X9321Y7254D01*
X8690Y7999D01*
X7999Y8690D01*
X7254Y9321D01*
X6460Y9888D01*
X5621Y10387D01*
X4744Y10816D01*
X3835Y11171D01*
X2899Y11450D01*
X1944Y11650D01*
X975Y11771D01*
X0Y11811D01*
Y100394D01*
X11811Y112205D02*
X126969D01*
Y91710D02*
Y112205D01*
X141732Y0D02*
Y11811D01*
X11811Y0D02*
X141732D01*
M02*
