G04*
G04 #@! TF.GenerationSoftware,Altium Limited,Altium Designer,22.10.1 (41)*
G04*
G04 Layer_Color=128*
%FSLAX25Y25*%
%MOIN*%
G70*
G04*
G04 #@! TF.SameCoordinates,84BF85B8-C2DE-4563-98F9-37A291DCC650*
G04*
G04*
G04 #@! TF.FilePolarity,Positive*
G04*
G01*
G75*
%ADD94C,0.00200*%
D94*
X107598Y99488D02*
X111142D01*
X109370Y97716D02*
Y101260D01*
X97756Y99488D02*
X101299D01*
X99528Y97716D02*
Y101260D01*
X40630Y9488D02*
X42598D01*
X41614Y8504D02*
Y10472D01*
X45551Y9488D02*
X47520D01*
X46535Y8504D02*
Y10472D01*
X50472Y9488D02*
X52441D01*
X51457Y8504D02*
Y10472D01*
X65236Y9488D02*
X67205D01*
X66220Y8504D02*
Y10472D01*
X55394Y9488D02*
X57362D01*
X56378Y8504D02*
Y10472D01*
X60315Y9488D02*
X62283D01*
X61299Y8504D02*
Y10472D01*
X16654Y39783D02*
X19016D01*
X17835Y38602D02*
Y40965D01*
X16654Y34784D02*
X19016D01*
X17835Y33602D02*
Y35965D01*
X11654Y39783D02*
X14017D01*
X12835Y38602D02*
Y40965D01*
X11654Y34784D02*
X14017D01*
X12835Y33602D02*
Y35965D01*
X6654Y34784D02*
X9016D01*
X7835Y33602D02*
Y35965D01*
X6654Y39783D02*
X9016D01*
X7835Y38602D02*
Y40965D01*
X79567Y103622D02*
X82717D01*
X81142Y102047D02*
Y105197D01*
X63819Y103622D02*
X66969D01*
X65394Y102047D02*
Y105197D01*
X55945Y103622D02*
X59095D01*
X57520Y102047D02*
Y105197D01*
X48071Y103622D02*
X51221D01*
X49646Y102047D02*
Y105197D01*
X40197Y103622D02*
X43346D01*
X41772Y102047D02*
Y105197D01*
X71693Y103622D02*
X74843D01*
X73268Y102047D02*
Y105197D01*
X92953Y10315D02*
X96496D01*
X94724Y8543D02*
Y12087D01*
X102795Y10315D02*
X106339D01*
X104567Y8543D02*
Y12087D01*
X112638Y10315D02*
X116181D01*
X114409Y8543D02*
Y12087D01*
X76496Y33559D02*
X77284D01*
X76890Y33166D02*
Y33953D01*
X76496Y37103D02*
X77284D01*
X76890Y36709D02*
Y37497D01*
X76496Y40646D02*
X77284D01*
X76890Y40252D02*
Y41040D01*
X76496Y44189D02*
X77284D01*
X76890Y43796D02*
Y44583D01*
X80039Y44189D02*
X80827D01*
X80433Y43796D02*
Y44583D01*
X83583Y44189D02*
X84370D01*
X83976Y43796D02*
Y44583D01*
X87126Y44189D02*
X87913D01*
X87520Y43796D02*
Y44583D01*
X80039Y40646D02*
X80827D01*
X80433Y40252D02*
Y41040D01*
X80039Y37103D02*
X80827D01*
X80433Y36709D02*
Y37497D01*
X80039Y33559D02*
X80827D01*
X80433Y33166D02*
Y33953D01*
X83583Y40646D02*
X84370D01*
X83976Y40252D02*
Y41040D01*
X83583Y37103D02*
X84370D01*
X83976Y36709D02*
Y37497D01*
X83583Y33559D02*
X84370D01*
X83976Y33166D02*
Y33953D01*
X87126Y40646D02*
X87913D01*
X87520Y40252D02*
Y41040D01*
X87126Y37103D02*
X87913D01*
X87520Y36709D02*
Y37497D01*
X87126Y33559D02*
X87913D01*
X87520Y33166D02*
Y33953D01*
X94866Y73440D02*
X95653D01*
X95260Y73047D02*
Y73834D01*
X98047Y70260D02*
X98834D01*
X98440Y69866D02*
Y70653D01*
X94866Y70260D02*
X95653D01*
X95260Y69866D02*
Y70653D01*
X33466Y23660D02*
X34253D01*
X33860Y23266D02*
Y24054D01*
X39666Y23660D02*
X40453D01*
X40060Y23266D02*
Y24054D01*
X36566Y23660D02*
X37354D01*
X36960Y23266D02*
Y24054D01*
X49366Y24060D02*
X50153D01*
X49760Y23666D02*
Y24453D01*
X45366Y24060D02*
X46154D01*
X45760Y23666D02*
Y24453D01*
X68566Y5160D02*
X69353D01*
X68960Y4766D02*
Y5553D01*
X65466Y5160D02*
X66254D01*
X65860Y4766D02*
Y5553D01*
X63966Y3260D02*
X64754D01*
X64360Y2866D02*
Y3653D01*
X67066Y3260D02*
X67853D01*
X67460Y2866D02*
Y3653D01*
X70166Y3260D02*
X70954D01*
X70560Y2866D02*
Y3653D01*
X73266Y3260D02*
X74054D01*
X73660Y2866D02*
Y3653D01*
X47966Y96060D02*
X48753D01*
X48360Y95666D02*
Y96453D01*
X51066Y96060D02*
X51854D01*
X51460Y95666D02*
Y96453D01*
X16466Y3960D02*
X17254D01*
X16860Y3566D02*
Y4354D01*
X16466Y7060D02*
X17254D01*
X16860Y6666D02*
Y7453D01*
X13766Y5560D02*
X14554D01*
X14160Y5166D02*
Y5954D01*
X13766Y8660D02*
X14554D01*
X14160Y8266D02*
Y9053D01*
X16466Y10160D02*
X17254D01*
X16860Y9766D02*
Y10554D01*
X6766Y23517D02*
X7553D01*
X7160Y23124D02*
Y23911D01*
X6766Y20560D02*
X7553D01*
X7160Y20166D02*
Y20954D01*
X11866Y49360D02*
X12653D01*
X12260Y48966D02*
Y49753D01*
X14966Y49360D02*
X15754D01*
X15360Y48966D02*
Y49753D01*
X19866Y58360D02*
X20653D01*
X20260Y57966D02*
Y58754D01*
X19866Y55260D02*
X20653D01*
X20260Y54866D02*
Y55654D01*
X22766Y56960D02*
X23553D01*
X23160Y56566D02*
Y57354D01*
X22766Y60060D02*
X23553D01*
X23160Y59666D02*
Y60453D01*
X18007Y77743D02*
X18794D01*
X18400Y77349D02*
Y78136D01*
X14907Y77743D02*
X15694D01*
X15300Y77349D02*
Y78136D01*
X11806Y77743D02*
X12594D01*
X12200Y77349D02*
Y78136D01*
X25069Y85669D02*
X26269D01*
X25669Y85069D02*
Y86269D01*
X31066Y95860D02*
X31854D01*
X31460Y95466D02*
Y96254D01*
X12966Y102060D02*
X13754D01*
X13360Y101666D02*
Y102453D01*
X16066Y102060D02*
X16853D01*
X16460Y101666D02*
Y102453D01*
X16066Y105160D02*
X16853D01*
X16460Y104766D02*
Y105553D01*
X16066Y108260D02*
X16853D01*
X16460Y107866D02*
Y108653D01*
X36366Y95860D02*
X37154D01*
X36760Y95466D02*
Y96254D01*
X36366Y98960D02*
X37154D01*
X36760Y98566D02*
Y99353D01*
X36366Y102060D02*
X37154D01*
X36760Y101666D02*
Y102453D01*
X36366Y108260D02*
X37154D01*
X36760Y107866D02*
Y108653D01*
X36366Y105160D02*
X37154D01*
X36760Y104766D02*
Y105553D01*
X95460Y34198D02*
X96247D01*
X95854Y33805D02*
Y34592D01*
X84416Y76760D02*
X85204D01*
X84810Y76366D02*
Y77153D01*
X107266Y94160D02*
X108054D01*
X107660Y93766D02*
Y94554D01*
X111266Y94160D02*
X112054D01*
X111660Y93766D02*
Y94554D01*
X115266Y96660D02*
X116053D01*
X115660Y96266D02*
Y97053D01*
X115266Y100660D02*
X116053D01*
X115660Y100266D02*
Y101054D01*
X115266Y104660D02*
X116053D01*
X115660Y104266D02*
Y105053D01*
X111266Y104660D02*
X112054D01*
X111660Y104266D02*
Y105053D01*
X107266Y104660D02*
X108054D01*
X107660Y104266D02*
Y105053D01*
X123066Y94360D02*
X123854D01*
X123460Y93966D02*
Y94753D01*
X120566Y96660D02*
X121353D01*
X120960Y96266D02*
Y97053D01*
X120566Y100660D02*
X121353D01*
X120960Y100266D02*
Y101054D01*
X120566Y104660D02*
X121353D01*
X120960Y104266D02*
Y105053D01*
X120566Y108660D02*
X121353D01*
X120960Y108266D02*
Y109054D01*
X115266Y108660D02*
X116053D01*
X115660Y108266D02*
Y109054D01*
X107266Y108660D02*
X108054D01*
X107660Y108266D02*
Y109054D01*
X111266Y108660D02*
X112054D01*
X111660Y108266D02*
Y109054D01*
X97166Y94060D02*
X97953D01*
X97560Y93666D02*
Y94454D01*
X100766Y94060D02*
X101553D01*
X101160Y93666D02*
Y94454D01*
X93866Y96760D02*
X94653D01*
X94260Y96366D02*
Y97154D01*
X90766Y96760D02*
X91553D01*
X91160Y96366D02*
Y97154D01*
X90766Y100760D02*
X91553D01*
X91160Y100366D02*
Y101154D01*
X90766Y104760D02*
X91553D01*
X91160Y104366D02*
Y105154D01*
X90766Y108760D02*
X91553D01*
X91160Y108366D02*
Y109153D01*
X93866Y100760D02*
X94653D01*
X94260Y100366D02*
Y101154D01*
X93866Y104760D02*
X94653D01*
X94260Y104366D02*
Y105154D01*
X97366Y104760D02*
X98154D01*
X97760Y104366D02*
Y105154D01*
X101366Y104760D02*
X102154D01*
X101760Y104366D02*
Y105154D01*
X93866Y108760D02*
X94653D01*
X94260Y108366D02*
Y109153D01*
X101366Y108760D02*
X102154D01*
X101760Y108366D02*
Y109153D01*
X97366Y108760D02*
X98154D01*
X97760Y108366D02*
Y109153D01*
X69566Y48160D02*
X70354D01*
X69960Y47766D02*
Y48553D01*
X82866Y6860D02*
X83653D01*
X83260Y6466D02*
Y7254D01*
X82866Y10060D02*
X83653D01*
X83260Y9666D02*
Y10453D01*
X82866Y13260D02*
X83653D01*
X83260Y12866D02*
Y13654D01*
X82866Y16460D02*
X83653D01*
X83260Y16066D02*
Y16853D01*
X82866Y19660D02*
X83653D01*
X83260Y19266D02*
Y20053D01*
X70208Y26177D02*
X70996D01*
X70602Y25783D02*
Y26570D01*
X71366Y20060D02*
X72154D01*
X71760Y19666D02*
Y20453D01*
X71366Y16360D02*
X72154D01*
X71760Y15966D02*
Y16754D01*
X89066Y5760D02*
X89854D01*
X89460Y5366D02*
Y6154D01*
X89066Y9760D02*
X89854D01*
X89460Y9366D02*
Y10153D01*
X89066Y13760D02*
X89854D01*
X89460Y13366D02*
Y14153D01*
X89066Y21760D02*
X89854D01*
X89460Y21366D02*
Y22153D01*
X93066Y21760D02*
X93853D01*
X93460Y21366D02*
Y22153D01*
X97066Y21760D02*
X97853D01*
X97460Y21366D02*
Y22153D01*
X89066Y17760D02*
X89854D01*
X89460Y17366D02*
Y18154D01*
X93066Y17760D02*
X93853D01*
X93460Y17366D02*
Y18154D01*
X97066Y17760D02*
X97853D01*
X97460Y17366D02*
Y18154D01*
X73366Y53260D02*
X74154D01*
X73760Y52866D02*
Y53654D01*
X76966Y53260D02*
X77754D01*
X77360Y52866D02*
Y53654D01*
X102366Y17660D02*
X103154D01*
X102760Y17266D02*
Y18054D01*
X106366Y17660D02*
X107153D01*
X106760Y17266D02*
Y18054D01*
X106366Y21660D02*
X107153D01*
X106760Y21266D02*
Y22053D01*
X102366Y21660D02*
X103154D01*
X102760Y21266D02*
Y22053D01*
X110866Y33660D02*
X111653D01*
X111260Y33266D02*
Y34054D01*
X110366Y29660D02*
X111153D01*
X110760Y29266D02*
Y30053D01*
X110366Y25660D02*
X111153D01*
X110760Y25266D02*
Y26054D01*
X106366Y25660D02*
X107153D01*
X106760Y25266D02*
Y26054D01*
X102366Y25660D02*
X103154D01*
X102760Y25266D02*
Y26054D01*
X112366Y17960D02*
X113154D01*
X112760Y17566D02*
Y18353D01*
X116366Y17960D02*
X117154D01*
X116760Y17566D02*
Y18353D01*
X120366Y5560D02*
X121153D01*
X120760Y5166D02*
Y5954D01*
X120366Y9960D02*
X121153D01*
X120760Y9566D02*
Y10353D01*
X120366Y13960D02*
X121153D01*
X120760Y13566D02*
Y14354D01*
X120366Y17960D02*
X121153D01*
X120760Y17566D02*
Y18353D01*
X126366Y18160D02*
X127154D01*
X126760Y17766D02*
Y18553D01*
X126366Y22160D02*
X127154D01*
X126760Y21766D02*
Y22554D01*
X123366Y25260D02*
X124153D01*
X123760Y24866D02*
Y25653D01*
X120366Y21760D02*
X121153D01*
X120760Y21366D02*
Y22153D01*
X116366Y21760D02*
X117154D01*
X116760Y21366D02*
Y22153D01*
X119366Y25260D02*
X120153D01*
X119760Y24866D02*
Y25653D01*
X115366Y25260D02*
X116154D01*
X115760Y24866D02*
Y25653D01*
X119366Y29760D02*
X120153D01*
X119760Y29366D02*
Y30154D01*
X115366Y29760D02*
X116154D01*
X115760Y29366D02*
Y30154D01*
X119366Y33760D02*
X120153D01*
X119760Y33366D02*
Y34154D01*
X115366Y33760D02*
X116154D01*
X115760Y33366D02*
Y34154D01*
X80266Y59760D02*
X81054D01*
X80660Y59366D02*
Y60154D01*
X80266Y63760D02*
X81054D01*
X80660Y63366D02*
Y64153D01*
X95866Y49460D02*
X96653D01*
X96260Y49066D02*
Y49854D01*
X100866Y49460D02*
X101654D01*
X101260Y49066D02*
Y49854D01*
X95866Y45460D02*
X96653D01*
X96260Y45066D02*
Y45853D01*
X100866Y45460D02*
X101654D01*
X101260Y45066D02*
Y45853D01*
X84416Y73579D02*
X85204D01*
X84810Y73186D02*
Y73973D01*
X29048Y57741D02*
X29835D01*
X29442Y57348D02*
Y58135D01*
X59915Y78924D02*
X60703D01*
X60309Y78531D02*
Y79318D01*
X76535Y78465D02*
X77323D01*
X76929Y78071D02*
Y78858D01*
X56519Y52502D02*
X57306D01*
X56913Y52108D02*
Y52895D01*
X42661Y29978D02*
X43449D01*
X43055Y29584D02*
Y30371D01*
X19680Y64656D02*
X20468D01*
X20074Y64263D02*
Y65050D01*
X22290Y67025D02*
X23078D01*
X22684Y66631D02*
Y67418D01*
X58356Y60000D02*
X59143D01*
X58749Y59606D02*
Y60393D01*
X31435Y55586D02*
X32223D01*
X31829Y55192D02*
Y55979D01*
X59894Y19006D02*
X60681D01*
X60287Y18612D02*
Y19400D01*
X66039Y33260D02*
X66827D01*
X66433Y32866D02*
Y33654D01*
X64249Y71468D02*
X65037D01*
X64643Y71074D02*
Y71861D01*
X59888Y39940D02*
X60676D01*
X60282Y39546D02*
Y40334D01*
X83888Y52492D02*
X84676D01*
X84282Y52098D02*
Y52886D01*
X95591Y38858D02*
X96378D01*
X95984Y38465D02*
Y39252D01*
X62559Y38819D02*
X63346D01*
X62953Y38425D02*
Y39213D01*
M02*
