G04*
G04 #@! TF.GenerationSoftware,Altium Limited,Altium Designer,22.10.1 (41)*
G04*
G04 Layer_Color=8388736*
%FSLAX25Y25*%
%MOIN*%
G70*
G04*
G04 #@! TF.SameCoordinates,423579F9-A912-4673-8900-DDE07351D98F*
G04*
G04*
G04 #@! TF.FilePolarity,Negative*
G04*
G01*
G75*
%ADD34R,0.14351X0.14351*%
%ADD35R,0.03532X0.01354*%
%ADD36R,0.01354X0.03532*%
%ADD37R,0.03162X0.03162*%
%ADD38R,0.05131X0.03162*%
%ADD39R,0.03162X0.02769*%
%ADD40R,0.03950X0.04343*%
G04:AMPARAMS|DCode=41|XSize=17.32mil|YSize=51.51mil|CornerRadius=0mil|HoleSize=0mil|Usage=FLASHONLY|Rotation=225.000|XOffset=0mil|YOffset=0mil|HoleType=Round|Shape=Rectangle|*
%AMROTATEDRECTD41*
4,1,4,-0.01209,0.02434,0.02434,-0.01209,0.01209,-0.02434,-0.02434,0.01209,-0.01209,0.02434,0.0*
%
%ADD41ROTATEDRECTD41*%

G04:AMPARAMS|DCode=42|XSize=17.32mil|YSize=51.51mil|CornerRadius=0mil|HoleSize=0mil|Usage=FLASHONLY|Rotation=135.000|XOffset=0mil|YOffset=0mil|HoleType=Round|Shape=Rectangle|*
%AMROTATEDRECTD42*
4,1,4,0.02434,0.01209,-0.01209,-0.02434,-0.02434,-0.01209,0.01209,0.02434,0.02434,0.01209,0.0*
%
%ADD42ROTATEDRECTD42*%

%ADD43R,0.04343X0.03950*%
%ADD44R,0.02769X0.03162*%
%ADD45R,0.13398X0.07099*%
%ADD46R,0.06706X0.02965*%
%ADD47R,0.03162X0.03162*%
%ADD48P,0.04472X4X180.0*%
G04:AMPARAMS|DCode=49|XSize=27.69mil|YSize=31.62mil|CornerRadius=0mil|HoleSize=0mil|Usage=FLASHONLY|Rotation=315.000|XOffset=0mil|YOffset=0mil|HoleType=Round|Shape=Rectangle|*
%AMROTATEDRECTD49*
4,1,4,-0.02097,-0.00139,0.00139,0.02097,0.02097,0.00139,-0.00139,-0.02097,-0.02097,-0.00139,0.0*
%
%ADD49ROTATEDRECTD49*%

%ADD50R,0.03359X0.04737*%
%ADD51C,0.07887*%
%ADD52C,0.03947*%
%ADD53R,0.03947X0.03947*%
%ADD54C,0.04737*%
%ADD55R,0.04737X0.04737*%
%ADD56R,0.06706X0.10642*%
G04:AMPARAMS|DCode=57|XSize=106.42mil|YSize=67.06mil|CornerRadius=0mil|HoleSize=0mil|Usage=FLASHONLY|Rotation=90.000|XOffset=0mil|YOffset=0mil|HoleType=Round|Shape=Octagon|*
%AMOCTAGOND57*
4,1,8,0.01676,0.05321,-0.01676,0.05321,-0.03353,0.03645,-0.03353,-0.03645,-0.01676,-0.05321,0.01676,-0.05321,0.03353,-0.03645,0.03353,0.03645,0.01676,0.05321,0.0*
%
%ADD57OCTAGOND57*%

%ADD58R,0.07887X0.12611*%
G04:AMPARAMS|DCode=59|XSize=126.11mil|YSize=78.87mil|CornerRadius=21.72mil|HoleSize=0mil|Usage=FLASHONLY|Rotation=270.000|XOffset=0mil|YOffset=0mil|HoleType=Round|Shape=RoundedRectangle|*
%AMROUNDEDRECTD59*
21,1,0.12611,0.03543,0,0,270.0*
21,1,0.08268,0.07887,0,0,270.0*
1,1,0.04343,-0.01772,-0.04134*
1,1,0.04343,-0.01772,0.04134*
1,1,0.04343,0.01772,0.04134*
1,1,0.04343,0.01772,-0.04134*
%
%ADD59ROUNDEDRECTD59*%
%ADD60C,0.02572*%
D34*
X82205Y38874D02*
D03*
D35*
X91945Y45961D02*
D03*
Y44386D02*
D03*
Y42811D02*
D03*
Y41237D02*
D03*
Y39662D02*
D03*
Y38087D02*
D03*
Y36512D02*
D03*
Y34937D02*
D03*
Y33363D02*
D03*
Y31788D02*
D03*
X72464D02*
D03*
Y33363D02*
D03*
Y34937D02*
D03*
Y36512D02*
D03*
Y38087D02*
D03*
Y39662D02*
D03*
Y41237D02*
D03*
Y42811D02*
D03*
Y44386D02*
D03*
Y45961D02*
D03*
D36*
X89291Y29134D02*
D03*
X87717D02*
D03*
X86142D02*
D03*
X84567D02*
D03*
X82992D02*
D03*
X81417D02*
D03*
X79843D02*
D03*
X78268D02*
D03*
X76693D02*
D03*
X75118D02*
D03*
Y48615D02*
D03*
X76693D02*
D03*
X78268D02*
D03*
X79843D02*
D03*
X81417D02*
D03*
X82992D02*
D03*
X84567D02*
D03*
X86142D02*
D03*
X87717D02*
D03*
X89291D02*
D03*
D37*
X52992Y90079D02*
D03*
X56929D02*
D03*
X78110D02*
D03*
X82047D02*
D03*
X73347D02*
D03*
X69409D02*
D03*
X64803D02*
D03*
X60866D02*
D03*
X4646Y97474D02*
D03*
X8583D02*
D03*
X12520Y13780D02*
D03*
X8583D02*
D03*
X12520Y26890D02*
D03*
X8583D02*
D03*
X99646Y61024D02*
D03*
X95709D02*
D03*
D38*
X66732Y19055D02*
D03*
Y26535D02*
D03*
X56496Y19055D02*
D03*
Y22795D02*
D03*
Y26535D02*
D03*
D39*
X78863Y69522D02*
D03*
X74926D02*
D03*
X25709Y81653D02*
D03*
X29646D02*
D03*
X75512Y6102D02*
D03*
X79449D02*
D03*
X4528Y77913D02*
D03*
X8465D02*
D03*
D40*
X82559Y23661D02*
D03*
X77047D02*
D03*
X12559Y17992D02*
D03*
X18465D02*
D03*
Y22716D02*
D03*
X12559D02*
D03*
X103661Y61024D02*
D03*
X109567D02*
D03*
D41*
X41877Y77436D02*
D03*
X40485Y76044D02*
D03*
X39093Y74652D02*
D03*
X37701Y73260D02*
D03*
X36309Y71868D02*
D03*
X34917Y70477D02*
D03*
X33525Y69085D02*
D03*
X32133Y67693D02*
D03*
X30741Y66301D02*
D03*
X29349Y64909D02*
D03*
X27957Y63517D02*
D03*
X26566Y62125D02*
D03*
X49759Y38932D02*
D03*
X51151Y40324D02*
D03*
X52543Y41716D02*
D03*
X53934Y43108D02*
D03*
X55326Y44500D02*
D03*
X56718Y45891D02*
D03*
X58110Y47284D02*
D03*
X59502Y48675D02*
D03*
X60894Y50067D02*
D03*
X62286Y51459D02*
D03*
X63678Y52851D02*
D03*
X65070Y54243D02*
D03*
D42*
X26566D02*
D03*
X27957Y52851D02*
D03*
X29349Y51459D02*
D03*
X30741Y50067D02*
D03*
X32133Y48675D02*
D03*
X33525Y47284D02*
D03*
X34917Y45891D02*
D03*
X36309Y44500D02*
D03*
X37701Y43108D02*
D03*
X39093Y41716D02*
D03*
X40485Y40324D02*
D03*
X41877Y38932D02*
D03*
X65070Y62125D02*
D03*
X63678Y63517D02*
D03*
X62286Y64909D02*
D03*
X60894Y66301D02*
D03*
X59502Y67693D02*
D03*
X58110Y69085D02*
D03*
X56718Y70477D02*
D03*
X55326Y71868D02*
D03*
X53934Y73260D02*
D03*
X52543Y74652D02*
D03*
X51151Y76044D02*
D03*
X49759Y77436D02*
D03*
D43*
X21142Y88504D02*
D03*
Y94016D02*
D03*
X104685Y30984D02*
D03*
Y36496D02*
D03*
X99764Y30984D02*
D03*
Y36496D02*
D03*
X21142Y78622D02*
D03*
Y84134D02*
D03*
D44*
X105866Y42874D02*
D03*
Y46811D02*
D03*
X15905Y53031D02*
D03*
Y56968D02*
D03*
X25709Y74094D02*
D03*
Y78031D02*
D03*
X79527Y9606D02*
D03*
Y13543D02*
D03*
X17165Y88622D02*
D03*
Y92559D02*
D03*
X28976Y77992D02*
D03*
Y74055D02*
D03*
X17165Y79803D02*
D03*
Y83740D02*
D03*
D45*
X111181Y77716D02*
D03*
X91496D02*
D03*
D46*
X9488Y52992D02*
D03*
Y65787D02*
D03*
D47*
X36102Y33937D02*
D03*
Y30000D02*
D03*
X39646D02*
D03*
Y33937D02*
D03*
X75630Y9606D02*
D03*
Y13543D02*
D03*
D48*
X65290Y77967D02*
D03*
X62506Y75183D02*
D03*
D49*
X33923Y79396D02*
D03*
X36707Y82179D02*
D03*
D50*
X12165Y82795D02*
D03*
X4685D02*
D03*
X4685Y93032D02*
D03*
X12165D02*
D03*
X8425D02*
D03*
D51*
X109370Y99488D02*
D03*
X99528D02*
D03*
D52*
X41614Y9488D02*
D03*
X46535D02*
D03*
X51457D02*
D03*
X56378D02*
D03*
X61299D02*
D03*
D53*
X66220D02*
D03*
D54*
X17835Y39783D02*
D03*
Y34784D02*
D03*
X12835Y39783D02*
D03*
Y34784D02*
D03*
X7835Y39783D02*
D03*
D55*
Y34784D02*
D03*
D56*
X81142Y103622D02*
D03*
X65394D02*
D03*
X57520D02*
D03*
X49646D02*
D03*
X73268D02*
D03*
D57*
X41772D02*
D03*
D58*
X94724Y10315D02*
D03*
X104567D02*
D03*
D59*
X114409D02*
D03*
D60*
X76890Y33559D02*
D03*
Y37103D02*
D03*
Y40646D02*
D03*
X76890Y44189D02*
D03*
X80433D02*
D03*
X83976D02*
D03*
X87520D02*
D03*
X80433Y40646D02*
D03*
Y37103D02*
D03*
Y33559D02*
D03*
X83976Y40646D02*
D03*
Y37103D02*
D03*
Y33559D02*
D03*
X87520Y40646D02*
D03*
Y37103D02*
D03*
Y33559D02*
D03*
M02*
