G04*
G04 #@! TF.GenerationSoftware,Altium Limited,Altium Designer,22.10.1 (41)*
G04*
G04 Layer_Color=255*
%FSLAX25Y25*%
%MOIN*%
G70*
G04*
G04 #@! TF.SameCoordinates,423579F9-A912-4673-8900-DDE07351D98F*
G04*
G04*
G04 #@! TF.FilePolarity,Positive*
G04*
G01*
G75*
%ADD20R,0.02362X0.02362*%
%ADD21R,0.04331X0.02362*%
%ADD22R,0.02362X0.01968*%
%ADD23R,0.03150X0.03543*%
%ADD27R,0.01968X0.02362*%
%ADD30R,0.02362X0.02362*%
%ADD67C,0.07087*%
%ADD68C,0.03347*%
%ADD69R,0.03347X0.03347*%
%ADD70C,0.03937*%
%ADD71R,0.03937X0.03937*%
%ADD72R,0.05906X0.09843*%
G04:AMPARAMS|DCode=73|XSize=98.43mil|YSize=59.06mil|CornerRadius=0mil|HoleSize=0mil|Usage=FLASHONLY|Rotation=90.000|XOffset=0mil|YOffset=0mil|HoleType=Round|Shape=Octagon|*
%AMOCTAGOND73*
4,1,8,0.01476,0.04921,-0.01476,0.04921,-0.02953,0.03445,-0.02953,-0.03445,-0.01476,-0.04921,0.01476,-0.04921,0.02953,-0.03445,0.02953,0.03445,0.01476,0.04921,0.0*
%
%ADD73OCTAGOND73*%

%ADD74R,0.07087X0.11811*%
G04:AMPARAMS|DCode=75|XSize=118.11mil|YSize=70.87mil|CornerRadius=17.72mil|HoleSize=0mil|Usage=FLASHONLY|Rotation=270.000|XOffset=0mil|YOffset=0mil|HoleType=Round|Shape=RoundedRectangle|*
%AMROUNDEDRECTD75*
21,1,0.11811,0.03543,0,0,270.0*
21,1,0.08268,0.07087,0,0,270.0*
1,1,0.03543,-0.01772,-0.04134*
1,1,0.03543,-0.01772,0.04134*
1,1,0.03543,0.01772,0.04134*
1,1,0.03543,0.01772,-0.04134*
%
%ADD75ROUNDEDRECTD75*%
%ADD78R,0.03937X0.05118*%
%ADD79R,0.02000X0.05000*%
%ADD80C,0.03500*%
%ADD81R,0.02362X0.04331*%
%ADD82R,0.05118X0.03937*%
%ADD83R,0.05000X0.02000*%
G04:AMPARAMS|DCode=84|XSize=57.09mil|YSize=25.59mil|CornerRadius=6.4mil|HoleSize=0mil|Usage=FLASHONLY|Rotation=270.000|XOffset=0mil|YOffset=0mil|HoleType=Round|Shape=RoundedRectangle|*
%AMROUNDEDRECTD84*
21,1,0.05709,0.01280,0,0,270.0*
21,1,0.04429,0.02559,0,0,270.0*
1,1,0.01280,-0.00640,-0.02215*
1,1,0.01280,-0.00640,0.02215*
1,1,0.01280,0.00640,0.02215*
1,1,0.01280,0.00640,-0.02215*
%
%ADD84ROUNDEDRECTD84*%
D20*
X62913Y35394D02*
D03*
X58976D02*
D03*
X51417D02*
D03*
X55354D02*
D03*
X13410Y27165D02*
D03*
X17347D02*
D03*
D21*
X79803Y74094D02*
D03*
Y70354D02*
D03*
Y66614D02*
D03*
X69567Y74094D02*
D03*
Y66614D02*
D03*
D22*
X55354Y31969D02*
D03*
X51417D02*
D03*
X69606Y78425D02*
D03*
X73543D02*
D03*
X73453Y62323D02*
D03*
X69516D02*
D03*
X93425Y29173D02*
D03*
X97362D02*
D03*
X47362Y39409D02*
D03*
X43425D02*
D03*
D23*
X61693Y5000D02*
D03*
X56181D02*
D03*
D27*
X112795Y63858D02*
D03*
Y59921D02*
D03*
X96575Y56732D02*
D03*
Y60669D02*
D03*
D30*
X71063Y9488D02*
D03*
Y13425D02*
D03*
X39843Y20669D02*
D03*
Y16732D02*
D03*
X52756Y76772D02*
D03*
Y72835D02*
D03*
X43386Y16732D02*
D03*
Y20669D02*
D03*
X36399Y16732D02*
D03*
Y20669D02*
D03*
X46929Y16732D02*
D03*
Y20669D02*
D03*
X51575Y16732D02*
D03*
Y20669D02*
D03*
X32856Y16732D02*
D03*
Y20669D02*
D03*
X47638Y72835D02*
D03*
Y76772D02*
D03*
X42913Y72835D02*
D03*
Y76772D02*
D03*
D67*
X109370Y99488D02*
D03*
X99528D02*
D03*
D68*
X41614Y9488D02*
D03*
X46535D02*
D03*
X51457D02*
D03*
X56378D02*
D03*
X61299D02*
D03*
D69*
X66220D02*
D03*
D70*
X17835Y39783D02*
D03*
Y34784D02*
D03*
X12835Y39783D02*
D03*
Y34784D02*
D03*
X7835Y39783D02*
D03*
D71*
Y34784D02*
D03*
D72*
X81142Y103622D02*
D03*
X65394D02*
D03*
X57520D02*
D03*
X49646D02*
D03*
X73268D02*
D03*
D73*
X41772D02*
D03*
D74*
X94724Y10315D02*
D03*
X104567D02*
D03*
D75*
X114409D02*
D03*
D78*
X74980Y57520D02*
D03*
X68681D02*
D03*
D79*
X79177Y5079D02*
D03*
X76177D02*
D03*
D80*
X60903Y30741D02*
D03*
D81*
X100945Y63898D02*
D03*
X108425D02*
D03*
X100945Y53661D02*
D03*
X104685D02*
D03*
X108425D02*
D03*
D82*
X91772Y62520D02*
D03*
Y56221D02*
D03*
D83*
X119860Y90360D02*
D03*
Y93360D02*
D03*
D84*
X52776Y44980D02*
D03*
X47776D02*
D03*
X37776D02*
D03*
X52776Y67224D02*
D03*
X47776D02*
D03*
X42776D02*
D03*
X37776D02*
D03*
X42776Y44980D02*
D03*
M02*
