G04*
G04 #@! TF.GenerationSoftware,Altium Limited,Altium Designer,22.10.1 (41)*
G04*
G04 Layer_Color=16711935*
%FSLAX25Y25*%
%MOIN*%
G70*
G04*
G04 #@! TF.SameCoordinates,84BF85B8-C2DE-4563-98F9-37A291DCC650*
G04*
G04*
G04 #@! TF.FilePolarity,Positive*
G04*
G01*
G75*
%ADD11C,0.00500*%
%ADD13C,0.00394*%
%ADD15C,0.00197*%
%ADD93C,0.00100*%
%ADD94C,0.00200*%
%ADD95C,0.00300*%
D11*
X64761Y28192D02*
X64463Y28488D01*
X58759D02*
X58461Y28192D01*
X64463Y16988D02*
X64761Y17284D01*
X58461D02*
X58759Y16988D01*
X77540Y64547D02*
X77838Y64843D01*
X71538D02*
X71836Y64547D01*
X77838Y75751D02*
X77540Y76047D01*
X71836D02*
X71538Y75751D01*
X110378Y61629D02*
X110082Y61927D01*
Y55627D02*
X110378Y55925D01*
X99173Y61927D02*
X98878Y61629D01*
Y55925D02*
X99173Y55627D01*
X66329Y27275D02*
X67211D01*
Y25700D02*
Y27275D01*
X64761Y25700D02*
Y27275D01*
X64895D01*
X64761Y25700D02*
X64895D01*
X65894D01*
X65958Y27275D02*
X66329D01*
X65894D02*
X65958D01*
Y25700D02*
X66329D01*
X65894D02*
X65958D01*
X66329D02*
X67211D01*
X64895Y27275D02*
X65894D01*
X66329Y19775D02*
X67211D01*
Y18200D02*
Y19775D01*
X64761Y18200D02*
Y19775D01*
X64895D01*
X64761Y18200D02*
X64895D01*
X65894D01*
X65958Y19775D02*
X66329D01*
X65894D02*
X65958D01*
Y18200D02*
X66329D01*
X65894D02*
X65958D01*
X66329D02*
X67211D01*
X64895Y19775D02*
X65894D01*
X56011Y25700D02*
X56893D01*
X56011D02*
Y27275D01*
X58461Y25700D02*
Y27275D01*
X58327Y25700D02*
X58461D01*
X58327Y27275D02*
X58461D01*
X57328D02*
X58327D01*
X56893Y25700D02*
X57265D01*
X57328D01*
X56893Y27275D02*
X57265D01*
X57328D01*
X56011D02*
X56893D01*
X57328Y25700D02*
X58327D01*
X56011Y21950D02*
X56893D01*
X56011D02*
Y23525D01*
X58461Y21950D02*
Y23525D01*
X58327Y21950D02*
X58461D01*
X58327Y23525D02*
X58461D01*
X57328D02*
X58327D01*
X56893Y21950D02*
X57265D01*
X57328D01*
X56893Y23525D02*
X57265D01*
X57328D01*
X56011D02*
X56893D01*
X57328Y21950D02*
X58327D01*
X56011Y18200D02*
X56893D01*
X56011D02*
Y19775D01*
X58461Y18200D02*
Y19775D01*
X58327Y18200D02*
X58461D01*
X58327Y19775D02*
X58461D01*
X57328D02*
X58327D01*
X56893Y18200D02*
X57265D01*
X57328D01*
X56893Y19775D02*
X57265D01*
X57328D01*
X56011D02*
X56893D01*
X57328Y18200D02*
X58327D01*
X64761Y17288D02*
Y28188D01*
X58761Y28488D02*
X64461D01*
X58461Y17288D02*
Y28188D01*
X58759Y16988D02*
X58761D01*
X64461Y28488D02*
X64463D01*
X58761Y16988D02*
X64461D01*
X64463D01*
X58759Y28488D02*
X58761D01*
X64761Y17284D02*
Y17288D01*
X58461Y28188D02*
Y28192D01*
Y17284D02*
Y17288D01*
X64761Y28188D02*
Y28192D01*
X35709Y1417D02*
X72126D01*
Y14016D01*
X35709D02*
X72126D01*
X35709Y1417D02*
Y14016D01*
X71538Y75747D02*
Y75751D01*
X77838Y64843D02*
Y64847D01*
Y75747D02*
Y75751D01*
X71538Y64843D02*
Y64847D01*
X77538Y76047D02*
X77540D01*
X71836Y64547D02*
X71838D01*
X77538D01*
X71836Y76047D02*
X71838D01*
X77538Y64547D02*
X77540D01*
X77838Y64847D02*
Y75747D01*
X71838Y76047D02*
X77538D01*
X71538Y64847D02*
Y75747D01*
X77972Y65759D02*
X78971D01*
X79406Y67334D02*
X80288D01*
X78971D02*
X79034D01*
X79406D01*
X78971Y65759D02*
X79034D01*
X79406D01*
X77972Y67334D02*
X78971D01*
X77838D02*
X77972D01*
X77838Y65759D02*
X77972D01*
X77838D02*
Y67334D01*
X80288Y65759D02*
Y67334D01*
X79406Y65759D02*
X80288D01*
X77972Y69509D02*
X78971D01*
X79406Y71084D02*
X80288D01*
X78971D02*
X79034D01*
X79406D01*
X78971Y69509D02*
X79034D01*
X79406D01*
X77972Y71084D02*
X78971D01*
X77838D02*
X77972D01*
X77838Y69509D02*
X77972D01*
X77838D02*
Y71084D01*
X80288Y69509D02*
Y71084D01*
X79406Y69509D02*
X80288D01*
X77972Y73259D02*
X78971D01*
X79406Y74834D02*
X80288D01*
X78971D02*
X79034D01*
X79406D01*
X78971Y73259D02*
X79034D01*
X79406D01*
X77972Y74834D02*
X78971D01*
X77838D02*
X77972D01*
X77838Y73259D02*
X77972D01*
X77838D02*
Y74834D01*
X80288Y73259D02*
Y74834D01*
X79406Y73259D02*
X80288D01*
X70405Y67334D02*
X71404D01*
X69088Y65759D02*
X69970D01*
X70341D02*
X70405D01*
X69970D02*
X70341D01*
Y67334D02*
X70405D01*
X69970D02*
X70341D01*
X70405Y65759D02*
X71404D01*
X71538D01*
X71404Y67334D02*
X71538D01*
Y65759D02*
Y67334D01*
X69088Y65759D02*
Y67334D01*
X69970D01*
X70405Y74834D02*
X71404D01*
X69088Y73259D02*
X69970D01*
X70341D02*
X70405D01*
X69970D02*
X70341D01*
Y74834D02*
X70405D01*
X69970D02*
X70341D01*
X70405Y73259D02*
X71404D01*
X71538D01*
X71404Y74834D02*
X71538D01*
Y73259D02*
Y74834D01*
X69088Y73259D02*
Y74834D01*
X69970D01*
X109165Y63495D02*
Y64377D01*
X107590D02*
X109165D01*
X107590Y61927D02*
X109165D01*
Y62061D01*
X107590Y61927D02*
Y62061D01*
Y63060D01*
X109165Y63123D02*
Y63495D01*
Y63060D02*
Y63123D01*
X107590D02*
Y63495D01*
Y63060D02*
Y63123D01*
Y63495D02*
Y64377D01*
X109165Y62061D02*
Y63060D01*
X101665Y63495D02*
Y64377D01*
X100090D02*
X101665D01*
X100090Y61927D02*
X101665D01*
Y62061D01*
X100090Y61927D02*
Y62061D01*
Y63060D01*
X101665Y63123D02*
Y63495D01*
Y63060D02*
Y63123D01*
X100090D02*
Y63495D01*
Y63060D02*
Y63123D01*
Y63495D02*
Y64377D01*
X101665Y62061D02*
Y63060D01*
X107590Y53177D02*
Y54059D01*
Y53177D02*
X109165D01*
X107590Y55627D02*
X109165D01*
X107590Y55493D02*
Y55627D01*
X109165Y55493D02*
Y55627D01*
Y54494D02*
Y55493D01*
X107590Y54059D02*
Y54430D01*
Y54494D01*
X109165Y54059D02*
Y54430D01*
Y54494D01*
Y53177D02*
Y54059D01*
X107590Y54494D02*
Y55493D01*
X103840Y53177D02*
Y54059D01*
Y53177D02*
X105415D01*
X103840Y55627D02*
X105415D01*
X103840Y55493D02*
Y55627D01*
X105415Y55493D02*
Y55627D01*
Y54494D02*
Y55493D01*
X103840Y54059D02*
Y54430D01*
Y54494D01*
X105415Y54059D02*
Y54430D01*
Y54494D01*
Y53177D02*
Y54059D01*
X103840Y54494D02*
Y55493D01*
X100090Y53177D02*
Y54059D01*
Y53177D02*
X101665D01*
X100090Y55627D02*
X101665D01*
X100090Y55493D02*
Y55627D01*
X101665Y55493D02*
Y55627D01*
Y54494D02*
Y55493D01*
X100090Y54059D02*
Y54430D01*
Y54494D01*
X101665Y54059D02*
Y54430D01*
Y54494D01*
Y53177D02*
Y54059D01*
X100090Y54494D02*
Y55493D01*
X99178Y61927D02*
X110078D01*
X110378Y55927D02*
Y61627D01*
X99178Y55627D02*
X110078D01*
X98878Y55925D02*
Y55927D01*
X110378Y61627D02*
Y61629D01*
X98878Y55927D02*
Y61627D01*
Y61629D01*
X110378Y55925D02*
Y55927D01*
X99173Y61927D02*
X99178D01*
X110078Y55627D02*
X110082D01*
X99173D02*
X99178D01*
X110078Y61927D02*
X110082D01*
D13*
X39370Y61535D02*
X38925Y62459D01*
X37926Y62687D01*
X37125Y62048D01*
Y61023D01*
X37926Y60384D01*
X38925Y60612D01*
X39370Y61535D01*
X76063Y54764D02*
Y60276D01*
X67598Y54764D02*
Y60276D01*
X76063D01*
X67598Y54764D02*
X76063D01*
X52795Y91260D02*
X57126D01*
X52795Y88898D02*
X57126D01*
X52795D02*
Y91260D01*
X57126Y88898D02*
Y91260D01*
X58780Y36575D02*
X63110D01*
X58780Y34213D02*
X63110D01*
Y36575D01*
X58780Y34213D02*
Y36575D01*
X55551Y30787D02*
Y33150D01*
X51221Y30787D02*
Y33150D01*
X55551D01*
X51221Y30787D02*
X55551D01*
X69410Y77244D02*
Y79606D01*
X73740Y77244D02*
Y79606D01*
X69410Y77244D02*
X73740D01*
X69410Y79606D02*
X73740D01*
X73650Y61142D02*
Y63504D01*
X69320Y61142D02*
Y63504D01*
X73650D01*
X69320Y61142D02*
X73650D01*
X79059Y68341D02*
Y70703D01*
X74729Y68341D02*
Y70703D01*
Y68341D02*
X79059D01*
X74729Y70703D02*
X79059D01*
X51221Y34213D02*
X55551D01*
X51221Y36575D02*
X55551D01*
X51221Y34213D02*
Y36575D01*
X55551Y34213D02*
Y36575D01*
X111614Y64055D02*
X113976D01*
X111614Y59724D02*
X113976D01*
X111614D02*
Y64055D01*
X113976Y59724D02*
Y64055D01*
X95394Y56535D02*
X97756D01*
X95394Y60866D02*
X97756D01*
Y56535D02*
Y60866D01*
X95394Y56535D02*
Y60866D01*
X89016Y55138D02*
Y63602D01*
X94528Y55138D02*
Y63602D01*
X89016D02*
X94528D01*
X89016Y55138D02*
X94528D01*
X76358Y21791D02*
X83248D01*
X76358Y25532D02*
X83248D01*
Y21791D02*
Y25532D01*
X76358Y21791D02*
Y25532D01*
X19272Y87815D02*
X23012D01*
X19272Y94705D02*
X23012D01*
X19272Y87815D02*
Y94705D01*
X23012Y87815D02*
Y94705D01*
X25512Y82835D02*
X29842D01*
X25512Y80472D02*
X29842D01*
X25512D02*
Y82835D01*
X29842Y80472D02*
Y82835D01*
X72244Y9291D02*
Y13622D01*
X69882Y9291D02*
Y13622D01*
Y9291D02*
X72244D01*
X69882Y13622D02*
X72244D01*
X55492Y6870D02*
X62382D01*
X55492Y3130D02*
X62382D01*
Y6870D01*
X55492Y3130D02*
Y6870D01*
X104685Y42677D02*
Y47008D01*
X107047Y42677D02*
Y47008D01*
X104685Y42677D02*
X107047D01*
X104685Y47008D02*
X107047D01*
X102815Y30295D02*
Y37185D01*
X106555Y30295D02*
Y37185D01*
X102815Y30295D02*
X106555D01*
X102815Y37185D02*
X106555D01*
X97894Y30295D02*
Y37185D01*
X101634Y30295D02*
Y37185D01*
X97894Y30295D02*
X101634D01*
X97894Y37185D02*
X101634D01*
X93228Y27992D02*
Y30354D01*
X97559Y27992D02*
Y30354D01*
X93228Y27992D02*
X97559D01*
X93228Y30354D02*
X97559D01*
X88346Y69055D02*
Y86378D01*
Y69055D02*
X92677Y64724D01*
X114331D01*
Y90709D01*
X92677D02*
X114331D01*
X88346Y86378D02*
X92677Y90709D01*
X14724Y52835D02*
Y57165D01*
X17087Y52835D02*
Y57165D01*
X14724Y52835D02*
X17087D01*
X14724Y57165D02*
X17087D01*
X38661Y16535D02*
Y20866D01*
X41024Y16535D02*
Y20866D01*
X38661D02*
X41024D01*
X38661Y16535D02*
X41024D01*
X26890Y73898D02*
Y78228D01*
X24528Y73898D02*
Y78228D01*
X26890D01*
X24528Y73898D02*
X26890Y73898D01*
X77913Y88898D02*
Y91260D01*
X82244Y88898D02*
Y91260D01*
X77913D02*
X82244D01*
X77913Y88898D02*
X82244D01*
X73543D02*
Y91260D01*
X69213Y88898D02*
Y91260D01*
Y88898D02*
X73543D01*
X69213Y91260D02*
X73543D01*
X65000Y88898D02*
Y91260D01*
X60669Y88898D02*
Y91260D01*
Y88898D02*
X65000D01*
X60669Y91260D02*
X65000D01*
X51575Y72638D02*
Y76968D01*
X53937Y72638D02*
Y76968D01*
X51575D02*
X53937D01*
X51575Y72638D02*
X53937D01*
X78347Y9409D02*
X80709D01*
X78347Y13740D02*
X80709D01*
X78347Y9409D02*
Y13740D01*
X80709Y9409D02*
Y13740D01*
X18346Y88425D02*
Y92756D01*
X15984Y88425D02*
Y92756D01*
X18346D01*
X15984Y88425D02*
X18346D01*
X34921Y34134D02*
X37284D01*
X34921Y29803D02*
X37284D01*
Y34134D01*
X34921Y29803D02*
Y34134D01*
X38465Y29803D02*
Y34134D01*
X40827Y29803D02*
Y34134D01*
X38465Y29803D02*
X40827D01*
X38465Y34134D02*
X40827D01*
X63202Y74208D02*
X66264Y77271D01*
X61531Y75879D02*
X64594Y78941D01*
X66264Y77271D01*
X61531Y75879D02*
X63202Y74208D01*
X36011Y83154D02*
X37681Y81483D01*
X32949Y80091D02*
X34619Y78421D01*
X37681Y81483D01*
X32949Y80091D02*
X36011Y83154D01*
X27795Y73858D02*
X30158Y73858D01*
X27795Y78189D02*
X30158D01*
X27795Y73858D02*
Y78189D01*
X30158Y73858D02*
Y78189D01*
X13213Y28346D02*
X17544D01*
X13213Y25984D02*
X17544D01*
Y28346D01*
X13213Y25984D02*
Y28346D01*
X43228Y38228D02*
Y40591D01*
X47559Y38228D02*
Y40591D01*
X43228Y38228D02*
X47559D01*
X43228Y40591D02*
X47559D01*
X75315Y4921D02*
Y7283D01*
X79646Y4921D02*
Y7283D01*
X75315D02*
X79646D01*
X75315Y4921D02*
X79646D01*
X4449Y96293D02*
X8779D01*
X4449Y98655D02*
X8779D01*
Y96293D02*
Y98655D01*
X4449Y96293D02*
Y98655D01*
X19272Y77933D02*
Y84823D01*
X23012Y77933D02*
Y84823D01*
X19272Y77933D02*
X23012D01*
X19272Y84823D02*
X23012D01*
X15984Y83937D02*
X18346D01*
X15984Y79606D02*
X18346D01*
Y83937D01*
X15984Y79606D02*
Y83937D01*
X4331Y79094D02*
X8661D01*
X4331Y76732D02*
X8661D01*
X4331D02*
Y79094D01*
X8661Y76732D02*
Y79094D01*
X2520Y91358D02*
X14331D01*
X2520Y84469D02*
X14331D01*
Y91358D01*
X2520Y84469D02*
Y91358D01*
X12717Y12598D02*
Y14961D01*
X8386Y12598D02*
Y14961D01*
Y12598D02*
X12717D01*
X8386Y14961D02*
X12717D01*
X12717Y25709D02*
Y28071D01*
X8386Y25709D02*
Y28071D01*
Y25709D02*
X12717D01*
X8386Y28071D02*
X12717D01*
X74449Y9409D02*
X76811D01*
X74449Y13740D02*
X76811D01*
X74449Y9409D02*
Y13740D01*
X76811Y9409D02*
Y13740D01*
X42205Y16535D02*
X44567D01*
X42205Y20866D02*
X44567D01*
Y16535D02*
Y20866D01*
X42205Y16535D02*
Y20866D01*
X35218Y16535D02*
X37580D01*
X35218Y20866D02*
X37580D01*
Y16535D02*
Y20866D01*
X35218Y16535D02*
Y20866D01*
X45748Y16535D02*
X48110D01*
X45748Y20866D02*
X48110D01*
Y16535D02*
Y20866D01*
X45748Y16535D02*
Y20866D01*
X50394Y16535D02*
X52756D01*
X50394Y20866D02*
X52756D01*
Y16535D02*
Y20866D01*
X50394Y16535D02*
Y20866D01*
X31675Y16535D02*
X34037D01*
X31675Y20866D02*
X34037D01*
Y16535D02*
Y20866D01*
X31675Y16535D02*
Y20866D01*
X99843Y59842D02*
Y62205D01*
X95512Y59842D02*
Y62205D01*
Y59842D02*
X99843D01*
X95512Y62205D02*
X99843D01*
X46457Y72638D02*
X48819D01*
X46457Y76968D02*
X48819D01*
Y72638D02*
Y76968D01*
X46457Y72638D02*
Y76968D01*
X41732Y72638D02*
X44094D01*
X41732Y76968D02*
X44094D01*
Y72638D02*
Y76968D01*
X41732Y72638D02*
Y76968D01*
D15*
X12047Y52500D02*
Y53484D01*
X6929Y52500D02*
Y53484D01*
X12047D01*
X6929Y52500D02*
X12047D01*
X6929Y65295D02*
Y66280D01*
X12047Y65295D02*
Y66280D01*
X6929Y65295D02*
X12047D01*
X6929Y66280D02*
X12047D01*
X5158Y53484D02*
X13819D01*
Y65295D01*
X5158D02*
X13819D01*
X5158Y53484D02*
Y65295D01*
X36968Y44291D02*
Y48228D01*
X38583Y44291D02*
Y48228D01*
X36968D02*
X38583D01*
X36968Y44291D02*
X38583D01*
X51968D02*
Y48228D01*
X53583Y44291D02*
Y48228D01*
X51968D02*
X53583D01*
X51968Y44291D02*
X53583D01*
X46968D02*
Y48228D01*
X48583Y44291D02*
Y48228D01*
X46968D02*
X48583D01*
X46968Y44291D02*
X48583D01*
X55118Y48228D02*
Y63976D01*
X35433Y48228D02*
Y63976D01*
Y48228D02*
X55118D01*
X35433Y63976D02*
X55118D01*
X53583Y63976D02*
Y67913D01*
X51968Y63976D02*
Y67913D01*
Y63976D02*
X53583D01*
X51968Y67913D02*
X53583D01*
X43583Y63976D02*
Y67913D01*
X41968Y63976D02*
Y67913D01*
Y63976D02*
X43583D01*
X41968Y67913D02*
X43583D01*
X41968Y44291D02*
Y48228D01*
X43583Y44291D02*
Y48228D01*
X41968D02*
X43583D01*
X41968Y44291D02*
X43583D01*
X38583Y63976D02*
Y67913D01*
X36968Y63976D02*
Y67913D01*
Y63976D02*
X38583D01*
X36968Y67913D02*
X38583D01*
X48583Y63976D02*
Y67913D01*
X46968Y63976D02*
Y67913D01*
Y63976D02*
X48583D01*
X46968Y67913D02*
X48583D01*
D93*
X72155Y48924D02*
X92255D01*
Y28824D02*
Y48924D01*
X72155Y28824D02*
X92255D01*
X72155D02*
Y48924D01*
X88791Y28824D02*
X89791D01*
X88791D02*
X89791D01*
X87217D02*
X88217D01*
X87217D02*
X88217D01*
X85642D02*
X86642D01*
X85642D02*
X86642D01*
X84067D02*
X85067D01*
X84067D02*
X85067D01*
X82492D02*
X83492D01*
X82492D02*
X83492D01*
X80917D02*
X81917D01*
X80917D02*
X81917D01*
X79343D02*
X80343D01*
X79343D02*
X80343D01*
X77768D02*
X78768D01*
X77768D02*
X78768D01*
X76193D02*
X77193D01*
X76193D02*
X77193D01*
X74618D02*
X75618D01*
X74618D02*
X75618D01*
X72155Y31288D02*
Y32288D01*
Y31288D02*
Y32288D01*
Y32863D02*
Y33863D01*
Y32863D02*
Y33863D01*
Y34437D02*
Y35437D01*
Y34437D02*
Y35437D01*
Y36012D02*
Y37012D01*
Y36012D02*
Y37012D01*
Y37587D02*
Y38587D01*
Y37587D02*
Y38587D01*
Y39162D02*
Y40162D01*
Y39162D02*
Y40162D01*
Y40737D02*
Y41737D01*
Y40737D02*
Y41737D01*
Y42311D02*
Y43311D01*
Y42311D02*
Y43311D01*
Y43886D02*
Y44886D01*
Y43886D02*
Y44886D01*
Y45461D02*
Y46461D01*
Y45461D02*
Y46461D01*
X74618Y48924D02*
X75618D01*
X74618D02*
X75618D01*
X76193D02*
X77193D01*
X76193D02*
X77193D01*
X77768D02*
X78768D01*
X77768D02*
X78768D01*
X79343D02*
X80343D01*
X79343D02*
X80343D01*
X80917D02*
X81917D01*
X80917D02*
X81917D01*
X82492D02*
X83492D01*
X82492D02*
X83492D01*
X84067D02*
X85067D01*
X84067D02*
X85067D01*
X85642D02*
X86642D01*
X85642D02*
X86642D01*
X87217D02*
X88217D01*
X87217D02*
X88217D01*
X88791D02*
X89791D01*
X88791D02*
X89791D01*
X92255Y45461D02*
Y46461D01*
Y45461D02*
Y46461D01*
Y43886D02*
Y44886D01*
Y43886D02*
Y44886D01*
Y42311D02*
Y43311D01*
Y42311D02*
Y43311D01*
Y40737D02*
Y41737D01*
Y40737D02*
Y41737D01*
Y39162D02*
Y40162D01*
Y39162D02*
Y40162D01*
Y37587D02*
Y38587D01*
Y37587D02*
Y38587D01*
Y36012D02*
Y37012D01*
Y36012D02*
Y37012D01*
Y34437D02*
Y35437D01*
Y34437D02*
Y35437D01*
Y32863D02*
Y33863D01*
Y32863D02*
Y33863D01*
Y31288D02*
Y32288D01*
Y31288D02*
Y32288D01*
X87255Y48924D02*
X92255Y43924D01*
X63125Y60958D02*
X63903Y60180D01*
X66661Y62938D01*
X65883Y63716D02*
X66661Y62938D01*
X63125Y60958D02*
X65883Y63716D01*
X61734Y62350D02*
X62511Y61572D01*
X65269Y64330D01*
X64491Y65108D02*
X65269Y64330D01*
X61734Y62350D02*
X64491Y65108D01*
X60342Y63742D02*
X61119Y62964D01*
X63877Y65722D01*
X63099Y66500D02*
X63877Y65722D01*
X60342Y63742D02*
X63099Y66500D01*
X58950Y65134D02*
X59727Y64356D01*
X62485Y67114D01*
X61707Y67892D02*
X62485Y67114D01*
X58950Y65134D02*
X61707Y67892D01*
X57558Y66526D02*
X58336Y65748D01*
X61093Y68506D01*
X60315Y69284D02*
X61093Y68506D01*
X57558Y66526D02*
X60315Y69284D01*
X56166Y67918D02*
X56944Y67140D01*
X59701Y69898D01*
X58923Y70676D02*
X59701Y69898D01*
X56166Y67918D02*
X58923Y70676D01*
X54774Y69310D02*
X55552Y68532D01*
X58309Y71290D01*
X57531Y72068D02*
X58309Y71290D01*
X54774Y69310D02*
X57531Y72068D01*
X53382Y70702D02*
X54160Y69924D01*
X56917Y72682D01*
X56139Y73460D02*
X56917Y72682D01*
X53382Y70702D02*
X56139Y73460D01*
X51990Y72094D02*
X52768Y71316D01*
X55525Y74074D01*
X54748Y74851D02*
X55525Y74074D01*
X51990Y72094D02*
X54748Y74851D01*
X50598Y73486D02*
X51376Y72708D01*
X54133Y75466D01*
X53356Y76243D02*
X54133Y75466D01*
X50598Y73486D02*
X53356Y76243D01*
X49206Y74878D02*
X49984Y74100D01*
X52741Y76858D01*
X51964Y77635D02*
X52741Y76858D01*
X49206Y74878D02*
X51964Y77635D01*
X47814Y76270D02*
X48592Y75492D01*
X51350Y78250D01*
X50572Y79027D02*
X51350Y78250D01*
X47814Y76270D02*
X50572Y79027D01*
X43044Y75492D02*
X43821Y76270D01*
X41064Y79027D02*
X43821Y76270D01*
X40286Y78250D02*
X41064Y79027D01*
X40286Y78250D02*
X43044Y75492D01*
X41652Y74100D02*
X42430Y74878D01*
X39672Y77635D02*
X42430Y74878D01*
X38894Y76858D02*
X39672Y77635D01*
X38894Y76858D02*
X41652Y74100D01*
X40260Y72708D02*
X41037Y73486D01*
X38280Y76243D02*
X41037Y73486D01*
X37502Y75466D02*
X38280Y76243D01*
X37502Y75466D02*
X40260Y72708D01*
X38868Y71316D02*
X39646Y72094D01*
X36888Y74851D02*
X39646Y72094D01*
X36110Y74074D02*
X36888Y74851D01*
X36110Y74074D02*
X38868Y71316D01*
X37476Y69924D02*
X38254Y70702D01*
X35496Y73460D02*
X38254Y70702D01*
X34718Y72682D02*
X35496Y73460D01*
X34718Y72682D02*
X37476Y69924D01*
X36084Y68532D02*
X36862Y69310D01*
X34104Y72068D02*
X36862Y69310D01*
X33326Y71290D02*
X34104Y72068D01*
X33326Y71290D02*
X36084Y68532D01*
X34692Y67140D02*
X35470Y67918D01*
X32712Y70676D02*
X35470Y67918D01*
X31934Y69898D02*
X32712Y70676D01*
X31934Y69898D02*
X34692Y67140D01*
X33300Y65748D02*
X34078Y66526D01*
X31320Y69284D02*
X34078Y66526D01*
X30542Y68506D02*
X31320Y69284D01*
X30542Y68506D02*
X33300Y65748D01*
X31908Y64356D02*
X32686Y65134D01*
X29928Y67892D02*
X32686Y65134D01*
X29150Y67114D02*
X29928Y67892D01*
X29150Y67114D02*
X31908Y64356D01*
X30516Y62964D02*
X31294Y63742D01*
X28536Y66500D02*
X31294Y63742D01*
X27758Y65722D02*
X28536Y66500D01*
X27758Y65722D02*
X30516Y62964D01*
X29124Y61572D02*
X29902Y62350D01*
X27144Y65108D02*
X29902Y62350D01*
X26366Y64330D02*
X27144Y65108D01*
X26366Y64330D02*
X29124Y61572D01*
X27732Y60180D02*
X28510Y60958D01*
X25752Y63716D02*
X28510Y60958D01*
X24974Y62938D02*
X25752Y63716D01*
X24974Y62938D02*
X27732Y60180D01*
Y56188D02*
X28510Y55410D01*
X24974Y53430D02*
X27732Y56188D01*
X24974Y53430D02*
X25752Y52652D01*
X28510Y55410D01*
X29124Y54796D02*
X29902Y54018D01*
X26366Y52038D02*
X29124Y54796D01*
X26366Y52038D02*
X27144Y51260D01*
X29902Y54018D01*
X30516Y53404D02*
X31294Y52626D01*
X27758Y50646D02*
X30516Y53404D01*
X27758Y50646D02*
X28536Y49868D01*
X31294Y52626D01*
X31908Y52012D02*
X32686Y51234D01*
X29150Y49254D02*
X31908Y52012D01*
X29150Y49254D02*
X29928Y48476D01*
X32686Y51234D01*
X33300Y50620D02*
X34078Y49842D01*
X30542Y47862D02*
X33300Y50620D01*
X30542Y47862D02*
X31320Y47084D01*
X34078Y49842D01*
X34692Y49228D02*
X35470Y48450D01*
X31934Y46470D02*
X34692Y49228D01*
X31934Y46470D02*
X32712Y45693D01*
X35470Y48450D01*
X36084Y47836D02*
X36862Y47058D01*
X33326Y45078D02*
X36084Y47836D01*
X33326Y45078D02*
X34104Y44300D01*
X36862Y47058D01*
X37476Y46444D02*
X38254Y45666D01*
X34718Y43686D02*
X37476Y46444D01*
X34718Y43686D02*
X35496Y42909D01*
X38254Y45666D01*
X38868Y45052D02*
X39646Y44274D01*
X36110Y42294D02*
X38868Y45052D01*
X36110Y42294D02*
X36888Y41517D01*
X39646Y44274D01*
X40260Y43660D02*
X41037Y42882D01*
X37502Y40903D02*
X40260Y43660D01*
X37502Y40903D02*
X38280Y40125D01*
X41037Y42882D01*
X41652Y42268D02*
X42430Y41491D01*
X38894Y39511D02*
X41652Y42268D01*
X38894Y39511D02*
X39672Y38733D01*
X42430Y41491D01*
X43044Y40876D02*
X43821Y40099D01*
X40286Y38119D02*
X43044Y40876D01*
X40286Y38119D02*
X41064Y37341D01*
X43821Y40099D01*
X47814D02*
X48592Y40876D01*
X47814Y40099D02*
X50572Y37341D01*
X51350Y38119D01*
X48592Y40876D02*
X51350Y38119D01*
X49206Y41491D02*
X49984Y42268D01*
X49206Y41491D02*
X51964Y38733D01*
X52741Y39511D01*
X49984Y42268D02*
X52741Y39511D01*
X50598Y42882D02*
X51376Y43660D01*
X50598Y42882D02*
X53356Y40125D01*
X54133Y40903D01*
X51376Y43660D02*
X54133Y40903D01*
X51990Y44274D02*
X52768Y45052D01*
X51990Y44274D02*
X54748Y41517D01*
X55525Y42294D01*
X52768Y45052D02*
X55525Y42294D01*
X53382Y45666D02*
X54160Y46444D01*
X53382Y45666D02*
X56139Y42909D01*
X56917Y43686D01*
X54160Y46444D02*
X56917Y43686D01*
X54774Y47058D02*
X55552Y47836D01*
X54774Y47058D02*
X57531Y44300D01*
X58309Y45078D01*
X55552Y47836D02*
X58309Y45078D01*
X56166Y48450D02*
X56944Y49228D01*
X56166Y48450D02*
X58923Y45693D01*
X59701Y46470D01*
X56944Y49228D02*
X59701Y46470D01*
X57558Y49842D02*
X58336Y50620D01*
X57558Y49842D02*
X60315Y47084D01*
X61093Y47862D01*
X58336Y50620D02*
X61093Y47862D01*
X58950Y51234D02*
X59727Y52012D01*
X58950Y51234D02*
X61707Y48476D01*
X62485Y49254D01*
X59727Y52012D02*
X62485Y49254D01*
X60342Y52626D02*
X61119Y53404D01*
X60342Y52626D02*
X63099Y49868D01*
X63877Y50646D01*
X61119Y53404D02*
X63877Y50646D01*
X61734Y54018D02*
X62511Y54796D01*
X61734Y54018D02*
X64491Y51260D01*
X65269Y52038D01*
X62511Y54796D02*
X65269Y52038D01*
X63125Y55410D02*
X63903Y56188D01*
X63125Y55410D02*
X65883Y52652D01*
X66661Y53430D01*
X63903Y56188D02*
X66661Y53430D01*
X42282Y74730D02*
X49353D01*
X25736Y58184D02*
X45818Y38102D01*
X65899Y58184D01*
X45818Y78266D02*
X65899Y58184D01*
X25736D02*
X45818Y78266D01*
D94*
X12067Y16122D02*
Y19862D01*
X18957Y16122D02*
Y19862D01*
X12067D02*
X18957D01*
X12067Y16122D02*
X18957D01*
X12067Y20846D02*
X18957D01*
X12067Y24587D02*
X18957D01*
Y20846D02*
Y24587D01*
X12067Y20846D02*
Y24587D01*
X103169Y59153D02*
Y62894D01*
X110059Y59153D02*
Y62894D01*
X103169D02*
X110059D01*
X103169Y59153D02*
X110059D01*
D95*
X90071Y45274D02*
X87447Y42651D01*
Y45274D02*
X90071Y42651D01*
X88759Y45274D02*
Y42651D01*
X87447Y43962D02*
X90071D01*
X45483Y77577D02*
Y72865D01*
X43126Y75221D02*
X47839D01*
X44305Y76399D02*
X46661Y74043D01*
X44305D02*
X46661Y76399D01*
M02*
