G04*
G04 #@! TF.GenerationSoftware,Altium Limited,Altium Designer,22.10.1 (41)*
G04*
G04 Layer_Color=128*
%FSLAX25Y25*%
%MOIN*%
G70*
G04*
G04 #@! TF.SameCoordinates,423579F9-A912-4673-8900-DDE07351D98F*
G04*
G04*
G04 #@! TF.FilePolarity,Positive*
G04*
G01*
G75*
%ADD94C,0.00200*%
D94*
X107598Y99488D02*
X111142D01*
X109370Y97716D02*
Y101260D01*
X97756Y99488D02*
X101299D01*
X99528Y97716D02*
Y101260D01*
X40630Y9488D02*
X42598D01*
X41614Y8504D02*
Y10472D01*
X45551Y9488D02*
X47520D01*
X46535Y8504D02*
Y10472D01*
X50472Y9488D02*
X52441D01*
X51457Y8504D02*
Y10472D01*
X65236Y9488D02*
X67205D01*
X66220Y8504D02*
Y10472D01*
X55394Y9488D02*
X57362D01*
X56378Y8504D02*
Y10472D01*
X60315Y9488D02*
X62283D01*
X61299Y8504D02*
Y10472D01*
X16654Y39783D02*
X19016D01*
X17835Y38602D02*
Y40965D01*
X16654Y34784D02*
X19016D01*
X17835Y33602D02*
Y35965D01*
X11654Y39783D02*
X14017D01*
X12835Y38602D02*
Y40965D01*
X11654Y34784D02*
X14017D01*
X12835Y33602D02*
Y35965D01*
X6654Y34784D02*
X9016D01*
X7835Y33602D02*
Y35965D01*
X6654Y39783D02*
X9016D01*
X7835Y38602D02*
Y40965D01*
X79567Y103622D02*
X82717D01*
X81142Y102047D02*
Y105197D01*
X63819Y103622D02*
X66969D01*
X65394Y102047D02*
Y105197D01*
X55945Y103622D02*
X59095D01*
X57520Y102047D02*
Y105197D01*
X48071Y103622D02*
X51221D01*
X49646Y102047D02*
Y105197D01*
X40197Y103622D02*
X43346D01*
X41772Y102047D02*
Y105197D01*
X71693Y103622D02*
X74843D01*
X73268Y102047D02*
Y105197D01*
X92953Y10315D02*
X96496D01*
X94724Y8543D02*
Y12087D01*
X102795Y10315D02*
X106339D01*
X104567Y8543D02*
Y12087D01*
X112638Y10315D02*
X116181D01*
X114409Y8543D02*
Y12087D01*
X59949Y78727D02*
X61130D01*
X60540Y78137D02*
Y79318D01*
X71169Y17140D02*
X72350D01*
X71760Y16549D02*
Y17730D01*
X28851Y57641D02*
X30032D01*
X29442Y57051D02*
Y58232D01*
X31609Y55300D02*
X32791D01*
X32200Y54710D02*
Y55891D01*
X58159Y60000D02*
X59340D01*
X58749Y59409D02*
Y60590D01*
X76299Y33559D02*
X77480D01*
X76890Y32969D02*
Y34150D01*
X76299Y37103D02*
X77480D01*
X76890Y36512D02*
Y37693D01*
X76299Y40646D02*
X77480D01*
X76890Y40056D02*
Y41237D01*
X76299Y44189D02*
X77480D01*
X76890Y43599D02*
Y44780D01*
X79843Y44189D02*
X81024D01*
X80433Y43599D02*
Y44780D01*
X83386Y44189D02*
X84567D01*
X83976Y43599D02*
Y44780D01*
X86929Y44189D02*
X88110D01*
X87520Y43599D02*
Y44780D01*
X79843Y40646D02*
X81024D01*
X80433Y40056D02*
Y41237D01*
X79843Y37103D02*
X81024D01*
X80433Y36512D02*
Y37693D01*
X79843Y33559D02*
X81024D01*
X80433Y32969D02*
Y34150D01*
X83386Y40646D02*
X84567D01*
X83976Y40056D02*
Y41237D01*
X83386Y37103D02*
X84567D01*
X83976Y36512D02*
Y37693D01*
X83386Y33559D02*
X84567D01*
X83976Y32969D02*
Y34150D01*
X86929Y40646D02*
X88110D01*
X87520Y40056D02*
Y41237D01*
X86929Y37103D02*
X88110D01*
X87520Y36512D02*
Y37693D01*
X86929Y33559D02*
X88110D01*
X87520Y32969D02*
Y34150D01*
X94669Y73440D02*
X95850D01*
X95260Y72850D02*
Y74031D01*
X97850Y70260D02*
X99031D01*
X98440Y69669D02*
Y70850D01*
X94669Y70260D02*
X95850D01*
X95260Y69669D02*
Y70850D01*
X33269Y24060D02*
X34450D01*
X33860Y23469D02*
Y24650D01*
X39469Y24060D02*
X40650D01*
X40060Y23469D02*
Y24650D01*
X36369Y24060D02*
X37550D01*
X36960Y23469D02*
Y24650D01*
X49169Y24060D02*
X50350D01*
X49760Y23469D02*
Y24650D01*
X45169Y24060D02*
X46350D01*
X45760Y23469D02*
Y24650D01*
X68369Y5160D02*
X69550D01*
X68960Y4569D02*
Y5750D01*
X65269Y5160D02*
X66450D01*
X65860Y4569D02*
Y5750D01*
X63769Y3260D02*
X64950D01*
X64360Y2669D02*
Y3850D01*
X66869Y3260D02*
X68050D01*
X67460Y2669D02*
Y3850D01*
X69969Y3260D02*
X71150D01*
X70560Y2669D02*
Y3850D01*
X73069Y3260D02*
X74250D01*
X73660Y2669D02*
Y3850D01*
X47769Y96060D02*
X48950D01*
X48360Y95469D02*
Y96650D01*
X50869Y96060D02*
X52050D01*
X51460Y95469D02*
Y96650D01*
X16269Y3960D02*
X17450D01*
X16860Y3369D02*
Y4550D01*
X16269Y7060D02*
X17450D01*
X16860Y6469D02*
Y7650D01*
X13569Y5560D02*
X14750D01*
X14160Y4969D02*
Y6150D01*
X13569Y8660D02*
X14750D01*
X14160Y8069D02*
Y9250D01*
X16269Y10160D02*
X17450D01*
X16860Y9569D02*
Y10750D01*
X6569Y23517D02*
X7750D01*
X7160Y22927D02*
Y24108D01*
X6569Y20560D02*
X7750D01*
X7160Y19969D02*
Y21150D01*
X11669Y49360D02*
X12850D01*
X12260Y48769D02*
Y49950D01*
X14769Y49360D02*
X15950D01*
X15360Y48769D02*
Y49950D01*
X19669Y58360D02*
X20850D01*
X20260Y57769D02*
Y58950D01*
X19669Y55260D02*
X20850D01*
X20260Y54669D02*
Y55850D01*
X22569Y56960D02*
X23750D01*
X23160Y56369D02*
Y57550D01*
X22569Y60060D02*
X23750D01*
X23160Y59469D02*
Y60650D01*
X17810Y77743D02*
X18991D01*
X18400Y77152D02*
Y78333D01*
X14710Y77743D02*
X15891D01*
X15300Y77152D02*
Y78333D01*
X11610Y77743D02*
X12791D01*
X12200Y77152D02*
Y78333D01*
X25469Y85569D02*
X26669D01*
X26069Y84969D02*
Y86169D01*
X30869Y95860D02*
X32050D01*
X31460Y95269D02*
Y96450D01*
X12769Y102060D02*
X13950D01*
X13360Y101469D02*
Y102650D01*
X15869Y102060D02*
X17050D01*
X16460Y101469D02*
Y102650D01*
X15869Y105160D02*
X17050D01*
X16460Y104569D02*
Y105750D01*
X15869Y108260D02*
X17050D01*
X16460Y107669D02*
Y108850D01*
X36169Y95860D02*
X37350D01*
X36760Y95269D02*
Y96450D01*
X36169Y98960D02*
X37350D01*
X36760Y98369D02*
Y99550D01*
X36169Y102060D02*
X37350D01*
X36760Y101469D02*
Y102650D01*
X36169Y108260D02*
X37350D01*
X36760Y107669D02*
Y108850D01*
X36169Y105160D02*
X37350D01*
X36760Y104569D02*
Y105750D01*
X95263Y34198D02*
X96444D01*
X95854Y33608D02*
Y34789D01*
X84220Y76760D02*
X85401D01*
X84810Y76169D02*
Y77350D01*
X107069Y94160D02*
X108250D01*
X107660Y93569D02*
Y94750D01*
X111069Y94160D02*
X112250D01*
X111660Y93569D02*
Y94750D01*
X115069Y96660D02*
X116250D01*
X115660Y96069D02*
Y97250D01*
X115069Y100660D02*
X116250D01*
X115660Y100069D02*
Y101250D01*
X115069Y104660D02*
X116250D01*
X115660Y104069D02*
Y105250D01*
X111069Y104660D02*
X112250D01*
X111660Y104069D02*
Y105250D01*
X107069Y104660D02*
X108250D01*
X107660Y104069D02*
Y105250D01*
X122869Y94360D02*
X124050D01*
X123460Y93769D02*
Y94950D01*
X120369Y96660D02*
X121550D01*
X120960Y96069D02*
Y97250D01*
X120369Y100660D02*
X121550D01*
X120960Y100069D02*
Y101250D01*
X120369Y104660D02*
X121550D01*
X120960Y104069D02*
Y105250D01*
X120369Y108660D02*
X121550D01*
X120960Y108069D02*
Y109250D01*
X115069Y108660D02*
X116250D01*
X115660Y108069D02*
Y109250D01*
X107069Y108660D02*
X108250D01*
X107660Y108069D02*
Y109250D01*
X111069Y108660D02*
X112250D01*
X111660Y108069D02*
Y109250D01*
X96969Y94060D02*
X98150D01*
X97560Y93469D02*
Y94650D01*
X100569Y94060D02*
X101750D01*
X101160Y93469D02*
Y94650D01*
X93669Y96760D02*
X94850D01*
X94260Y96169D02*
Y97350D01*
X90569Y96760D02*
X91750D01*
X91160Y96169D02*
Y97350D01*
X90569Y100760D02*
X91750D01*
X91160Y100169D02*
Y101350D01*
X90569Y104760D02*
X91750D01*
X91160Y104169D02*
Y105350D01*
X90569Y108760D02*
X91750D01*
X91160Y108169D02*
Y109350D01*
X93669Y100760D02*
X94850D01*
X94260Y100169D02*
Y101350D01*
X93669Y104760D02*
X94850D01*
X94260Y104169D02*
Y105350D01*
X97169Y104760D02*
X98350D01*
X97760Y104169D02*
Y105350D01*
X101169Y104760D02*
X102350D01*
X101760Y104169D02*
Y105350D01*
X93669Y108760D02*
X94850D01*
X94260Y108169D02*
Y109350D01*
X101169Y108760D02*
X102350D01*
X101760Y108169D02*
Y109350D01*
X97169Y108760D02*
X98350D01*
X97760Y108169D02*
Y109350D01*
X69369Y48160D02*
X70550D01*
X69960Y47569D02*
Y48750D01*
X82669Y6860D02*
X83850D01*
X83260Y6269D02*
Y7450D01*
X82669Y10060D02*
X83850D01*
X83260Y9469D02*
Y10650D01*
X82669Y13260D02*
X83850D01*
X83260Y12669D02*
Y13850D01*
X82669Y16460D02*
X83850D01*
X83260Y15869D02*
Y17050D01*
X82669Y19660D02*
X83850D01*
X83260Y19069D02*
Y20250D01*
X70012Y26177D02*
X71193D01*
X70602Y25586D02*
Y26767D01*
X71169Y19860D02*
X72350D01*
X71760Y19269D02*
Y20450D01*
X88869Y5760D02*
X90050D01*
X89460Y5169D02*
Y6350D01*
X88869Y9760D02*
X90050D01*
X89460Y9169D02*
Y10350D01*
X88869Y13760D02*
X90050D01*
X89460Y13169D02*
Y14350D01*
X88869Y21760D02*
X90050D01*
X89460Y21169D02*
Y22350D01*
X92869Y21760D02*
X94050D01*
X93460Y21169D02*
Y22350D01*
X96869Y21760D02*
X98050D01*
X97460Y21169D02*
Y22350D01*
X88869Y17760D02*
X90050D01*
X89460Y17169D02*
Y18350D01*
X92869Y17760D02*
X94050D01*
X93460Y17169D02*
Y18350D01*
X96869Y17760D02*
X98050D01*
X97460Y17169D02*
Y18350D01*
X73169Y53260D02*
X74350D01*
X73760Y52669D02*
Y53850D01*
X76769Y53260D02*
X77950D01*
X77360Y52669D02*
Y53850D01*
X102169Y17660D02*
X103350D01*
X102760Y17069D02*
Y18250D01*
X106169Y17660D02*
X107350D01*
X106760Y17069D02*
Y18250D01*
X106169Y21660D02*
X107350D01*
X106760Y21069D02*
Y22250D01*
X102169Y21660D02*
X103350D01*
X102760Y21069D02*
Y22250D01*
X110669Y33660D02*
X111850D01*
X111260Y33069D02*
Y34250D01*
X110169Y29660D02*
X111350D01*
X110760Y29069D02*
Y30250D01*
X110169Y25660D02*
X111350D01*
X110760Y25069D02*
Y26250D01*
X106169Y25660D02*
X107350D01*
X106760Y25069D02*
Y26250D01*
X102169Y25660D02*
X103350D01*
X102760Y25069D02*
Y26250D01*
X112169Y17960D02*
X113350D01*
X112760Y17369D02*
Y18550D01*
X116169Y17960D02*
X117350D01*
X116760Y17369D02*
Y18550D01*
X120169Y5560D02*
X121350D01*
X120760Y4969D02*
Y6150D01*
X120169Y9960D02*
X121350D01*
X120760Y9369D02*
Y10550D01*
X120169Y13960D02*
X121350D01*
X120760Y13369D02*
Y14550D01*
X120169Y17960D02*
X121350D01*
X120760Y17369D02*
Y18550D01*
X126169Y18160D02*
X127350D01*
X126760Y17569D02*
Y18750D01*
X126169Y22160D02*
X127350D01*
X126760Y21569D02*
Y22750D01*
X123169Y25260D02*
X124350D01*
X123760Y24669D02*
Y25850D01*
X120169Y21760D02*
X121350D01*
X120760Y21169D02*
Y22350D01*
X116169Y21760D02*
X117350D01*
X116760Y21169D02*
Y22350D01*
X119169Y25260D02*
X120350D01*
X119760Y24669D02*
Y25850D01*
X115169Y25260D02*
X116350D01*
X115760Y24669D02*
Y25850D01*
X119169Y29760D02*
X120350D01*
X119760Y29169D02*
Y30350D01*
X115169Y29760D02*
X116350D01*
X115760Y29169D02*
Y30350D01*
X119169Y33760D02*
X120350D01*
X119760Y33169D02*
Y34350D01*
X115169Y33760D02*
X116350D01*
X115760Y33169D02*
Y34350D01*
X80069Y59760D02*
X81250D01*
X80660Y59169D02*
Y60350D01*
X80069Y63760D02*
X81250D01*
X80660Y63169D02*
Y64350D01*
X95669Y49460D02*
X96850D01*
X96260Y48869D02*
Y50050D01*
X100669Y49460D02*
X101850D01*
X101260Y48869D02*
Y50050D01*
X95669Y45460D02*
X96850D01*
X96260Y44869D02*
Y46050D01*
X100669Y45460D02*
X101850D01*
X101260Y44869D02*
Y46050D01*
X84220Y73579D02*
X85401D01*
X84810Y72989D02*
Y74170D01*
X76339Y78465D02*
X77520D01*
X76929Y77874D02*
Y79055D01*
X56322Y52502D02*
X57503D01*
X56913Y51911D02*
Y53092D01*
X42465Y29978D02*
X43646D01*
X43055Y29387D02*
Y30568D01*
X19484Y64656D02*
X20665D01*
X20074Y64066D02*
Y65247D01*
X22094Y67025D02*
X23275D01*
X22684Y66434D02*
Y67615D01*
X59697Y19006D02*
X60878D01*
X60287Y18416D02*
Y19597D01*
X65842Y33260D02*
X67024D01*
X66433Y32669D02*
Y33850D01*
X64052Y71468D02*
X65233D01*
X64643Y70877D02*
Y72058D01*
X59691Y39940D02*
X60873D01*
X60282Y39349D02*
Y40530D01*
X83691Y52492D02*
X84873D01*
X84282Y51902D02*
Y53083D01*
X95394Y38858D02*
X96575D01*
X95984Y38268D02*
Y39449D01*
X62362Y38819D02*
X63543D01*
X62953Y38228D02*
Y39409D01*
M02*
