G04*
G04 #@! TF.GenerationSoftware,Altium Limited,Altium Designer,22.10.1 (41)*
G04*
G04 Layer_Color=2752767*
%FSLAX25Y25*%
%MOIN*%
G70*
G04*
G04 #@! TF.SameCoordinates,423579F9-A912-4673-8900-DDE07351D98F*
G04*
G04*
G04 #@! TF.FilePolarity,Positive*
G04*
G01*
G75*
%ADD94C,0.00200*%
%ADD96C,0.00267*%
G36*
X399275Y92360D02*
X399295D01*
X399344Y92355D01*
X399398Y92347D01*
X399458Y92337D01*
X399495Y92327D01*
X399521D01*
Y92320D01*
X399566Y92303D01*
Y92079D01*
X399563D01*
X399558Y92081D01*
X399551Y92086D01*
X399539Y92091D01*
X399526Y92098D01*
X399539Y92077D01*
X399556Y92042D01*
X399558Y92037D01*
X399563Y92025D01*
X399571Y92005D01*
X399578Y91981D01*
X399585Y91949D01*
X399593Y91914D01*
X399594Y91904D01*
X399612Y91855D01*
X399632Y91791D01*
X399649Y91725D01*
X399664Y91651D01*
X399674Y91570D01*
X399684Y91486D01*
X399689Y91395D01*
X399691Y91299D01*
Y91297D01*
Y91287D01*
Y91275D01*
Y91255D01*
X399689Y91233D01*
Y91206D01*
X399686Y91176D01*
Y91144D01*
X399679Y91073D01*
X399679Y91071D01*
X399681Y91058D01*
X399686Y91014D01*
X399691Y90965D01*
X399691Y90960D01*
X399711D01*
Y90741D01*
X399684D01*
X399679Y90711D01*
X399672Y90670D01*
X399659Y90628D01*
X399642Y90583D01*
X399640Y90579D01*
X399632Y90564D01*
X399622Y90544D01*
X399605Y90517D01*
X399585Y90487D01*
X399563Y90456D01*
X399534Y90424D01*
X399502Y90391D01*
X399497Y90389D01*
X399487Y90379D01*
X399467Y90364D01*
X399445Y90347D01*
Y90256D01*
X399256D01*
X399224Y90246D01*
X399184Y90237D01*
X399140Y90229D01*
X399093Y90224D01*
X399042Y90222D01*
X399015D01*
X399011Y90222D01*
X398995Y90222D01*
X398968D01*
X398956Y90224D01*
X398943D01*
X398882Y90222D01*
X398855D01*
X398835Y90224D01*
X398811D01*
X398783Y90227D01*
X398754Y90229D01*
X398720Y90232D01*
X398651Y90241D01*
X398579Y90256D01*
X398513Y90278D01*
X398481Y90291D01*
X398454Y90305D01*
Y90486D01*
X398439Y90507D01*
X398417Y90544D01*
X398395Y90583D01*
Y90586D01*
X398392Y90588D01*
X398387Y90603D01*
X398380Y90625D01*
X398370Y90657D01*
X398360Y90694D01*
X398353Y90736D01*
X398352Y90741D01*
X398237D01*
Y90948D01*
X398240Y90950D01*
X398245Y90955D01*
X398250Y90962D01*
X398262Y90974D01*
X398272Y90989D01*
X398287Y91004D01*
X398323Y91046D01*
X398348Y91076D01*
X398343Y91159D01*
X398341Y91250D01*
Y91252D01*
Y91262D01*
Y91277D01*
Y91297D01*
X398343Y91319D01*
Y91346D01*
X398346Y91378D01*
Y91412D01*
X398351Y91486D01*
X398360Y91565D01*
X398370Y91649D01*
X398385Y91727D01*
Y91730D01*
X398387Y91737D01*
X398390Y91747D01*
X398395Y91762D01*
X398400Y91779D01*
X398405Y91801D01*
X398419Y91850D01*
X398439Y91904D01*
X398444Y91917D01*
X398446Y91934D01*
X398456Y91968D01*
X398466Y92005D01*
X398481Y92042D01*
X398483Y92047D01*
X398488Y92059D01*
X398498Y92077D01*
X398513Y92101D01*
X398530Y92126D01*
X398550Y92155D01*
X398551Y92156D01*
X398562Y92327D01*
X398798D01*
X398806Y92330D01*
X398828Y92335D01*
X398855Y92342D01*
X398892Y92350D01*
X398931Y92357D01*
X398973Y92360D01*
X399020Y92362D01*
X399057D01*
X399066Y92360D01*
X399068Y92359D01*
X399096Y92357D01*
X399116Y92354D01*
X399152Y92360D01*
X399221Y92362D01*
X399256D01*
X399275Y92360D01*
D02*
G37*
G36*
X400857Y92313D02*
X400889Y92298D01*
X400892D01*
X400894Y92295D01*
X400909Y92286D01*
X400931Y92273D01*
X400961Y92251D01*
X400992Y92227D01*
X401024Y92195D01*
X401059Y92158D01*
X401091Y92116D01*
Y92114D01*
X401096Y92111D01*
X401098Y92104D01*
X401106Y92094D01*
X401121Y92069D01*
X401138Y92035D01*
X401157Y91991D01*
X401180Y91939D01*
X401199Y91882D01*
X401206Y91856D01*
X401207Y91855D01*
X401226Y91791D01*
X401243Y91725D01*
X401258Y91651D01*
X401268Y91570D01*
X401278Y91486D01*
X401283Y91395D01*
X401285Y91299D01*
Y91297D01*
Y91287D01*
Y91275D01*
Y91255D01*
X401283Y91233D01*
Y91206D01*
X401280Y91176D01*
Y91144D01*
X401273Y91073D01*
X401266Y90994D01*
X401253Y90916D01*
X401236Y90837D01*
Y90834D01*
X401234Y90827D01*
X401231Y90817D01*
X401229Y90805D01*
X401224Y90788D01*
X401216Y90765D01*
X401202Y90721D01*
X401182Y90667D01*
X401160Y90610D01*
X401133Y90554D01*
X401101Y90500D01*
Y90497D01*
X401096Y90495D01*
X401091Y90487D01*
X401086Y90478D01*
X401078Y90468D01*
X401246D01*
Y90256D01*
X400798D01*
X400754Y90244D01*
X400705Y90232D01*
X400648Y90224D01*
X400589Y90222D01*
X400562D01*
X400550Y90224D01*
X400532D01*
X400527Y90225D01*
X400518Y90224D01*
X400459Y90222D01*
X400429D01*
X400427Y90222D01*
X400419Y90222D01*
X400385D01*
X400368Y90224D01*
X400346Y90227D01*
X400323D01*
X400299Y90232D01*
X400242Y90239D01*
X400181Y90251D01*
X400163Y90256D01*
X399969D01*
Y90357D01*
Y90359D01*
Y90362D01*
Y90369D01*
Y90379D01*
X399972Y90404D01*
Y90436D01*
X399977Y90473D01*
X399981Y90512D01*
X399986Y90551D01*
X399989Y90561D01*
Y90586D01*
X399991Y90583D01*
X399994Y90582D01*
X399996Y90591D01*
X399999Y90596D01*
X400001Y90608D01*
X400008Y90628D01*
X400018Y90652D01*
X400023Y90661D01*
X400016Y90679D01*
X399994Y90741D01*
X399977Y90810D01*
Y90812D01*
X399974Y90820D01*
X399972Y90829D01*
X399969Y90844D01*
X399967Y90861D01*
X399964Y90883D01*
X399959Y90908D01*
X399957Y90938D01*
X399952Y90967D01*
X399947Y91002D01*
X399945Y91039D01*
X399942Y91075D01*
X399937Y91159D01*
X399935Y91250D01*
Y91252D01*
Y91262D01*
Y91277D01*
Y91297D01*
X399937Y91319D01*
Y91346D01*
X399940Y91378D01*
Y91412D01*
X399945Y91486D01*
X399954Y91565D01*
X399955Y91566D01*
X399954Y91567D01*
X399950Y91617D01*
X399947Y91671D01*
Y91673D01*
Y91678D01*
Y91685D01*
Y91698D01*
X399950Y91710D01*
Y91725D01*
X399954Y91762D01*
X399959Y91806D01*
X399967Y91853D01*
X399979Y91902D01*
X399996Y91949D01*
Y91951D01*
X399999Y91954D01*
X400001Y91961D01*
X400006Y91971D01*
X400016Y91993D01*
X400033Y92025D01*
X400048Y92054D01*
Y92163D01*
X400053Y92168D01*
X400065Y92177D01*
X400068Y92179D01*
Y92244D01*
X400070Y92246D01*
X400077Y92249D01*
X400087Y92254D01*
X400102Y92264D01*
X400122Y92271D01*
X400146Y92281D01*
X400171Y92293D01*
X400200Y92303D01*
X400235Y92315D01*
X400272Y92325D01*
X400309Y92335D01*
X400351Y92345D01*
X400395Y92352D01*
X400442Y92357D01*
X400491Y92360D01*
X400540Y92362D01*
X400562D01*
X400565Y92362D01*
X400574Y92362D01*
X400597D01*
X400601Y92361D01*
X400614Y92362D01*
X400651D01*
X400660Y92360D01*
X400670D01*
X400707Y92355D01*
X400736Y92349D01*
X400766Y92374D01*
X400857D01*
Y92313D01*
D02*
G37*
G36*
X397027Y92327D02*
X397285D01*
Y92114D01*
X397261D01*
X397266Y92111D01*
X397268Y92104D01*
X397275Y92094D01*
X397290Y92069D01*
X397307Y92035D01*
X397327Y91991D01*
X397349Y91939D01*
X397369Y91882D01*
X397386Y91818D01*
Y91816D01*
X397389Y91811D01*
X397391Y91801D01*
X397394Y91786D01*
X397396Y91772D01*
X397401Y91749D01*
X397403Y91727D01*
X397408Y91703D01*
X397413Y91673D01*
X397416Y91641D01*
X397423Y91572D01*
X397428Y91496D01*
X397430Y91415D01*
Y91412D01*
Y91403D01*
Y91388D01*
Y91368D01*
X397428Y91341D01*
Y91314D01*
X397426Y91280D01*
X397423Y91245D01*
X397421Y91206D01*
X397416Y91166D01*
X397406Y91080D01*
X397394Y90994D01*
X397379Y90932D01*
X397381Y90888D01*
Y90886D01*
Y90881D01*
Y90874D01*
Y90864D01*
X397379Y90849D01*
Y90834D01*
X397374Y90797D01*
X397369Y90753D01*
X397359Y90709D01*
X397344Y90660D01*
X397327Y90613D01*
Y90610D01*
X397325Y90608D01*
X397317Y90593D01*
X397305Y90569D01*
X397290Y90542D01*
X397268Y90507D01*
X397243Y90473D01*
X397240Y90468D01*
X397416D01*
Y90256D01*
X396904D01*
X396897Y90254D01*
X396860Y90246D01*
X396815Y90237D01*
X396764Y90229D01*
X396707Y90224D01*
X396646Y90222D01*
X396599D01*
X396597Y90222D01*
X396589Y90222D01*
X396555D01*
X396537Y90224D01*
X396515Y90227D01*
X396493D01*
X396469Y90232D01*
X396412Y90239D01*
X396351Y90251D01*
X396333Y90256D01*
X396139D01*
Y90357D01*
Y90359D01*
Y90362D01*
Y90369D01*
Y90379D01*
X396141Y90404D01*
Y90436D01*
X396146Y90473D01*
X396151Y90512D01*
X396156Y90551D01*
X396159Y90561D01*
Y90586D01*
X396161Y90583D01*
X396164Y90582D01*
X396166Y90591D01*
X396168Y90596D01*
X396171Y90608D01*
X396178Y90628D01*
X396188Y90652D01*
X396203Y90682D01*
X396220Y90714D01*
X396240Y90748D01*
X396262Y90783D01*
X396264Y90788D01*
X396274Y90800D01*
X396289Y90817D01*
X396309Y90842D01*
X396333Y90869D01*
X396363Y90901D01*
X396397Y90933D01*
X396437Y90967D01*
X396439D01*
X396442Y90972D01*
X396456Y90984D01*
X396478Y91002D01*
X396510Y91026D01*
X396538Y91050D01*
X396520Y91056D01*
X396478Y91070D01*
X396474Y91073D01*
X396459Y91080D01*
X396439Y91090D01*
X396412Y91105D01*
X396382Y91125D01*
X396351Y91147D01*
X396319Y91174D01*
X396287Y91203D01*
X396284Y91208D01*
X396274Y91218D01*
X396259Y91238D01*
X396240Y91262D01*
X396220Y91292D01*
X396200Y91326D01*
X396178Y91366D01*
X396161Y91408D01*
Y91410D01*
X396159Y91412D01*
X396156Y91420D01*
X396154Y91427D01*
X396146Y91452D01*
X396139Y91484D01*
X396132Y91523D01*
X396124Y91567D01*
X396119Y91617D01*
X396117Y91671D01*
Y91673D01*
Y91678D01*
Y91685D01*
Y91698D01*
X396119Y91710D01*
Y91725D01*
X396124Y91762D01*
X396129Y91806D01*
X396136Y91853D01*
X396149Y91902D01*
X396166Y91949D01*
Y91951D01*
X396168Y91954D01*
X396171Y91961D01*
X396176Y91971D01*
X396186Y91993D01*
X396203Y92025D01*
X396218Y92054D01*
Y92163D01*
X396223Y92168D01*
X396235Y92177D01*
X396237Y92179D01*
Y92244D01*
X396240Y92246D01*
X396247Y92249D01*
X396257Y92254D01*
X396272Y92264D01*
X396291Y92271D01*
X396316Y92281D01*
X396323Y92284D01*
X396326Y92327D01*
X396451D01*
X396478Y92335D01*
X396520Y92345D01*
X396565Y92352D01*
X396611Y92357D01*
X396660Y92360D01*
X396710Y92362D01*
X396732D01*
X396735Y92362D01*
X396744Y92362D01*
X396766D01*
X396771Y92361D01*
X396783Y92362D01*
X396811D01*
X396823Y92360D01*
X396840D01*
X396877Y92355D01*
X396906Y92349D01*
X396936Y92374D01*
X397027D01*
Y92327D01*
D02*
G37*
G36*
X404338Y92416D02*
X404353Y92414D01*
X404370Y92409D01*
X404387Y92399D01*
X404407Y92389D01*
X404424Y92374D01*
X404427Y92372D01*
X404432Y92367D01*
X404439Y92357D01*
X404449Y92345D01*
X404456Y92327D01*
X404464Y92308D01*
X404468Y92288D01*
X404471Y92264D01*
Y92261D01*
Y92254D01*
X404468Y92241D01*
X404466Y92227D01*
X404459Y92209D01*
X404451Y92192D01*
X404439Y92172D01*
X404424Y92155D01*
X404422Y92153D01*
X404417Y92148D01*
X404407Y92141D01*
X404395Y92133D01*
X404378Y92126D01*
X404358Y92118D01*
X404338Y92114D01*
X404314Y92111D01*
X404304D01*
X404291Y92114D01*
X404277Y92116D01*
X404259Y92121D01*
X404242Y92128D01*
X404222Y92138D01*
X404205Y92153D01*
X404203Y92155D01*
X404198Y92160D01*
X404190Y92170D01*
X404183Y92182D01*
X404176Y92200D01*
X404168Y92219D01*
X404164Y92239D01*
X404161Y92264D01*
Y92266D01*
Y92276D01*
X404164Y92288D01*
X404166Y92303D01*
X404171Y92320D01*
X404181Y92337D01*
X404190Y92357D01*
X404205Y92374D01*
X404208Y92377D01*
X404213Y92382D01*
X404222Y92389D01*
X404237Y92396D01*
X404252Y92404D01*
X404272Y92411D01*
X404291Y92416D01*
X404314Y92418D01*
X404326D01*
X404338Y92416D01*
D02*
G37*
G36*
X403302Y91764D02*
X403335Y91759D01*
X403371Y91752D01*
X403413Y91737D01*
X403457Y91720D01*
X403502Y91693D01*
X403546Y91661D01*
X403590Y91622D01*
X403632Y91572D01*
X403652Y91545D01*
X403669Y91516D01*
X403686Y91481D01*
X403701Y91447D01*
X403713Y91408D01*
X403726Y91366D01*
X403733Y91321D01*
X403740Y91272D01*
X403743Y91220D01*
X403745Y91166D01*
Y90256D01*
X403509D01*
Y91105D01*
Y91107D01*
Y91115D01*
Y91129D01*
Y91144D01*
X403507Y91166D01*
X403504Y91189D01*
X403499Y91243D01*
X403489Y91299D01*
X403477Y91358D01*
X403457Y91412D01*
X403445Y91437D01*
X403433Y91459D01*
Y91462D01*
X403430Y91464D01*
X403418Y91476D01*
X403398Y91494D01*
X403371Y91516D01*
X403337Y91535D01*
X403293Y91553D01*
X403238Y91565D01*
X403209Y91570D01*
X403162D01*
X403152Y91567D01*
X403123Y91562D01*
X403089Y91553D01*
X403049Y91535D01*
X403027Y91526D01*
X403005Y91511D01*
X402983Y91494D01*
X402960Y91476D01*
X402938Y91454D01*
X402919Y91430D01*
Y91427D01*
X402914Y91422D01*
X402909Y91415D01*
X402902Y91405D01*
X402894Y91393D01*
X402884Y91375D01*
X402877Y91358D01*
X402867Y91336D01*
X402847Y91289D01*
X402830Y91233D01*
X402818Y91169D01*
X402815Y91134D01*
X402813Y91100D01*
Y90256D01*
X402577D01*
Y91134D01*
Y91137D01*
Y91139D01*
Y91154D01*
X402574Y91174D01*
X402572Y91203D01*
X402567Y91235D01*
X402560Y91272D01*
X402550Y91312D01*
X402535Y91353D01*
X402518Y91393D01*
X402496Y91432D01*
X402468Y91469D01*
X402434Y91501D01*
X402397Y91531D01*
X402351Y91550D01*
X402299Y91565D01*
X402269Y91570D01*
X402225D01*
X402215Y91567D01*
X402186Y91562D01*
X402149Y91553D01*
X402109Y91538D01*
X402065Y91516D01*
X402043Y91501D01*
X402023Y91484D01*
X402001Y91462D01*
X401981Y91439D01*
Y91437D01*
X401976Y91435D01*
X401972Y91427D01*
X401967Y91415D01*
X401959Y91403D01*
X401950Y91388D01*
X401940Y91368D01*
X401932Y91348D01*
X401913Y91299D01*
X401895Y91240D01*
X401886Y91174D01*
X401881Y91100D01*
Y90256D01*
X401644D01*
Y91735D01*
X401881D01*
Y91501D01*
X401888D01*
X401890Y91503D01*
X401895Y91513D01*
X401905Y91526D01*
X401918Y91543D01*
X401935Y91562D01*
X401954Y91587D01*
X401976Y91609D01*
X402004Y91636D01*
X402036Y91661D01*
X402070Y91685D01*
X402107Y91708D01*
X402149Y91727D01*
X402193Y91745D01*
X402240Y91757D01*
X402291Y91767D01*
X402346Y91769D01*
X402360D01*
X402370Y91767D01*
X402400Y91764D01*
X402437Y91759D01*
X402478Y91747D01*
X402523Y91732D01*
X402567Y91712D01*
X402611Y91683D01*
X402614D01*
X402616Y91678D01*
X402628Y91668D01*
X402648Y91649D01*
X402673Y91624D01*
X402700Y91592D01*
X402724Y91555D01*
X402746Y91513D01*
X402766Y91464D01*
X402769Y91466D01*
X402774Y91476D01*
X402783Y91491D01*
X402798Y91511D01*
X402815Y91535D01*
X402835Y91560D01*
X402860Y91587D01*
X402889Y91617D01*
X402921Y91646D01*
X402958Y91673D01*
X403000Y91698D01*
X403044Y91722D01*
X403091Y91742D01*
X403143Y91757D01*
X403199Y91767D01*
X403258Y91769D01*
X403280D01*
X403302Y91764D01*
D02*
G37*
G36*
X391874Y92282D02*
X391915Y92394D01*
X392210D01*
X392057Y92010D01*
X392225D01*
Y91696D01*
X392230Y91693D01*
X392274Y91661D01*
X392319Y91622D01*
X392336Y91601D01*
X392514D01*
Y92394D01*
X392797D01*
Y92081D01*
X392806D01*
X392809Y92084D01*
X392815Y92096D01*
X392827Y92114D01*
X392844Y92137D01*
X392868Y92164D01*
X392894Y92194D01*
X392924Y92226D01*
X392962Y92258D01*
X393004Y92291D01*
X393048Y92323D01*
X393098Y92353D01*
X393154Y92379D01*
X393213Y92403D01*
X393278Y92421D01*
X393346Y92432D01*
X393419Y92435D01*
X393434D01*
X393452Y92432D01*
X393476D01*
X393505Y92430D01*
X393537Y92424D01*
X393576Y92415D01*
X393614Y92406D01*
X393655Y92394D01*
X393700Y92376D01*
X393744Y92359D01*
X393788Y92335D01*
X393832Y92309D01*
X393877Y92276D01*
X393915Y92238D01*
X393953Y92197D01*
X393956Y92194D01*
X393962Y92185D01*
X393971Y92173D01*
X393983Y92152D01*
X393998Y92129D01*
X393999Y92126D01*
X394028Y92172D01*
X394065Y92227D01*
X394102Y92278D01*
X394144Y92327D01*
X394358D01*
Y92325D01*
X394353Y92320D01*
X394346Y92313D01*
X394338Y92303D01*
X394328Y92288D01*
X394316Y92271D01*
X394301Y92254D01*
X394287Y92232D01*
X394269Y92204D01*
X394252Y92177D01*
X394233Y92148D01*
X394213Y92116D01*
X394173Y92042D01*
X394132Y91961D01*
X394098Y91893D01*
X394101Y91884D01*
X394116Y91828D01*
X394127Y91766D01*
X394136Y91701D01*
X394142Y91633D01*
X394143Y91623D01*
X394180Y91612D01*
X394222Y91601D01*
X394266Y91586D01*
X394310Y91568D01*
X394357Y91548D01*
X394399Y91521D01*
X394443Y91488D01*
X394480Y91457D01*
X394479Y91500D01*
Y91506D01*
Y91518D01*
X394481Y91542D01*
Y91568D01*
X394484Y91603D01*
X394490Y91645D01*
X394499Y91689D01*
X394508Y91739D01*
X394520Y91792D01*
X394534Y91845D01*
X394555Y91901D01*
X394576Y91957D01*
X394602Y92014D01*
X394624Y92050D01*
Y92163D01*
X394629Y92168D01*
X394641Y92177D01*
X394643Y92179D01*
Y92244D01*
X394646Y92246D01*
X394653Y92249D01*
X394663Y92254D01*
X394678Y92264D01*
X394697Y92271D01*
X394722Y92281D01*
X394747Y92293D01*
X394776Y92303D01*
X394811Y92315D01*
X394847Y92325D01*
X394884Y92335D01*
X394926Y92345D01*
X394952Y92349D01*
X394959Y92353D01*
X395006Y92374D01*
X395057Y92394D01*
X395113Y92412D01*
X395172Y92424D01*
X395231Y92432D01*
X395296Y92435D01*
X395328D01*
X395352Y92432D01*
X395381Y92430D01*
X395417Y92424D01*
X395452Y92418D01*
X395493Y92406D01*
X395535Y92394D01*
X395579Y92379D01*
X395623Y92362D01*
X395670Y92341D01*
X395712Y92314D01*
X395756Y92282D01*
X395794Y92250D01*
X395832Y92208D01*
X395835Y92205D01*
X395841Y92199D01*
X395850Y92185D01*
X395862Y92167D01*
X395877Y92143D01*
X395895Y92117D01*
X395909Y92084D01*
X395930Y92046D01*
X395948Y92005D01*
X395962Y91957D01*
X395980Y91907D01*
X395995Y91851D01*
X396007Y91792D01*
X396015Y91727D01*
X396021Y91660D01*
X396024Y91586D01*
Y91435D01*
X395654D01*
X395649Y91427D01*
X395630Y91393D01*
X395627Y91388D01*
X395620Y91378D01*
X395608Y91361D01*
X395590Y91339D01*
X395571Y91314D01*
X395544Y91287D01*
X395520Y91259D01*
X395521Y91257D01*
X395546Y91243D01*
X395571Y91225D01*
X395598Y91203D01*
X395622Y91181D01*
X395625Y91179D01*
X395632Y91169D01*
X395644Y91157D01*
X395659Y91139D01*
X395676Y91117D01*
X395694Y91090D01*
X395711Y91063D01*
X395726Y91031D01*
X395728Y91026D01*
X395731Y91016D01*
X395738Y90999D01*
X395745Y90974D01*
X395750Y90948D01*
X395756Y90921D01*
X395759Y90922D01*
X395809Y90949D01*
X395856Y90978D01*
X395903Y91013D01*
Y90748D01*
X395900Y90745D01*
X395891Y90742D01*
X395880Y90733D01*
X395862Y90721D01*
X395838Y90710D01*
X395809Y90695D01*
X395777Y90680D01*
X395738Y90665D01*
X395737Y90665D01*
X395726Y90630D01*
X395708Y90586D01*
X395706Y90581D01*
X395699Y90566D01*
X395686Y90547D01*
X395672Y90519D01*
X395649Y90487D01*
X395641Y90477D01*
X395634Y90468D01*
X395822D01*
Y90256D01*
X395307D01*
X395293Y90254D01*
X395278Y90251D01*
X395244Y90244D01*
X395199Y90234D01*
X395150Y90229D01*
X395093Y90224D01*
X395034Y90222D01*
X395005D01*
X394985Y90224D01*
X394961D01*
X394931Y90227D01*
X394899Y90232D01*
X394865Y90237D01*
X394791Y90249D01*
X394761Y90256D01*
X394545D01*
Y90357D01*
Y90359D01*
Y90362D01*
Y90369D01*
Y90379D01*
X394547Y90404D01*
Y90436D01*
X394552Y90473D01*
X394557Y90512D01*
X394562Y90551D01*
X394565Y90561D01*
Y90586D01*
X394567Y90583D01*
X394570Y90582D01*
X394572Y90591D01*
X394574Y90596D01*
X394577Y90608D01*
X394584Y90628D01*
X394590Y90642D01*
X393955D01*
X393959Y90620D01*
X393984Y90524D01*
X394014Y90424D01*
X394050Y90318D01*
X394095Y90212D01*
X394146Y90104D01*
X394181Y90040D01*
X394183Y90040D01*
X394222Y90046D01*
X394307Y90070D01*
X394352Y90087D01*
X394399Y90105D01*
X394446Y90128D01*
X394496Y90155D01*
X394543Y90185D01*
X394591Y90220D01*
Y89955D01*
X394588Y89951D01*
X394579Y89949D01*
X394567Y89940D01*
X394549Y89928D01*
X394526Y89916D01*
X394496Y89901D01*
X394464Y89887D01*
X394425Y89872D01*
X394381Y89854D01*
X394337Y89839D01*
X394317Y89834D01*
X394356Y89786D01*
X394144D01*
Y89789D01*
X394139Y89791D01*
X394136Y89796D01*
X394107Y89792D01*
X394042Y89789D01*
X393971Y89786D01*
X393953D01*
X393936Y89789D01*
X393909D01*
X393877Y89795D01*
X393841Y89798D01*
X393800Y89807D01*
X393756Y89816D01*
X393711Y89828D01*
X393661Y89845D01*
X393614Y89863D01*
X393564Y89887D01*
X393517Y89913D01*
X393470Y89946D01*
X393422Y89984D01*
X393381Y90025D01*
X393378Y90028D01*
X393372Y90037D01*
X393360Y90052D01*
X393349Y90070D01*
X393331Y90096D01*
X393313Y90126D01*
X393293Y90161D01*
X393275Y90202D01*
X393254Y90246D01*
X393234Y90297D01*
X393216Y90353D01*
X393198Y90415D01*
X393186Y90480D01*
X393175Y90550D01*
X393170Y90607D01*
X393142Y90618D01*
X393098Y90633D01*
X393057Y90651D01*
X393012Y90677D01*
X392968Y90704D01*
X392924Y90739D01*
X392882Y90777D01*
X392841Y90822D01*
X392806Y90875D01*
X392797D01*
Y90070D01*
X392909D01*
Y89828D01*
X392797D01*
Y89807D01*
X392514D01*
Y89828D01*
X392225D01*
Y89821D01*
X391989D01*
Y89828D01*
X391544D01*
Y89821D01*
X391305D01*
Y90050D01*
X391300D01*
X391298Y90047D01*
X391293Y90037D01*
X391283Y90025D01*
X391271Y90008D01*
X391256Y89988D01*
X391236Y89966D01*
X391212Y89944D01*
X391184Y89919D01*
X391155Y89895D01*
X391121Y89870D01*
X391107Y89862D01*
Y89828D01*
X391040D01*
X390998Y89811D01*
X390951Y89799D01*
X390899Y89789D01*
X390845Y89786D01*
X390823D01*
X390808Y89789D01*
X390779Y89786D01*
X390741D01*
X390714Y89789D01*
X390685Y89792D01*
X390655Y89795D01*
X390623Y89801D01*
X390593Y89810D01*
Y89842D01*
X390550Y89865D01*
X390523Y89882D01*
X390498Y89902D01*
X390496Y89904D01*
X390493Y89907D01*
X390486Y89914D01*
X390478Y89924D01*
X390469Y89936D01*
X390459Y89949D01*
X390437Y89986D01*
X390412Y90030D01*
X390392Y90082D01*
X390378Y90143D01*
X390375Y90178D01*
X390373Y90212D01*
Y90217D01*
Y90229D01*
X390375Y90251D01*
X390376Y90256D01*
X390373D01*
Y90589D01*
X390350Y90586D01*
X390357Y90550D01*
X390363Y90503D01*
X390366Y90453D01*
Y90450D01*
Y90444D01*
Y90435D01*
Y90424D01*
X390363Y90388D01*
X390357Y90347D01*
X390349Y90297D01*
X390334Y90246D01*
X390316Y90193D01*
X390292Y90143D01*
X390289Y90137D01*
X390281Y90123D01*
X390263Y90099D01*
X390242Y90070D01*
X390213Y90037D01*
X390180Y90002D01*
X390166Y89988D01*
Y89833D01*
X390161Y89831D01*
X390151Y89826D01*
X390132Y89821D01*
X390107Y89813D01*
X390075Y89804D01*
X390038Y89799D01*
X389994Y89794D01*
X389945Y89791D01*
X389928D01*
X389908Y89794D01*
X389883Y89799D01*
X389854Y89804D01*
X389833Y89810D01*
X389823Y89807D01*
X389779Y89801D01*
X389726Y89795D01*
X389667Y89792D01*
X389646D01*
X389629Y89794D01*
X389608Y89792D01*
X389546Y89789D01*
X389481Y89786D01*
X389458D01*
X389440Y89789D01*
X389419D01*
X389396Y89792D01*
X389366Y89795D01*
X389337Y89798D01*
X389334D01*
X389322Y89801D01*
X389304D01*
X389283Y89804D01*
X389257Y89810D01*
X389225Y89813D01*
X389188Y89820D01*
X389186Y89819D01*
X389121Y89801D01*
X389051Y89789D01*
X388977Y89786D01*
X388962D01*
X388944Y89789D01*
X388921D01*
X388894Y89792D01*
X388862Y89798D01*
X388823Y89807D01*
X388785Y89816D01*
X388768Y89821D01*
X388596D01*
X388589Y89818D01*
X388538Y89806D01*
X388483Y89796D01*
X388424Y89789D01*
X388363Y89786D01*
X388348D01*
X388331Y89789D01*
X388309D01*
X388282Y89794D01*
X388250Y89796D01*
X388213Y89804D01*
X388188Y89810D01*
X388146Y89799D01*
X388087Y89789D01*
X388026Y89786D01*
X388014D01*
X387999Y89789D01*
X387979D01*
X387957Y89791D01*
X387930Y89796D01*
X387898Y89804D01*
X387866Y89811D01*
X387831Y89821D01*
X387795Y89836D01*
X387758Y89850D01*
X387721Y89870D01*
X387689Y89889D01*
X387685Y89887D01*
X387646Y89872D01*
X387602Y89854D01*
X387558Y89839D01*
X387505Y89825D01*
X387452Y89813D01*
X387393Y89801D01*
X387328Y89792D01*
X387263Y89789D01*
X387192Y89786D01*
X387174D01*
X387157Y89789D01*
X387130D01*
X387098Y89795D01*
X387062Y89798D01*
X387022Y89807D01*
X386994Y89801D01*
X386929Y89792D01*
X386864Y89789D01*
X386794Y89786D01*
X386776D01*
X386758Y89789D01*
X386732D01*
X386699Y89795D01*
X386664Y89798D01*
X386623Y89807D01*
X386578Y89816D01*
X386534Y89828D01*
X386525Y89831D01*
Y89828D01*
X386242D01*
Y89987D01*
X386204Y90025D01*
X386201Y90028D01*
X386195Y90037D01*
X386191Y90043D01*
X386183Y90034D01*
X386159Y90008D01*
X386133Y89978D01*
X386127Y89973D01*
Y89842D01*
X386121Y89839D01*
X386109Y89833D01*
X386086Y89828D01*
X386075Y89824D01*
Y89821D01*
X386063D01*
X386056Y89819D01*
X386018Y89807D01*
X385974Y89801D01*
X385921Y89795D01*
X385861Y89792D01*
X385841D01*
X385817Y89795D01*
X385802Y89798D01*
X385755Y89789D01*
X385687Y89786D01*
X385673D01*
X385661Y89789D01*
X385629Y89792D01*
X385587Y89798D01*
X385540Y89810D01*
X385487Y89828D01*
X385455D01*
Y89786D01*
X385212D01*
Y89821D01*
X385123D01*
Y90055D01*
X385118D01*
X385116Y90052D01*
X385111Y90042D01*
X385103Y90030D01*
X385091Y90013D01*
X385074Y89993D01*
X385054Y89971D01*
X385032Y89946D01*
X385005Y89922D01*
X384985Y89904D01*
Y89821D01*
X384843D01*
X384818Y89811D01*
X384769Y89799D01*
X384717Y89789D01*
X384661Y89786D01*
X384648D01*
X384639Y89789D01*
X384611Y89791D01*
X384577Y89796D01*
X384538Y89806D01*
X384532Y89808D01*
X384503Y89801D01*
X384459Y89796D01*
X384407Y89791D01*
X384353Y89789D01*
X384329D01*
X384299Y89791D01*
X384264Y89794D01*
X384223Y89799D01*
X384176Y89806D01*
X384141Y89813D01*
Y89786D01*
X383894D01*
X383873Y89789D01*
X383847D01*
X383838Y89791D01*
X383826Y89789D01*
X383752Y89786D01*
X383735D01*
X383714Y89789D01*
X383687D01*
X383655Y89795D01*
X383617Y89798D01*
X383572Y89807D01*
X383528Y89819D01*
X383478Y89831D01*
X383428Y89848D01*
X383385Y89863D01*
X383364Y89853D01*
X383320Y89836D01*
X383273Y89818D01*
X383222Y89806D01*
X383167Y89796D01*
X383108Y89789D01*
X383047Y89786D01*
X383032D01*
X383015Y89789D01*
X382993D01*
X382976Y89792D01*
Y89786D01*
X382732D01*
Y89789D01*
X382708Y89791D01*
X382683Y89789D01*
X382646Y89787D01*
X382634Y89786D01*
X382594D01*
X382581Y89788D01*
X382574Y89789D01*
X382550D01*
X382523Y89791D01*
X382493Y89794D01*
X382459Y89796D01*
X382390Y89806D01*
X382319Y89821D01*
X382298Y89828D01*
X382265D01*
Y89836D01*
X382257Y89833D01*
X382198Y89819D01*
X382139Y89810D01*
X382074Y89801D01*
X382006Y89792D01*
X381935Y89789D01*
X381858Y89786D01*
X381835D01*
X381808Y89789D01*
X381770Y89792D01*
X381726Y89798D01*
X381673Y89804D01*
X381616Y89816D01*
X381577Y89823D01*
X381568Y89821D01*
X381536Y89811D01*
X381497Y89801D01*
X381453Y89794D01*
X381409Y89789D01*
Y89786D01*
X381170D01*
Y89788D01*
X381118Y89786D01*
X381091D01*
X381071Y89789D01*
X381047D01*
X381020Y89791D01*
X380990Y89794D01*
X380956Y89796D01*
X380934Y89799D01*
Y89786D01*
X380690D01*
Y89821D01*
Y90621D01*
Y93105D01*
X380982D01*
Y92999D01*
X381009Y93014D01*
X381044Y93031D01*
X381083Y93049D01*
X381130Y93070D01*
X381183Y93090D01*
X381239Y93105D01*
X381242D01*
X381245Y93108D01*
X381254D01*
X381265Y93111D01*
X381298Y93117D01*
X381336Y93126D01*
X381383Y93135D01*
X381439Y93141D01*
X381495Y93143D01*
X381555Y93146D01*
X381613D01*
X381646Y93143D01*
X381681Y93141D01*
X381720D01*
X381761Y93135D01*
X381847Y93126D01*
X381938Y93108D01*
X381979Y93099D01*
X382021Y93087D01*
X382059Y93073D01*
X382091Y93058D01*
Y92730D01*
X382088Y92733D01*
X382083Y92736D01*
X382068Y92745D01*
X382050Y92754D01*
X382030Y92766D01*
X382003Y92778D01*
X381973Y92792D01*
X381938Y92807D01*
X381900Y92822D01*
X381855Y92837D01*
X381808Y92848D01*
X381758Y92860D01*
X381705Y92869D01*
X381649Y92878D01*
X381587Y92881D01*
X381525Y92884D01*
X381490D01*
X381466Y92881D01*
X381436Y92878D01*
X381404Y92875D01*
X381333Y92863D01*
X381330D01*
X381318Y92860D01*
X381301Y92854D01*
X381277Y92848D01*
X381251Y92840D01*
X381221Y92828D01*
X381165Y92798D01*
X381162Y92795D01*
X381153Y92789D01*
X381139Y92781D01*
X381124Y92766D01*
X381103Y92751D01*
X381083Y92730D01*
X381062Y92707D01*
X381044Y92680D01*
X381041Y92677D01*
X381038Y92668D01*
X381029Y92654D01*
X381021Y92633D01*
X381012Y92607D01*
X381006Y92577D01*
X381000Y92545D01*
X380997Y92509D01*
Y92506D01*
Y92494D01*
X381000Y92474D01*
X381003Y92453D01*
X381006Y92427D01*
X381012Y92397D01*
X381021Y92368D01*
X381032Y92341D01*
X381035Y92338D01*
X381038Y92329D01*
X381047Y92317D01*
X381051Y92312D01*
X381134D01*
X381138Y92313D01*
X381175Y92327D01*
X381219Y92340D01*
X381271Y92352D01*
X381327Y92360D01*
X381389Y92362D01*
X381406D01*
X381416Y92360D01*
X381431Y92357D01*
X381448Y92355D01*
X381490Y92345D01*
X381539Y92330D01*
X381595Y92305D01*
X381603Y92301D01*
X381670Y92317D01*
X381761Y92338D01*
X381858Y92350D01*
X381959Y92353D01*
X381994D01*
X382018Y92350D01*
X382047D01*
X382083Y92347D01*
X382121Y92344D01*
X382165Y92341D01*
X382257Y92326D01*
X382265Y92325D01*
Y93105D01*
X382558D01*
Y92394D01*
X382640D01*
Y92453D01*
X382923D01*
Y91906D01*
X382951Y91900D01*
X382968Y91893D01*
X382971Y91902D01*
X382988Y91949D01*
Y91951D01*
X382990Y91954D01*
X382993Y91961D01*
X382998Y91971D01*
X383008Y91993D01*
X383025Y92025D01*
X383042Y92059D01*
X383059Y92085D01*
Y92244D01*
X383062Y92246D01*
X383069Y92249D01*
X383079Y92254D01*
X383094Y92264D01*
X383113Y92271D01*
X383138Y92281D01*
X383145Y92284D01*
X383148Y92327D01*
X383273D01*
X383300Y92335D01*
X383342Y92345D01*
X383386Y92352D01*
X383433Y92357D01*
X383482Y92360D01*
X383531Y92362D01*
X383554D01*
X383570Y92360D01*
X383577Y92361D01*
X383619Y92376D01*
X383679Y92397D01*
X383740Y92412D01*
X383808Y92424D01*
X383879Y92432D01*
X383956Y92435D01*
X383974D01*
X383994Y92432D01*
X384021D01*
X384053Y92427D01*
X384091Y92424D01*
X384136Y92415D01*
X384180Y92406D01*
X384230Y92391D01*
X384280Y92376D01*
X384331Y92356D01*
X384369Y92339D01*
Y92394D01*
X384652D01*
Y92114D01*
X384661D01*
X384664Y92117D01*
X384670Y92129D01*
X384682Y92143D01*
X384696Y92164D01*
X384717Y92188D01*
X384740Y92217D01*
X384767Y92244D01*
X384800Y92276D01*
X384838Y92306D01*
X384879Y92335D01*
X384923Y92362D01*
X384974Y92385D01*
X385027Y92406D01*
X385083Y92421D01*
X385145Y92432D01*
X385210Y92435D01*
X385227D01*
X385239Y92432D01*
X385251Y92431D01*
Y92453D01*
Y93247D01*
X385534D01*
Y92453D01*
Y92326D01*
X385549Y92314D01*
X385572Y92291D01*
X385602Y92261D01*
X385634Y92223D01*
X385664Y92179D01*
X385690Y92129D01*
X385714Y92070D01*
X385717Y92073D01*
X385723Y92084D01*
X385735Y92102D01*
X385752Y92126D01*
X385773Y92155D01*
X385797Y92185D01*
X385826Y92217D01*
X385861Y92252D01*
X385900Y92288D01*
X385944Y92320D01*
X385994Y92350D01*
X386047Y92379D01*
X386103Y92403D01*
X386165Y92421D01*
X386233Y92432D01*
X386304Y92435D01*
X386331D01*
X386357Y92430D01*
X386396Y92424D01*
X386440Y92415D01*
X386490Y92397D01*
X386533Y92380D01*
X386567Y92394D01*
X386623Y92412D01*
X386682Y92424D01*
X386741Y92432D01*
X386806Y92435D01*
X386838D01*
X386862Y92432D01*
X386891Y92430D01*
X386927Y92424D01*
X386962Y92418D01*
X387003Y92406D01*
X387045Y92394D01*
X387089Y92379D01*
X387133Y92362D01*
X387180Y92341D01*
X387201Y92327D01*
X387295D01*
Y92257D01*
X387304Y92250D01*
X387342Y92208D01*
X387345Y92205D01*
X387351Y92199D01*
X387360Y92185D01*
X387372Y92167D01*
X387387Y92143D01*
X387404Y92117D01*
X387419Y92084D01*
X387425Y92073D01*
Y93247D01*
X387708D01*
Y92081D01*
X387717D01*
X387720Y92084D01*
X387726Y92096D01*
X387738Y92114D01*
X387755Y92137D01*
X387779Y92164D01*
X387806Y92194D01*
X387835Y92226D01*
X387873Y92258D01*
X387915Y92291D01*
X387959Y92323D01*
X388009Y92353D01*
X388065Y92379D01*
X388124Y92403D01*
X388189Y92421D01*
X388257Y92432D01*
X388331Y92435D01*
X388345D01*
X388363Y92432D01*
X388387D01*
X388416Y92430D01*
X388449Y92424D01*
X388484Y92415D01*
X388525Y92406D01*
X388567Y92394D01*
X388611Y92376D01*
X388652Y92359D01*
X388697Y92335D01*
X388741Y92309D01*
X388785Y92276D01*
X388823Y92238D01*
X388862Y92197D01*
X388865Y92194D01*
X388871Y92185D01*
X388879Y92173D01*
X388891Y92152D01*
X388906Y92129D01*
X388924Y92102D01*
X388941Y92067D01*
X388959Y92028D01*
X388963Y92020D01*
X388968Y92028D01*
X388991Y92058D01*
X389018Y92090D01*
X389051Y92126D01*
X389089Y92158D01*
X389133Y92191D01*
X389139Y92194D01*
X389154Y92205D01*
X389180Y92220D01*
X389216Y92238D01*
X389254Y92256D01*
X389301Y92276D01*
X389354Y92297D01*
X389410Y92312D01*
X389413D01*
X389416Y92314D01*
X389425D01*
X389437Y92317D01*
Y92843D01*
X388723D01*
Y93105D01*
X390446D01*
Y92843D01*
X389729D01*
Y92453D01*
X389877D01*
Y92347D01*
X389884D01*
X389903Y92356D01*
X389959Y92376D01*
X390018Y92397D01*
X390080Y92412D01*
X390148Y92424D01*
X390219Y92432D01*
X390295Y92435D01*
X390313D01*
X390334Y92432D01*
X390360D01*
X390393Y92427D01*
X390431Y92424D01*
X390475Y92415D01*
X390520Y92406D01*
X390560Y92394D01*
X390850D01*
X390854Y92382D01*
X390859Y92385D01*
X390877Y92394D01*
X390894Y92403D01*
X390918Y92412D01*
X390941Y92418D01*
X390968Y92421D01*
X390983D01*
X390998Y92418D01*
X391015Y92415D01*
X391036Y92409D01*
X391056Y92397D01*
X391080Y92385D01*
X391101Y92368D01*
X391104Y92365D01*
X391110Y92359D01*
X391118Y92347D01*
X391130Y92332D01*
X391139Y92312D01*
X391148Y92288D01*
X391154Y92264D01*
X391157Y92235D01*
Y92232D01*
Y92223D01*
X391154Y92208D01*
X391151Y92191D01*
X391142Y92170D01*
X391133Y92149D01*
X391118Y92126D01*
X391101Y92105D01*
X391098Y92102D01*
X391092Y92096D01*
X391080Y92087D01*
X391065Y92079D01*
X391045Y92070D01*
X391021Y92061D01*
X391003Y92056D01*
X391003Y92055D01*
X391024Y92014D01*
X391045Y91969D01*
X391065Y91919D01*
X391083Y91863D01*
X391101Y91801D01*
X391109Y91766D01*
X391128Y91764D01*
X391165Y91759D01*
X391207Y91747D01*
X391251Y91732D01*
X391295Y91712D01*
X391339Y91683D01*
X391342D01*
X391344Y91678D01*
X391357Y91668D01*
X391376Y91649D01*
X391401Y91624D01*
X391428Y91592D01*
X391453Y91555D01*
X391475Y91513D01*
X391494Y91464D01*
X391497Y91466D01*
X391502Y91476D01*
X391512Y91491D01*
X391527Y91511D01*
X391544Y91535D01*
X391549Y91542D01*
Y91601D01*
X391590D01*
Y93247D01*
X391874D01*
Y92282D01*
D02*
G37*
G36*
X405145Y90256D02*
X404909D01*
Y92446D01*
X405145D01*
Y90256D01*
D02*
G37*
G36*
X404429D02*
X404193D01*
Y91735D01*
X404429D01*
Y90256D01*
D02*
G37*
G36*
X397920Y90547D02*
X397935Y90544D01*
X397954Y90537D01*
X397974Y90529D01*
X397994Y90517D01*
X398011Y90500D01*
X398013Y90497D01*
X398018Y90490D01*
X398026Y90480D01*
X398036Y90468D01*
X398045Y90451D01*
X398053Y90431D01*
X398058Y90409D01*
X398060Y90384D01*
Y90382D01*
Y90374D01*
X398058Y90359D01*
X398055Y90345D01*
X398048Y90328D01*
X398041Y90308D01*
X398028Y90288D01*
X398011Y90271D01*
X398009Y90268D01*
X398004Y90264D01*
X397994Y90256D01*
X397979Y90249D01*
X397962Y90241D01*
X397942Y90234D01*
X397920Y90229D01*
X397895Y90227D01*
X397886D01*
X397871Y90229D01*
X397856Y90232D01*
X397839Y90237D01*
X397819Y90246D01*
X397799Y90256D01*
X397782Y90271D01*
X397780Y90273D01*
X397775Y90278D01*
X397767Y90288D01*
X397760Y90303D01*
X397750Y90320D01*
X397743Y90337D01*
X397738Y90359D01*
X397736Y90384D01*
Y90387D01*
Y90396D01*
X397738Y90409D01*
X397740Y90424D01*
X397748Y90441D01*
X397755Y90460D01*
X397767Y90480D01*
X397782Y90500D01*
X397785Y90502D01*
X397790Y90507D01*
X397799Y90514D01*
X397814Y90524D01*
X397831Y90534D01*
X397849Y90542D01*
X397871Y90547D01*
X397895Y90549D01*
X397908D01*
X397920Y90547D01*
D02*
G37*
G36*
X405632Y92325D02*
X405635Y92323D01*
X405642Y92313D01*
X405649Y92303D01*
X405659Y92291D01*
X405672Y92273D01*
X405686Y92254D01*
X405701Y92234D01*
X405718Y92209D01*
X405735Y92182D01*
X405753Y92153D01*
X405772Y92121D01*
X405814Y92049D01*
X405856Y91968D01*
X405898Y91880D01*
X405940Y91781D01*
X405976Y91676D01*
X406011Y91565D01*
X406040Y91444D01*
X406063Y91316D01*
X406077Y91184D01*
X406082Y91115D01*
Y91046D01*
Y91043D01*
Y91039D01*
Y91026D01*
Y91014D01*
X406080Y90994D01*
Y90974D01*
X406077Y90948D01*
X406075Y90920D01*
X406072Y90891D01*
X406068Y90856D01*
X406065Y90820D01*
X406058Y90783D01*
X406045Y90699D01*
X406026Y90608D01*
X406001Y90510D01*
X405972Y90409D01*
X405935Y90305D01*
X405890Y90197D01*
X405839Y90091D01*
X405780Y89986D01*
X405745Y89936D01*
X405708Y89885D01*
X405672Y89836D01*
X405630Y89786D01*
X405420D01*
X405423Y89789D01*
X405426Y89794D01*
X405433Y89801D01*
X405440Y89811D01*
X405450Y89826D01*
X405462Y89841D01*
X405475Y89860D01*
X405492Y89882D01*
X405507Y89907D01*
X405524Y89934D01*
X405544Y89964D01*
X405563Y89995D01*
X405603Y90067D01*
X405647Y90145D01*
X405689Y90234D01*
X405728Y90333D01*
X405767Y90436D01*
X405799Y90547D01*
X405829Y90665D01*
X405851Y90788D01*
X405866Y90916D01*
X405871Y90982D01*
Y91048D01*
Y91051D01*
Y91056D01*
Y91068D01*
Y91080D01*
X405868Y91097D01*
Y91120D01*
X405866Y91144D01*
X405863Y91171D01*
X405861Y91201D01*
X405856Y91235D01*
X405854Y91270D01*
X405846Y91309D01*
X405834Y91393D01*
X405814Y91481D01*
X405790Y91580D01*
X405760Y91683D01*
X405723Y91789D01*
X405679Y91897D01*
X405627Y92005D01*
X405566Y92116D01*
X405531Y92170D01*
X405497Y92222D01*
X405457Y92276D01*
X405416Y92327D01*
X405630D01*
X405632Y92325D01*
D02*
G37*
G36*
X250244Y64664D02*
X250492Y64498D01*
X250658Y64250D01*
X250716Y63958D01*
Y6246D01*
X250658Y5954D01*
X250492Y5706D01*
X250244Y5540D01*
X249951Y5482D01*
X151350D01*
X151057Y5540D01*
X150809Y5706D01*
X150644Y5954D01*
X150585Y6246D01*
Y63958D01*
X150644Y64250D01*
X150809Y64498D01*
X151057Y64664D01*
X151350Y64722D01*
X249951D01*
X250244Y64664D01*
D02*
G37*
%LPC*%
G36*
X399084Y92114D02*
X399009D01*
X398978Y92099D01*
X398973Y92096D01*
X398958Y92086D01*
X398938Y92074D01*
X398911Y92054D01*
X398882Y92030D01*
X398850Y92000D01*
X398818Y91963D01*
X398786Y91924D01*
Y91922D01*
X398783Y91919D01*
X398779Y91912D01*
X398774Y91904D01*
X398759Y91880D01*
X398752Y91866D01*
X398735Y91622D01*
X398747Y91604D01*
X398754Y91595D01*
X398776Y91626D01*
X398779Y91629D01*
X398781Y91634D01*
X398788Y91644D01*
X398798Y91658D01*
X398808Y91673D01*
X398823Y91693D01*
X398838Y91715D01*
X398852Y91740D01*
X398889Y91794D01*
X398929Y91853D01*
X398970Y91917D01*
X399010Y91983D01*
X399012Y91986D01*
X399015Y91991D01*
X399020Y92000D01*
X399027Y92013D01*
X399037Y92030D01*
X399049Y92049D01*
X399059Y92069D01*
X399074Y92094D01*
X399084Y92114D01*
D02*
G37*
G36*
X399212Y91971D02*
X399207Y91966D01*
X399202Y91956D01*
X399194Y91941D01*
X399184Y91924D01*
X399172Y91904D01*
X399145Y91860D01*
X399113Y91808D01*
X399079Y91749D01*
X399042Y91690D01*
X399005Y91634D01*
Y91631D01*
X399000Y91626D01*
X398995Y91619D01*
X398988Y91609D01*
X398970Y91580D01*
X398946Y91545D01*
X398932Y91524D01*
X398936Y91526D01*
X398985Y91540D01*
X399042Y91548D01*
X399101Y91550D01*
X399123D01*
X399150Y91548D01*
X399182Y91545D01*
X399212Y91539D01*
Y91971D01*
D02*
G37*
G36*
X399020Y91275D02*
X399005D01*
X398988Y91272D01*
X398966Y91270D01*
X398941Y91267D01*
X398914Y91262D01*
X398884Y91252D01*
X398855Y91243D01*
X398852Y91240D01*
X398843Y91238D01*
X398828Y91230D01*
X398811Y91220D01*
X398788Y91208D01*
X398766Y91191D01*
X398744Y91174D01*
X398722Y91154D01*
X398720Y91152D01*
X398712Y91144D01*
X398702Y91132D01*
X398690Y91117D01*
X398678Y91097D01*
X398663Y91075D01*
X398659Y91069D01*
X398658Y91066D01*
X398653Y91046D01*
X398646Y91021D01*
X398641Y90994D01*
X398638Y90965D01*
X398638Y90960D01*
X399212D01*
Y91210D01*
X399199Y91218D01*
X399182Y91228D01*
X399162Y91238D01*
X399138Y91250D01*
X399113Y91260D01*
X399084Y91270D01*
X399083Y91270D01*
X399054Y91272D01*
X399020Y91275D01*
D02*
G37*
G36*
X399212Y90741D02*
X398671D01*
X398690Y90687D01*
X398727Y90615D01*
X398769Y90551D01*
X398780Y90538D01*
X398788Y90529D01*
X398808Y90512D01*
X398830Y90495D01*
X398855Y90478D01*
X398882Y90460D01*
X398884Y90458D01*
X398894Y90456D01*
X398911Y90448D01*
X398931Y90441D01*
X398943Y90438D01*
X398953Y90436D01*
X398985Y90433D01*
X399002Y90432D01*
X399017Y90436D01*
X399054Y90443D01*
X399089Y90453D01*
X399093Y90456D01*
X399103Y90460D01*
X399120Y90468D01*
X399143Y90478D01*
X399165Y90490D01*
X399192Y90507D01*
X399212Y90523D01*
Y90741D01*
D02*
G37*
G36*
X400857Y91890D02*
Y91710D01*
X400865Y91742D01*
X400867Y91774D01*
X400870Y91808D01*
Y91813D01*
Y91823D01*
X400867Y91840D01*
X400865Y91863D01*
X400857Y91890D01*
D02*
G37*
G36*
X400619Y92045D02*
X400614Y92040D01*
X400606Y92035D01*
X400599Y92027D01*
X400587Y92018D01*
X400572Y92005D01*
X400557Y91993D01*
X400537Y91981D01*
X400535Y91978D01*
X400528Y91976D01*
X400518Y91968D01*
X400503Y91958D01*
X400486Y91949D01*
X400466Y91936D01*
X400419Y91912D01*
X400417Y91909D01*
X400410Y91907D01*
X400395Y91900D01*
X400378Y91890D01*
X400358Y91880D01*
X400333Y91870D01*
X400282Y91845D01*
X400279D01*
X400271Y91841D01*
X400264Y91826D01*
X400247Y91781D01*
X400232Y91732D01*
X400220Y91678D01*
X400208Y91619D01*
X400200Y91573D01*
X400200Y91572D01*
X400208Y91538D01*
X400218Y91503D01*
X400220Y91499D01*
X400223Y91489D01*
X400230Y91474D01*
X400240Y91454D01*
X400252Y91430D01*
X400253Y91427D01*
X400380D01*
X400405Y91430D01*
X400439Y91432D01*
X400476Y91439D01*
X400520Y91447D01*
X400567Y91459D01*
X400614Y91474D01*
X400619Y91476D01*
Y92045D01*
D02*
G37*
G36*
X401022Y91292D02*
X401015D01*
X401012Y91289D01*
X401007Y91280D01*
X401000Y91267D01*
X400990Y91250D01*
X400979Y91237D01*
X400995Y91225D01*
X401019Y91206D01*
X401020Y91216D01*
X401022Y91292D01*
D02*
G37*
G36*
X400184Y91144D02*
X400186Y91129D01*
X400191Y91066D01*
X400200Y90994D01*
X400211Y90940D01*
X400215Y90921D01*
X400227Y90933D01*
X400267Y90967D01*
X400269D01*
X400272Y90972D01*
X400286Y90984D01*
X400309Y91002D01*
X400341Y91026D01*
X400369Y91050D01*
X400351Y91056D01*
X400309Y91070D01*
X400304Y91073D01*
X400289Y91080D01*
X400269Y91090D01*
X400242Y91105D01*
X400213Y91125D01*
X400184Y91144D01*
D02*
G37*
G36*
X400857Y91044D02*
Y90637D01*
X400865Y90647D01*
Y90650D01*
X400867Y90652D01*
X400877Y90667D01*
X400892Y90692D01*
X400909Y90724D01*
X400926Y90763D01*
X400945Y90807D01*
X400946Y90820D01*
Y90825D01*
Y90837D01*
X400941Y90856D01*
X400936Y90883D01*
X400929Y90913D01*
X400916Y90948D01*
X400897Y90984D01*
X400875Y91024D01*
X400857Y91044D01*
D02*
G37*
G36*
X400619Y90997D02*
X400582Y90970D01*
X400542Y90940D01*
X400500Y90911D01*
X400464Y90881D01*
X400459Y90879D01*
X400449Y90869D01*
X400432Y90854D01*
X400410Y90837D01*
X400385Y90815D01*
X400360Y90793D01*
X400336Y90768D01*
X400314Y90743D01*
X400311Y90741D01*
X400304Y90733D01*
X400296Y90719D01*
X400284Y90704D01*
X400280Y90698D01*
X400281Y90694D01*
X400284Y90687D01*
X400321Y90615D01*
X400363Y90551D01*
X400385Y90524D01*
X400412Y90500D01*
X400439Y90475D01*
X400453Y90468D01*
X400619D01*
Y90997D01*
D02*
G37*
G36*
X397027Y91890D02*
Y91710D01*
X397034Y91742D01*
X397037Y91774D01*
X397039Y91808D01*
Y91813D01*
Y91823D01*
X397037Y91840D01*
X397034Y91863D01*
X397027Y91890D01*
D02*
G37*
G36*
X396788Y92045D02*
X396783Y92040D01*
X396776Y92035D01*
X396769Y92027D01*
X396756Y92018D01*
X396742Y92005D01*
X396727Y91993D01*
X396707Y91981D01*
X396705Y91978D01*
X396697Y91976D01*
X396688Y91968D01*
X396673Y91958D01*
X396656Y91949D01*
X396636Y91936D01*
X396589Y91912D01*
X396587Y91909D01*
X396579Y91907D01*
X396565Y91900D01*
X396547Y91890D01*
X396528Y91880D01*
X396516Y91875D01*
X396491Y91506D01*
X396508D01*
X396520Y91508D01*
X396552D01*
X396589Y91511D01*
X396609D01*
X396621Y91513D01*
X396707D01*
X396722Y91511D01*
X396739D01*
X396779Y91508D01*
X396788Y91507D01*
Y92045D01*
D02*
G37*
G36*
X397027Y91044D02*
Y90637D01*
X397034Y90647D01*
Y90650D01*
X397037Y90652D01*
X397047Y90667D01*
X397061Y90692D01*
X397079Y90724D01*
X397096Y90763D01*
X397115Y90807D01*
X397116Y90820D01*
Y90825D01*
Y90837D01*
X397111Y90856D01*
X397106Y90883D01*
X397098Y90913D01*
X397086Y90948D01*
X397066Y90984D01*
X397044Y91024D01*
X397027Y91044D01*
D02*
G37*
G36*
X396788Y90997D02*
X396751Y90970D01*
X396712Y90940D01*
X396670Y90911D01*
X396633Y90881D01*
X396628Y90879D01*
X396619Y90869D01*
X396601Y90854D01*
X396579Y90837D01*
X396555Y90815D01*
X396530Y90793D01*
X396505Y90768D01*
X396483Y90743D01*
X396481Y90741D01*
X396474Y90733D01*
X396466Y90719D01*
X396454Y90704D01*
X396442Y90684D01*
X396429Y90662D01*
X396417Y90640D01*
X396407Y90615D01*
Y90613D01*
X396405Y90603D01*
X396400Y90591D01*
X396397Y90574D01*
X396392Y90551D01*
X396387Y90527D01*
X396385Y90497D01*
Y90474D01*
X396403Y90468D01*
X396788D01*
Y90997D01*
D02*
G37*
G36*
X384151Y92156D02*
Y92079D01*
X384149D01*
X384144Y92081D01*
X384137Y92086D01*
X384124Y92091D01*
X384111Y92098D01*
X384124Y92077D01*
X384141Y92042D01*
X384144Y92037D01*
X384149Y92025D01*
X384156Y92005D01*
X384164Y91981D01*
X384171Y91949D01*
X384176Y91923D01*
X384179Y91917D01*
X384191Y91919D01*
X384250Y91924D01*
X384314Y91926D01*
X384336D01*
X384341Y91926D01*
X384353Y91926D01*
X384369D01*
Y92001D01*
X384357Y92017D01*
X384354Y92019D01*
X384351Y92025D01*
X384342Y92034D01*
X384331Y92046D01*
X384316Y92058D01*
X384295Y92073D01*
X384274Y92090D01*
X384248Y92108D01*
X384221Y92123D01*
X384189Y92140D01*
X384154Y92155D01*
X384151Y92156D01*
D02*
G37*
G36*
X382018Y92087D02*
X382024Y92081D01*
X382038Y92061D01*
X382059Y92037D01*
X382076Y92014D01*
X382265D01*
Y92047D01*
X382233Y92055D01*
X382183Y92067D01*
X382074Y92084D01*
X382018Y92087D01*
D02*
G37*
G36*
X390272Y92197D02*
X390263D01*
Y91937D01*
X390260Y91940D01*
X390254Y91943D01*
X390239Y91952D01*
X390222Y91961D01*
X390201Y91972D01*
X390174Y91984D01*
X390145Y91999D01*
X390109Y92014D01*
X390071Y92028D01*
X390027Y92043D01*
X389980Y92055D01*
X389930Y92067D01*
X389904Y92071D01*
X389877Y92046D01*
Y91601D01*
X389932D01*
Y91359D01*
X389907D01*
X389909Y91346D01*
X389913Y91321D01*
X389916Y91302D01*
X389916Y91299D01*
X390166D01*
Y91097D01*
X389925D01*
Y91075D01*
X389959Y91055D01*
X389965Y91052D01*
X389980Y91043D01*
X390003Y91028D01*
X390030Y91008D01*
X390062Y90984D01*
X390098Y90957D01*
X390133Y90928D01*
X390168Y90895D01*
X390172Y90893D01*
X390183Y90881D01*
X390201Y90863D01*
X390222Y90837D01*
X390236Y90818D01*
X390272Y90816D01*
X390298D01*
X390319Y90819D01*
X390340Y90822D01*
X390366Y90825D01*
X390373Y90826D01*
Y91735D01*
X390609D01*
Y91501D01*
X390616D01*
X390619Y91503D01*
X390624Y91513D01*
X390634Y91526D01*
X390646Y91543D01*
X390663Y91562D01*
X390683Y91587D01*
X390705Y91609D01*
X390732Y91636D01*
X390764Y91661D01*
X390798Y91685D01*
X390809Y91692D01*
X390671Y92045D01*
X390670Y92046D01*
X390655Y92058D01*
X390635Y92073D01*
X390614Y92090D01*
X390587Y92108D01*
X390561Y92123D01*
X390528Y92140D01*
X390493Y92155D01*
X390455Y92170D01*
X390413Y92179D01*
X390369Y92188D01*
X390322Y92194D01*
X390272Y92197D01*
D02*
G37*
G36*
X382558Y91965D02*
Y91897D01*
X382567Y91900D01*
X382582Y91903D01*
X382558Y91965D01*
D02*
G37*
G36*
X386952Y92114D02*
X386806D01*
X386817Y92090D01*
X386835Y92049D01*
X386850Y92002D01*
X386864Y91952D01*
X386873Y91899D01*
X386874Y91892D01*
X387113D01*
X387084Y91956D01*
X387067Y91991D01*
X387044Y92023D01*
X387020Y92052D01*
X386995Y92079D01*
X386968Y92101D01*
X386952Y92114D01*
D02*
G37*
G36*
X386543Y92007D02*
X386540Y92002D01*
X386538Y92000D01*
X386534Y91996D01*
X386527Y91892D01*
X386577D01*
X386567Y91943D01*
X386543Y92007D01*
D02*
G37*
G36*
X383666Y92114D02*
X383631D01*
X383602Y92096D01*
X383566Y92073D01*
X383534Y92043D01*
X383502Y92011D01*
X383499Y92008D01*
X383496Y92002D01*
X383487Y91990D01*
X383478Y91975D01*
X383466Y91957D01*
X383451Y91934D01*
X383437Y91907D01*
X383422Y91878D01*
X383413Y91858D01*
X383572D01*
X383666Y92114D01*
D02*
G37*
G36*
X391989Y91838D02*
X391961Y91768D01*
X391986Y91769D01*
X391989D01*
Y91838D01*
D02*
G37*
G36*
X383855Y91866D02*
X383806Y91743D01*
X383827Y91759D01*
X383854Y91781D01*
X383859Y91786D01*
X383861Y91808D01*
Y91813D01*
Y91823D01*
X383859Y91840D01*
X383856Y91863D01*
X383855Y91866D01*
D02*
G37*
G36*
X395433Y91890D02*
Y91710D01*
X395440Y91742D01*
X395443Y91774D01*
X395445Y91808D01*
Y91813D01*
Y91823D01*
X395443Y91840D01*
X395440Y91863D01*
X395433Y91890D01*
D02*
G37*
G36*
X389201Y91860D02*
X389192Y91839D01*
X389183Y91813D01*
X389177Y91783D01*
X389171Y91751D01*
X389169Y91716D01*
Y91713D01*
Y91701D01*
X389170Y91692D01*
X389180Y91698D01*
X389201Y91710D01*
Y91860D01*
D02*
G37*
G36*
X395735Y91693D02*
X395733Y91677D01*
X395735D01*
Y91680D01*
Y91689D01*
Y91693D01*
D02*
G37*
G36*
X395194Y92045D02*
X395189Y92040D01*
X395182Y92035D01*
X395175Y92027D01*
X395162Y92018D01*
X395148Y92005D01*
X395133Y91993D01*
X395113Y91981D01*
X395111Y91978D01*
X395103Y91976D01*
X395093Y91968D01*
X395079Y91958D01*
X395061Y91949D01*
X395042Y91936D01*
X394995Y91912D01*
X394993Y91909D01*
X394985Y91907D01*
X394970Y91900D01*
X394953Y91890D01*
X394934Y91880D01*
X394909Y91870D01*
X394857Y91845D01*
X394855D01*
X394845Y91840D01*
X394830Y91835D01*
X394816Y91830D01*
X394794Y91760D01*
X394776Y91677D01*
X395194D01*
Y92045D01*
D02*
G37*
G36*
X383787Y91695D02*
X383766Y91641D01*
X383787Y91641D01*
Y91695D01*
D02*
G37*
G36*
X388260Y92197D02*
X388236D01*
X388219Y92194D01*
X388198Y92191D01*
X388174Y92188D01*
X388118Y92176D01*
X388053Y92155D01*
X388021Y92140D01*
X387985Y92123D01*
X387953Y92102D01*
X387921Y92081D01*
X387888Y92052D01*
X387859Y92022D01*
X387856Y92019D01*
X387853Y92014D01*
X387844Y92005D01*
X387835Y91993D01*
X387823Y91975D01*
X387811Y91955D01*
X387797Y91931D01*
X387785Y91904D01*
X387770Y91875D01*
X387755Y91843D01*
X387732Y91769D01*
X387714Y91686D01*
X387711Y91639D01*
X387708Y91592D01*
Y91582D01*
X387723Y91589D01*
X387779Y91612D01*
X387824Y91623D01*
Y91735D01*
X388060D01*
Y91635D01*
X388074Y91633D01*
X388106Y91627D01*
X388139Y91618D01*
X388159Y91612D01*
X388183Y91636D01*
X388215Y91661D01*
X388250Y91685D01*
X388287Y91708D01*
X388329Y91727D01*
X388373Y91745D01*
X388420Y91757D01*
X388471Y91767D01*
X388525Y91769D01*
X388540D01*
Y92010D01*
X388642D01*
X388629Y92028D01*
X388626Y92031D01*
X388623Y92034D01*
X388614Y92043D01*
X388605Y92055D01*
X388590Y92067D01*
X388573Y92081D01*
X388531Y92114D01*
X388478Y92143D01*
X388416Y92170D01*
X388381Y92182D01*
X388342Y92191D01*
X388301Y92194D01*
X388260Y92197D01*
D02*
G37*
G36*
X386245D02*
X386189D01*
X386177Y92194D01*
X386142Y92188D01*
X386101Y92176D01*
X386053Y92155D01*
X386027Y92143D01*
X386000Y92126D01*
X385974Y92105D01*
X385947Y92084D01*
X385921Y92058D01*
X385897Y92028D01*
Y92025D01*
X385891Y92019D01*
X385885Y92011D01*
X385876Y91999D01*
X385867Y91984D01*
X385856Y91963D01*
X385847Y91943D01*
X385835Y91916D01*
X385811Y91860D01*
X385801Y91826D01*
X385805Y91813D01*
X385809Y91801D01*
X385812Y91791D01*
X385829Y91725D01*
X385844Y91651D01*
X385850Y91601D01*
X385994D01*
X385994Y91603D01*
X386000Y91645D01*
X386009Y91689D01*
X386016Y91729D01*
Y91892D01*
X386062D01*
X386065Y91901D01*
X386086Y91957D01*
X386112Y92014D01*
X386145Y92070D01*
X386180Y92123D01*
X386221Y92173D01*
X386224Y92176D01*
X386233Y92185D01*
X386245Y92197D01*
D02*
G37*
G36*
X384314Y91725D02*
X384306D01*
X384284Y91720D01*
X384262Y91715D01*
X384238Y91710D01*
X384229Y91707D01*
X384230Y91703D01*
X384235Y91673D01*
X384238Y91641D01*
X384238Y91634D01*
X384242Y91633D01*
X384289Y91621D01*
X384342Y91606D01*
X384369Y91597D01*
Y91717D01*
X384368Y91717D01*
X384341Y91720D01*
X384314Y91725D01*
D02*
G37*
G36*
X382236Y91639D02*
X382206D01*
X382207Y91633D01*
X382209Y91578D01*
X382220Y91607D01*
X382223Y91612D01*
X382228Y91624D01*
X382236Y91639D01*
D02*
G37*
G36*
X383492D02*
X383352D01*
X383348Y91612D01*
X383347Y91587D01*
X383364Y91567D01*
X383367Y91565D01*
X383372Y91560D01*
X383381Y91551D01*
X383404Y91562D01*
X383460Y91583D01*
X383473Y91587D01*
X383492Y91639D01*
D02*
G37*
G36*
X395031Y91435D02*
X394774D01*
Y91432D01*
Y91427D01*
X394956D01*
X394980Y91430D01*
X395015Y91432D01*
X395031Y91435D01*
D02*
G37*
G36*
X388449Y91570D02*
X388405D01*
X388395Y91567D01*
X388365Y91562D01*
X388329Y91553D01*
X388313Y91547D01*
X388322Y91542D01*
X388357Y91515D01*
X388390Y91486D01*
X388419Y91453D01*
X388422Y91450D01*
X388425Y91444D01*
X388434Y91432D01*
X388443Y91418D01*
X388455Y91400D01*
X388465Y91378D01*
X388466Y91379D01*
X388472Y91388D01*
X388487Y91400D01*
X388505Y91418D01*
X388525Y91438D01*
X388540Y91451D01*
Y91546D01*
X388530Y91550D01*
X388478Y91565D01*
X388449Y91570D01*
D02*
G37*
G36*
X392502Y91359D02*
X392455D01*
X392461Y91321D01*
X392464Y91306D01*
X392502Y91359D01*
D02*
G37*
G36*
X385996D02*
X385869D01*
X385871Y91299D01*
X386005D01*
X385997Y91344D01*
X385996Y91359D01*
D02*
G37*
G36*
X387824Y91397D02*
X387823Y91397D01*
X387803Y91394D01*
X387763Y91385D01*
X387770Y91373D01*
X387785Y91350D01*
X387803Y91323D01*
X387817Y91291D01*
X387824Y91278D01*
Y91397D01*
D02*
G37*
G36*
X391162Y91501D02*
X391238Y91285D01*
X391283Y91265D01*
X391290Y91260D01*
X391290Y91261D01*
X391288Y91272D01*
X391278Y91312D01*
X391263Y91353D01*
X391246Y91393D01*
X391224Y91432D01*
X391197Y91469D01*
X391162Y91501D01*
D02*
G37*
G36*
X390823Y91531D02*
X390793Y91516D01*
X390771Y91501D01*
X390752Y91484D01*
X390729Y91462D01*
X390710Y91439D01*
Y91437D01*
X390705Y91435D01*
X390700Y91427D01*
X390695Y91415D01*
X390688Y91403D01*
X390678Y91388D01*
X390668Y91368D01*
X390661Y91348D01*
X390641Y91299D01*
X390627Y91251D01*
X390631Y91252D01*
X390663Y91265D01*
X390697Y91277D01*
X390737Y91289D01*
X390779Y91302D01*
X390823Y91312D01*
X390823Y91312D01*
Y91531D01*
D02*
G37*
G36*
X382193Y91281D02*
X382195Y91247D01*
Y91244D01*
Y91238D01*
Y91229D01*
Y91220D01*
X382213D01*
X382201Y91252D01*
X382193Y91281D01*
D02*
G37*
G36*
X381409Y91612D02*
Y91220D01*
X381673D01*
X381674Y91225D01*
X381679Y91255D01*
X381681Y91285D01*
X381684Y91319D01*
Y91321D01*
Y91326D01*
Y91336D01*
X381681Y91346D01*
Y91350D01*
X381679Y91358D01*
X381662Y91395D01*
X381642Y91435D01*
X381618Y91471D01*
X381586Y91508D01*
X381546Y91543D01*
X381500Y91575D01*
X381443Y91602D01*
X381411Y91612D01*
X381411Y91612D01*
X381409Y91612D01*
D02*
G37*
G36*
X381170Y91572D02*
X381163Y91565D01*
X381131Y91528D01*
X381099Y91489D01*
Y91486D01*
X381096Y91484D01*
X381091Y91476D01*
X381086Y91469D01*
X381071Y91444D01*
X381054Y91412D01*
X381044Y91391D01*
X381035Y91362D01*
X381018Y91288D01*
X381007Y91220D01*
X381170D01*
Y91572D01*
D02*
G37*
G36*
X382640Y91639D02*
X382558D01*
Y91146D01*
X382570Y91157D01*
X382592Y91174D01*
X382616Y91191D01*
X382640Y91207D01*
Y91639D01*
D02*
G37*
G36*
X394995Y91225D02*
X394806D01*
X394815Y91193D01*
X394841Y91117D01*
X394859Y91081D01*
X394880Y91043D01*
X394901Y91014D01*
X394916Y91026D01*
X394953Y91058D01*
X395000Y91093D01*
X395049Y91129D01*
X395106Y91171D01*
X395108D01*
X395111Y91176D01*
X395125Y91186D01*
X395145Y91201D01*
X395150Y91205D01*
X395135Y91208D01*
X395091Y91216D01*
X395044Y91220D01*
X394995Y91225D01*
D02*
G37*
G36*
X392225Y91257D02*
Y90978D01*
X392237Y90995D01*
Y91105D01*
Y91107D01*
Y91115D01*
Y91129D01*
Y91144D01*
X392235Y91166D01*
X392232Y91189D01*
X392228Y91243D01*
X392226Y91251D01*
X392225Y91257D01*
D02*
G37*
G36*
X385207Y92160D02*
X385202D01*
X385187Y92158D01*
X385165Y92155D01*
X385138Y92146D01*
X385103Y92133D01*
X385067Y92114D01*
X385027Y92084D01*
X385005Y92067D01*
X384985Y92047D01*
X384966Y92025D01*
X384944Y92000D01*
X384924Y91971D01*
X384904Y91941D01*
X384885Y91907D01*
X384867Y91868D01*
X384850Y91826D01*
X384833Y91781D01*
X384818Y91732D01*
X384816Y91724D01*
X384833Y91703D01*
X384853Y91673D01*
X384872Y91641D01*
X384889Y91607D01*
X384892Y91602D01*
X384897Y91589D01*
X384904Y91570D01*
X384911Y91545D01*
X384919Y91513D01*
X384926Y91479D01*
X384931Y91439D01*
X384934Y91398D01*
Y91395D01*
Y91390D01*
Y91383D01*
Y91373D01*
X384929Y91346D01*
X384924Y91312D01*
X384914Y91272D01*
X384902Y91228D01*
X384890Y91200D01*
X384887Y91184D01*
X384877Y91144D01*
Y91139D01*
X384872Y91127D01*
X384865Y91107D01*
X384857Y91085D01*
X384845Y91056D01*
X384830Y91024D01*
X384813Y90992D01*
X384793Y90957D01*
X384793Y90957D01*
X384795Y90948D01*
X385053D01*
Y91601D01*
X385212D01*
Y91858D01*
X385251D01*
Y92157D01*
X385246Y92158D01*
X385207Y92160D01*
D02*
G37*
G36*
X390752Y91085D02*
X390724Y91075D01*
X390685Y91058D01*
X390643Y91036D01*
X390609Y91016D01*
Y90915D01*
X390635Y90934D01*
X390667Y90960D01*
X390697Y90993D01*
X390700Y90996D01*
X390703Y91002D01*
X390711Y91011D01*
X390720Y91025D01*
X390732Y91046D01*
X390744Y91067D01*
X390752Y91085D01*
D02*
G37*
G36*
X394130Y91376D02*
X394127Y91356D01*
X394119Y91303D01*
X394107Y91247D01*
X394092Y91190D01*
X394074Y91129D01*
X394054Y91070D01*
X394027Y91011D01*
X393998Y90955D01*
X393965Y90899D01*
X393954Y90884D01*
X394422D01*
Y90887D01*
Y90895D01*
Y90907D01*
X394420Y90925D01*
Y90946D01*
X394416Y90969D01*
X394408Y91022D01*
X394393Y91084D01*
X394369Y91146D01*
X394340Y91208D01*
X394302Y91264D01*
Y91267D01*
X394296Y91270D01*
X394281Y91285D01*
X394254Y91308D01*
X394219Y91335D01*
X394172Y91359D01*
X394130Y91376D01*
D02*
G37*
G36*
X393723Y91328D02*
X393720Y91326D01*
X393691Y91306D01*
X393661Y91285D01*
X393635Y91258D01*
Y91255D01*
X393629Y91252D01*
X393623Y91244D01*
X393614Y91232D01*
X393602Y91217D01*
X393590Y91202D01*
X393561Y91158D01*
X393531Y91105D01*
X393505Y91040D01*
X393481Y90966D01*
X393464Y90884D01*
X393555D01*
X393585Y90899D01*
X393617Y90922D01*
X393650Y90949D01*
X393679Y90978D01*
X393698Y91001D01*
X393696Y91046D01*
Y91048D01*
Y91056D01*
Y91066D01*
Y91080D01*
X393699Y91097D01*
Y91120D01*
X393701Y91144D01*
X393704Y91171D01*
X393706Y91203D01*
X393711Y91238D01*
X393713Y91272D01*
X393721Y91312D01*
X393723Y91328D01*
D02*
G37*
G36*
X386888Y91259D02*
Y91227D01*
X386914Y91203D01*
X386939Y91176D01*
X386941Y91174D01*
X386944Y91169D01*
X386951Y91159D01*
X386958Y91147D01*
X386968Y91132D01*
X386978Y91112D01*
X386990Y91088D01*
X387002Y91061D01*
X387015Y91031D01*
X387027Y90997D01*
X387037Y90960D01*
X387047Y90920D01*
X387053Y90884D01*
X387101D01*
Y91073D01*
X387091Y91093D01*
X387076Y91120D01*
X387057Y91144D01*
X387037Y91169D01*
X387012Y91191D01*
X387010Y91193D01*
X387005Y91196D01*
X386998Y91201D01*
X386988Y91208D01*
X386973Y91218D01*
X386956Y91228D01*
X386936Y91238D01*
X386912Y91250D01*
X386888Y91259D01*
D02*
G37*
G36*
X395194Y90997D02*
X395157Y90970D01*
X395118Y90940D01*
X395076Y90911D01*
X395052Y90891D01*
X395069Y90881D01*
X395101Y90866D01*
X395136Y90854D01*
X395172Y90842D01*
X395194Y90837D01*
Y90997D01*
D02*
G37*
G36*
X383804Y91090D02*
X383797Y91085D01*
X383755Y91066D01*
X383709Y91048D01*
X383662Y91037D01*
X383674Y91016D01*
X383691Y90982D01*
X383709Y90945D01*
X383726Y90903D01*
X383741Y90856D01*
X383743Y90848D01*
X383752Y90845D01*
X383784Y90836D01*
X383802Y90842D01*
X383850Y90854D01*
X383898Y90866D01*
Y90966D01*
X383888Y90984D01*
X383866Y91024D01*
X383834Y91061D01*
X383804Y91090D01*
D02*
G37*
G36*
X393349Y92197D02*
X393325D01*
X393307Y92194D01*
X393287Y92191D01*
X393263Y92188D01*
X393207Y92176D01*
X393142Y92155D01*
X393110Y92140D01*
X393074Y92123D01*
X393042Y92102D01*
X393009Y92081D01*
X392977Y92052D01*
X392947Y92022D01*
X392945Y92019D01*
X392941Y92014D01*
X392933Y92005D01*
X392924Y91993D01*
X392912Y91975D01*
X392900Y91955D01*
X392885Y91931D01*
X392874Y91904D01*
X392859Y91875D01*
X392844Y91843D01*
X392821Y91769D01*
X392803Y91686D01*
X392800Y91639D01*
X392797Y91601D01*
X392918D01*
Y91518D01*
X392797Y91351D01*
Y91344D01*
Y91341D01*
Y91335D01*
Y91323D01*
X392800Y91308D01*
Y91288D01*
X392806Y91267D01*
X392815Y91214D01*
X392832Y91155D01*
X392856Y91093D01*
X392891Y91028D01*
X392915Y90999D01*
X392939Y90969D01*
X392941Y90966D01*
X392945Y90963D01*
X392953Y90955D01*
X392965Y90946D01*
X392980Y90934D01*
X392995Y90922D01*
X393039Y90893D01*
X393092Y90863D01*
X393154Y90839D01*
X393175Y90834D01*
X393178Y90851D01*
X393186Y90895D01*
X393195Y90946D01*
X393207Y90999D01*
X393222Y91052D01*
X393242Y91108D01*
X393263Y91164D01*
X393290Y91220D01*
X393322Y91276D01*
X393357Y91329D01*
X393399Y91379D01*
X393402Y91382D01*
X393411Y91391D01*
X393422Y91403D01*
X393440Y91421D01*
X393464Y91441D01*
X393493Y91462D01*
X393523Y91486D01*
X393561Y91512D01*
X393599Y91536D01*
X393647Y91559D01*
X393694Y91580D01*
X393744Y91601D01*
X393782Y91613D01*
X393804Y91690D01*
X393831Y91768D01*
X393824Y91807D01*
X393797Y91884D01*
X393765Y91961D01*
X393741Y91996D01*
X393717Y92028D01*
X393714Y92031D01*
X393711Y92034D01*
X393703Y92043D01*
X393694Y92055D01*
X393679Y92067D01*
X393661Y92081D01*
X393620Y92114D01*
X393567Y92143D01*
X393505Y92170D01*
X393470Y92182D01*
X393431Y92191D01*
X393390Y92194D01*
X393349Y92197D01*
D02*
G37*
G36*
X395433Y91044D02*
Y90823D01*
X395461Y90828D01*
X395496Y90834D01*
X395521Y90838D01*
X395517Y90856D01*
X395512Y90883D01*
X395504Y90913D01*
X395492Y90948D01*
X395472Y90984D01*
X395450Y91024D01*
X395444Y91031D01*
X395433Y91044D01*
D02*
G37*
G36*
X388242Y91112D02*
X388193Y91097D01*
X388164Y91085D01*
X388134Y91068D01*
X388105Y91051D01*
X388075Y91031D01*
X388060Y91018D01*
Y90841D01*
X388065Y90839D01*
X388136Y90822D01*
X388174Y90819D01*
X388216Y90816D01*
X388239D01*
X388253Y90818D01*
X388254Y90825D01*
X388260Y90872D01*
X388269Y90925D01*
X388278Y90967D01*
X388278Y90969D01*
X388269Y91017D01*
X388254Y91070D01*
X388242Y91112D01*
D02*
G37*
G36*
X391107Y90933D02*
Y90729D01*
X391182Y90740D01*
X391107Y90933D01*
D02*
G37*
G36*
X391989Y91359D02*
X391874D01*
Y90621D01*
X391590D01*
Y90835D01*
X391544Y90718D01*
Y90040D01*
X391989Y90653D01*
Y91359D01*
D02*
G37*
G36*
X390823Y90772D02*
X390797Y90754D01*
X390764Y90730D01*
X390723Y90707D01*
X390682Y90683D01*
X390632Y90659D01*
X390609Y90651D01*
Y90609D01*
X390636Y90625D01*
X390668Y90640D01*
X390700Y90655D01*
X390737Y90667D01*
X390776Y90677D01*
X390818Y90687D01*
X390823Y90688D01*
Y90772D01*
D02*
G37*
G36*
X387068Y90610D02*
X387067Y90609D01*
Y90608D01*
X387068Y90610D01*
D02*
G37*
G36*
X395447Y90589D02*
X395433Y90588D01*
Y90572D01*
X395440Y90581D01*
X395447Y90589D01*
D02*
G37*
G36*
X383403Y90729D02*
X383370Y90647D01*
X383381Y90623D01*
X383394Y90596D01*
X383403Y90564D01*
X383406Y90561D01*
X383408Y90549D01*
X383413Y90532D01*
X383418Y90512D01*
X383418Y90511D01*
X383440Y90556D01*
X383469Y90606D01*
X383510Y90657D01*
X383519Y90666D01*
X383481Y90683D01*
X383428Y90713D01*
X383403Y90729D01*
D02*
G37*
G36*
X381170Y90569D02*
X381107D01*
X381118Y90551D01*
X381140Y90524D01*
X381167Y90500D01*
X381170Y90497D01*
Y90569D01*
D02*
G37*
G36*
X394853Y90693D02*
X394847Y90684D01*
X394835Y90662D01*
X394823Y90640D01*
X394813Y90615D01*
Y90613D01*
X394811Y90603D01*
X394806Y90591D01*
X394803Y90574D01*
X394798Y90551D01*
X394793Y90527D01*
X394791Y90497D01*
Y90468D01*
X395194D01*
Y90588D01*
X395189Y90589D01*
X395154Y90592D01*
X395113Y90601D01*
X395069Y90609D01*
X395024Y90621D01*
X394974Y90639D01*
X394927Y90657D01*
X394877Y90680D01*
X394853Y90693D01*
D02*
G37*
G36*
X385053Y90731D02*
X384914D01*
X384924Y90719D01*
X384926Y90716D01*
X384931Y90706D01*
X384941Y90692D01*
X384951Y90672D01*
X384963Y90650D01*
X384976Y90623D01*
X384988Y90596D01*
X384998Y90564D01*
X385000Y90561D01*
X385002Y90549D01*
X385008Y90532D01*
X385012Y90512D01*
X385017Y90485D01*
X385018Y90482D01*
X385025Y90475D01*
X385057Y90458D01*
X385057Y90458D01*
X385056Y90474D01*
X385053Y90541D01*
Y90731D01*
D02*
G37*
G36*
X381409Y90582D02*
Y90426D01*
X381435Y90433D01*
X381468Y90448D01*
X381501Y90464D01*
X381497Y90470D01*
X381480Y90495D01*
X381448Y90539D01*
X381445Y90542D01*
X381440Y90549D01*
X381431Y90559D01*
X381421Y90571D01*
X381409Y90582D01*
D02*
G37*
G36*
X382640Y90822D02*
X382624Y90817D01*
X382617Y90815D01*
X382614Y90807D01*
X382604Y90773D01*
X382592Y90733D01*
X382584Y90692D01*
X382577Y90647D01*
X382575Y90601D01*
X382572Y90551D01*
Y90549D01*
Y90539D01*
Y90527D01*
X382573Y90521D01*
X382579Y90517D01*
X382597Y90500D01*
X382599Y90497D01*
X382604Y90490D01*
X382611Y90480D01*
X382621Y90468D01*
X382631Y90451D01*
X382639Y90431D01*
X382640Y90424D01*
Y90822D01*
D02*
G37*
G36*
X391198Y90554D02*
X391107Y90541D01*
Y90339D01*
X391198Y90554D01*
D02*
G37*
G36*
X389556Y90621D02*
X389484D01*
Y90359D01*
Y90356D01*
Y90350D01*
Y90341D01*
Y90329D01*
X389487Y90297D01*
X389493Y90261D01*
X389493Y90261D01*
X389505Y90285D01*
X389520Y90314D01*
X389534Y90344D01*
X389546Y90376D01*
X389556Y90407D01*
Y90621D01*
D02*
G37*
G36*
X392514Y90961D02*
X392474Y90905D01*
Y90256D01*
X392237D01*
Y90579D01*
X392225Y90562D01*
Y90070D01*
X392514D01*
Y90961D01*
D02*
G37*
G36*
X382640Y90343D02*
X382634Y90328D01*
X382626Y90308D01*
X382618Y90295D01*
X382629Y90266D01*
X382640Y90239D01*
Y90343D01*
D02*
G37*
G36*
X388803Y90256D02*
X388776D01*
Y90198D01*
X388784Y90214D01*
X388796Y90241D01*
X388803Y90256D01*
D02*
G37*
G36*
X384141Y90273D02*
Y90145D01*
X384166Y90165D01*
X384154Y90210D01*
X384144Y90256D01*
X384141Y90273D01*
D02*
G37*
G36*
X386075Y90251D02*
Y90145D01*
X386080Y90149D01*
X386106Y90176D01*
X386108Y90178D01*
X386098Y90202D01*
X386077Y90246D01*
X386075Y90251D01*
D02*
G37*
G36*
X381580Y90266D02*
X381554Y90256D01*
X381509Y90244D01*
X381460Y90232D01*
X381409Y90225D01*
Y90188D01*
X381419Y90182D01*
X381463Y90155D01*
X381502Y90137D01*
X381514Y90150D01*
X381529Y90173D01*
X381546Y90197D01*
X381561Y90224D01*
X381576Y90254D01*
X381578Y90259D01*
X381580Y90266D01*
D02*
G37*
G36*
X383710Y90203D02*
X383699Y90178D01*
X383696Y90173D01*
X383696Y90172D01*
X383720Y90137D01*
X383729Y90128D01*
X383732Y90141D01*
X383728Y90148D01*
Y90150D01*
X383726Y90153D01*
X383721Y90168D01*
X383714Y90190D01*
X383710Y90203D01*
D02*
G37*
G36*
X389925Y90642D02*
Y90256D01*
X389877D01*
Y90115D01*
X389903Y90128D01*
X389930Y90146D01*
X389932D01*
X389935Y90152D01*
X389950Y90164D01*
X389971Y90188D01*
X389997Y90220D01*
X390021Y90261D01*
X390042Y90308D01*
X390056Y90368D01*
X390062Y90400D01*
Y90432D01*
Y90438D01*
Y90450D01*
X390059Y90468D01*
X390056Y90491D01*
X390051Y90518D01*
X390045Y90547D01*
X390033Y90577D01*
X390018Y90606D01*
X390015Y90609D01*
X390011Y90616D01*
X389977Y90624D01*
X389927Y90642D01*
X389925Y90642D01*
D02*
G37*
G36*
X386525Y90141D02*
Y90120D01*
X386545Y90107D01*
X386534Y90126D01*
X386525Y90141D01*
D02*
G37*
G36*
X389025Y91279D02*
X389018Y91247D01*
X389003Y91190D01*
X388999Y91174D01*
X388998Y91169D01*
X388995Y91134D01*
X388993Y91100D01*
Y91011D01*
X389007Y90982D01*
X389025Y90945D01*
X389042Y90903D01*
X389057Y90856D01*
X389071Y90805D01*
X389084Y90751D01*
X389093Y90694D01*
X389098Y90633D01*
X389101Y90566D01*
Y90561D01*
Y90551D01*
X389098Y90532D01*
Y90507D01*
X389096Y90478D01*
X389091Y90443D01*
X389084Y90404D01*
X389076Y90362D01*
X389064Y90318D01*
X389052Y90271D01*
X389035Y90224D01*
X389015Y90178D01*
X389012Y90171D01*
X389015Y90170D01*
X389033Y90161D01*
X389053Y90152D01*
X389080Y90140D01*
X389109Y90128D01*
X389174Y90105D01*
X389177D01*
X389189Y90102D01*
X389207Y90096D01*
X389230Y90090D01*
X389239Y90088D01*
X389222Y90137D01*
X389207Y90217D01*
X389201Y90261D01*
Y90308D01*
Y91138D01*
X389198Y91140D01*
X389171Y91158D01*
X389139Y91179D01*
X389106Y91205D01*
X389042Y91261D01*
X389039Y91264D01*
X389027Y91276D01*
X389025Y91279D01*
D02*
G37*
G36*
X389569Y90100D02*
X389567Y90096D01*
X389560Y90088D01*
X389573Y90078D01*
X389574Y90078D01*
X389573Y90079D01*
X389569Y90100D01*
D02*
G37*
G36*
X391989Y90237D02*
X391868Y90070D01*
X391989D01*
Y90237D01*
D02*
G37*
G36*
X382240Y90960D02*
X382132D01*
X382121Y90937D01*
X382118Y90931D01*
X382109Y90916D01*
X382091Y90893D01*
X382071Y90863D01*
X382041Y90831D01*
X382009Y90795D01*
X381971Y90760D01*
X381970Y90759D01*
X381963Y90739D01*
X381964Y90736D01*
Y90733D01*
X381967Y90731D01*
X381972Y90716D01*
X381977Y90692D01*
X381987Y90660D01*
X381994Y90623D01*
X381999Y90579D01*
X382004Y90529D01*
X382006Y90478D01*
Y90475D01*
Y90470D01*
Y90463D01*
Y90453D01*
X382004Y90438D01*
Y90424D01*
X382001Y90387D01*
X381994Y90342D01*
X381987Y90296D01*
X381974Y90246D01*
X381957Y90197D01*
Y90195D01*
X381955Y90192D01*
X381952Y90185D01*
X381951Y90182D01*
X381974Y90145D01*
X382030Y90055D01*
X382071Y90061D01*
X382118Y90067D01*
X382165Y90075D01*
X382175Y90078D01*
X382156Y90109D01*
X382134Y90148D01*
Y90150D01*
X382132Y90153D01*
X382127Y90168D01*
X382119Y90190D01*
X382110Y90222D01*
X382100Y90259D01*
X382092Y90301D01*
X382087Y90347D01*
X382085Y90396D01*
Y90401D01*
Y90411D01*
X382087Y90428D01*
Y90448D01*
X382092Y90475D01*
X382097Y90502D01*
X382102Y90532D01*
X382112Y90564D01*
X382115Y90569D01*
X382117Y90579D01*
X382124Y90593D01*
X382132Y90615D01*
X382142Y90637D01*
X382154Y90665D01*
X382186Y90719D01*
X382188Y90721D01*
X382196Y90731D01*
X382206Y90743D01*
X382220Y90763D01*
X382238Y90783D01*
X382257Y90805D01*
X382265Y90812D01*
Y90856D01*
X382260D01*
X382233Y90854D01*
X382240Y90960D01*
D02*
G37*
G36*
X387101Y90315D02*
X387067Y90294D01*
Y90053D01*
X387069Y90053D01*
X387101Y90061D01*
Y90315D01*
D02*
G37*
G36*
X385839Y90916D02*
X385822Y90837D01*
Y90834D01*
X385819Y90827D01*
X385817Y90817D01*
X385814Y90805D01*
X385809Y90788D01*
X385802Y90765D01*
X385787Y90721D01*
X385770Y90674D01*
Y90621D01*
X385750D01*
X385749Y90618D01*
X385746Y90610D01*
X385718Y90554D01*
X385686Y90500D01*
Y90497D01*
X385682Y90495D01*
X385679Y90491D01*
Y90359D01*
Y90356D01*
Y90350D01*
Y90341D01*
Y90329D01*
X385682Y90297D01*
X385687Y90258D01*
X385693Y90217D01*
X385705Y90176D01*
X385720Y90134D01*
X385741Y90102D01*
X385743Y90099D01*
X385752Y90090D01*
X385767Y90078D01*
X385788Y90067D01*
X385817Y90052D01*
X385839Y90045D01*
Y90916D01*
D02*
G37*
G36*
X387422Y90642D02*
X387384D01*
Y90198D01*
X387413Y90220D01*
Y90041D01*
X387443Y90046D01*
X387526Y90069D01*
X387512Y90094D01*
X387497Y90126D01*
X387482Y90163D01*
X387468Y90202D01*
X387453Y90246D01*
X387440Y90296D01*
X387428Y90347D01*
X387421Y90404D01*
X387416Y90463D01*
X387413Y90524D01*
Y90529D01*
Y90542D01*
X387416Y90559D01*
Y90586D01*
X387418Y90615D01*
X387420Y90630D01*
X387422Y90642D01*
D02*
G37*
G36*
X390823Y90490D02*
X390815Y90487D01*
X390774Y90473D01*
X390734Y90456D01*
X390700Y90436D01*
X390697Y90433D01*
X390688Y90424D01*
X390673Y90411D01*
X390658Y90389D01*
X390643Y90359D01*
X390629Y90325D01*
X390619Y90281D01*
X390616Y90229D01*
Y90224D01*
X390619Y90212D01*
X390621Y90192D01*
X390626Y90168D01*
X390636Y90138D01*
X390648Y90109D01*
X390668Y90079D01*
X390692Y90052D01*
X390697Y90050D01*
X390707Y90042D01*
X390711Y90039D01*
X390761Y90034D01*
X390770D01*
X390782Y90037D01*
X390797D01*
X390815Y90043D01*
X390823Y90045D01*
Y90490D01*
D02*
G37*
G36*
X385007Y90246D02*
X385005Y90234D01*
X384993Y90192D01*
X384976Y90148D01*
X384973Y90143D01*
X384966Y90128D01*
X384956Y90109D01*
X384939Y90082D01*
X384919Y90052D01*
X384905Y90032D01*
X384909D01*
X384919Y90037D01*
X384944Y90052D01*
X384966Y90069D01*
X384988Y90089D01*
X385010Y90111D01*
X385012Y90114D01*
X385015Y90116D01*
X385020Y90123D01*
X385027Y90133D01*
X385037Y90148D01*
X385047Y90163D01*
X385057Y90180D01*
X385067Y90202D01*
X385078Y90230D01*
X385039Y90239D01*
X385007Y90246D01*
D02*
G37*
G36*
X393740Y90642D02*
X393641D01*
X393588Y90621D01*
X393531Y90604D01*
X393470Y90592D01*
X393464Y90591D01*
X393467Y90568D01*
X393470Y90539D01*
X393476Y90509D01*
X393481Y90474D01*
X393502Y90400D01*
X393529Y90323D01*
X393546Y90288D01*
X393567Y90250D01*
X393590Y90217D01*
X393617Y90185D01*
X393620Y90182D01*
X393623Y90179D01*
X393632Y90170D01*
X393647Y90158D01*
X393661Y90146D01*
X393679Y90134D01*
X393703Y90120D01*
X393726Y90105D01*
X393756Y90087D01*
X393788Y90073D01*
X393824Y90061D01*
X393859Y90049D01*
X393945Y90028D01*
X393980Y90026D01*
X393962Y90057D01*
X393920Y90136D01*
X393878Y90222D01*
X393839Y90318D01*
X393799Y90421D01*
X393765Y90532D01*
X393740Y90642D01*
D02*
G37*
G36*
X388060Y90615D02*
Y90256D01*
X387949D01*
X387960Y90232D01*
X387977Y90197D01*
X387999Y90165D01*
X388021Y90136D01*
X388023Y90133D01*
X388028Y90128D01*
X388036Y90121D01*
X388046Y90111D01*
X388060Y90101D01*
X388075Y90087D01*
X388095Y90074D01*
X388117Y90059D01*
X388141Y90045D01*
X388169Y90032D01*
X388198Y90018D01*
X388230Y90008D01*
X388231Y90007D01*
X388262Y90018D01*
X388287Y90030D01*
X388289Y90031D01*
Y90338D01*
X388275Y90397D01*
X388260Y90459D01*
X388251Y90527D01*
X388247Y90580D01*
X388233D01*
X388216Y90583D01*
X388189Y90586D01*
X388162Y90589D01*
X388127Y90595D01*
X388092Y90604D01*
X388060Y90615D01*
D02*
G37*
G36*
X249186Y63193D02*
X228889D01*
Y57508D01*
X249186D01*
Y63193D01*
D02*
G37*
G36*
X227360D02*
X215374D01*
Y57508D01*
X227360D01*
Y63193D01*
D02*
G37*
G36*
X213845D02*
X185654D01*
Y57508D01*
X213845D01*
Y63193D01*
D02*
G37*
G36*
X184125D02*
X169791D01*
Y57508D01*
X184125D01*
Y63193D01*
D02*
G37*
G36*
X168261D02*
X152115D01*
Y57508D01*
X168261D01*
Y63193D01*
D02*
G37*
G36*
X249186Y55979D02*
X228889D01*
Y14225D01*
X249186D01*
Y55979D01*
D02*
G37*
G36*
X227360D02*
X215374D01*
Y14225D01*
X227360D01*
Y55979D01*
D02*
G37*
G36*
X213845D02*
X185654D01*
Y14225D01*
X213845D01*
Y55979D01*
D02*
G37*
G36*
X184125D02*
X169791D01*
Y14225D01*
X184125D01*
Y55979D01*
D02*
G37*
G36*
X168261D02*
X152115D01*
Y14225D01*
X168261D01*
Y55979D01*
D02*
G37*
G36*
X249186Y12695D02*
X228889D01*
Y7011D01*
X249186D01*
Y12695D01*
D02*
G37*
G36*
X227360D02*
X215374D01*
Y7011D01*
X227360D01*
Y12695D01*
D02*
G37*
G36*
X213845D02*
X185654D01*
Y7011D01*
X213845D01*
Y12695D01*
D02*
G37*
G36*
X184125D02*
X169791D01*
Y7011D01*
X184125D01*
Y12695D01*
D02*
G37*
G36*
X168261D02*
X152115D01*
Y7011D01*
X168261D01*
Y12695D01*
D02*
G37*
%LPD*%
G36*
X157692Y55126D02*
X157786Y54900D01*
Y51694D01*
X157692Y51468D01*
X157466Y51374D01*
X154260D01*
X154034Y51468D01*
X153940Y51694D01*
Y54900D01*
X154034Y55126D01*
X154260Y55220D01*
X157466D01*
X157692Y55126D01*
D02*
G37*
G36*
X156604Y47871D02*
X157231Y47452D01*
X157651Y46824D01*
X157799Y46083D01*
X157651Y45342D01*
X157231Y44714D01*
X156604Y44295D01*
X155863Y44148D01*
X155122Y44295D01*
X154494Y44714D01*
X154075Y45342D01*
X153927Y46083D01*
X154075Y46824D01*
X154494Y47452D01*
X155122Y47871D01*
X155863Y48019D01*
X156604Y47871D01*
D02*
G37*
G36*
X156089Y40698D02*
X156797Y39990D01*
X157466D01*
X157692Y39897D01*
X157786Y39671D01*
X157692Y39445D01*
X157116Y38869D01*
X157692Y38294D01*
X157786Y38068D01*
X157692Y37842D01*
X157466Y37748D01*
X156797D01*
X156089Y37040D01*
X155863Y36946D01*
X155637Y37040D01*
X154929Y37748D01*
X154260D01*
X154034Y37842D01*
X153940Y38068D01*
X154034Y38294D01*
X154609Y38869D01*
X154034Y39445D01*
X153940Y39671D01*
X154034Y39897D01*
X154260Y39990D01*
X154929D01*
X155637Y40698D01*
X155863Y40792D01*
X156089Y40698D01*
D02*
G37*
G36*
X157585Y33546D02*
X157609Y33544D01*
X157675Y33468D01*
X157752Y33401D01*
X157754Y33378D01*
X157769Y33359D01*
X157762Y33258D01*
X157769Y33157D01*
X157754Y33139D01*
X157752Y33115D01*
X157022Y31655D01*
X157752Y30195D01*
X157754Y30171D01*
X157769Y30153D01*
X157762Y30052D01*
X157769Y29951D01*
X157754Y29933D01*
X157752Y29909D01*
X157675Y29843D01*
X157609Y29766D01*
X157585Y29765D01*
X157567Y29749D01*
X157466Y29756D01*
X157365Y29749D01*
X157347Y29765D01*
X157323Y29766D01*
X155863Y30496D01*
X154403Y29766D01*
X154379Y29765D01*
X154361Y29749D01*
X154260Y29756D01*
X154159Y29749D01*
X154141Y29765D01*
X154117Y29766D01*
X154051Y29843D01*
X153974Y29909D01*
X153972Y29933D01*
X153957Y29951D01*
X153964Y30052D01*
X153957Y30153D01*
X153972Y30171D01*
X153974Y30195D01*
X154704Y31655D01*
X153974Y33115D01*
X153972Y33139D01*
X153957Y33157D01*
X153964Y33258D01*
X153957Y33359D01*
X153972Y33378D01*
X153974Y33401D01*
X154051Y33468D01*
X154117Y33544D01*
X154141Y33546D01*
X154159Y33562D01*
X154260Y33554D01*
X154361Y33562D01*
X154379Y33546D01*
X154403Y33544D01*
X155863Y32814D01*
X157323Y33544D01*
X157347Y33546D01*
X157365Y33562D01*
X157466Y33554D01*
X157567Y33562D01*
X157585Y33546D01*
D02*
G37*
G36*
X156890Y26270D02*
X156984Y26044D01*
Y25563D01*
X157466D01*
X157692Y25469D01*
X157786Y25243D01*
Y23640D01*
X157692Y23414D01*
X157466Y23320D01*
X156984D01*
Y22838D01*
X156890Y22612D01*
X156665Y22519D01*
X155061D01*
X154835Y22612D01*
X154742Y22838D01*
Y23320D01*
X154260D01*
X154034Y23414D01*
X153940Y23640D01*
Y25243D01*
X154034Y25469D01*
X154260Y25563D01*
X154742D01*
Y26044D01*
X154835Y26270D01*
X155061Y26364D01*
X156665D01*
X156890Y26270D01*
D02*
G37*
G36*
X157535Y19122D02*
X157609Y19116D01*
X157643Y19077D01*
X157692Y19057D01*
X157720Y18988D01*
X157769Y18932D01*
X157765Y18879D01*
X157786Y18831D01*
X157757Y18762D01*
X157752Y18688D01*
X156149Y15481D01*
X156072Y15415D01*
X156006Y15338D01*
X155982Y15337D01*
X155964Y15321D01*
X155863Y15328D01*
X155762Y15321D01*
X155744Y15337D01*
X155720Y15338D01*
X155654Y15415D01*
X155577Y15481D01*
X153974Y18688D01*
X153969Y18762D01*
X153940Y18831D01*
X153960Y18879D01*
X153957Y18932D01*
X154005Y18988D01*
X154034Y19057D01*
X154082Y19077D01*
X154117Y19116D01*
X154191Y19122D01*
X154260Y19150D01*
X157466D01*
X157535Y19122D01*
D02*
G37*
%LPC*%
G36*
X157146Y54581D02*
X154579D01*
Y52014D01*
X157146D01*
Y54581D01*
D02*
G37*
G36*
X155863Y47366D02*
X155372Y47268D01*
X154956Y46990D01*
X154678Y46574D01*
X154580Y46083D01*
X154678Y45592D01*
X154956Y45176D01*
X155372Y44898D01*
X155863Y44801D01*
X156354Y44898D01*
X156770Y45176D01*
X157048Y45592D01*
X157145Y46083D01*
X157048Y46574D01*
X156770Y46990D01*
X156354Y47268D01*
X155863Y47366D01*
D02*
G37*
G36*
Y40020D02*
X155287Y39445D01*
X155061Y39351D01*
X155031D01*
X155287Y39095D01*
X155381Y38869D01*
X155287Y38643D01*
X155031Y38387D01*
X155061D01*
X155287Y38294D01*
X155863Y37718D01*
X156439Y38294D01*
X156665Y38387D01*
X156694D01*
X156439Y38643D01*
X156345Y38869D01*
X156439Y39095D01*
X156694Y39351D01*
X156665D01*
X156439Y39445D01*
X155863Y40020D01*
D02*
G37*
G36*
X156751Y32544D02*
X156006Y32171D01*
X155982Y32169D01*
X155964Y32154D01*
X155863Y32161D01*
X155762Y32154D01*
X155744Y32169D01*
X155720Y32171D01*
X154974Y32544D01*
X155347Y31798D01*
X155349Y31774D01*
X155365Y31756D01*
X155357Y31655D01*
X155365Y31554D01*
X155349Y31536D01*
X155347Y31512D01*
X154974Y30767D01*
X155720Y31140D01*
X155744Y31141D01*
X155762Y31157D01*
X155863Y31150D01*
X155964Y31157D01*
X155982Y31141D01*
X156006Y31140D01*
X156751Y30767D01*
X156379Y31512D01*
X156377Y31536D01*
X156361Y31554D01*
X156368Y31655D01*
X156361Y31756D01*
X156377Y31774D01*
X156379Y31798D01*
X156751Y32544D01*
D02*
G37*
G36*
X156345Y25725D02*
X155381D01*
Y25243D01*
X155287Y25017D01*
X155061Y24923D01*
X154579D01*
Y23959D01*
X155061D01*
X155287Y23866D01*
X155381Y23640D01*
Y23158D01*
X156345D01*
Y23640D01*
X156439Y23866D01*
X156665Y23959D01*
X157146D01*
Y24923D01*
X156665D01*
X156439Y25017D01*
X156345Y25243D01*
Y25725D01*
D02*
G37*
G36*
X156949Y18511D02*
X154777D01*
X155863Y16339D01*
X156949Y18511D01*
D02*
G37*
%LPD*%
D94*
X41614Y8688D02*
X42014Y9088D01*
X42414D01*
X42014Y9488D01*
X42414Y9888D01*
X42014D01*
X41614Y10288D01*
X41214Y9888D01*
X40814D01*
X41214Y9488D01*
X40814Y9088D01*
X41214D01*
X41614Y8688D01*
X46535D02*
X46935Y9088D01*
X47335D01*
X46935Y9488D01*
X47335Y9888D01*
X46935D01*
X46535Y10288D01*
X46135Y9888D01*
X45735D01*
X46135Y9488D01*
X45735Y9088D01*
X46135D01*
X46535Y8688D01*
X51457D02*
X51857Y9088D01*
X52257D01*
X51857Y9488D01*
X52257Y9888D01*
X51857D01*
X51457Y10288D01*
X51057Y9888D01*
X50657D01*
X51057Y9488D01*
X50657Y9088D01*
X51057D01*
X51457Y8688D01*
X66220D02*
X66620Y9088D01*
X67020D01*
X66620Y9488D01*
X67020Y9888D01*
X66620D01*
X66220Y10288D01*
X65820Y9888D01*
X65421D01*
X65820Y9488D01*
X65421Y9088D01*
X65820D01*
X66220Y8688D01*
X56378D02*
X56778Y9088D01*
X57178D01*
X56778Y9488D01*
X57178Y9888D01*
X56778D01*
X56378Y10288D01*
X55978Y9888D01*
X55578D01*
X55978Y9488D01*
X55578Y9088D01*
X55978D01*
X56378Y8688D01*
X61299D02*
X61699Y9088D01*
X62099D01*
X61699Y9488D01*
X62099Y9888D01*
X61699D01*
X61299Y10288D01*
X60899Y9888D01*
X60499D01*
X60899Y9488D01*
X60499Y9088D01*
X60899D01*
X61299Y8688D01*
X17035Y38984D02*
X17435Y39783D01*
X17035Y40584D01*
X17835Y40183D01*
X18635Y40584D01*
X18235Y39783D01*
X18635Y38984D01*
X17835Y39384D01*
X17035Y38984D01*
Y33983D02*
X17435Y34784D01*
X17035Y35583D01*
X17835Y35184D01*
X18635Y35583D01*
X18235Y34784D01*
X18635Y33983D01*
X17835Y34383D01*
X17035Y33983D01*
X12035Y38984D02*
X12435Y39783D01*
X12035Y40584D01*
X12835Y40183D01*
X13635Y40584D01*
X13235Y39783D01*
X13635Y38984D01*
X12835Y39384D01*
X12035Y38984D01*
Y33983D02*
X12435Y34784D01*
X12035Y35583D01*
X12835Y35184D01*
X13635Y35583D01*
X13235Y34784D01*
X13635Y33983D01*
X12835Y34383D01*
X12035Y33983D01*
X7035D02*
X7435Y34784D01*
X7035Y35583D01*
X7835Y35184D01*
X8635Y35583D01*
X8235Y34784D01*
X8635Y33983D01*
X7835Y34383D01*
X7035Y33983D01*
Y38984D02*
X7435Y39783D01*
X7035Y40584D01*
X7835Y40183D01*
X8635Y40584D01*
X8235Y39783D01*
X8635Y38984D01*
X7835Y39384D01*
X7035Y38984D01*
X80742Y103222D02*
Y102822D01*
X81542D01*
Y103222D01*
X81942D01*
Y104022D01*
X81542D01*
Y104422D01*
X80742D01*
Y104022D01*
X80342D01*
Y103222D01*
X80742D01*
X64994D02*
Y102822D01*
X65794D01*
Y103222D01*
X66194D01*
Y104022D01*
X65794D01*
Y104422D01*
X64994D01*
Y104022D01*
X64594D01*
Y103222D01*
X64994D01*
X57120D02*
Y102822D01*
X57920D01*
Y103222D01*
X58320D01*
Y104022D01*
X57920D01*
Y104422D01*
X57120D01*
Y104022D01*
X56720D01*
Y103222D01*
X57120D01*
X49246D02*
Y102822D01*
X50046D01*
Y103222D01*
X50446D01*
Y104022D01*
X50046D01*
Y104422D01*
X49246D01*
Y104022D01*
X48846D01*
Y103222D01*
X49246D01*
X41372D02*
Y102822D01*
X42172D01*
Y103222D01*
X42572D01*
Y104022D01*
X42172D01*
Y104422D01*
X41372D01*
Y104022D01*
X40972D01*
Y103222D01*
X41372D01*
X72868D02*
Y102822D01*
X73668D01*
Y103222D01*
X74068D01*
Y104022D01*
X73668D01*
Y104422D01*
X72868D01*
Y104022D01*
X72468D01*
Y103222D01*
X72868D01*
X60540Y77927D02*
X59740Y79527D01*
X61340D01*
X60540Y77927D01*
X71760Y16340D02*
X70960Y17940D01*
X72560D01*
X71760Y16340D01*
X29442Y56841D02*
X28642Y58441D01*
X30242D01*
X29442Y56841D01*
X32200Y54500D02*
X31400Y56100D01*
X33000D01*
X32200Y54500D01*
X58749Y59200D02*
X57949Y60800D01*
X59549D01*
X58749Y59200D01*
X76890Y32759D02*
X76090Y34359D01*
X77690D01*
X76890Y32759D01*
Y36303D02*
X76090Y37903D01*
X77690D01*
X76890Y36303D01*
Y39846D02*
X76090Y41446D01*
X77690D01*
X76890Y39846D01*
X76890Y43389D02*
X76090Y44989D01*
X77690D01*
X76890Y43389D01*
X80433D02*
X79633Y44989D01*
X81233D01*
X80433Y43389D01*
X83976D02*
X83176Y44989D01*
X84776D01*
X83976Y43389D01*
X87520D02*
X86720Y44989D01*
X88320D01*
X87520Y43389D01*
X80433Y39846D02*
X79633Y41446D01*
X81233D01*
X80433Y39846D01*
Y36303D02*
X79633Y37903D01*
X81233D01*
X80433Y36303D01*
Y32759D02*
X79633Y34359D01*
X81233D01*
X80433Y32759D01*
X83976Y39846D02*
X83176Y41446D01*
X84776D01*
X83976Y39846D01*
Y36303D02*
X83176Y37903D01*
X84776D01*
X83976Y36303D01*
Y32759D02*
X83176Y34359D01*
X84776D01*
X83976Y32759D01*
X87520Y39846D02*
X86720Y41446D01*
X88320D01*
X87520Y39846D01*
Y36303D02*
X86720Y37903D01*
X88320D01*
X87520Y36303D01*
Y32759D02*
X86720Y34359D01*
X88320D01*
X87520Y32759D01*
X95260Y72640D02*
X94460Y74240D01*
X96060D01*
X95260Y72640D01*
X98440Y69460D02*
X97640Y71060D01*
X99240D01*
X98440Y69460D01*
X95260D02*
X94460Y71060D01*
X96060D01*
X95260Y69460D01*
X33860Y23260D02*
X33060Y24860D01*
X34660D01*
X33860Y23260D01*
X40060D02*
X39260Y24860D01*
X40860D01*
X40060Y23260D01*
X36960D02*
X36160Y24860D01*
X37760D01*
X36960Y23260D01*
X49760D02*
X48960Y24860D01*
X50560D01*
X49760Y23260D01*
X45760D02*
X44960Y24860D01*
X46560D01*
X45760Y23260D01*
X68960Y4360D02*
X68160Y5960D01*
X69760D01*
X68960Y4360D01*
X65860D02*
X65060Y5960D01*
X66660D01*
X65860Y4360D01*
X64360Y2460D02*
X63560Y4060D01*
X65160D01*
X64360Y2460D01*
X67460D02*
X66660Y4060D01*
X68260D01*
X67460Y2460D01*
X70560D02*
X69760Y4060D01*
X71360D01*
X70560Y2460D01*
X73660D02*
X72860Y4060D01*
X74460D01*
X73660Y2460D01*
X48360Y95260D02*
X47560Y96860D01*
X49160D01*
X48360Y95260D01*
X51460D02*
X50660Y96860D01*
X52260D01*
X51460Y95260D01*
X16860Y3160D02*
X16060Y4760D01*
X17660D01*
X16860Y3160D01*
Y6260D02*
X16060Y7860D01*
X17660D01*
X16860Y6260D01*
X14160Y4760D02*
X13360Y6360D01*
X14960D01*
X14160Y4760D01*
Y7860D02*
X13360Y9460D01*
X14960D01*
X14160Y7860D01*
X16860Y9360D02*
X16060Y10960D01*
X17660D01*
X16860Y9360D01*
X7160Y22717D02*
X6360Y24317D01*
X7960D01*
X7160Y22717D01*
Y19760D02*
X6360Y21360D01*
X7960D01*
X7160Y19760D01*
X12260Y48560D02*
X11460Y50160D01*
X13060D01*
X12260Y48560D01*
X15360D02*
X14560Y50160D01*
X16160D01*
X15360Y48560D01*
X20260Y57560D02*
X19460Y59160D01*
X21060D01*
X20260Y57560D01*
Y54460D02*
X19460Y56060D01*
X21060D01*
X20260Y54460D01*
X23160Y56160D02*
X22360Y57760D01*
X23960D01*
X23160Y56160D01*
Y59260D02*
X22360Y60860D01*
X23960D01*
X23160Y59260D01*
X18400Y76943D02*
X17600Y78543D01*
X19200D01*
X18400Y76943D01*
X15300D02*
X14500Y78543D01*
X16100D01*
X15300Y76943D01*
X12200D02*
X11400Y78543D01*
X13000D01*
X12200Y76943D01*
X25269Y84769D02*
Y86369D01*
X26869D01*
Y84769D01*
X25269D01*
X31460Y95060D02*
X30660Y96660D01*
X32260D01*
X31460Y95060D01*
X13360Y101260D02*
X12560Y102860D01*
X14160D01*
X13360Y101260D01*
X16460D02*
X15660Y102860D01*
X17260D01*
X16460Y101260D01*
Y104360D02*
X15660Y105960D01*
X17260D01*
X16460Y104360D01*
Y107460D02*
X15660Y109060D01*
X17260D01*
X16460Y107460D01*
X36760Y95060D02*
X35960Y96660D01*
X37560D01*
X36760Y95060D01*
Y98160D02*
X35960Y99760D01*
X37560D01*
X36760Y98160D01*
Y101260D02*
X35960Y102860D01*
X37560D01*
X36760Y101260D01*
Y107460D02*
X35960Y109060D01*
X37560D01*
X36760Y107460D01*
Y104360D02*
X35960Y105960D01*
X37560D01*
X36760Y104360D01*
X95854Y33399D02*
X95054Y34999D01*
X96654D01*
X95854Y33399D01*
X84810Y75960D02*
X84010Y77560D01*
X85610D01*
X84810Y75960D01*
X107660Y93360D02*
X106860Y94960D01*
X108460D01*
X107660Y93360D01*
X111660D02*
X110860Y94960D01*
X112460D01*
X111660Y93360D01*
X115660Y95860D02*
X114860Y97460D01*
X116460D01*
X115660Y95860D01*
Y99860D02*
X114860Y101460D01*
X116460D01*
X115660Y99860D01*
Y103860D02*
X114860Y105460D01*
X116460D01*
X115660Y103860D01*
X111660D02*
X110860Y105460D01*
X112460D01*
X111660Y103860D01*
X107660D02*
X106860Y105460D01*
X108460D01*
X107660Y103860D01*
X123460Y93560D02*
X122660Y95160D01*
X124260D01*
X123460Y93560D01*
X120960Y95860D02*
X120160Y97460D01*
X121760D01*
X120960Y95860D01*
Y99860D02*
X120160Y101460D01*
X121760D01*
X120960Y99860D01*
Y103860D02*
X120160Y105460D01*
X121760D01*
X120960Y103860D01*
Y107860D02*
X120160Y109460D01*
X121760D01*
X120960Y107860D01*
X115660D02*
X114860Y109460D01*
X116460D01*
X115660Y107860D01*
X107660D02*
X106860Y109460D01*
X108460D01*
X107660Y107860D01*
X111660D02*
X110860Y109460D01*
X112460D01*
X111660Y107860D01*
X97560Y93260D02*
X96760Y94860D01*
X98360D01*
X97560Y93260D01*
X101160D02*
X100360Y94860D01*
X101960D01*
X101160Y93260D01*
X94260Y95960D02*
X93460Y97560D01*
X95060D01*
X94260Y95960D01*
X91160D02*
X90360Y97560D01*
X91960D01*
X91160Y95960D01*
Y99960D02*
X90360Y101560D01*
X91960D01*
X91160Y99960D01*
Y103960D02*
X90360Y105560D01*
X91960D01*
X91160Y103960D01*
Y107960D02*
X90360Y109560D01*
X91960D01*
X91160Y107960D01*
X94260Y99960D02*
X93460Y101560D01*
X95060D01*
X94260Y99960D01*
Y103960D02*
X93460Y105560D01*
X95060D01*
X94260Y103960D01*
X97760D02*
X96960Y105560D01*
X98560D01*
X97760Y103960D01*
X101760D02*
X100960Y105560D01*
X102560D01*
X101760Y103960D01*
X94260Y107960D02*
X93460Y109560D01*
X95060D01*
X94260Y107960D01*
X101760D02*
X100960Y109560D01*
X102560D01*
X101760Y107960D01*
X97760D02*
X96960Y109560D01*
X98560D01*
X97760Y107960D01*
X69960Y47360D02*
X69160Y48960D01*
X70760D01*
X69960Y47360D01*
X83260Y6060D02*
X82460Y7660D01*
X84060D01*
X83260Y6060D01*
Y9260D02*
X82460Y10860D01*
X84060D01*
X83260Y9260D01*
Y12460D02*
X82460Y14060D01*
X84060D01*
X83260Y12460D01*
Y15660D02*
X82460Y17260D01*
X84060D01*
X83260Y15660D01*
Y18860D02*
X82460Y20460D01*
X84060D01*
X83260Y18860D01*
X70602Y25377D02*
X69802Y26977D01*
X71402D01*
X70602Y25377D01*
X71760Y19060D02*
X70960Y20660D01*
X72560D01*
X71760Y19060D01*
X89460Y4960D02*
X88660Y6560D01*
X90260D01*
X89460Y4960D01*
Y8960D02*
X88660Y10560D01*
X90260D01*
X89460Y8960D01*
Y12960D02*
X88660Y14560D01*
X90260D01*
X89460Y12960D01*
Y20960D02*
X88660Y22560D01*
X90260D01*
X89460Y20960D01*
X93460D02*
X92660Y22560D01*
X94260D01*
X93460Y20960D01*
X97460D02*
X96660Y22560D01*
X98260D01*
X97460Y20960D01*
X89460Y16960D02*
X88660Y18560D01*
X90260D01*
X89460Y16960D01*
X93460D02*
X92660Y18560D01*
X94260D01*
X93460Y16960D01*
X97460D02*
X96660Y18560D01*
X98260D01*
X97460Y16960D01*
X73760Y52460D02*
X72960Y54060D01*
X74560D01*
X73760Y52460D01*
X77360D02*
X76560Y54060D01*
X78160D01*
X77360Y52460D01*
X102760Y16860D02*
X101960Y18460D01*
X103560D01*
X102760Y16860D01*
X106760D02*
X105960Y18460D01*
X107560D01*
X106760Y16860D01*
Y20860D02*
X105960Y22460D01*
X107560D01*
X106760Y20860D01*
X102760D02*
X101960Y22460D01*
X103560D01*
X102760Y20860D01*
X111260Y32860D02*
X110460Y34460D01*
X112060D01*
X111260Y32860D01*
X110760Y28860D02*
X109960Y30460D01*
X111560D01*
X110760Y28860D01*
Y24860D02*
X109960Y26460D01*
X111560D01*
X110760Y24860D01*
X106760D02*
X105960Y26460D01*
X107560D01*
X106760Y24860D01*
X102760D02*
X101960Y26460D01*
X103560D01*
X102760Y24860D01*
X112760Y17160D02*
X111960Y18760D01*
X113560D01*
X112760Y17160D01*
X116760D02*
X115960Y18760D01*
X117560D01*
X116760Y17160D01*
X120760Y4760D02*
X119960Y6360D01*
X121560D01*
X120760Y4760D01*
Y9160D02*
X119960Y10760D01*
X121560D01*
X120760Y9160D01*
Y13160D02*
X119960Y14760D01*
X121560D01*
X120760Y13160D01*
Y17160D02*
X119960Y18760D01*
X121560D01*
X120760Y17160D01*
X126760Y17360D02*
X125960Y18960D01*
X127560D01*
X126760Y17360D01*
Y21360D02*
X125960Y22960D01*
X127560D01*
X126760Y21360D01*
X123760Y24460D02*
X122960Y26060D01*
X124560D01*
X123760Y24460D01*
X120760Y20960D02*
X119960Y22560D01*
X121560D01*
X120760Y20960D01*
X116760D02*
X115960Y22560D01*
X117560D01*
X116760Y20960D01*
X119760Y24460D02*
X118960Y26060D01*
X120560D01*
X119760Y24460D01*
X115760D02*
X114960Y26060D01*
X116560D01*
X115760Y24460D01*
X119760Y28960D02*
X118960Y30560D01*
X120560D01*
X119760Y28960D01*
X115760D02*
X114960Y30560D01*
X116560D01*
X115760Y28960D01*
X119760Y32960D02*
X118960Y34560D01*
X120560D01*
X119760Y32960D01*
X115760D02*
X114960Y34560D01*
X116560D01*
X115760Y32960D01*
X80660Y58960D02*
X79860Y60560D01*
X81460D01*
X80660Y58960D01*
Y62960D02*
X79860Y64560D01*
X81460D01*
X80660Y62960D01*
X96260Y48660D02*
X95460Y50260D01*
X97060D01*
X96260Y48660D01*
X101260D02*
X100460Y50260D01*
X102060D01*
X101260Y48660D01*
X96260Y44660D02*
X95460Y46260D01*
X97060D01*
X96260Y44660D01*
X101260D02*
X100460Y46260D01*
X102060D01*
X101260Y44660D01*
X84810Y72779D02*
X84010Y74379D01*
X85610D01*
X84810Y72779D01*
X76929Y77665D02*
X76129Y79265D01*
X77729D01*
X76929Y77665D01*
X56913Y51702D02*
X56113Y53302D01*
X57713D01*
X56913Y51702D01*
X43055Y29178D02*
X42255Y30778D01*
X43855D01*
X43055Y29178D01*
X20074Y63856D02*
X19274Y65456D01*
X20874D01*
X20074Y63856D01*
X22684Y66225D02*
X21884Y67825D01*
X23484D01*
X22684Y66225D01*
X60287Y18206D02*
X59487Y19806D01*
X61088D01*
X60287Y18206D01*
X66433Y32460D02*
X65633Y34060D01*
X67233D01*
X66433Y32460D01*
X64643Y70668D02*
X63843Y72268D01*
X65443D01*
X64643Y70668D01*
X60282Y39140D02*
X59482Y40740D01*
X61082D01*
X60282Y39140D01*
X84282Y51692D02*
X83482Y53292D01*
X85082D01*
X84282Y51692D01*
X95984Y38058D02*
X95184Y39658D01*
X96784D01*
X95984Y38058D01*
X62953Y38019D02*
X62153Y39619D01*
X63753D01*
X62953Y38019D01*
D96*
X110170Y99488D02*
X109617Y100249D01*
X108723Y99958D01*
Y99018D01*
X109617Y98727D01*
X110170Y99488D01*
X100328D02*
X99775Y100249D01*
X98880Y99958D01*
Y99018D01*
X99775Y98727D01*
X100328Y99488D01*
X95524Y10315D02*
X94972Y11076D01*
X94077Y10785D01*
Y9845D01*
X94972Y9554D01*
X95524Y10315D01*
X105367D02*
X104814Y11076D01*
X103920Y10785D01*
Y9845D01*
X104814Y9554D01*
X105367Y10315D01*
X115209D02*
X114657Y11076D01*
X113762Y10785D01*
Y9845D01*
X114657Y9554D01*
X115209Y10315D01*
M02*
